G04 #@! TF.FileFunction,Copper,L1,Top,Signal*
%FSLAX46Y46*%
G04 Gerber Fmt 4.6, Leading zero omitted, Abs format (unit mm)*
G04 Created by KiCad (PCBNEW 4.0.2-4+6225~38~ubuntu14.04.1-stable) date Wed 02 Mar 2016 03:50:32 PM CST*
%MOMM*%
G01*
G04 APERTURE LIST*
%ADD10C,0.100000*%
%ADD11R,1.550000X0.250000*%
%ADD12R,3.100000X5.180000*%
%ADD13R,1.727200X1.727200*%
%ADD14O,1.727200X1.727200*%
%ADD15R,1.300000X1.500000*%
%ADD16R,0.500000X0.900000*%
%ADD17R,0.750000X0.800000*%
%ADD18R,0.800000X0.750000*%
%ADD19R,1.727200X2.032000*%
%ADD20O,1.727200X2.032000*%
%ADD21R,0.900000X0.500000*%
%ADD22C,2.000000*%
%ADD23R,0.250000X0.750000*%
%ADD24R,2.032000X2.032000*%
%ADD25O,2.032000X2.032000*%
%ADD26O,0.899160X1.501140*%
%ADD27R,0.500000X0.400000*%
%ADD28R,1.219200X0.914400*%
%ADD29R,1.200000X1.200000*%
%ADD30R,1.500000X1.600000*%
%ADD31C,1.300000*%
%ADD32R,1.300000X1.300000*%
%ADD33R,1.500000X1.300000*%
%ADD34R,2.800000X2.400000*%
%ADD35C,2.600000*%
%ADD36C,2.800000*%
%ADD37C,0.914400*%
%ADD38C,0.685800*%
%ADD39C,0.762000*%
%ADD40C,2.032000*%
%ADD41C,1.270000*%
%ADD42C,0.381000*%
%ADD43C,0.508000*%
%ADD44C,0.254000*%
%ADD45C,0.228600*%
G04 APERTURE END LIST*
D10*
D11*
X173494000Y-127558800D03*
X173494000Y-128208800D03*
X173494000Y-128858800D03*
X173494000Y-129508800D03*
X173494000Y-130158800D03*
X173494000Y-130808800D03*
X173494000Y-131458800D03*
X173494000Y-132108800D03*
X173494000Y-132758800D03*
X173494000Y-133408800D03*
X173494000Y-134058800D03*
X173494000Y-134708800D03*
X173494000Y-135358800D03*
X173494000Y-136008800D03*
X167894000Y-127558800D03*
X167894000Y-128208800D03*
X167894000Y-128858800D03*
X167894000Y-129508800D03*
X167894000Y-130158800D03*
X167894000Y-130808800D03*
X167894000Y-131458800D03*
X167894000Y-132108800D03*
X167894000Y-132758800D03*
X167894000Y-133408800D03*
X167894000Y-134058800D03*
X167894000Y-134708800D03*
X167894000Y-135358800D03*
X167894000Y-136008800D03*
D12*
X170694000Y-131813800D03*
D13*
X179578000Y-94996000D03*
D14*
X182118000Y-94996000D03*
X179578000Y-97536000D03*
X182118000Y-97536000D03*
X179578000Y-100076000D03*
X182118000Y-100076000D03*
X179578000Y-102616000D03*
X182118000Y-102616000D03*
X179578000Y-105156000D03*
X182118000Y-105156000D03*
X179578000Y-107696000D03*
X182118000Y-107696000D03*
X179578000Y-110236000D03*
X182118000Y-110236000D03*
X179578000Y-112776000D03*
X182118000Y-112776000D03*
X179578000Y-115316000D03*
X182118000Y-115316000D03*
X179578000Y-117856000D03*
X182118000Y-117856000D03*
X179578000Y-120396000D03*
X182118000Y-120396000D03*
X179578000Y-122936000D03*
X182118000Y-122936000D03*
X179578000Y-125476000D03*
X182118000Y-125476000D03*
X179578000Y-128016000D03*
X182118000Y-128016000D03*
X179578000Y-130556000D03*
X182118000Y-130556000D03*
X179578000Y-133096000D03*
X182118000Y-133096000D03*
X179578000Y-135636000D03*
X182118000Y-135636000D03*
X179578000Y-138176000D03*
X182118000Y-138176000D03*
X179578000Y-140716000D03*
X182118000Y-140716000D03*
X179578000Y-143256000D03*
X182118000Y-143256000D03*
D15*
X173482000Y-94154000D03*
X173482000Y-96854000D03*
D16*
X163945000Y-130733800D03*
X162445000Y-130733800D03*
D17*
X161925000Y-127697800D03*
X161925000Y-129197800D03*
X164084000Y-92976000D03*
X164084000Y-94476000D03*
X162306000Y-107176000D03*
X162306000Y-105676000D03*
D18*
X175526000Y-101854000D03*
X177026000Y-101854000D03*
D17*
X175768000Y-94500000D03*
X175768000Y-96000000D03*
X161925000Y-135801800D03*
X161925000Y-134301800D03*
X164973000Y-127697800D03*
X164973000Y-129197800D03*
X166243000Y-127546800D03*
X166243000Y-126046800D03*
X173990000Y-137426000D03*
X173990000Y-138926000D03*
D19*
X164846000Y-139369800D03*
D20*
X162306000Y-139369800D03*
X159766000Y-139369800D03*
X157226000Y-139369800D03*
D21*
X163449000Y-127697800D03*
X163449000Y-129197800D03*
D16*
X163945000Y-132765800D03*
X162445000Y-132765800D03*
D15*
X173482000Y-103204000D03*
X173482000Y-100504000D03*
D22*
X155956000Y-98806000D03*
X153416000Y-98806000D03*
X150876000Y-98806000D03*
D23*
X175514000Y-97230000D03*
X176014000Y-97230000D03*
X176514000Y-97230000D03*
X177014000Y-97230000D03*
X175514000Y-100330000D03*
X176014000Y-100330000D03*
X176514000Y-100330000D03*
X177014000Y-100330000D03*
D24*
X149606000Y-128143000D03*
D25*
X149606000Y-130683000D03*
D26*
X155448000Y-133858000D03*
X156718000Y-133858000D03*
X154178000Y-133858000D03*
D27*
X170180000Y-106680000D03*
X170180000Y-106030000D03*
X170180000Y-105380000D03*
X168280000Y-106680000D03*
X168280000Y-106030000D03*
X168280000Y-105380000D03*
D28*
X152781000Y-128143000D03*
X152781000Y-130505200D03*
D13*
X162814000Y-101854000D03*
D14*
X162814000Y-99314000D03*
X165354000Y-101854000D03*
X165354000Y-99314000D03*
X167894000Y-101854000D03*
X167894000Y-99314000D03*
X170434000Y-101854000D03*
X170434000Y-99314000D03*
D29*
X171472000Y-140192000D03*
X171472000Y-138192000D03*
D30*
X168422000Y-139192000D03*
D29*
X153692000Y-141716000D03*
X153692000Y-139716000D03*
D30*
X150642000Y-140716000D03*
D31*
X149606000Y-120944000D03*
D32*
X149606000Y-123444000D03*
D31*
X156885000Y-125476000D03*
D32*
X159385000Y-125476000D03*
D33*
X153496000Y-137160000D03*
X150796000Y-137160000D03*
D17*
X162306000Y-94476000D03*
X162306000Y-92976000D03*
X164084000Y-107176000D03*
X164084000Y-105676000D03*
D34*
X150876000Y-104394000D03*
X156976000Y-104394000D03*
X150876000Y-115794000D03*
X156976000Y-115794000D03*
D35*
X150876000Y-110094000D03*
D36*
X155576000Y-110094000D03*
D13*
X167894000Y-110236000D03*
D14*
X170434000Y-110236000D03*
X167894000Y-112776000D03*
X170434000Y-112776000D03*
X167894000Y-115316000D03*
X170434000Y-115316000D03*
X167894000Y-117856000D03*
X170434000Y-117856000D03*
X167894000Y-120396000D03*
X170434000Y-120396000D03*
X167894000Y-122936000D03*
X170434000Y-122936000D03*
D37*
X164084000Y-95631000D03*
X166751000Y-95631000D03*
X148590000Y-115824000D03*
X150876000Y-113792000D03*
X153162000Y-115824000D03*
X150876000Y-117856000D03*
X156972000Y-113792000D03*
X154686000Y-115824000D03*
X156972000Y-117856000D03*
D38*
X155194000Y-139700000D03*
X171450000Y-141478000D03*
D37*
X162306000Y-95631000D03*
X164084000Y-108331000D03*
X162306000Y-108331000D03*
D38*
X169164000Y-105156000D03*
X171196000Y-106934000D03*
X171704000Y-132588000D03*
X169672000Y-132588000D03*
X171704000Y-131064000D03*
X169672000Y-131064000D03*
X170688000Y-132588000D03*
X170688000Y-131064000D03*
X171704000Y-133858000D03*
X169672000Y-133858000D03*
X170688000Y-133858000D03*
X170688000Y-129794000D03*
X169672000Y-129794000D03*
X173482000Y-126746000D03*
X171704000Y-129794000D03*
X161671000Y-131318000D03*
X161671000Y-132207000D03*
X161671000Y-130302000D03*
X161671000Y-133223000D03*
X176784000Y-94488000D03*
X175514000Y-102870000D03*
X161925000Y-126619000D03*
X167894000Y-136779000D03*
X160274000Y-135255000D03*
X173990000Y-139954000D03*
X174371000Y-101854000D03*
X174625000Y-99441000D03*
X177800000Y-97790000D03*
X165404800Y-133400800D03*
X166624000Y-133400800D03*
X165404800Y-132105400D03*
X166624000Y-132105400D03*
X164744400Y-131495800D03*
X166039800Y-131470400D03*
X164795200Y-130149600D03*
X166039800Y-130149600D03*
D39*
X162306000Y-105676000D02*
X158258000Y-105676000D01*
X158258000Y-105676000D02*
X156976000Y-104394000D01*
D40*
X156976000Y-104394000D02*
X156976000Y-99826000D01*
X156976000Y-99826000D02*
X155956000Y-98806000D01*
X156976000Y-104394000D02*
X150876000Y-104394000D01*
D41*
X149606000Y-123444000D02*
X149606000Y-128143000D01*
X159385000Y-125476000D02*
X159385000Y-121031000D01*
X159385000Y-121031000D02*
X160020000Y-120396000D01*
X156976000Y-104394000D02*
X156976000Y-106938000D01*
X160020000Y-109982000D02*
X160020000Y-120396000D01*
X156976000Y-106938000D02*
X160020000Y-109982000D01*
X156972000Y-123444000D02*
X149606000Y-123444000D01*
X160020000Y-120396000D02*
X156972000Y-123444000D01*
D42*
X161925000Y-129197800D02*
X163449000Y-129197800D01*
D39*
X164084000Y-105676000D02*
X162306000Y-105676000D01*
X165354000Y-101854000D02*
X165354000Y-104406000D01*
X165354000Y-104406000D02*
X164084000Y-105676000D01*
X152781000Y-128143000D02*
X149606000Y-128143000D01*
D41*
X149479000Y-128016000D02*
X149606000Y-128143000D01*
X159385000Y-125476000D02*
X159385000Y-127762000D01*
X159385000Y-127762000D02*
X160655000Y-129032000D01*
X159362140Y-125453140D02*
X159385000Y-125476000D01*
D42*
X167817800Y-134112000D02*
X166673400Y-134112000D01*
X166673400Y-134112000D02*
X166483600Y-134301800D01*
X167843200Y-129438400D02*
X165912800Y-129438400D01*
X165912800Y-129438400D02*
X165672200Y-129197800D01*
D43*
X164973000Y-129197800D02*
X165672200Y-129197800D01*
X165672200Y-129197800D02*
X165760400Y-129286000D01*
D39*
X161925000Y-134301800D02*
X166483600Y-134301800D01*
X166483600Y-134301800D02*
X166497000Y-134315200D01*
X161925000Y-129197800D02*
X164973000Y-129197800D01*
X161925000Y-134301800D02*
X161048000Y-134301800D01*
X161048000Y-129197800D02*
X161925000Y-129197800D01*
X160655000Y-129590800D02*
X161048000Y-129197800D01*
X160655000Y-133908800D02*
X160655000Y-130606800D01*
X160655000Y-130606800D02*
X160655000Y-129590800D01*
X161048000Y-134301800D02*
X160655000Y-133908800D01*
D43*
X161925000Y-134301800D02*
X161925000Y-134289800D01*
D39*
X164084000Y-95631000D02*
X164084000Y-94476000D01*
X150876000Y-115794000D02*
X148620000Y-115794000D01*
X148620000Y-115794000D02*
X148590000Y-115824000D01*
X150876000Y-115794000D02*
X150876000Y-113792000D01*
X150876000Y-115794000D02*
X153132000Y-115794000D01*
X153132000Y-115794000D02*
X153162000Y-115824000D01*
X150876000Y-115794000D02*
X150876000Y-117856000D01*
X156976000Y-115794000D02*
X156976000Y-113796000D01*
X156976000Y-113796000D02*
X156972000Y-113792000D01*
X156976000Y-115794000D02*
X154716000Y-115794000D01*
X154716000Y-115794000D02*
X154686000Y-115824000D01*
X156976000Y-115794000D02*
X156976000Y-117852000D01*
X156976000Y-117852000D02*
X156972000Y-117856000D01*
D43*
X153692000Y-139716000D02*
X155178000Y-139716000D01*
X155178000Y-139716000D02*
X155194000Y-139700000D01*
D44*
X171472000Y-140192000D02*
X171472000Y-141456000D01*
X171472000Y-141456000D02*
X171450000Y-141478000D01*
D39*
X162306000Y-94476000D02*
X162306000Y-95631000D01*
X164084000Y-107176000D02*
X164084000Y-108331000D01*
X162306000Y-107176000D02*
X162306000Y-108331000D01*
D42*
X168280000Y-105380000D02*
X168940000Y-105380000D01*
X168940000Y-105380000D02*
X169164000Y-105156000D01*
X170180000Y-106680000D02*
X170942000Y-106680000D01*
X170942000Y-106680000D02*
X171196000Y-106934000D01*
D44*
X171704000Y-132588000D02*
X170929800Y-131813800D01*
X170929800Y-131813800D02*
X170694000Y-131813800D01*
X169672000Y-132588000D02*
X170446200Y-131813800D01*
X170446200Y-131813800D02*
X170694000Y-131813800D01*
X171704000Y-131064000D02*
X170954200Y-131813800D01*
X170954200Y-131813800D02*
X170694000Y-131813800D01*
X169672000Y-131064000D02*
X170421800Y-131813800D01*
X170421800Y-131813800D02*
X170694000Y-131813800D01*
X170688000Y-132588000D02*
X170694000Y-132582000D01*
X170694000Y-132582000D02*
X170694000Y-131813800D01*
X170688000Y-131064000D02*
X170694000Y-131070000D01*
X170694000Y-131070000D02*
X170694000Y-131813800D01*
X171704000Y-133858000D02*
X170694000Y-132848000D01*
X170694000Y-132848000D02*
X170694000Y-131813800D01*
X169672000Y-133858000D02*
X170694000Y-132836000D01*
X170694000Y-132836000D02*
X170694000Y-131813800D01*
X170688000Y-133858000D02*
X170694000Y-133852000D01*
X170694000Y-133852000D02*
X170694000Y-131813800D01*
X170688000Y-129794000D02*
X170694000Y-129800000D01*
X170694000Y-129800000D02*
X170694000Y-131813800D01*
X169672000Y-129794000D02*
X170694000Y-130816000D01*
X170694000Y-130816000D02*
X170694000Y-131813800D01*
X173494000Y-126758000D02*
X173482000Y-126746000D01*
X173494000Y-127558800D02*
X173494000Y-126758000D01*
X171704000Y-129794000D02*
X170694000Y-130804000D01*
X170694000Y-130804000D02*
X170694000Y-131813800D01*
D43*
X162445000Y-130733800D02*
X162255200Y-130733800D01*
X162255200Y-130733800D02*
X161671000Y-131318000D01*
X162445000Y-132765800D02*
X162229800Y-132765800D01*
X162229800Y-132765800D02*
X161671000Y-132207000D01*
X161671000Y-132207000D02*
X161671000Y-131318000D01*
X162445000Y-130733800D02*
X162102800Y-130733800D01*
X162102800Y-130733800D02*
X161671000Y-130302000D01*
X161671000Y-131318000D02*
X161671000Y-130302000D01*
X162128200Y-132765800D02*
X162445000Y-132765800D01*
X162128200Y-132765800D02*
X161671000Y-133223000D01*
X161671000Y-132207000D02*
X161671000Y-133223000D01*
D44*
X175768000Y-94500000D02*
X176772000Y-94500000D01*
X176772000Y-94500000D02*
X176784000Y-94488000D01*
X175526000Y-101854000D02*
X175526000Y-102858000D01*
X175526000Y-102858000D02*
X175514000Y-102870000D01*
X161925000Y-127697800D02*
X161925000Y-126619000D01*
X167894000Y-136008800D02*
X167894000Y-136779000D01*
D42*
X161925000Y-135801800D02*
X160820800Y-135801800D01*
X160820800Y-135801800D02*
X160274000Y-135255000D01*
D44*
X173990000Y-138926000D02*
X173990000Y-139954000D01*
X176014000Y-100330000D02*
X176014000Y-101366000D01*
X176014000Y-101366000D02*
X175526000Y-101854000D01*
X170688500Y-131813800D02*
X170694000Y-131813800D01*
X171703500Y-131813800D02*
X170694000Y-131813800D01*
X170688000Y-133908800D02*
X170694000Y-133902800D01*
D42*
X165354000Y-99314000D02*
X166624000Y-100584000D01*
X166624000Y-100584000D02*
X166624000Y-106172000D01*
X166624000Y-106172000D02*
X165735000Y-107061000D01*
X165735000Y-107061000D02*
X165735000Y-121158000D01*
X165735000Y-121158000D02*
X167513000Y-122936000D01*
X167513000Y-122936000D02*
X167894000Y-122936000D01*
D40*
X150876000Y-98806000D02*
X150876000Y-96774000D01*
X155194000Y-92456000D02*
X162306000Y-92456000D01*
X150876000Y-96774000D02*
X155194000Y-92456000D01*
X182118000Y-94996000D02*
X182118000Y-97536000D01*
D44*
X176014000Y-97230000D02*
X176014000Y-98052000D01*
X174371000Y-101854000D02*
X173482000Y-102743000D01*
X176014000Y-98052000D02*
X174625000Y-99441000D01*
X173482000Y-102743000D02*
X173482000Y-103204000D01*
D43*
X175328000Y-96000000D02*
X173482000Y-94154000D01*
X175768000Y-96000000D02*
X175328000Y-96000000D01*
D42*
X164084000Y-92976000D02*
X172304000Y-92976000D01*
X172304000Y-92976000D02*
X173482000Y-94154000D01*
X164084000Y-92976000D02*
X164084000Y-92456000D01*
X162306000Y-92976000D02*
X162306000Y-92456000D01*
X162306000Y-92456000D02*
X162306000Y-92329000D01*
X162306000Y-92329000D02*
X162306000Y-92456000D01*
D40*
X162306000Y-92456000D02*
X164084000Y-92456000D01*
D39*
X165342000Y-96774000D02*
X165342000Y-93714000D01*
X165342000Y-93714000D02*
X164084000Y-92456000D01*
X165354000Y-99314000D02*
X165354000Y-96786000D01*
D40*
X182118000Y-93472000D02*
X182118000Y-97536000D01*
X181102000Y-92456000D02*
X182118000Y-93472000D01*
X164084000Y-92456000D02*
X165354000Y-92456000D01*
X165354000Y-92456000D02*
X181102000Y-92456000D01*
D44*
X176014000Y-97230000D02*
X176014000Y-96246000D01*
X176014000Y-96246000D02*
X175768000Y-96000000D01*
X176014000Y-95762000D02*
X176010000Y-95758000D01*
X176514000Y-97230000D02*
X176514000Y-100330000D01*
X176514000Y-100330000D02*
X176514000Y-101342000D01*
X176514000Y-101342000D02*
X177026000Y-101854000D01*
X176514000Y-97230000D02*
X176514000Y-96790000D01*
X178308000Y-94996000D02*
X179578000Y-94996000D01*
X176514000Y-96790000D02*
X178308000Y-94996000D01*
X164973000Y-127697800D02*
X163449000Y-127697800D01*
X167894000Y-128858800D02*
X166134000Y-128858800D01*
X166134000Y-128858800D02*
X164973000Y-127697800D01*
X167894000Y-128208800D02*
X166905000Y-128208800D01*
X166905000Y-128208800D02*
X166243000Y-127546800D01*
X167894000Y-127558800D02*
X167755000Y-127558800D01*
X167755000Y-127558800D02*
X166243000Y-126046800D01*
X171472000Y-138192000D02*
X172232000Y-138192000D01*
X172232000Y-138192000D02*
X173494000Y-136930000D01*
X173494000Y-136008800D02*
X173494000Y-136930000D01*
X173494000Y-136930000D02*
X173990000Y-137426000D01*
X171730000Y-137934000D02*
X171472000Y-138192000D01*
X174002000Y-137414000D02*
X173990000Y-137426000D01*
X173482000Y-100504000D02*
X169084000Y-100504000D01*
X169084000Y-100504000D02*
X167894000Y-99314000D01*
X175514000Y-100330000D02*
X173656000Y-100330000D01*
X173656000Y-100330000D02*
X173402000Y-100584000D01*
X173656000Y-100330000D02*
X173482000Y-100504000D01*
X170434000Y-99314000D02*
X171022000Y-99314000D01*
X171022000Y-99314000D02*
X173482000Y-96854000D01*
X175514000Y-97230000D02*
X173858000Y-97230000D01*
X177014000Y-100330000D02*
X177014000Y-100100000D01*
X177014000Y-100100000D02*
X179578000Y-97536000D01*
X177014000Y-97230000D02*
X177240000Y-97230000D01*
X177240000Y-97230000D02*
X177800000Y-97790000D01*
X173494000Y-128858800D02*
X175941200Y-128858800D01*
X180848000Y-124206000D02*
X182118000Y-122936000D01*
X179070000Y-124206000D02*
X180848000Y-124206000D01*
X178308000Y-124968000D02*
X179070000Y-124206000D01*
X178308000Y-126492000D02*
X178308000Y-124968000D01*
X175941200Y-128858800D02*
X178308000Y-126492000D01*
X173494000Y-129508800D02*
X178593200Y-129508800D01*
X180848000Y-126746000D02*
X182118000Y-125476000D01*
X180848000Y-128524000D02*
X180848000Y-126746000D01*
X180086000Y-129286000D02*
X180848000Y-128524000D01*
X178816000Y-129286000D02*
X180086000Y-129286000D01*
X178593200Y-129508800D02*
X178816000Y-129286000D01*
X173494000Y-130158800D02*
X179180800Y-130158800D01*
X179180800Y-130158800D02*
X179578000Y-130556000D01*
X173494000Y-131458800D02*
X176924800Y-131458800D01*
X180848000Y-131826000D02*
X182118000Y-133096000D01*
X177292000Y-131826000D02*
X180848000Y-131826000D01*
X176924800Y-131458800D02*
X177292000Y-131826000D01*
X173494000Y-132108800D02*
X176558800Y-132108800D01*
X177546000Y-133096000D02*
X179578000Y-133096000D01*
X176558800Y-132108800D02*
X177546000Y-133096000D01*
X173494000Y-132758800D02*
X176192800Y-132758800D01*
X176192800Y-132758800D02*
X179070000Y-135636000D01*
X179070000Y-135636000D02*
X179578000Y-135636000D01*
X173494000Y-133408800D02*
X175826800Y-133408800D01*
X180848000Y-136906000D02*
X182118000Y-138176000D01*
X178562000Y-136906000D02*
X180848000Y-136906000D01*
X178054000Y-136398000D02*
X178562000Y-136906000D01*
X178054000Y-135636000D02*
X178054000Y-136398000D01*
X175826800Y-133408800D02*
X178054000Y-135636000D01*
X173494000Y-134058800D02*
X175460800Y-134058800D01*
X177292000Y-136652000D02*
X178816000Y-138176000D01*
X177292000Y-135890000D02*
X177292000Y-136652000D01*
X175460800Y-134058800D02*
X177292000Y-135890000D01*
X178816000Y-138176000D02*
X179578000Y-138176000D01*
X173494000Y-134708800D02*
X175094800Y-134708800D01*
X180848000Y-139446000D02*
X182118000Y-140716000D01*
X179070000Y-139446000D02*
X180848000Y-139446000D01*
X176530000Y-136906000D02*
X179070000Y-139446000D01*
X176530000Y-136144000D02*
X176530000Y-136906000D01*
X175094800Y-134708800D02*
X176530000Y-136144000D01*
X173494000Y-135358800D02*
X174728800Y-135358800D01*
X175768000Y-137160000D02*
X179324000Y-140716000D01*
X175768000Y-136398000D02*
X175768000Y-137160000D01*
X174728800Y-135358800D02*
X175768000Y-136398000D01*
X179324000Y-140716000D02*
X179578000Y-140716000D01*
D42*
X165412800Y-133408800D02*
X165404800Y-133400800D01*
X165412800Y-133408800D02*
X166624000Y-133408800D01*
X166624000Y-133408800D02*
X166624000Y-133400800D01*
X166624000Y-133400800D02*
X166624000Y-133408800D01*
X167894000Y-133408800D02*
X166624000Y-133408800D01*
X165506400Y-132207000D02*
X165404800Y-132105400D01*
X166624000Y-132207000D02*
X165506400Y-132207000D01*
X166624000Y-132207000D02*
X166624000Y-132105400D01*
X166624000Y-132105400D02*
X166624000Y-132207000D01*
X167894000Y-132108800D02*
X167230200Y-132108800D01*
X167230200Y-132108800D02*
X167132000Y-132207000D01*
X167132000Y-132207000D02*
X166624000Y-132207000D01*
X164871400Y-131368800D02*
X164744400Y-131495800D01*
X166039800Y-131368800D02*
X164871400Y-131368800D01*
X166039800Y-131368800D02*
X166039800Y-131470400D01*
X166039800Y-131470400D02*
X166039800Y-131368800D01*
X167894000Y-131458800D02*
X167247400Y-131458800D01*
X167247400Y-131458800D02*
X167157400Y-131368800D01*
X167157400Y-131368800D02*
X166039800Y-131368800D01*
X164804400Y-130158800D02*
X166039800Y-130158800D01*
X164804400Y-130158800D02*
X164795200Y-130149600D01*
X166039800Y-130158800D02*
X166039800Y-130149600D01*
X166039800Y-130149600D02*
X166039800Y-130158800D01*
X167894000Y-130158800D02*
X166039800Y-130158800D01*
D44*
X167894000Y-130808800D02*
X164020000Y-130808800D01*
X164020000Y-130808800D02*
X163945000Y-130733800D01*
X167894000Y-132758800D02*
X163952000Y-132758800D01*
X163952000Y-132758800D02*
X163945000Y-132765800D01*
X173494000Y-128208800D02*
X175575200Y-128208800D01*
X177546000Y-124714000D02*
X179324000Y-122936000D01*
X177546000Y-126238000D02*
X177546000Y-124714000D01*
X175575200Y-128208800D02*
X177546000Y-126238000D01*
X179324000Y-122936000D02*
X179578000Y-122936000D01*
X168422000Y-139192000D02*
X168422000Y-138450000D01*
X168422000Y-138450000D02*
X166624000Y-136652000D01*
X166624000Y-136652000D02*
X166624000Y-135636000D01*
X166624000Y-135636000D02*
X166901200Y-135358800D01*
X166901200Y-135358800D02*
X167894000Y-135358800D01*
X168632800Y-135358800D02*
X167894000Y-135358800D01*
X167894000Y-134708800D02*
X167894000Y-135358800D01*
D39*
X154178000Y-133858000D02*
X154178000Y-131902200D01*
X154178000Y-131902200D02*
X152781000Y-130505200D01*
X152781000Y-130505200D02*
X149783800Y-130505200D01*
X149783800Y-130505200D02*
X149606000Y-130683000D01*
D42*
X168280000Y-106680000D02*
X167894000Y-106680000D01*
X167386000Y-106172000D02*
X167386000Y-102362000D01*
X167894000Y-106680000D02*
X167386000Y-106172000D01*
X167386000Y-102362000D02*
X167894000Y-101854000D01*
X170180000Y-105380000D02*
X170180000Y-102108000D01*
X170180000Y-102108000D02*
X170434000Y-101854000D01*
X179578000Y-117856000D02*
X170434000Y-117856000D01*
X179578000Y-120396000D02*
X170434000Y-120396000D01*
D43*
X155448000Y-133858000D02*
X155448000Y-135208000D01*
X155448000Y-135208000D02*
X153496000Y-137160000D01*
X150642000Y-140716000D02*
X150642000Y-137314000D01*
X150642000Y-137314000D02*
X150796000Y-137160000D01*
D42*
X182118000Y-112776000D02*
X181864000Y-112776000D01*
X181864000Y-112776000D02*
X180594000Y-114046000D01*
X180594000Y-114046000D02*
X169164000Y-114046000D01*
X169164000Y-114046000D02*
X167894000Y-115316000D01*
X182118000Y-115316000D02*
X180848000Y-116586000D01*
X169418000Y-116586000D02*
X168148000Y-117856000D01*
X180848000Y-116586000D02*
X169418000Y-116586000D01*
X168148000Y-117856000D02*
X167894000Y-117856000D01*
X182118000Y-120396000D02*
X180848000Y-119126000D01*
X169164000Y-119126000D02*
X167894000Y-120396000D01*
X180848000Y-119126000D02*
X169164000Y-119126000D01*
X182118000Y-107696000D02*
X180848000Y-108966000D01*
X177038000Y-110236000D02*
X170434000Y-110236000D01*
X178308000Y-108966000D02*
X177038000Y-110236000D01*
X180848000Y-108966000D02*
X178308000Y-108966000D01*
X179578000Y-110236000D02*
X178308000Y-111506000D01*
X169164000Y-111506000D02*
X167894000Y-112776000D01*
X178308000Y-111506000D02*
X169164000Y-111506000D01*
X179578000Y-112776000D02*
X170434000Y-112776000D01*
X179578000Y-115316000D02*
X170434000Y-115316000D01*
X170180000Y-106030000D02*
X176164000Y-106030000D01*
X176164000Y-106030000D02*
X179578000Y-102616000D01*
X168280000Y-106030000D02*
X168768000Y-106030000D01*
X169672000Y-107696000D02*
X179578000Y-107696000D01*
X168910000Y-106934000D02*
X169672000Y-107696000D01*
X168910000Y-106172000D02*
X168910000Y-106934000D01*
X168768000Y-106030000D02*
X168910000Y-106172000D01*
D43*
X182118000Y-143256000D02*
X181610000Y-143256000D01*
X181610000Y-143256000D02*
X180086000Y-144780000D01*
X156756000Y-144780000D02*
X153692000Y-141716000D01*
X180086000Y-144780000D02*
X156756000Y-144780000D01*
D45*
G36*
X183972200Y-145872200D02*
X145592800Y-145872200D01*
X145592800Y-139916000D01*
X149516485Y-139916000D01*
X149516485Y-141516000D01*
X149542166Y-141652484D01*
X149622828Y-141777836D01*
X149745904Y-141861930D01*
X149892000Y-141891515D01*
X151392000Y-141891515D01*
X151528484Y-141865834D01*
X151653836Y-141785172D01*
X151737930Y-141662096D01*
X151767515Y-141516000D01*
X151767515Y-141116000D01*
X152716485Y-141116000D01*
X152716485Y-142316000D01*
X152742166Y-142452484D01*
X152822828Y-142577836D01*
X152945904Y-142661930D01*
X153092000Y-142691515D01*
X153787449Y-142691515D01*
X156315965Y-145220030D01*
X156315967Y-145220033D01*
X156517856Y-145354930D01*
X156756000Y-145402300D01*
X180085995Y-145402300D01*
X180086000Y-145402301D01*
X180324144Y-145354930D01*
X180526033Y-145220033D01*
X181460285Y-144285780D01*
X181622438Y-144394127D01*
X182093866Y-144487900D01*
X182142134Y-144487900D01*
X182613562Y-144394127D01*
X183013219Y-144127085D01*
X183280261Y-143727428D01*
X183374034Y-143256000D01*
X183280261Y-142784572D01*
X183013219Y-142384915D01*
X182613562Y-142117873D01*
X182142134Y-142024100D01*
X182093866Y-142024100D01*
X181622438Y-142117873D01*
X181222781Y-142384915D01*
X180955739Y-142784572D01*
X180894750Y-143091185D01*
X179828234Y-144157700D01*
X157013765Y-144157700D01*
X154667515Y-141811449D01*
X154667515Y-141116000D01*
X154641834Y-140979516D01*
X154561172Y-140854164D01*
X154438096Y-140770070D01*
X154292000Y-140740485D01*
X153092000Y-140740485D01*
X152955516Y-140766166D01*
X152830164Y-140846828D01*
X152746070Y-140969904D01*
X152716485Y-141116000D01*
X151767515Y-141116000D01*
X151767515Y-139916000D01*
X151741834Y-139779516D01*
X151661172Y-139654164D01*
X151538096Y-139570070D01*
X151392000Y-139540485D01*
X151264300Y-139540485D01*
X151264300Y-139190280D01*
X155994100Y-139190280D01*
X155994100Y-139549320D01*
X156087873Y-140020748D01*
X156354915Y-140420405D01*
X156754572Y-140687447D01*
X157226000Y-140781220D01*
X157697428Y-140687447D01*
X158097085Y-140420405D01*
X158364127Y-140020748D01*
X158457900Y-139549320D01*
X158457900Y-139190280D01*
X158534100Y-139190280D01*
X158534100Y-139549320D01*
X158627873Y-140020748D01*
X158894915Y-140420405D01*
X159294572Y-140687447D01*
X159766000Y-140781220D01*
X160237428Y-140687447D01*
X160637085Y-140420405D01*
X160904127Y-140020748D01*
X160997900Y-139549320D01*
X160997900Y-139190280D01*
X161074100Y-139190280D01*
X161074100Y-139549320D01*
X161167873Y-140020748D01*
X161434915Y-140420405D01*
X161834572Y-140687447D01*
X162306000Y-140781220D01*
X162777428Y-140687447D01*
X163177085Y-140420405D01*
X163444127Y-140020748D01*
X163537900Y-139549320D01*
X163537900Y-139190280D01*
X163444127Y-138718852D01*
X163200208Y-138353800D01*
X163606885Y-138353800D01*
X163606885Y-140385800D01*
X163632566Y-140522284D01*
X163713228Y-140647636D01*
X163836304Y-140731730D01*
X163982400Y-140761315D01*
X165709600Y-140761315D01*
X165846084Y-140735634D01*
X165971436Y-140654972D01*
X166055530Y-140531896D01*
X166085115Y-140385800D01*
X166085115Y-138353800D01*
X166059434Y-138217316D01*
X165978772Y-138091964D01*
X165855696Y-138007870D01*
X165709600Y-137978285D01*
X163982400Y-137978285D01*
X163845916Y-138003966D01*
X163720564Y-138084628D01*
X163636470Y-138207704D01*
X163606885Y-138353800D01*
X163200208Y-138353800D01*
X163177085Y-138319195D01*
X162777428Y-138052153D01*
X162306000Y-137958380D01*
X161834572Y-138052153D01*
X161434915Y-138319195D01*
X161167873Y-138718852D01*
X161074100Y-139190280D01*
X160997900Y-139190280D01*
X160904127Y-138718852D01*
X160637085Y-138319195D01*
X160237428Y-138052153D01*
X159766000Y-137958380D01*
X159294572Y-138052153D01*
X158894915Y-138319195D01*
X158627873Y-138718852D01*
X158534100Y-139190280D01*
X158457900Y-139190280D01*
X158364127Y-138718852D01*
X158097085Y-138319195D01*
X157697428Y-138052153D01*
X157226000Y-137958380D01*
X156754572Y-138052153D01*
X156354915Y-138319195D01*
X156087873Y-138718852D01*
X155994100Y-139190280D01*
X151264300Y-139190280D01*
X151264300Y-138185515D01*
X151546000Y-138185515D01*
X151682484Y-138159834D01*
X151807836Y-138079172D01*
X151891930Y-137956096D01*
X151921515Y-137810000D01*
X151921515Y-136510000D01*
X151895834Y-136373516D01*
X151815172Y-136248164D01*
X151692096Y-136164070D01*
X151546000Y-136134485D01*
X150046000Y-136134485D01*
X149909516Y-136160166D01*
X149784164Y-136240828D01*
X149700070Y-136363904D01*
X149670485Y-136510000D01*
X149670485Y-137810000D01*
X149696166Y-137946484D01*
X149776828Y-138071836D01*
X149899904Y-138155930D01*
X150019700Y-138180189D01*
X150019700Y-139540485D01*
X149892000Y-139540485D01*
X149755516Y-139566166D01*
X149630164Y-139646828D01*
X149546070Y-139769904D01*
X149516485Y-139916000D01*
X145592800Y-139916000D01*
X145592800Y-130683000D01*
X148194580Y-130683000D01*
X148299954Y-131212749D01*
X148600032Y-131661848D01*
X149049131Y-131961926D01*
X149578880Y-132067300D01*
X149633120Y-132067300D01*
X150162869Y-131961926D01*
X150611968Y-131661848D01*
X150884149Y-131254500D01*
X151946521Y-131254500D01*
X152025304Y-131308330D01*
X152171400Y-131337915D01*
X152554045Y-131337915D01*
X153428700Y-132212570D01*
X153428700Y-133212638D01*
X153422377Y-133222101D01*
X153360120Y-133535090D01*
X153360120Y-134180910D01*
X153422377Y-134493899D01*
X153599672Y-134759238D01*
X153865011Y-134936533D01*
X154178000Y-134998790D01*
X154490989Y-134936533D01*
X154756328Y-134759238D01*
X154813000Y-134674423D01*
X154825700Y-134693430D01*
X154825700Y-134950235D01*
X153641449Y-136134485D01*
X152746000Y-136134485D01*
X152609516Y-136160166D01*
X152484164Y-136240828D01*
X152400070Y-136363904D01*
X152370485Y-136510000D01*
X152370485Y-137810000D01*
X152396166Y-137946484D01*
X152476828Y-138071836D01*
X152599904Y-138155930D01*
X152746000Y-138185515D01*
X154246000Y-138185515D01*
X154382484Y-138159834D01*
X154507836Y-138079172D01*
X154591930Y-137956096D01*
X154621515Y-137810000D01*
X154621515Y-136914551D01*
X155888030Y-135648035D01*
X155888033Y-135648033D01*
X156022930Y-135446144D01*
X156070301Y-135208000D01*
X156070300Y-135207995D01*
X156070300Y-134693430D01*
X156203623Y-134493899D01*
X156265880Y-134180910D01*
X156265880Y-133535090D01*
X156203623Y-133222101D01*
X156026328Y-132956762D01*
X155760989Y-132779467D01*
X155448000Y-132717210D01*
X155135011Y-132779467D01*
X154927300Y-132918256D01*
X154927300Y-131902200D01*
X154870263Y-131615455D01*
X154707835Y-131372365D01*
X153766115Y-130430645D01*
X153766115Y-130048000D01*
X153740434Y-129911516D01*
X153659772Y-129786164D01*
X153536696Y-129702070D01*
X153390600Y-129672485D01*
X152171400Y-129672485D01*
X152034916Y-129698166D01*
X151945195Y-129755900D01*
X150646545Y-129755900D01*
X150611968Y-129704152D01*
X150358088Y-129534515D01*
X150622000Y-129534515D01*
X150758484Y-129508834D01*
X150883836Y-129428172D01*
X150967930Y-129305096D01*
X150997515Y-129159000D01*
X150997515Y-128892300D01*
X151946521Y-128892300D01*
X152025304Y-128946130D01*
X152171400Y-128975715D01*
X153390600Y-128975715D01*
X153527084Y-128950034D01*
X153652436Y-128869372D01*
X153736530Y-128746296D01*
X153766115Y-128600200D01*
X153766115Y-127685800D01*
X153740434Y-127549316D01*
X153659772Y-127423964D01*
X153536696Y-127339870D01*
X153390600Y-127310285D01*
X152171400Y-127310285D01*
X152034916Y-127335966D01*
X151945195Y-127393700D01*
X150997515Y-127393700D01*
X150997515Y-127127000D01*
X150971834Y-126990516D01*
X150891172Y-126865164D01*
X150768096Y-126781070D01*
X150622000Y-126751485D01*
X150609300Y-126751485D01*
X150609300Y-124447300D01*
X156972000Y-124447300D01*
X157355946Y-124370928D01*
X157681440Y-124153440D01*
X158381700Y-123453180D01*
X158381700Y-124716298D01*
X158359485Y-124826000D01*
X158359485Y-125449897D01*
X158358840Y-125453140D01*
X158359485Y-125456383D01*
X158359485Y-126126000D01*
X158381700Y-126244064D01*
X158381700Y-127762000D01*
X158458072Y-128145946D01*
X158675560Y-128471440D01*
X159905700Y-129701580D01*
X159905700Y-133908800D01*
X159962737Y-134195545D01*
X160125165Y-134438635D01*
X160518165Y-134831635D01*
X160761255Y-134994063D01*
X161048000Y-135051100D01*
X161420546Y-135051100D01*
X161550000Y-135077315D01*
X162300000Y-135077315D01*
X162436484Y-135051634D01*
X162437314Y-135051100D01*
X166429634Y-135051100D01*
X166495365Y-135064175D01*
X166273770Y-135285770D01*
X166166402Y-135446456D01*
X166148219Y-135537870D01*
X166128700Y-135636000D01*
X166128700Y-136652000D01*
X166166402Y-136841544D01*
X166273770Y-137002230D01*
X167403752Y-138132212D01*
X167326070Y-138245904D01*
X167296485Y-138392000D01*
X167296485Y-139992000D01*
X167322166Y-140128484D01*
X167402828Y-140253836D01*
X167525904Y-140337930D01*
X167672000Y-140367515D01*
X169172000Y-140367515D01*
X169308484Y-140341834D01*
X169433836Y-140261172D01*
X169517930Y-140138096D01*
X169547515Y-139992000D01*
X169547515Y-138392000D01*
X169521834Y-138255516D01*
X169441172Y-138130164D01*
X169318096Y-138046070D01*
X169172000Y-138016485D01*
X168688945Y-138016485D01*
X168264460Y-137592000D01*
X170496485Y-137592000D01*
X170496485Y-138792000D01*
X170522166Y-138928484D01*
X170602828Y-139053836D01*
X170725904Y-139137930D01*
X170872000Y-139167515D01*
X172072000Y-139167515D01*
X172208484Y-139141834D01*
X172333836Y-139061172D01*
X172417930Y-138938096D01*
X172447515Y-138792000D01*
X172447515Y-138632245D01*
X172582230Y-138542230D01*
X173248824Y-137875636D01*
X173265166Y-137962484D01*
X173345828Y-138087836D01*
X173468904Y-138171930D01*
X173615000Y-138201515D01*
X174365000Y-138201515D01*
X174501484Y-138175834D01*
X174626836Y-138095172D01*
X174710930Y-137972096D01*
X174740515Y-137826000D01*
X174740515Y-137026000D01*
X174714834Y-136889516D01*
X174634172Y-136764164D01*
X174511096Y-136680070D01*
X174365000Y-136650485D01*
X173989300Y-136650485D01*
X173989300Y-136509315D01*
X174269000Y-136509315D01*
X174405484Y-136483634D01*
X174530836Y-136402972D01*
X174614930Y-136279896D01*
X174644515Y-136133800D01*
X174644515Y-135974975D01*
X175272700Y-136603160D01*
X175272700Y-137160000D01*
X175310402Y-137349544D01*
X175417770Y-137510230D01*
X178372000Y-140464460D01*
X178321966Y-140716000D01*
X178415739Y-141187428D01*
X178682781Y-141587085D01*
X179082438Y-141854127D01*
X179553866Y-141947900D01*
X179602134Y-141947900D01*
X180073562Y-141854127D01*
X180473219Y-141587085D01*
X180740261Y-141187428D01*
X180834034Y-140716000D01*
X180740261Y-140244572D01*
X180537621Y-139941300D01*
X180642840Y-139941300D01*
X180954142Y-140252602D01*
X180861966Y-140716000D01*
X180955739Y-141187428D01*
X181222781Y-141587085D01*
X181622438Y-141854127D01*
X182093866Y-141947900D01*
X182142134Y-141947900D01*
X182613562Y-141854127D01*
X183013219Y-141587085D01*
X183280261Y-141187428D01*
X183374034Y-140716000D01*
X183280261Y-140244572D01*
X183013219Y-139844915D01*
X182613562Y-139577873D01*
X182142134Y-139484100D01*
X182093866Y-139484100D01*
X181670728Y-139568268D01*
X181198230Y-139095770D01*
X181037544Y-138988402D01*
X180848000Y-138950700D01*
X180537621Y-138950700D01*
X180740261Y-138647428D01*
X180834034Y-138176000D01*
X180740261Y-137704572D01*
X180537621Y-137401300D01*
X180642840Y-137401300D01*
X180954142Y-137712602D01*
X180861966Y-138176000D01*
X180955739Y-138647428D01*
X181222781Y-139047085D01*
X181622438Y-139314127D01*
X182093866Y-139407900D01*
X182142134Y-139407900D01*
X182613562Y-139314127D01*
X183013219Y-139047085D01*
X183280261Y-138647428D01*
X183374034Y-138176000D01*
X183280261Y-137704572D01*
X183013219Y-137304915D01*
X182613562Y-137037873D01*
X182142134Y-136944100D01*
X182093866Y-136944100D01*
X181670728Y-137028268D01*
X181198230Y-136555770D01*
X181037544Y-136448402D01*
X180848000Y-136410700D01*
X180537621Y-136410700D01*
X180740261Y-136107428D01*
X180834034Y-135636000D01*
X180740261Y-135164572D01*
X180473219Y-134764915D01*
X180073562Y-134497873D01*
X179602134Y-134404100D01*
X179553866Y-134404100D01*
X179082438Y-134497873D01*
X178812620Y-134678160D01*
X177725760Y-133591300D01*
X178431690Y-133591300D01*
X178682781Y-133967085D01*
X179082438Y-134234127D01*
X179553866Y-134327900D01*
X179602134Y-134327900D01*
X180073562Y-134234127D01*
X180473219Y-133967085D01*
X180740261Y-133567428D01*
X180834034Y-133096000D01*
X180740261Y-132624572D01*
X180537621Y-132321300D01*
X180642840Y-132321300D01*
X180954142Y-132632602D01*
X180861966Y-133096000D01*
X180955739Y-133567428D01*
X181222781Y-133967085D01*
X181622438Y-134234127D01*
X182093866Y-134327900D01*
X182142134Y-134327900D01*
X182613562Y-134234127D01*
X183013219Y-133967085D01*
X183280261Y-133567428D01*
X183374034Y-133096000D01*
X183280261Y-132624572D01*
X183013219Y-132224915D01*
X182613562Y-131957873D01*
X182142134Y-131864100D01*
X182093866Y-131864100D01*
X181670728Y-131948268D01*
X181198230Y-131475770D01*
X181037544Y-131368402D01*
X180848000Y-131330700D01*
X180537621Y-131330700D01*
X180740261Y-131027428D01*
X180834034Y-130556000D01*
X180740261Y-130084572D01*
X180473219Y-129684915D01*
X180418293Y-129648215D01*
X180436230Y-129636230D01*
X181198230Y-128874230D01*
X181206211Y-128862286D01*
X181222781Y-128887085D01*
X181622438Y-129154127D01*
X182093866Y-129247900D01*
X182142134Y-129247900D01*
X182613562Y-129154127D01*
X183013219Y-128887085D01*
X183280261Y-128487428D01*
X183374034Y-128016000D01*
X183280261Y-127544572D01*
X183013219Y-127144915D01*
X182613562Y-126877873D01*
X182142134Y-126784100D01*
X182093866Y-126784100D01*
X181622438Y-126877873D01*
X181343300Y-127064387D01*
X181343300Y-126951160D01*
X181670728Y-126623732D01*
X182093866Y-126707900D01*
X182142134Y-126707900D01*
X182613562Y-126614127D01*
X183013219Y-126347085D01*
X183280261Y-125947428D01*
X183374034Y-125476000D01*
X183280261Y-125004572D01*
X183013219Y-124604915D01*
X182613562Y-124337873D01*
X182142134Y-124244100D01*
X182093866Y-124244100D01*
X181622438Y-124337873D01*
X181222781Y-124604915D01*
X180955739Y-125004572D01*
X180861966Y-125476000D01*
X180954142Y-125939398D01*
X180497770Y-126395770D01*
X180390402Y-126556456D01*
X180390402Y-126556457D01*
X180352700Y-126746000D01*
X180352700Y-127064387D01*
X180073562Y-126877873D01*
X179602134Y-126784100D01*
X179553866Y-126784100D01*
X179082438Y-126877873D01*
X178682781Y-127144915D01*
X178415739Y-127544572D01*
X178321966Y-128016000D01*
X178415739Y-128487428D01*
X178641563Y-128825397D01*
X178626457Y-128828402D01*
X178465770Y-128935770D01*
X178388040Y-129013500D01*
X176486960Y-129013500D01*
X178658230Y-126842230D01*
X178765598Y-126681543D01*
X178803300Y-126492000D01*
X178803300Y-125173160D01*
X179275160Y-124701300D01*
X180848000Y-124701300D01*
X181037544Y-124663598D01*
X181198230Y-124556230D01*
X181670728Y-124083732D01*
X182093866Y-124167900D01*
X182142134Y-124167900D01*
X182613562Y-124074127D01*
X183013219Y-123807085D01*
X183280261Y-123407428D01*
X183374034Y-122936000D01*
X183280261Y-122464572D01*
X183013219Y-122064915D01*
X182613562Y-121797873D01*
X182142134Y-121704100D01*
X182093866Y-121704100D01*
X181622438Y-121797873D01*
X181222781Y-122064915D01*
X180955739Y-122464572D01*
X180861966Y-122936000D01*
X180954142Y-123399398D01*
X180642840Y-123710700D01*
X180537621Y-123710700D01*
X180740261Y-123407428D01*
X180834034Y-122936000D01*
X180740261Y-122464572D01*
X180473219Y-122064915D01*
X180073562Y-121797873D01*
X179602134Y-121704100D01*
X179553866Y-121704100D01*
X179082438Y-121797873D01*
X178682781Y-122064915D01*
X178415739Y-122464572D01*
X178321966Y-122936000D01*
X178372000Y-123187540D01*
X177195770Y-124363770D01*
X177088402Y-124524456D01*
X177088402Y-124524457D01*
X177050700Y-124714000D01*
X177050700Y-126032840D01*
X175370040Y-127713500D01*
X174294753Y-127713500D01*
X174269000Y-127708285D01*
X172719000Y-127708285D01*
X172582516Y-127733966D01*
X172457164Y-127814628D01*
X172373070Y-127937704D01*
X172343485Y-128083800D01*
X172343485Y-128333800D01*
X172369166Y-128470284D01*
X172409971Y-128533697D01*
X172373070Y-128587704D01*
X172343485Y-128733800D01*
X172343485Y-128983800D01*
X172369166Y-129120284D01*
X172409971Y-129183697D01*
X172373070Y-129237704D01*
X172343485Y-129383800D01*
X172343485Y-129633800D01*
X172369166Y-129770284D01*
X172409971Y-129833697D01*
X172373070Y-129887704D01*
X172343485Y-130033800D01*
X172343485Y-130283800D01*
X172369166Y-130420284D01*
X172409971Y-130483697D01*
X172373070Y-130537704D01*
X172343485Y-130683800D01*
X172343485Y-130933800D01*
X172369166Y-131070284D01*
X172409971Y-131133697D01*
X172373070Y-131187704D01*
X172343485Y-131333800D01*
X172343485Y-131583800D01*
X172369166Y-131720284D01*
X172409971Y-131783697D01*
X172373070Y-131837704D01*
X172343485Y-131983800D01*
X172343485Y-132233800D01*
X172369166Y-132370284D01*
X172409971Y-132433697D01*
X172373070Y-132487704D01*
X172343485Y-132633800D01*
X172343485Y-132883800D01*
X172369166Y-133020284D01*
X172409971Y-133083697D01*
X172373070Y-133137704D01*
X172343485Y-133283800D01*
X172343485Y-133533800D01*
X172369166Y-133670284D01*
X172409971Y-133733697D01*
X172373070Y-133787704D01*
X172343485Y-133933800D01*
X172343485Y-134183800D01*
X172369166Y-134320284D01*
X172409971Y-134383697D01*
X172373070Y-134437704D01*
X172343485Y-134583800D01*
X172343485Y-134833800D01*
X172369166Y-134970284D01*
X172409971Y-135033697D01*
X172373070Y-135087704D01*
X172343485Y-135233800D01*
X172343485Y-135483800D01*
X172369166Y-135620284D01*
X172409971Y-135683697D01*
X172373070Y-135737704D01*
X172343485Y-135883800D01*
X172343485Y-136133800D01*
X172369166Y-136270284D01*
X172449828Y-136395636D01*
X172572904Y-136479730D01*
X172719000Y-136509315D01*
X172998700Y-136509315D01*
X172998700Y-136724840D01*
X172361612Y-137361928D01*
X172341172Y-137330164D01*
X172218096Y-137246070D01*
X172072000Y-137216485D01*
X170872000Y-137216485D01*
X170735516Y-137242166D01*
X170610164Y-137322828D01*
X170526070Y-137445904D01*
X170496485Y-137592000D01*
X168264460Y-137592000D01*
X167119300Y-136446840D01*
X167119300Y-135859315D01*
X168669000Y-135859315D01*
X168805484Y-135833634D01*
X168930836Y-135752972D01*
X168942236Y-135736288D01*
X168983030Y-135709030D01*
X169090398Y-135548343D01*
X169128100Y-135358800D01*
X169090398Y-135169257D01*
X168989115Y-135017677D01*
X169014930Y-134979896D01*
X169044515Y-134833800D01*
X169044515Y-134583800D01*
X169018834Y-134447316D01*
X168978029Y-134383903D01*
X169014930Y-134329896D01*
X169044515Y-134183800D01*
X169044515Y-133933800D01*
X169018834Y-133797316D01*
X168978029Y-133733903D01*
X169014930Y-133679896D01*
X169044515Y-133533800D01*
X169044515Y-133283800D01*
X169018834Y-133147316D01*
X168978029Y-133083903D01*
X169014930Y-133029896D01*
X169044515Y-132883800D01*
X169044515Y-132633800D01*
X169018834Y-132497316D01*
X168978029Y-132433903D01*
X169014930Y-132379896D01*
X169044515Y-132233800D01*
X169044515Y-131983800D01*
X169018834Y-131847316D01*
X168978029Y-131783903D01*
X169014930Y-131729896D01*
X169044515Y-131583800D01*
X169044515Y-131333800D01*
X169018834Y-131197316D01*
X168978029Y-131133903D01*
X169014930Y-131079896D01*
X169044515Y-130933800D01*
X169044515Y-130683800D01*
X169018834Y-130547316D01*
X168978029Y-130483903D01*
X169014930Y-130429896D01*
X169044515Y-130283800D01*
X169044515Y-130033800D01*
X169018834Y-129897316D01*
X168978029Y-129833903D01*
X169014930Y-129779896D01*
X169044515Y-129633800D01*
X169044515Y-129383800D01*
X169018834Y-129247316D01*
X168978029Y-129183903D01*
X169014930Y-129129896D01*
X169044515Y-128983800D01*
X169044515Y-128733800D01*
X169018834Y-128597316D01*
X168978029Y-128533903D01*
X169014930Y-128479896D01*
X169044515Y-128333800D01*
X169044515Y-128083800D01*
X169018834Y-127947316D01*
X168978029Y-127883903D01*
X169014930Y-127829896D01*
X169044515Y-127683800D01*
X169044515Y-127433800D01*
X169018834Y-127297316D01*
X168938172Y-127171964D01*
X168815096Y-127087870D01*
X168669000Y-127058285D01*
X167954945Y-127058285D01*
X166993515Y-126096855D01*
X166993515Y-125646800D01*
X166967834Y-125510316D01*
X166887172Y-125384964D01*
X166764096Y-125300870D01*
X166618000Y-125271285D01*
X165868000Y-125271285D01*
X165731516Y-125296966D01*
X165606164Y-125377628D01*
X165522070Y-125500704D01*
X165492485Y-125646800D01*
X165492485Y-126446800D01*
X165518166Y-126583284D01*
X165598828Y-126708636D01*
X165721904Y-126792730D01*
X165737377Y-126795863D01*
X165731516Y-126796966D01*
X165606164Y-126877628D01*
X165535914Y-126980443D01*
X165494096Y-126951870D01*
X165348000Y-126922285D01*
X164598000Y-126922285D01*
X164461516Y-126947966D01*
X164336164Y-127028628D01*
X164252070Y-127151704D01*
X164241784Y-127202500D01*
X164178813Y-127202500D01*
X164168172Y-127185964D01*
X164045096Y-127101870D01*
X163899000Y-127072285D01*
X162999000Y-127072285D01*
X162862516Y-127097966D01*
X162737164Y-127178628D01*
X162653070Y-127301704D01*
X162623485Y-127447800D01*
X162623485Y-127947800D01*
X162649166Y-128084284D01*
X162729828Y-128209636D01*
X162852904Y-128293730D01*
X162999000Y-128323315D01*
X163899000Y-128323315D01*
X164035484Y-128297634D01*
X164160836Y-128216972D01*
X164177147Y-128193100D01*
X164240417Y-128193100D01*
X164248166Y-128234284D01*
X164328828Y-128359636D01*
X164451904Y-128443730D01*
X164467377Y-128446863D01*
X164461516Y-128447966D01*
X164460686Y-128448500D01*
X162429454Y-128448500D01*
X162300000Y-128422285D01*
X161550000Y-128422285D01*
X161444356Y-128442163D01*
X161364440Y-128322560D01*
X160388300Y-127346420D01*
X160388300Y-126235702D01*
X160410515Y-126126000D01*
X160410515Y-124826000D01*
X160388300Y-124707936D01*
X160388300Y-121446580D01*
X160729441Y-121105440D01*
X160946928Y-120779946D01*
X161023300Y-120396000D01*
X161023300Y-109982000D01*
X160946928Y-109598054D01*
X160729440Y-109272560D01*
X157979300Y-106522420D01*
X157979300Y-106369863D01*
X158258000Y-106425300D01*
X161801546Y-106425300D01*
X161931000Y-106451515D01*
X162681000Y-106451515D01*
X162817484Y-106425834D01*
X162818314Y-106425300D01*
X163579546Y-106425300D01*
X163709000Y-106451515D01*
X164459000Y-106451515D01*
X164595484Y-106425834D01*
X164720836Y-106345172D01*
X164804930Y-106222096D01*
X164834515Y-106076000D01*
X164834515Y-105985155D01*
X165883835Y-104935835D01*
X166046263Y-104692745D01*
X166065200Y-104597542D01*
X166065200Y-105940538D01*
X165339869Y-106665869D01*
X165218736Y-106847156D01*
X165176200Y-107061000D01*
X165176200Y-121158000D01*
X165218736Y-121371844D01*
X165327171Y-121534127D01*
X165339869Y-121553131D01*
X166652031Y-122865293D01*
X166637966Y-122936000D01*
X166731739Y-123407428D01*
X166998781Y-123807085D01*
X167398438Y-124074127D01*
X167869866Y-124167900D01*
X167918134Y-124167900D01*
X168389562Y-124074127D01*
X168789219Y-123807085D01*
X169056261Y-123407428D01*
X169150034Y-122936000D01*
X169056261Y-122464572D01*
X168789219Y-122064915D01*
X168389562Y-121797873D01*
X167918134Y-121704100D01*
X167869866Y-121704100D01*
X167398438Y-121797873D01*
X167258583Y-121891321D01*
X166293800Y-120926538D01*
X166293800Y-107292462D01*
X167005000Y-106581262D01*
X167498868Y-107075131D01*
X167609678Y-107149172D01*
X167680156Y-107196264D01*
X167894000Y-107238800D01*
X167947458Y-107238800D01*
X168030000Y-107255515D01*
X168465680Y-107255515D01*
X168514869Y-107329131D01*
X169276869Y-108091131D01*
X169458157Y-108212265D01*
X169672000Y-108254800D01*
X178474119Y-108254800D01*
X178575949Y-108407200D01*
X178308000Y-108407200D01*
X178094156Y-108449736D01*
X177918532Y-108567085D01*
X177912869Y-108570869D01*
X176806538Y-109677200D01*
X171537881Y-109677200D01*
X171329219Y-109364915D01*
X170929562Y-109097873D01*
X170458134Y-109004100D01*
X170409866Y-109004100D01*
X169938438Y-109097873D01*
X169538781Y-109364915D01*
X169271739Y-109764572D01*
X169177966Y-110236000D01*
X169271739Y-110707428D01*
X169431949Y-110947200D01*
X169164000Y-110947200D01*
X168950156Y-110989736D01*
X168774532Y-111107085D01*
X168768869Y-111110869D01*
X168266370Y-111613368D01*
X167918134Y-111544100D01*
X167869866Y-111544100D01*
X167398438Y-111637873D01*
X166998781Y-111904915D01*
X166731739Y-112304572D01*
X166637966Y-112776000D01*
X166731739Y-113247428D01*
X166998781Y-113647085D01*
X167398438Y-113914127D01*
X167869866Y-114007900D01*
X167918134Y-114007900D01*
X168389562Y-113914127D01*
X168739295Y-113680443D01*
X168266370Y-114153368D01*
X167918134Y-114084100D01*
X167869866Y-114084100D01*
X167398438Y-114177873D01*
X166998781Y-114444915D01*
X166731739Y-114844572D01*
X166637966Y-115316000D01*
X166731739Y-115787428D01*
X166998781Y-116187085D01*
X167398438Y-116454127D01*
X167869866Y-116547900D01*
X167918134Y-116547900D01*
X168389562Y-116454127D01*
X168789219Y-116187085D01*
X169056261Y-115787428D01*
X169150034Y-115316000D01*
X169072757Y-114927505D01*
X169395462Y-114604800D01*
X169431949Y-114604800D01*
X169271739Y-114844572D01*
X169177966Y-115316000D01*
X169271739Y-115787428D01*
X169431949Y-116027200D01*
X169418000Y-116027200D01*
X169204156Y-116069736D01*
X169028532Y-116187085D01*
X169022869Y-116190869D01*
X168453286Y-116760452D01*
X168389562Y-116717873D01*
X167918134Y-116624100D01*
X167869866Y-116624100D01*
X167398438Y-116717873D01*
X166998781Y-116984915D01*
X166731739Y-117384572D01*
X166637966Y-117856000D01*
X166731739Y-118327428D01*
X166998781Y-118727085D01*
X167398438Y-118994127D01*
X167869866Y-119087900D01*
X167918134Y-119087900D01*
X168389562Y-118994127D01*
X168739295Y-118760443D01*
X168266370Y-119233368D01*
X167918134Y-119164100D01*
X167869866Y-119164100D01*
X167398438Y-119257873D01*
X166998781Y-119524915D01*
X166731739Y-119924572D01*
X166637966Y-120396000D01*
X166731739Y-120867428D01*
X166998781Y-121267085D01*
X167398438Y-121534127D01*
X167869866Y-121627900D01*
X167918134Y-121627900D01*
X168389562Y-121534127D01*
X168789219Y-121267085D01*
X169056261Y-120867428D01*
X169150034Y-120396000D01*
X169072757Y-120007505D01*
X169395462Y-119684800D01*
X169431949Y-119684800D01*
X169271739Y-119924572D01*
X169177966Y-120396000D01*
X169271739Y-120867428D01*
X169538781Y-121267085D01*
X169938438Y-121534127D01*
X170409866Y-121627900D01*
X170458134Y-121627900D01*
X170929562Y-121534127D01*
X171329219Y-121267085D01*
X171537881Y-120954800D01*
X178474119Y-120954800D01*
X178682781Y-121267085D01*
X179082438Y-121534127D01*
X179553866Y-121627900D01*
X179602134Y-121627900D01*
X180073562Y-121534127D01*
X180473219Y-121267085D01*
X180740261Y-120867428D01*
X180834034Y-120396000D01*
X180740261Y-119924572D01*
X180580051Y-119684800D01*
X180616538Y-119684800D01*
X180939243Y-120007505D01*
X180861966Y-120396000D01*
X180955739Y-120867428D01*
X181222781Y-121267085D01*
X181622438Y-121534127D01*
X182093866Y-121627900D01*
X182142134Y-121627900D01*
X182613562Y-121534127D01*
X183013219Y-121267085D01*
X183280261Y-120867428D01*
X183374034Y-120396000D01*
X183280261Y-119924572D01*
X183013219Y-119524915D01*
X182613562Y-119257873D01*
X182142134Y-119164100D01*
X182093866Y-119164100D01*
X181745630Y-119233368D01*
X181243131Y-118730869D01*
X181237468Y-118727085D01*
X181061844Y-118609736D01*
X180848000Y-118567200D01*
X180580051Y-118567200D01*
X180740261Y-118327428D01*
X180834034Y-117856000D01*
X180740261Y-117384572D01*
X180580051Y-117144800D01*
X180848000Y-117144800D01*
X181061844Y-117102264D01*
X181243131Y-116981131D01*
X181745630Y-116478632D01*
X182093866Y-116547900D01*
X182142134Y-116547900D01*
X182613562Y-116454127D01*
X183013219Y-116187085D01*
X183280261Y-115787428D01*
X183374034Y-115316000D01*
X183280261Y-114844572D01*
X183013219Y-114444915D01*
X182613562Y-114177873D01*
X182142134Y-114084100D01*
X182093866Y-114084100D01*
X181622438Y-114177873D01*
X181222781Y-114444915D01*
X180955739Y-114844572D01*
X180861966Y-115316000D01*
X180939243Y-115704495D01*
X180616538Y-116027200D01*
X180580051Y-116027200D01*
X180740261Y-115787428D01*
X180834034Y-115316000D01*
X180740261Y-114844572D01*
X180580051Y-114604800D01*
X180594000Y-114604800D01*
X180807844Y-114562264D01*
X180989131Y-114441131D01*
X181558714Y-113871548D01*
X181622438Y-113914127D01*
X182093866Y-114007900D01*
X182142134Y-114007900D01*
X182613562Y-113914127D01*
X183013219Y-113647085D01*
X183280261Y-113247428D01*
X183374034Y-112776000D01*
X183280261Y-112304572D01*
X183013219Y-111904915D01*
X182613562Y-111637873D01*
X182142134Y-111544100D01*
X182093866Y-111544100D01*
X181622438Y-111637873D01*
X181222781Y-111904915D01*
X180955739Y-112304572D01*
X180861966Y-112776000D01*
X180897101Y-112952637D01*
X180774515Y-113075223D01*
X180834034Y-112776000D01*
X180740261Y-112304572D01*
X180473219Y-111904915D01*
X180073562Y-111637873D01*
X179602134Y-111544100D01*
X179553866Y-111544100D01*
X179082438Y-111637873D01*
X178732705Y-111871557D01*
X179205630Y-111398632D01*
X179553866Y-111467900D01*
X179602134Y-111467900D01*
X180073562Y-111374127D01*
X180473219Y-111107085D01*
X180740261Y-110707428D01*
X180834034Y-110236000D01*
X180740261Y-109764572D01*
X180580051Y-109524800D01*
X180848000Y-109524800D01*
X181061844Y-109482264D01*
X181243131Y-109361131D01*
X181745630Y-108858632D01*
X182093866Y-108927900D01*
X182142134Y-108927900D01*
X182613562Y-108834127D01*
X183013219Y-108567085D01*
X183280261Y-108167428D01*
X183374034Y-107696000D01*
X183280261Y-107224572D01*
X183013219Y-106824915D01*
X182613562Y-106557873D01*
X182142134Y-106464100D01*
X182093866Y-106464100D01*
X181622438Y-106557873D01*
X181222781Y-106824915D01*
X180955739Y-107224572D01*
X180861966Y-107696000D01*
X180939243Y-108084495D01*
X180616538Y-108407200D01*
X180580051Y-108407200D01*
X180740261Y-108167428D01*
X180834034Y-107696000D01*
X180740261Y-107224572D01*
X180473219Y-106824915D01*
X180073562Y-106557873D01*
X179602134Y-106464100D01*
X179553866Y-106464100D01*
X179082438Y-106557873D01*
X178682781Y-106824915D01*
X178474119Y-107137200D01*
X169903462Y-107137200D01*
X169468800Y-106702538D01*
X169468800Y-106172000D01*
X169426264Y-105958156D01*
X169305131Y-105776869D01*
X169163131Y-105634869D01*
X169130701Y-105613200D01*
X168981844Y-105513736D01*
X168768000Y-105471200D01*
X168612542Y-105471200D01*
X168530000Y-105454485D01*
X168030000Y-105454485D01*
X167944800Y-105470516D01*
X167944800Y-103099929D01*
X168365428Y-103016261D01*
X168765085Y-102749219D01*
X169032127Y-102349562D01*
X169125900Y-101878134D01*
X169125900Y-101829866D01*
X169032127Y-101358438D01*
X168765085Y-100958781D01*
X168365428Y-100691739D01*
X167894000Y-100597966D01*
X167422572Y-100691739D01*
X167182800Y-100851949D01*
X167182800Y-100584000D01*
X167140264Y-100370156D01*
X167040644Y-100221065D01*
X167422572Y-100476261D01*
X167894000Y-100570034D01*
X168357398Y-100477858D01*
X168733770Y-100854230D01*
X168894456Y-100961598D01*
X169084000Y-100999300D01*
X169535841Y-100999300D01*
X169295873Y-101358438D01*
X169202100Y-101829866D01*
X169202100Y-101878134D01*
X169295873Y-102349562D01*
X169562915Y-102749219D01*
X169621200Y-102788164D01*
X169621200Y-104979562D01*
X169584070Y-105033904D01*
X169554485Y-105180000D01*
X169554485Y-105580000D01*
X169578869Y-105709589D01*
X169554485Y-105830000D01*
X169554485Y-106230000D01*
X169580166Y-106366484D01*
X169660828Y-106491836D01*
X169783904Y-106575930D01*
X169930000Y-106605515D01*
X170430000Y-106605515D01*
X170518833Y-106588800D01*
X176164000Y-106588800D01*
X176377844Y-106546264D01*
X176559131Y-106425131D01*
X177828262Y-105156000D01*
X180861966Y-105156000D01*
X180955739Y-105627428D01*
X181222781Y-106027085D01*
X181622438Y-106294127D01*
X182093866Y-106387900D01*
X182142134Y-106387900D01*
X182613562Y-106294127D01*
X183013219Y-106027085D01*
X183280261Y-105627428D01*
X183374034Y-105156000D01*
X183280261Y-104684572D01*
X183013219Y-104284915D01*
X182613562Y-104017873D01*
X182142134Y-103924100D01*
X182093866Y-103924100D01*
X181622438Y-104017873D01*
X181222781Y-104284915D01*
X180955739Y-104684572D01*
X180861966Y-105156000D01*
X177828262Y-105156000D01*
X179205630Y-103778632D01*
X179553866Y-103847900D01*
X179602134Y-103847900D01*
X180073562Y-103754127D01*
X180473219Y-103487085D01*
X180740261Y-103087428D01*
X180834034Y-102616000D01*
X180861966Y-102616000D01*
X180955739Y-103087428D01*
X181222781Y-103487085D01*
X181622438Y-103754127D01*
X182093866Y-103847900D01*
X182142134Y-103847900D01*
X182613562Y-103754127D01*
X183013219Y-103487085D01*
X183280261Y-103087428D01*
X183374034Y-102616000D01*
X183280261Y-102144572D01*
X183013219Y-101744915D01*
X182613562Y-101477873D01*
X182142134Y-101384100D01*
X182093866Y-101384100D01*
X181622438Y-101477873D01*
X181222781Y-101744915D01*
X180955739Y-102144572D01*
X180861966Y-102616000D01*
X180834034Y-102616000D01*
X180740261Y-102144572D01*
X180473219Y-101744915D01*
X180073562Y-101477873D01*
X179602134Y-101384100D01*
X179553866Y-101384100D01*
X179082438Y-101477873D01*
X178682781Y-101744915D01*
X178415739Y-102144572D01*
X178321966Y-102616000D01*
X178399243Y-103004495D01*
X175932538Y-105471200D01*
X170805515Y-105471200D01*
X170805515Y-105180000D01*
X170779834Y-105043516D01*
X170738800Y-104979748D01*
X170738800Y-103049405D01*
X170905428Y-103016261D01*
X171305085Y-102749219D01*
X171572127Y-102349562D01*
X171665900Y-101878134D01*
X171665900Y-101829866D01*
X171572127Y-101358438D01*
X171332159Y-100999300D01*
X172456485Y-100999300D01*
X172456485Y-101254000D01*
X172482166Y-101390484D01*
X172562828Y-101515836D01*
X172685904Y-101599930D01*
X172832000Y-101629515D01*
X173694139Y-101629515D01*
X173659924Y-101711913D01*
X173659791Y-101864749D01*
X173446055Y-102078485D01*
X172832000Y-102078485D01*
X172695516Y-102104166D01*
X172570164Y-102184828D01*
X172486070Y-102307904D01*
X172456485Y-102454000D01*
X172456485Y-103954000D01*
X172482166Y-104090484D01*
X172562828Y-104215836D01*
X172685904Y-104299930D01*
X172832000Y-104329515D01*
X174132000Y-104329515D01*
X174268484Y-104303834D01*
X174393836Y-104223172D01*
X174477930Y-104100096D01*
X174507515Y-103954000D01*
X174507515Y-102565319D01*
X174511846Y-102565323D01*
X174773336Y-102457277D01*
X174973574Y-102257388D01*
X175082076Y-101996087D01*
X175082323Y-101713154D01*
X174974277Y-101451664D01*
X174774388Y-101251426D01*
X174513087Y-101142924D01*
X174507515Y-101142919D01*
X174507515Y-100825300D01*
X175036121Y-100825300D01*
X175039166Y-100841484D01*
X175119828Y-100966836D01*
X175242904Y-101050930D01*
X175389000Y-101080515D01*
X175639000Y-101080515D01*
X175775484Y-101054834D01*
X175900836Y-100974172D01*
X175984930Y-100851096D01*
X176013981Y-100707637D01*
X176018700Y-100732716D01*
X176018700Y-101342000D01*
X176056402Y-101531544D01*
X176163770Y-101692230D01*
X176250485Y-101778945D01*
X176250485Y-102229000D01*
X176276166Y-102365484D01*
X176356828Y-102490836D01*
X176479904Y-102574930D01*
X176626000Y-102604515D01*
X177426000Y-102604515D01*
X177562484Y-102578834D01*
X177687836Y-102498172D01*
X177771930Y-102375096D01*
X177801515Y-102229000D01*
X177801515Y-101479000D01*
X177775834Y-101342516D01*
X177695172Y-101217164D01*
X177572096Y-101133070D01*
X177426000Y-101103485D01*
X177009300Y-101103485D01*
X177009300Y-101080515D01*
X177139000Y-101080515D01*
X177275484Y-101054834D01*
X177400836Y-100974172D01*
X177484930Y-100851096D01*
X177514515Y-100705000D01*
X177514515Y-100299945D01*
X177738460Y-100076000D01*
X178321966Y-100076000D01*
X178415739Y-100547428D01*
X178682781Y-100947085D01*
X179082438Y-101214127D01*
X179553866Y-101307900D01*
X179602134Y-101307900D01*
X180073562Y-101214127D01*
X180473219Y-100947085D01*
X180740261Y-100547428D01*
X180834034Y-100076000D01*
X180740261Y-99604572D01*
X180473219Y-99204915D01*
X180073562Y-98937873D01*
X179602134Y-98844100D01*
X179553866Y-98844100D01*
X179082438Y-98937873D01*
X178682781Y-99204915D01*
X178415739Y-99604572D01*
X178321966Y-100076000D01*
X177738460Y-100076000D01*
X179130728Y-98683732D01*
X179553866Y-98767900D01*
X179602134Y-98767900D01*
X180073562Y-98674127D01*
X180473219Y-98407085D01*
X180740261Y-98007428D01*
X180783867Y-97788206D01*
X180839074Y-98065749D01*
X181139152Y-98514848D01*
X181588251Y-98814926D01*
X182118000Y-98920300D01*
X182647749Y-98814926D01*
X183096848Y-98514848D01*
X183396926Y-98065749D01*
X183502300Y-97536000D01*
X183502300Y-93472000D01*
X183396926Y-92942251D01*
X183096848Y-92493152D01*
X182080848Y-91477152D01*
X181721135Y-91236800D01*
X181631749Y-91177074D01*
X181102000Y-91071700D01*
X155194000Y-91071700D01*
X154664251Y-91177074D01*
X154574865Y-91236800D01*
X154215152Y-91477152D01*
X149897152Y-95795152D01*
X149597074Y-96244251D01*
X149491700Y-96774000D01*
X149491700Y-98806000D01*
X149507630Y-98886083D01*
X149507463Y-99076978D01*
X149581004Y-99254962D01*
X149597074Y-99335749D01*
X149642436Y-99403639D01*
X149715335Y-99580067D01*
X149851389Y-99716359D01*
X149897152Y-99784848D01*
X149965043Y-99830211D01*
X150099908Y-99965312D01*
X150277763Y-100039164D01*
X150346251Y-100084926D01*
X150426333Y-100100855D01*
X150602634Y-100174062D01*
X150795211Y-100174230D01*
X150876000Y-100190300D01*
X150956083Y-100174370D01*
X151146978Y-100174537D01*
X151324962Y-100100996D01*
X151405749Y-100084926D01*
X151473639Y-100039564D01*
X151650067Y-99966665D01*
X151786359Y-99830611D01*
X151854848Y-99784848D01*
X151900211Y-99716957D01*
X152035312Y-99582092D01*
X152109164Y-99404237D01*
X152154926Y-99335749D01*
X152170855Y-99255667D01*
X152244062Y-99079366D01*
X152244230Y-98886789D01*
X152260300Y-98806000D01*
X152260300Y-97347396D01*
X155767396Y-93840300D01*
X164408630Y-93840300D01*
X164592700Y-94024370D01*
X164592700Y-96774000D01*
X164604700Y-96834328D01*
X164604700Y-98337407D01*
X164482915Y-98418781D01*
X164215873Y-98818438D01*
X164122100Y-99289866D01*
X164122100Y-99338134D01*
X164215873Y-99809562D01*
X164482915Y-100209219D01*
X164882572Y-100476261D01*
X165354000Y-100570034D01*
X165742495Y-100492757D01*
X166065200Y-100815462D01*
X166065200Y-100851949D01*
X165825428Y-100691739D01*
X165354000Y-100597966D01*
X164882572Y-100691739D01*
X164482915Y-100958781D01*
X164215873Y-101358438D01*
X164122100Y-101829866D01*
X164122100Y-101878134D01*
X164215873Y-102349562D01*
X164482915Y-102749219D01*
X164604700Y-102830593D01*
X164604700Y-104095630D01*
X163799845Y-104900485D01*
X163709000Y-104900485D01*
X163572516Y-104926166D01*
X163571686Y-104926700D01*
X162810454Y-104926700D01*
X162681000Y-104900485D01*
X161931000Y-104900485D01*
X161794516Y-104926166D01*
X161793686Y-104926700D01*
X158751515Y-104926700D01*
X158751515Y-103194000D01*
X158725834Y-103057516D01*
X158645172Y-102932164D01*
X158522096Y-102848070D01*
X158376000Y-102818485D01*
X158360300Y-102818485D01*
X158360300Y-99826000D01*
X158254926Y-99296251D01*
X157954848Y-98847152D01*
X156934848Y-97827152D01*
X156866958Y-97781789D01*
X156732092Y-97646688D01*
X156554235Y-97572835D01*
X156485748Y-97527074D01*
X156405668Y-97511145D01*
X156229366Y-97437938D01*
X156036789Y-97437770D01*
X155956000Y-97421700D01*
X155875917Y-97437630D01*
X155685022Y-97437463D01*
X155507037Y-97511005D01*
X155426252Y-97527074D01*
X155358364Y-97572435D01*
X155181933Y-97645335D01*
X155045641Y-97781389D01*
X154977152Y-97827152D01*
X154931789Y-97895042D01*
X154796688Y-98029908D01*
X154722835Y-98207765D01*
X154677074Y-98276252D01*
X154661145Y-98356332D01*
X154587938Y-98532634D01*
X154587770Y-98725211D01*
X154571700Y-98806000D01*
X154587630Y-98886083D01*
X154587463Y-99076978D01*
X154661005Y-99254963D01*
X154677074Y-99335748D01*
X154722435Y-99403636D01*
X154795335Y-99580067D01*
X154931389Y-99716359D01*
X154977152Y-99784848D01*
X155591700Y-100399396D01*
X155591700Y-102818485D01*
X155576000Y-102818485D01*
X155439516Y-102844166D01*
X155314164Y-102924828D01*
X155256174Y-103009700D01*
X152595065Y-103009700D01*
X152545172Y-102932164D01*
X152422096Y-102848070D01*
X152276000Y-102818485D01*
X149476000Y-102818485D01*
X149339516Y-102844166D01*
X149214164Y-102924828D01*
X149130070Y-103047904D01*
X149100485Y-103194000D01*
X149100485Y-105594000D01*
X149126166Y-105730484D01*
X149206828Y-105855836D01*
X149329904Y-105939930D01*
X149476000Y-105969515D01*
X152276000Y-105969515D01*
X152412484Y-105943834D01*
X152537836Y-105863172D01*
X152595826Y-105778300D01*
X155256935Y-105778300D01*
X155306828Y-105855836D01*
X155429904Y-105939930D01*
X155576000Y-105969515D01*
X155972700Y-105969515D01*
X155972700Y-106938000D01*
X156049072Y-107321946D01*
X156266560Y-107647440D01*
X159016700Y-110397580D01*
X159016700Y-119980419D01*
X158985067Y-120012053D01*
X156556420Y-122440700D01*
X150365702Y-122440700D01*
X150256000Y-122418485D01*
X148956000Y-122418485D01*
X148819516Y-122444166D01*
X148694164Y-122524828D01*
X148610070Y-122647904D01*
X148580485Y-122794000D01*
X148580485Y-124094000D01*
X148602700Y-124212064D01*
X148602700Y-126751485D01*
X148590000Y-126751485D01*
X148453516Y-126777166D01*
X148328164Y-126857828D01*
X148244070Y-126980904D01*
X148214485Y-127127000D01*
X148214485Y-129159000D01*
X148240166Y-129295484D01*
X148320828Y-129420836D01*
X148443904Y-129504930D01*
X148590000Y-129534515D01*
X148853912Y-129534515D01*
X148600032Y-129704152D01*
X148299954Y-130153251D01*
X148194580Y-130683000D01*
X145592800Y-130683000D01*
X145592800Y-90601800D01*
X183972200Y-90601800D01*
X183972200Y-145872200D01*
X183972200Y-145872200D01*
G37*
X183972200Y-145872200D02*
X145592800Y-145872200D01*
X145592800Y-139916000D01*
X149516485Y-139916000D01*
X149516485Y-141516000D01*
X149542166Y-141652484D01*
X149622828Y-141777836D01*
X149745904Y-141861930D01*
X149892000Y-141891515D01*
X151392000Y-141891515D01*
X151528484Y-141865834D01*
X151653836Y-141785172D01*
X151737930Y-141662096D01*
X151767515Y-141516000D01*
X151767515Y-141116000D01*
X152716485Y-141116000D01*
X152716485Y-142316000D01*
X152742166Y-142452484D01*
X152822828Y-142577836D01*
X152945904Y-142661930D01*
X153092000Y-142691515D01*
X153787449Y-142691515D01*
X156315965Y-145220030D01*
X156315967Y-145220033D01*
X156517856Y-145354930D01*
X156756000Y-145402300D01*
X180085995Y-145402300D01*
X180086000Y-145402301D01*
X180324144Y-145354930D01*
X180526033Y-145220033D01*
X181460285Y-144285780D01*
X181622438Y-144394127D01*
X182093866Y-144487900D01*
X182142134Y-144487900D01*
X182613562Y-144394127D01*
X183013219Y-144127085D01*
X183280261Y-143727428D01*
X183374034Y-143256000D01*
X183280261Y-142784572D01*
X183013219Y-142384915D01*
X182613562Y-142117873D01*
X182142134Y-142024100D01*
X182093866Y-142024100D01*
X181622438Y-142117873D01*
X181222781Y-142384915D01*
X180955739Y-142784572D01*
X180894750Y-143091185D01*
X179828234Y-144157700D01*
X157013765Y-144157700D01*
X154667515Y-141811449D01*
X154667515Y-141116000D01*
X154641834Y-140979516D01*
X154561172Y-140854164D01*
X154438096Y-140770070D01*
X154292000Y-140740485D01*
X153092000Y-140740485D01*
X152955516Y-140766166D01*
X152830164Y-140846828D01*
X152746070Y-140969904D01*
X152716485Y-141116000D01*
X151767515Y-141116000D01*
X151767515Y-139916000D01*
X151741834Y-139779516D01*
X151661172Y-139654164D01*
X151538096Y-139570070D01*
X151392000Y-139540485D01*
X151264300Y-139540485D01*
X151264300Y-139190280D01*
X155994100Y-139190280D01*
X155994100Y-139549320D01*
X156087873Y-140020748D01*
X156354915Y-140420405D01*
X156754572Y-140687447D01*
X157226000Y-140781220D01*
X157697428Y-140687447D01*
X158097085Y-140420405D01*
X158364127Y-140020748D01*
X158457900Y-139549320D01*
X158457900Y-139190280D01*
X158534100Y-139190280D01*
X158534100Y-139549320D01*
X158627873Y-140020748D01*
X158894915Y-140420405D01*
X159294572Y-140687447D01*
X159766000Y-140781220D01*
X160237428Y-140687447D01*
X160637085Y-140420405D01*
X160904127Y-140020748D01*
X160997900Y-139549320D01*
X160997900Y-139190280D01*
X161074100Y-139190280D01*
X161074100Y-139549320D01*
X161167873Y-140020748D01*
X161434915Y-140420405D01*
X161834572Y-140687447D01*
X162306000Y-140781220D01*
X162777428Y-140687447D01*
X163177085Y-140420405D01*
X163444127Y-140020748D01*
X163537900Y-139549320D01*
X163537900Y-139190280D01*
X163444127Y-138718852D01*
X163200208Y-138353800D01*
X163606885Y-138353800D01*
X163606885Y-140385800D01*
X163632566Y-140522284D01*
X163713228Y-140647636D01*
X163836304Y-140731730D01*
X163982400Y-140761315D01*
X165709600Y-140761315D01*
X165846084Y-140735634D01*
X165971436Y-140654972D01*
X166055530Y-140531896D01*
X166085115Y-140385800D01*
X166085115Y-138353800D01*
X166059434Y-138217316D01*
X165978772Y-138091964D01*
X165855696Y-138007870D01*
X165709600Y-137978285D01*
X163982400Y-137978285D01*
X163845916Y-138003966D01*
X163720564Y-138084628D01*
X163636470Y-138207704D01*
X163606885Y-138353800D01*
X163200208Y-138353800D01*
X163177085Y-138319195D01*
X162777428Y-138052153D01*
X162306000Y-137958380D01*
X161834572Y-138052153D01*
X161434915Y-138319195D01*
X161167873Y-138718852D01*
X161074100Y-139190280D01*
X160997900Y-139190280D01*
X160904127Y-138718852D01*
X160637085Y-138319195D01*
X160237428Y-138052153D01*
X159766000Y-137958380D01*
X159294572Y-138052153D01*
X158894915Y-138319195D01*
X158627873Y-138718852D01*
X158534100Y-139190280D01*
X158457900Y-139190280D01*
X158364127Y-138718852D01*
X158097085Y-138319195D01*
X157697428Y-138052153D01*
X157226000Y-137958380D01*
X156754572Y-138052153D01*
X156354915Y-138319195D01*
X156087873Y-138718852D01*
X155994100Y-139190280D01*
X151264300Y-139190280D01*
X151264300Y-138185515D01*
X151546000Y-138185515D01*
X151682484Y-138159834D01*
X151807836Y-138079172D01*
X151891930Y-137956096D01*
X151921515Y-137810000D01*
X151921515Y-136510000D01*
X151895834Y-136373516D01*
X151815172Y-136248164D01*
X151692096Y-136164070D01*
X151546000Y-136134485D01*
X150046000Y-136134485D01*
X149909516Y-136160166D01*
X149784164Y-136240828D01*
X149700070Y-136363904D01*
X149670485Y-136510000D01*
X149670485Y-137810000D01*
X149696166Y-137946484D01*
X149776828Y-138071836D01*
X149899904Y-138155930D01*
X150019700Y-138180189D01*
X150019700Y-139540485D01*
X149892000Y-139540485D01*
X149755516Y-139566166D01*
X149630164Y-139646828D01*
X149546070Y-139769904D01*
X149516485Y-139916000D01*
X145592800Y-139916000D01*
X145592800Y-130683000D01*
X148194580Y-130683000D01*
X148299954Y-131212749D01*
X148600032Y-131661848D01*
X149049131Y-131961926D01*
X149578880Y-132067300D01*
X149633120Y-132067300D01*
X150162869Y-131961926D01*
X150611968Y-131661848D01*
X150884149Y-131254500D01*
X151946521Y-131254500D01*
X152025304Y-131308330D01*
X152171400Y-131337915D01*
X152554045Y-131337915D01*
X153428700Y-132212570D01*
X153428700Y-133212638D01*
X153422377Y-133222101D01*
X153360120Y-133535090D01*
X153360120Y-134180910D01*
X153422377Y-134493899D01*
X153599672Y-134759238D01*
X153865011Y-134936533D01*
X154178000Y-134998790D01*
X154490989Y-134936533D01*
X154756328Y-134759238D01*
X154813000Y-134674423D01*
X154825700Y-134693430D01*
X154825700Y-134950235D01*
X153641449Y-136134485D01*
X152746000Y-136134485D01*
X152609516Y-136160166D01*
X152484164Y-136240828D01*
X152400070Y-136363904D01*
X152370485Y-136510000D01*
X152370485Y-137810000D01*
X152396166Y-137946484D01*
X152476828Y-138071836D01*
X152599904Y-138155930D01*
X152746000Y-138185515D01*
X154246000Y-138185515D01*
X154382484Y-138159834D01*
X154507836Y-138079172D01*
X154591930Y-137956096D01*
X154621515Y-137810000D01*
X154621515Y-136914551D01*
X155888030Y-135648035D01*
X155888033Y-135648033D01*
X156022930Y-135446144D01*
X156070301Y-135208000D01*
X156070300Y-135207995D01*
X156070300Y-134693430D01*
X156203623Y-134493899D01*
X156265880Y-134180910D01*
X156265880Y-133535090D01*
X156203623Y-133222101D01*
X156026328Y-132956762D01*
X155760989Y-132779467D01*
X155448000Y-132717210D01*
X155135011Y-132779467D01*
X154927300Y-132918256D01*
X154927300Y-131902200D01*
X154870263Y-131615455D01*
X154707835Y-131372365D01*
X153766115Y-130430645D01*
X153766115Y-130048000D01*
X153740434Y-129911516D01*
X153659772Y-129786164D01*
X153536696Y-129702070D01*
X153390600Y-129672485D01*
X152171400Y-129672485D01*
X152034916Y-129698166D01*
X151945195Y-129755900D01*
X150646545Y-129755900D01*
X150611968Y-129704152D01*
X150358088Y-129534515D01*
X150622000Y-129534515D01*
X150758484Y-129508834D01*
X150883836Y-129428172D01*
X150967930Y-129305096D01*
X150997515Y-129159000D01*
X150997515Y-128892300D01*
X151946521Y-128892300D01*
X152025304Y-128946130D01*
X152171400Y-128975715D01*
X153390600Y-128975715D01*
X153527084Y-128950034D01*
X153652436Y-128869372D01*
X153736530Y-128746296D01*
X153766115Y-128600200D01*
X153766115Y-127685800D01*
X153740434Y-127549316D01*
X153659772Y-127423964D01*
X153536696Y-127339870D01*
X153390600Y-127310285D01*
X152171400Y-127310285D01*
X152034916Y-127335966D01*
X151945195Y-127393700D01*
X150997515Y-127393700D01*
X150997515Y-127127000D01*
X150971834Y-126990516D01*
X150891172Y-126865164D01*
X150768096Y-126781070D01*
X150622000Y-126751485D01*
X150609300Y-126751485D01*
X150609300Y-124447300D01*
X156972000Y-124447300D01*
X157355946Y-124370928D01*
X157681440Y-124153440D01*
X158381700Y-123453180D01*
X158381700Y-124716298D01*
X158359485Y-124826000D01*
X158359485Y-125449897D01*
X158358840Y-125453140D01*
X158359485Y-125456383D01*
X158359485Y-126126000D01*
X158381700Y-126244064D01*
X158381700Y-127762000D01*
X158458072Y-128145946D01*
X158675560Y-128471440D01*
X159905700Y-129701580D01*
X159905700Y-133908800D01*
X159962737Y-134195545D01*
X160125165Y-134438635D01*
X160518165Y-134831635D01*
X160761255Y-134994063D01*
X161048000Y-135051100D01*
X161420546Y-135051100D01*
X161550000Y-135077315D01*
X162300000Y-135077315D01*
X162436484Y-135051634D01*
X162437314Y-135051100D01*
X166429634Y-135051100D01*
X166495365Y-135064175D01*
X166273770Y-135285770D01*
X166166402Y-135446456D01*
X166148219Y-135537870D01*
X166128700Y-135636000D01*
X166128700Y-136652000D01*
X166166402Y-136841544D01*
X166273770Y-137002230D01*
X167403752Y-138132212D01*
X167326070Y-138245904D01*
X167296485Y-138392000D01*
X167296485Y-139992000D01*
X167322166Y-140128484D01*
X167402828Y-140253836D01*
X167525904Y-140337930D01*
X167672000Y-140367515D01*
X169172000Y-140367515D01*
X169308484Y-140341834D01*
X169433836Y-140261172D01*
X169517930Y-140138096D01*
X169547515Y-139992000D01*
X169547515Y-138392000D01*
X169521834Y-138255516D01*
X169441172Y-138130164D01*
X169318096Y-138046070D01*
X169172000Y-138016485D01*
X168688945Y-138016485D01*
X168264460Y-137592000D01*
X170496485Y-137592000D01*
X170496485Y-138792000D01*
X170522166Y-138928484D01*
X170602828Y-139053836D01*
X170725904Y-139137930D01*
X170872000Y-139167515D01*
X172072000Y-139167515D01*
X172208484Y-139141834D01*
X172333836Y-139061172D01*
X172417930Y-138938096D01*
X172447515Y-138792000D01*
X172447515Y-138632245D01*
X172582230Y-138542230D01*
X173248824Y-137875636D01*
X173265166Y-137962484D01*
X173345828Y-138087836D01*
X173468904Y-138171930D01*
X173615000Y-138201515D01*
X174365000Y-138201515D01*
X174501484Y-138175834D01*
X174626836Y-138095172D01*
X174710930Y-137972096D01*
X174740515Y-137826000D01*
X174740515Y-137026000D01*
X174714834Y-136889516D01*
X174634172Y-136764164D01*
X174511096Y-136680070D01*
X174365000Y-136650485D01*
X173989300Y-136650485D01*
X173989300Y-136509315D01*
X174269000Y-136509315D01*
X174405484Y-136483634D01*
X174530836Y-136402972D01*
X174614930Y-136279896D01*
X174644515Y-136133800D01*
X174644515Y-135974975D01*
X175272700Y-136603160D01*
X175272700Y-137160000D01*
X175310402Y-137349544D01*
X175417770Y-137510230D01*
X178372000Y-140464460D01*
X178321966Y-140716000D01*
X178415739Y-141187428D01*
X178682781Y-141587085D01*
X179082438Y-141854127D01*
X179553866Y-141947900D01*
X179602134Y-141947900D01*
X180073562Y-141854127D01*
X180473219Y-141587085D01*
X180740261Y-141187428D01*
X180834034Y-140716000D01*
X180740261Y-140244572D01*
X180537621Y-139941300D01*
X180642840Y-139941300D01*
X180954142Y-140252602D01*
X180861966Y-140716000D01*
X180955739Y-141187428D01*
X181222781Y-141587085D01*
X181622438Y-141854127D01*
X182093866Y-141947900D01*
X182142134Y-141947900D01*
X182613562Y-141854127D01*
X183013219Y-141587085D01*
X183280261Y-141187428D01*
X183374034Y-140716000D01*
X183280261Y-140244572D01*
X183013219Y-139844915D01*
X182613562Y-139577873D01*
X182142134Y-139484100D01*
X182093866Y-139484100D01*
X181670728Y-139568268D01*
X181198230Y-139095770D01*
X181037544Y-138988402D01*
X180848000Y-138950700D01*
X180537621Y-138950700D01*
X180740261Y-138647428D01*
X180834034Y-138176000D01*
X180740261Y-137704572D01*
X180537621Y-137401300D01*
X180642840Y-137401300D01*
X180954142Y-137712602D01*
X180861966Y-138176000D01*
X180955739Y-138647428D01*
X181222781Y-139047085D01*
X181622438Y-139314127D01*
X182093866Y-139407900D01*
X182142134Y-139407900D01*
X182613562Y-139314127D01*
X183013219Y-139047085D01*
X183280261Y-138647428D01*
X183374034Y-138176000D01*
X183280261Y-137704572D01*
X183013219Y-137304915D01*
X182613562Y-137037873D01*
X182142134Y-136944100D01*
X182093866Y-136944100D01*
X181670728Y-137028268D01*
X181198230Y-136555770D01*
X181037544Y-136448402D01*
X180848000Y-136410700D01*
X180537621Y-136410700D01*
X180740261Y-136107428D01*
X180834034Y-135636000D01*
X180740261Y-135164572D01*
X180473219Y-134764915D01*
X180073562Y-134497873D01*
X179602134Y-134404100D01*
X179553866Y-134404100D01*
X179082438Y-134497873D01*
X178812620Y-134678160D01*
X177725760Y-133591300D01*
X178431690Y-133591300D01*
X178682781Y-133967085D01*
X179082438Y-134234127D01*
X179553866Y-134327900D01*
X179602134Y-134327900D01*
X180073562Y-134234127D01*
X180473219Y-133967085D01*
X180740261Y-133567428D01*
X180834034Y-133096000D01*
X180740261Y-132624572D01*
X180537621Y-132321300D01*
X180642840Y-132321300D01*
X180954142Y-132632602D01*
X180861966Y-133096000D01*
X180955739Y-133567428D01*
X181222781Y-133967085D01*
X181622438Y-134234127D01*
X182093866Y-134327900D01*
X182142134Y-134327900D01*
X182613562Y-134234127D01*
X183013219Y-133967085D01*
X183280261Y-133567428D01*
X183374034Y-133096000D01*
X183280261Y-132624572D01*
X183013219Y-132224915D01*
X182613562Y-131957873D01*
X182142134Y-131864100D01*
X182093866Y-131864100D01*
X181670728Y-131948268D01*
X181198230Y-131475770D01*
X181037544Y-131368402D01*
X180848000Y-131330700D01*
X180537621Y-131330700D01*
X180740261Y-131027428D01*
X180834034Y-130556000D01*
X180740261Y-130084572D01*
X180473219Y-129684915D01*
X180418293Y-129648215D01*
X180436230Y-129636230D01*
X181198230Y-128874230D01*
X181206211Y-128862286D01*
X181222781Y-128887085D01*
X181622438Y-129154127D01*
X182093866Y-129247900D01*
X182142134Y-129247900D01*
X182613562Y-129154127D01*
X183013219Y-128887085D01*
X183280261Y-128487428D01*
X183374034Y-128016000D01*
X183280261Y-127544572D01*
X183013219Y-127144915D01*
X182613562Y-126877873D01*
X182142134Y-126784100D01*
X182093866Y-126784100D01*
X181622438Y-126877873D01*
X181343300Y-127064387D01*
X181343300Y-126951160D01*
X181670728Y-126623732D01*
X182093866Y-126707900D01*
X182142134Y-126707900D01*
X182613562Y-126614127D01*
X183013219Y-126347085D01*
X183280261Y-125947428D01*
X183374034Y-125476000D01*
X183280261Y-125004572D01*
X183013219Y-124604915D01*
X182613562Y-124337873D01*
X182142134Y-124244100D01*
X182093866Y-124244100D01*
X181622438Y-124337873D01*
X181222781Y-124604915D01*
X180955739Y-125004572D01*
X180861966Y-125476000D01*
X180954142Y-125939398D01*
X180497770Y-126395770D01*
X180390402Y-126556456D01*
X180390402Y-126556457D01*
X180352700Y-126746000D01*
X180352700Y-127064387D01*
X180073562Y-126877873D01*
X179602134Y-126784100D01*
X179553866Y-126784100D01*
X179082438Y-126877873D01*
X178682781Y-127144915D01*
X178415739Y-127544572D01*
X178321966Y-128016000D01*
X178415739Y-128487428D01*
X178641563Y-128825397D01*
X178626457Y-128828402D01*
X178465770Y-128935770D01*
X178388040Y-129013500D01*
X176486960Y-129013500D01*
X178658230Y-126842230D01*
X178765598Y-126681543D01*
X178803300Y-126492000D01*
X178803300Y-125173160D01*
X179275160Y-124701300D01*
X180848000Y-124701300D01*
X181037544Y-124663598D01*
X181198230Y-124556230D01*
X181670728Y-124083732D01*
X182093866Y-124167900D01*
X182142134Y-124167900D01*
X182613562Y-124074127D01*
X183013219Y-123807085D01*
X183280261Y-123407428D01*
X183374034Y-122936000D01*
X183280261Y-122464572D01*
X183013219Y-122064915D01*
X182613562Y-121797873D01*
X182142134Y-121704100D01*
X182093866Y-121704100D01*
X181622438Y-121797873D01*
X181222781Y-122064915D01*
X180955739Y-122464572D01*
X180861966Y-122936000D01*
X180954142Y-123399398D01*
X180642840Y-123710700D01*
X180537621Y-123710700D01*
X180740261Y-123407428D01*
X180834034Y-122936000D01*
X180740261Y-122464572D01*
X180473219Y-122064915D01*
X180073562Y-121797873D01*
X179602134Y-121704100D01*
X179553866Y-121704100D01*
X179082438Y-121797873D01*
X178682781Y-122064915D01*
X178415739Y-122464572D01*
X178321966Y-122936000D01*
X178372000Y-123187540D01*
X177195770Y-124363770D01*
X177088402Y-124524456D01*
X177088402Y-124524457D01*
X177050700Y-124714000D01*
X177050700Y-126032840D01*
X175370040Y-127713500D01*
X174294753Y-127713500D01*
X174269000Y-127708285D01*
X172719000Y-127708285D01*
X172582516Y-127733966D01*
X172457164Y-127814628D01*
X172373070Y-127937704D01*
X172343485Y-128083800D01*
X172343485Y-128333800D01*
X172369166Y-128470284D01*
X172409971Y-128533697D01*
X172373070Y-128587704D01*
X172343485Y-128733800D01*
X172343485Y-128983800D01*
X172369166Y-129120284D01*
X172409971Y-129183697D01*
X172373070Y-129237704D01*
X172343485Y-129383800D01*
X172343485Y-129633800D01*
X172369166Y-129770284D01*
X172409971Y-129833697D01*
X172373070Y-129887704D01*
X172343485Y-130033800D01*
X172343485Y-130283800D01*
X172369166Y-130420284D01*
X172409971Y-130483697D01*
X172373070Y-130537704D01*
X172343485Y-130683800D01*
X172343485Y-130933800D01*
X172369166Y-131070284D01*
X172409971Y-131133697D01*
X172373070Y-131187704D01*
X172343485Y-131333800D01*
X172343485Y-131583800D01*
X172369166Y-131720284D01*
X172409971Y-131783697D01*
X172373070Y-131837704D01*
X172343485Y-131983800D01*
X172343485Y-132233800D01*
X172369166Y-132370284D01*
X172409971Y-132433697D01*
X172373070Y-132487704D01*
X172343485Y-132633800D01*
X172343485Y-132883800D01*
X172369166Y-133020284D01*
X172409971Y-133083697D01*
X172373070Y-133137704D01*
X172343485Y-133283800D01*
X172343485Y-133533800D01*
X172369166Y-133670284D01*
X172409971Y-133733697D01*
X172373070Y-133787704D01*
X172343485Y-133933800D01*
X172343485Y-134183800D01*
X172369166Y-134320284D01*
X172409971Y-134383697D01*
X172373070Y-134437704D01*
X172343485Y-134583800D01*
X172343485Y-134833800D01*
X172369166Y-134970284D01*
X172409971Y-135033697D01*
X172373070Y-135087704D01*
X172343485Y-135233800D01*
X172343485Y-135483800D01*
X172369166Y-135620284D01*
X172409971Y-135683697D01*
X172373070Y-135737704D01*
X172343485Y-135883800D01*
X172343485Y-136133800D01*
X172369166Y-136270284D01*
X172449828Y-136395636D01*
X172572904Y-136479730D01*
X172719000Y-136509315D01*
X172998700Y-136509315D01*
X172998700Y-136724840D01*
X172361612Y-137361928D01*
X172341172Y-137330164D01*
X172218096Y-137246070D01*
X172072000Y-137216485D01*
X170872000Y-137216485D01*
X170735516Y-137242166D01*
X170610164Y-137322828D01*
X170526070Y-137445904D01*
X170496485Y-137592000D01*
X168264460Y-137592000D01*
X167119300Y-136446840D01*
X167119300Y-135859315D01*
X168669000Y-135859315D01*
X168805484Y-135833634D01*
X168930836Y-135752972D01*
X168942236Y-135736288D01*
X168983030Y-135709030D01*
X169090398Y-135548343D01*
X169128100Y-135358800D01*
X169090398Y-135169257D01*
X168989115Y-135017677D01*
X169014930Y-134979896D01*
X169044515Y-134833800D01*
X169044515Y-134583800D01*
X169018834Y-134447316D01*
X168978029Y-134383903D01*
X169014930Y-134329896D01*
X169044515Y-134183800D01*
X169044515Y-133933800D01*
X169018834Y-133797316D01*
X168978029Y-133733903D01*
X169014930Y-133679896D01*
X169044515Y-133533800D01*
X169044515Y-133283800D01*
X169018834Y-133147316D01*
X168978029Y-133083903D01*
X169014930Y-133029896D01*
X169044515Y-132883800D01*
X169044515Y-132633800D01*
X169018834Y-132497316D01*
X168978029Y-132433903D01*
X169014930Y-132379896D01*
X169044515Y-132233800D01*
X169044515Y-131983800D01*
X169018834Y-131847316D01*
X168978029Y-131783903D01*
X169014930Y-131729896D01*
X169044515Y-131583800D01*
X169044515Y-131333800D01*
X169018834Y-131197316D01*
X168978029Y-131133903D01*
X169014930Y-131079896D01*
X169044515Y-130933800D01*
X169044515Y-130683800D01*
X169018834Y-130547316D01*
X168978029Y-130483903D01*
X169014930Y-130429896D01*
X169044515Y-130283800D01*
X169044515Y-130033800D01*
X169018834Y-129897316D01*
X168978029Y-129833903D01*
X169014930Y-129779896D01*
X169044515Y-129633800D01*
X169044515Y-129383800D01*
X169018834Y-129247316D01*
X168978029Y-129183903D01*
X169014930Y-129129896D01*
X169044515Y-128983800D01*
X169044515Y-128733800D01*
X169018834Y-128597316D01*
X168978029Y-128533903D01*
X169014930Y-128479896D01*
X169044515Y-128333800D01*
X169044515Y-128083800D01*
X169018834Y-127947316D01*
X168978029Y-127883903D01*
X169014930Y-127829896D01*
X169044515Y-127683800D01*
X169044515Y-127433800D01*
X169018834Y-127297316D01*
X168938172Y-127171964D01*
X168815096Y-127087870D01*
X168669000Y-127058285D01*
X167954945Y-127058285D01*
X166993515Y-126096855D01*
X166993515Y-125646800D01*
X166967834Y-125510316D01*
X166887172Y-125384964D01*
X166764096Y-125300870D01*
X166618000Y-125271285D01*
X165868000Y-125271285D01*
X165731516Y-125296966D01*
X165606164Y-125377628D01*
X165522070Y-125500704D01*
X165492485Y-125646800D01*
X165492485Y-126446800D01*
X165518166Y-126583284D01*
X165598828Y-126708636D01*
X165721904Y-126792730D01*
X165737377Y-126795863D01*
X165731516Y-126796966D01*
X165606164Y-126877628D01*
X165535914Y-126980443D01*
X165494096Y-126951870D01*
X165348000Y-126922285D01*
X164598000Y-126922285D01*
X164461516Y-126947966D01*
X164336164Y-127028628D01*
X164252070Y-127151704D01*
X164241784Y-127202500D01*
X164178813Y-127202500D01*
X164168172Y-127185964D01*
X164045096Y-127101870D01*
X163899000Y-127072285D01*
X162999000Y-127072285D01*
X162862516Y-127097966D01*
X162737164Y-127178628D01*
X162653070Y-127301704D01*
X162623485Y-127447800D01*
X162623485Y-127947800D01*
X162649166Y-128084284D01*
X162729828Y-128209636D01*
X162852904Y-128293730D01*
X162999000Y-128323315D01*
X163899000Y-128323315D01*
X164035484Y-128297634D01*
X164160836Y-128216972D01*
X164177147Y-128193100D01*
X164240417Y-128193100D01*
X164248166Y-128234284D01*
X164328828Y-128359636D01*
X164451904Y-128443730D01*
X164467377Y-128446863D01*
X164461516Y-128447966D01*
X164460686Y-128448500D01*
X162429454Y-128448500D01*
X162300000Y-128422285D01*
X161550000Y-128422285D01*
X161444356Y-128442163D01*
X161364440Y-128322560D01*
X160388300Y-127346420D01*
X160388300Y-126235702D01*
X160410515Y-126126000D01*
X160410515Y-124826000D01*
X160388300Y-124707936D01*
X160388300Y-121446580D01*
X160729441Y-121105440D01*
X160946928Y-120779946D01*
X161023300Y-120396000D01*
X161023300Y-109982000D01*
X160946928Y-109598054D01*
X160729440Y-109272560D01*
X157979300Y-106522420D01*
X157979300Y-106369863D01*
X158258000Y-106425300D01*
X161801546Y-106425300D01*
X161931000Y-106451515D01*
X162681000Y-106451515D01*
X162817484Y-106425834D01*
X162818314Y-106425300D01*
X163579546Y-106425300D01*
X163709000Y-106451515D01*
X164459000Y-106451515D01*
X164595484Y-106425834D01*
X164720836Y-106345172D01*
X164804930Y-106222096D01*
X164834515Y-106076000D01*
X164834515Y-105985155D01*
X165883835Y-104935835D01*
X166046263Y-104692745D01*
X166065200Y-104597542D01*
X166065200Y-105940538D01*
X165339869Y-106665869D01*
X165218736Y-106847156D01*
X165176200Y-107061000D01*
X165176200Y-121158000D01*
X165218736Y-121371844D01*
X165327171Y-121534127D01*
X165339869Y-121553131D01*
X166652031Y-122865293D01*
X166637966Y-122936000D01*
X166731739Y-123407428D01*
X166998781Y-123807085D01*
X167398438Y-124074127D01*
X167869866Y-124167900D01*
X167918134Y-124167900D01*
X168389562Y-124074127D01*
X168789219Y-123807085D01*
X169056261Y-123407428D01*
X169150034Y-122936000D01*
X169056261Y-122464572D01*
X168789219Y-122064915D01*
X168389562Y-121797873D01*
X167918134Y-121704100D01*
X167869866Y-121704100D01*
X167398438Y-121797873D01*
X167258583Y-121891321D01*
X166293800Y-120926538D01*
X166293800Y-107292462D01*
X167005000Y-106581262D01*
X167498868Y-107075131D01*
X167609678Y-107149172D01*
X167680156Y-107196264D01*
X167894000Y-107238800D01*
X167947458Y-107238800D01*
X168030000Y-107255515D01*
X168465680Y-107255515D01*
X168514869Y-107329131D01*
X169276869Y-108091131D01*
X169458157Y-108212265D01*
X169672000Y-108254800D01*
X178474119Y-108254800D01*
X178575949Y-108407200D01*
X178308000Y-108407200D01*
X178094156Y-108449736D01*
X177918532Y-108567085D01*
X177912869Y-108570869D01*
X176806538Y-109677200D01*
X171537881Y-109677200D01*
X171329219Y-109364915D01*
X170929562Y-109097873D01*
X170458134Y-109004100D01*
X170409866Y-109004100D01*
X169938438Y-109097873D01*
X169538781Y-109364915D01*
X169271739Y-109764572D01*
X169177966Y-110236000D01*
X169271739Y-110707428D01*
X169431949Y-110947200D01*
X169164000Y-110947200D01*
X168950156Y-110989736D01*
X168774532Y-111107085D01*
X168768869Y-111110869D01*
X168266370Y-111613368D01*
X167918134Y-111544100D01*
X167869866Y-111544100D01*
X167398438Y-111637873D01*
X166998781Y-111904915D01*
X166731739Y-112304572D01*
X166637966Y-112776000D01*
X166731739Y-113247428D01*
X166998781Y-113647085D01*
X167398438Y-113914127D01*
X167869866Y-114007900D01*
X167918134Y-114007900D01*
X168389562Y-113914127D01*
X168739295Y-113680443D01*
X168266370Y-114153368D01*
X167918134Y-114084100D01*
X167869866Y-114084100D01*
X167398438Y-114177873D01*
X166998781Y-114444915D01*
X166731739Y-114844572D01*
X166637966Y-115316000D01*
X166731739Y-115787428D01*
X166998781Y-116187085D01*
X167398438Y-116454127D01*
X167869866Y-116547900D01*
X167918134Y-116547900D01*
X168389562Y-116454127D01*
X168789219Y-116187085D01*
X169056261Y-115787428D01*
X169150034Y-115316000D01*
X169072757Y-114927505D01*
X169395462Y-114604800D01*
X169431949Y-114604800D01*
X169271739Y-114844572D01*
X169177966Y-115316000D01*
X169271739Y-115787428D01*
X169431949Y-116027200D01*
X169418000Y-116027200D01*
X169204156Y-116069736D01*
X169028532Y-116187085D01*
X169022869Y-116190869D01*
X168453286Y-116760452D01*
X168389562Y-116717873D01*
X167918134Y-116624100D01*
X167869866Y-116624100D01*
X167398438Y-116717873D01*
X166998781Y-116984915D01*
X166731739Y-117384572D01*
X166637966Y-117856000D01*
X166731739Y-118327428D01*
X166998781Y-118727085D01*
X167398438Y-118994127D01*
X167869866Y-119087900D01*
X167918134Y-119087900D01*
X168389562Y-118994127D01*
X168739295Y-118760443D01*
X168266370Y-119233368D01*
X167918134Y-119164100D01*
X167869866Y-119164100D01*
X167398438Y-119257873D01*
X166998781Y-119524915D01*
X166731739Y-119924572D01*
X166637966Y-120396000D01*
X166731739Y-120867428D01*
X166998781Y-121267085D01*
X167398438Y-121534127D01*
X167869866Y-121627900D01*
X167918134Y-121627900D01*
X168389562Y-121534127D01*
X168789219Y-121267085D01*
X169056261Y-120867428D01*
X169150034Y-120396000D01*
X169072757Y-120007505D01*
X169395462Y-119684800D01*
X169431949Y-119684800D01*
X169271739Y-119924572D01*
X169177966Y-120396000D01*
X169271739Y-120867428D01*
X169538781Y-121267085D01*
X169938438Y-121534127D01*
X170409866Y-121627900D01*
X170458134Y-121627900D01*
X170929562Y-121534127D01*
X171329219Y-121267085D01*
X171537881Y-120954800D01*
X178474119Y-120954800D01*
X178682781Y-121267085D01*
X179082438Y-121534127D01*
X179553866Y-121627900D01*
X179602134Y-121627900D01*
X180073562Y-121534127D01*
X180473219Y-121267085D01*
X180740261Y-120867428D01*
X180834034Y-120396000D01*
X180740261Y-119924572D01*
X180580051Y-119684800D01*
X180616538Y-119684800D01*
X180939243Y-120007505D01*
X180861966Y-120396000D01*
X180955739Y-120867428D01*
X181222781Y-121267085D01*
X181622438Y-121534127D01*
X182093866Y-121627900D01*
X182142134Y-121627900D01*
X182613562Y-121534127D01*
X183013219Y-121267085D01*
X183280261Y-120867428D01*
X183374034Y-120396000D01*
X183280261Y-119924572D01*
X183013219Y-119524915D01*
X182613562Y-119257873D01*
X182142134Y-119164100D01*
X182093866Y-119164100D01*
X181745630Y-119233368D01*
X181243131Y-118730869D01*
X181237468Y-118727085D01*
X181061844Y-118609736D01*
X180848000Y-118567200D01*
X180580051Y-118567200D01*
X180740261Y-118327428D01*
X180834034Y-117856000D01*
X180740261Y-117384572D01*
X180580051Y-117144800D01*
X180848000Y-117144800D01*
X181061844Y-117102264D01*
X181243131Y-116981131D01*
X181745630Y-116478632D01*
X182093866Y-116547900D01*
X182142134Y-116547900D01*
X182613562Y-116454127D01*
X183013219Y-116187085D01*
X183280261Y-115787428D01*
X183374034Y-115316000D01*
X183280261Y-114844572D01*
X183013219Y-114444915D01*
X182613562Y-114177873D01*
X182142134Y-114084100D01*
X182093866Y-114084100D01*
X181622438Y-114177873D01*
X181222781Y-114444915D01*
X180955739Y-114844572D01*
X180861966Y-115316000D01*
X180939243Y-115704495D01*
X180616538Y-116027200D01*
X180580051Y-116027200D01*
X180740261Y-115787428D01*
X180834034Y-115316000D01*
X180740261Y-114844572D01*
X180580051Y-114604800D01*
X180594000Y-114604800D01*
X180807844Y-114562264D01*
X180989131Y-114441131D01*
X181558714Y-113871548D01*
X181622438Y-113914127D01*
X182093866Y-114007900D01*
X182142134Y-114007900D01*
X182613562Y-113914127D01*
X183013219Y-113647085D01*
X183280261Y-113247428D01*
X183374034Y-112776000D01*
X183280261Y-112304572D01*
X183013219Y-111904915D01*
X182613562Y-111637873D01*
X182142134Y-111544100D01*
X182093866Y-111544100D01*
X181622438Y-111637873D01*
X181222781Y-111904915D01*
X180955739Y-112304572D01*
X180861966Y-112776000D01*
X180897101Y-112952637D01*
X180774515Y-113075223D01*
X180834034Y-112776000D01*
X180740261Y-112304572D01*
X180473219Y-111904915D01*
X180073562Y-111637873D01*
X179602134Y-111544100D01*
X179553866Y-111544100D01*
X179082438Y-111637873D01*
X178732705Y-111871557D01*
X179205630Y-111398632D01*
X179553866Y-111467900D01*
X179602134Y-111467900D01*
X180073562Y-111374127D01*
X180473219Y-111107085D01*
X180740261Y-110707428D01*
X180834034Y-110236000D01*
X180740261Y-109764572D01*
X180580051Y-109524800D01*
X180848000Y-109524800D01*
X181061844Y-109482264D01*
X181243131Y-109361131D01*
X181745630Y-108858632D01*
X182093866Y-108927900D01*
X182142134Y-108927900D01*
X182613562Y-108834127D01*
X183013219Y-108567085D01*
X183280261Y-108167428D01*
X183374034Y-107696000D01*
X183280261Y-107224572D01*
X183013219Y-106824915D01*
X182613562Y-106557873D01*
X182142134Y-106464100D01*
X182093866Y-106464100D01*
X181622438Y-106557873D01*
X181222781Y-106824915D01*
X180955739Y-107224572D01*
X180861966Y-107696000D01*
X180939243Y-108084495D01*
X180616538Y-108407200D01*
X180580051Y-108407200D01*
X180740261Y-108167428D01*
X180834034Y-107696000D01*
X180740261Y-107224572D01*
X180473219Y-106824915D01*
X180073562Y-106557873D01*
X179602134Y-106464100D01*
X179553866Y-106464100D01*
X179082438Y-106557873D01*
X178682781Y-106824915D01*
X178474119Y-107137200D01*
X169903462Y-107137200D01*
X169468800Y-106702538D01*
X169468800Y-106172000D01*
X169426264Y-105958156D01*
X169305131Y-105776869D01*
X169163131Y-105634869D01*
X169130701Y-105613200D01*
X168981844Y-105513736D01*
X168768000Y-105471200D01*
X168612542Y-105471200D01*
X168530000Y-105454485D01*
X168030000Y-105454485D01*
X167944800Y-105470516D01*
X167944800Y-103099929D01*
X168365428Y-103016261D01*
X168765085Y-102749219D01*
X169032127Y-102349562D01*
X169125900Y-101878134D01*
X169125900Y-101829866D01*
X169032127Y-101358438D01*
X168765085Y-100958781D01*
X168365428Y-100691739D01*
X167894000Y-100597966D01*
X167422572Y-100691739D01*
X167182800Y-100851949D01*
X167182800Y-100584000D01*
X167140264Y-100370156D01*
X167040644Y-100221065D01*
X167422572Y-100476261D01*
X167894000Y-100570034D01*
X168357398Y-100477858D01*
X168733770Y-100854230D01*
X168894456Y-100961598D01*
X169084000Y-100999300D01*
X169535841Y-100999300D01*
X169295873Y-101358438D01*
X169202100Y-101829866D01*
X169202100Y-101878134D01*
X169295873Y-102349562D01*
X169562915Y-102749219D01*
X169621200Y-102788164D01*
X169621200Y-104979562D01*
X169584070Y-105033904D01*
X169554485Y-105180000D01*
X169554485Y-105580000D01*
X169578869Y-105709589D01*
X169554485Y-105830000D01*
X169554485Y-106230000D01*
X169580166Y-106366484D01*
X169660828Y-106491836D01*
X169783904Y-106575930D01*
X169930000Y-106605515D01*
X170430000Y-106605515D01*
X170518833Y-106588800D01*
X176164000Y-106588800D01*
X176377844Y-106546264D01*
X176559131Y-106425131D01*
X177828262Y-105156000D01*
X180861966Y-105156000D01*
X180955739Y-105627428D01*
X181222781Y-106027085D01*
X181622438Y-106294127D01*
X182093866Y-106387900D01*
X182142134Y-106387900D01*
X182613562Y-106294127D01*
X183013219Y-106027085D01*
X183280261Y-105627428D01*
X183374034Y-105156000D01*
X183280261Y-104684572D01*
X183013219Y-104284915D01*
X182613562Y-104017873D01*
X182142134Y-103924100D01*
X182093866Y-103924100D01*
X181622438Y-104017873D01*
X181222781Y-104284915D01*
X180955739Y-104684572D01*
X180861966Y-105156000D01*
X177828262Y-105156000D01*
X179205630Y-103778632D01*
X179553866Y-103847900D01*
X179602134Y-103847900D01*
X180073562Y-103754127D01*
X180473219Y-103487085D01*
X180740261Y-103087428D01*
X180834034Y-102616000D01*
X180861966Y-102616000D01*
X180955739Y-103087428D01*
X181222781Y-103487085D01*
X181622438Y-103754127D01*
X182093866Y-103847900D01*
X182142134Y-103847900D01*
X182613562Y-103754127D01*
X183013219Y-103487085D01*
X183280261Y-103087428D01*
X183374034Y-102616000D01*
X183280261Y-102144572D01*
X183013219Y-101744915D01*
X182613562Y-101477873D01*
X182142134Y-101384100D01*
X182093866Y-101384100D01*
X181622438Y-101477873D01*
X181222781Y-101744915D01*
X180955739Y-102144572D01*
X180861966Y-102616000D01*
X180834034Y-102616000D01*
X180740261Y-102144572D01*
X180473219Y-101744915D01*
X180073562Y-101477873D01*
X179602134Y-101384100D01*
X179553866Y-101384100D01*
X179082438Y-101477873D01*
X178682781Y-101744915D01*
X178415739Y-102144572D01*
X178321966Y-102616000D01*
X178399243Y-103004495D01*
X175932538Y-105471200D01*
X170805515Y-105471200D01*
X170805515Y-105180000D01*
X170779834Y-105043516D01*
X170738800Y-104979748D01*
X170738800Y-103049405D01*
X170905428Y-103016261D01*
X171305085Y-102749219D01*
X171572127Y-102349562D01*
X171665900Y-101878134D01*
X171665900Y-101829866D01*
X171572127Y-101358438D01*
X171332159Y-100999300D01*
X172456485Y-100999300D01*
X172456485Y-101254000D01*
X172482166Y-101390484D01*
X172562828Y-101515836D01*
X172685904Y-101599930D01*
X172832000Y-101629515D01*
X173694139Y-101629515D01*
X173659924Y-101711913D01*
X173659791Y-101864749D01*
X173446055Y-102078485D01*
X172832000Y-102078485D01*
X172695516Y-102104166D01*
X172570164Y-102184828D01*
X172486070Y-102307904D01*
X172456485Y-102454000D01*
X172456485Y-103954000D01*
X172482166Y-104090484D01*
X172562828Y-104215836D01*
X172685904Y-104299930D01*
X172832000Y-104329515D01*
X174132000Y-104329515D01*
X174268484Y-104303834D01*
X174393836Y-104223172D01*
X174477930Y-104100096D01*
X174507515Y-103954000D01*
X174507515Y-102565319D01*
X174511846Y-102565323D01*
X174773336Y-102457277D01*
X174973574Y-102257388D01*
X175082076Y-101996087D01*
X175082323Y-101713154D01*
X174974277Y-101451664D01*
X174774388Y-101251426D01*
X174513087Y-101142924D01*
X174507515Y-101142919D01*
X174507515Y-100825300D01*
X175036121Y-100825300D01*
X175039166Y-100841484D01*
X175119828Y-100966836D01*
X175242904Y-101050930D01*
X175389000Y-101080515D01*
X175639000Y-101080515D01*
X175775484Y-101054834D01*
X175900836Y-100974172D01*
X175984930Y-100851096D01*
X176013981Y-100707637D01*
X176018700Y-100732716D01*
X176018700Y-101342000D01*
X176056402Y-101531544D01*
X176163770Y-101692230D01*
X176250485Y-101778945D01*
X176250485Y-102229000D01*
X176276166Y-102365484D01*
X176356828Y-102490836D01*
X176479904Y-102574930D01*
X176626000Y-102604515D01*
X177426000Y-102604515D01*
X177562484Y-102578834D01*
X177687836Y-102498172D01*
X177771930Y-102375096D01*
X177801515Y-102229000D01*
X177801515Y-101479000D01*
X177775834Y-101342516D01*
X177695172Y-101217164D01*
X177572096Y-101133070D01*
X177426000Y-101103485D01*
X177009300Y-101103485D01*
X177009300Y-101080515D01*
X177139000Y-101080515D01*
X177275484Y-101054834D01*
X177400836Y-100974172D01*
X177484930Y-100851096D01*
X177514515Y-100705000D01*
X177514515Y-100299945D01*
X177738460Y-100076000D01*
X178321966Y-100076000D01*
X178415739Y-100547428D01*
X178682781Y-100947085D01*
X179082438Y-101214127D01*
X179553866Y-101307900D01*
X179602134Y-101307900D01*
X180073562Y-101214127D01*
X180473219Y-100947085D01*
X180740261Y-100547428D01*
X180834034Y-100076000D01*
X180740261Y-99604572D01*
X180473219Y-99204915D01*
X180073562Y-98937873D01*
X179602134Y-98844100D01*
X179553866Y-98844100D01*
X179082438Y-98937873D01*
X178682781Y-99204915D01*
X178415739Y-99604572D01*
X178321966Y-100076000D01*
X177738460Y-100076000D01*
X179130728Y-98683732D01*
X179553866Y-98767900D01*
X179602134Y-98767900D01*
X180073562Y-98674127D01*
X180473219Y-98407085D01*
X180740261Y-98007428D01*
X180783867Y-97788206D01*
X180839074Y-98065749D01*
X181139152Y-98514848D01*
X181588251Y-98814926D01*
X182118000Y-98920300D01*
X182647749Y-98814926D01*
X183096848Y-98514848D01*
X183396926Y-98065749D01*
X183502300Y-97536000D01*
X183502300Y-93472000D01*
X183396926Y-92942251D01*
X183096848Y-92493152D01*
X182080848Y-91477152D01*
X181721135Y-91236800D01*
X181631749Y-91177074D01*
X181102000Y-91071700D01*
X155194000Y-91071700D01*
X154664251Y-91177074D01*
X154574865Y-91236800D01*
X154215152Y-91477152D01*
X149897152Y-95795152D01*
X149597074Y-96244251D01*
X149491700Y-96774000D01*
X149491700Y-98806000D01*
X149507630Y-98886083D01*
X149507463Y-99076978D01*
X149581004Y-99254962D01*
X149597074Y-99335749D01*
X149642436Y-99403639D01*
X149715335Y-99580067D01*
X149851389Y-99716359D01*
X149897152Y-99784848D01*
X149965043Y-99830211D01*
X150099908Y-99965312D01*
X150277763Y-100039164D01*
X150346251Y-100084926D01*
X150426333Y-100100855D01*
X150602634Y-100174062D01*
X150795211Y-100174230D01*
X150876000Y-100190300D01*
X150956083Y-100174370D01*
X151146978Y-100174537D01*
X151324962Y-100100996D01*
X151405749Y-100084926D01*
X151473639Y-100039564D01*
X151650067Y-99966665D01*
X151786359Y-99830611D01*
X151854848Y-99784848D01*
X151900211Y-99716957D01*
X152035312Y-99582092D01*
X152109164Y-99404237D01*
X152154926Y-99335749D01*
X152170855Y-99255667D01*
X152244062Y-99079366D01*
X152244230Y-98886789D01*
X152260300Y-98806000D01*
X152260300Y-97347396D01*
X155767396Y-93840300D01*
X164408630Y-93840300D01*
X164592700Y-94024370D01*
X164592700Y-96774000D01*
X164604700Y-96834328D01*
X164604700Y-98337407D01*
X164482915Y-98418781D01*
X164215873Y-98818438D01*
X164122100Y-99289866D01*
X164122100Y-99338134D01*
X164215873Y-99809562D01*
X164482915Y-100209219D01*
X164882572Y-100476261D01*
X165354000Y-100570034D01*
X165742495Y-100492757D01*
X166065200Y-100815462D01*
X166065200Y-100851949D01*
X165825428Y-100691739D01*
X165354000Y-100597966D01*
X164882572Y-100691739D01*
X164482915Y-100958781D01*
X164215873Y-101358438D01*
X164122100Y-101829866D01*
X164122100Y-101878134D01*
X164215873Y-102349562D01*
X164482915Y-102749219D01*
X164604700Y-102830593D01*
X164604700Y-104095630D01*
X163799845Y-104900485D01*
X163709000Y-104900485D01*
X163572516Y-104926166D01*
X163571686Y-104926700D01*
X162810454Y-104926700D01*
X162681000Y-104900485D01*
X161931000Y-104900485D01*
X161794516Y-104926166D01*
X161793686Y-104926700D01*
X158751515Y-104926700D01*
X158751515Y-103194000D01*
X158725834Y-103057516D01*
X158645172Y-102932164D01*
X158522096Y-102848070D01*
X158376000Y-102818485D01*
X158360300Y-102818485D01*
X158360300Y-99826000D01*
X158254926Y-99296251D01*
X157954848Y-98847152D01*
X156934848Y-97827152D01*
X156866958Y-97781789D01*
X156732092Y-97646688D01*
X156554235Y-97572835D01*
X156485748Y-97527074D01*
X156405668Y-97511145D01*
X156229366Y-97437938D01*
X156036789Y-97437770D01*
X155956000Y-97421700D01*
X155875917Y-97437630D01*
X155685022Y-97437463D01*
X155507037Y-97511005D01*
X155426252Y-97527074D01*
X155358364Y-97572435D01*
X155181933Y-97645335D01*
X155045641Y-97781389D01*
X154977152Y-97827152D01*
X154931789Y-97895042D01*
X154796688Y-98029908D01*
X154722835Y-98207765D01*
X154677074Y-98276252D01*
X154661145Y-98356332D01*
X154587938Y-98532634D01*
X154587770Y-98725211D01*
X154571700Y-98806000D01*
X154587630Y-98886083D01*
X154587463Y-99076978D01*
X154661005Y-99254963D01*
X154677074Y-99335748D01*
X154722435Y-99403636D01*
X154795335Y-99580067D01*
X154931389Y-99716359D01*
X154977152Y-99784848D01*
X155591700Y-100399396D01*
X155591700Y-102818485D01*
X155576000Y-102818485D01*
X155439516Y-102844166D01*
X155314164Y-102924828D01*
X155256174Y-103009700D01*
X152595065Y-103009700D01*
X152545172Y-102932164D01*
X152422096Y-102848070D01*
X152276000Y-102818485D01*
X149476000Y-102818485D01*
X149339516Y-102844166D01*
X149214164Y-102924828D01*
X149130070Y-103047904D01*
X149100485Y-103194000D01*
X149100485Y-105594000D01*
X149126166Y-105730484D01*
X149206828Y-105855836D01*
X149329904Y-105939930D01*
X149476000Y-105969515D01*
X152276000Y-105969515D01*
X152412484Y-105943834D01*
X152537836Y-105863172D01*
X152595826Y-105778300D01*
X155256935Y-105778300D01*
X155306828Y-105855836D01*
X155429904Y-105939930D01*
X155576000Y-105969515D01*
X155972700Y-105969515D01*
X155972700Y-106938000D01*
X156049072Y-107321946D01*
X156266560Y-107647440D01*
X159016700Y-110397580D01*
X159016700Y-119980419D01*
X158985067Y-120012053D01*
X156556420Y-122440700D01*
X150365702Y-122440700D01*
X150256000Y-122418485D01*
X148956000Y-122418485D01*
X148819516Y-122444166D01*
X148694164Y-122524828D01*
X148610070Y-122647904D01*
X148580485Y-122794000D01*
X148580485Y-124094000D01*
X148602700Y-124212064D01*
X148602700Y-126751485D01*
X148590000Y-126751485D01*
X148453516Y-126777166D01*
X148328164Y-126857828D01*
X148244070Y-126980904D01*
X148214485Y-127127000D01*
X148214485Y-129159000D01*
X148240166Y-129295484D01*
X148320828Y-129420836D01*
X148443904Y-129504930D01*
X148590000Y-129534515D01*
X148853912Y-129534515D01*
X148600032Y-129704152D01*
X148299954Y-130153251D01*
X148194580Y-130683000D01*
X145592800Y-130683000D01*
X145592800Y-90601800D01*
X183972200Y-90601800D01*
X183972200Y-145872200D01*
G36*
X161550000Y-129973315D02*
X162300000Y-129973315D01*
X162436484Y-129947634D01*
X162437314Y-129947100D01*
X163538105Y-129947100D01*
X163433164Y-130014628D01*
X163349070Y-130137704D01*
X163319485Y-130283800D01*
X163319485Y-131183800D01*
X163345166Y-131320284D01*
X163425828Y-131445636D01*
X163548904Y-131529730D01*
X163695000Y-131559315D01*
X164033145Y-131559315D01*
X164033077Y-131636646D01*
X164141123Y-131898136D01*
X164183199Y-131940285D01*
X163695000Y-131940285D01*
X163558516Y-131965966D01*
X163433164Y-132046628D01*
X163349070Y-132169704D01*
X163319485Y-132315800D01*
X163319485Y-133215800D01*
X163345166Y-133352284D01*
X163425828Y-133477636D01*
X163535395Y-133552500D01*
X162429454Y-133552500D01*
X162300000Y-133526285D01*
X161550000Y-133526285D01*
X161413516Y-133551966D01*
X161412686Y-133552500D01*
X161404300Y-133552500D01*
X161404300Y-129947100D01*
X161420546Y-129947100D01*
X161550000Y-129973315D01*
X161550000Y-129973315D01*
G37*
X161550000Y-129973315D02*
X162300000Y-129973315D01*
X162436484Y-129947634D01*
X162437314Y-129947100D01*
X163538105Y-129947100D01*
X163433164Y-130014628D01*
X163349070Y-130137704D01*
X163319485Y-130283800D01*
X163319485Y-131183800D01*
X163345166Y-131320284D01*
X163425828Y-131445636D01*
X163548904Y-131529730D01*
X163695000Y-131559315D01*
X164033145Y-131559315D01*
X164033077Y-131636646D01*
X164141123Y-131898136D01*
X164183199Y-131940285D01*
X163695000Y-131940285D01*
X163558516Y-131965966D01*
X163433164Y-132046628D01*
X163349070Y-132169704D01*
X163319485Y-132315800D01*
X163319485Y-133215800D01*
X163345166Y-133352284D01*
X163425828Y-133477636D01*
X163535395Y-133552500D01*
X162429454Y-133552500D01*
X162300000Y-133526285D01*
X161550000Y-133526285D01*
X161413516Y-133551966D01*
X161412686Y-133552500D01*
X161404300Y-133552500D01*
X161404300Y-129947100D01*
X161420546Y-129947100D01*
X161550000Y-129973315D01*
G36*
X172456485Y-93918747D02*
X172456485Y-94904000D01*
X172482166Y-95040484D01*
X172562828Y-95165836D01*
X172685904Y-95249930D01*
X172832000Y-95279515D01*
X173727449Y-95279515D01*
X174187699Y-95739764D01*
X174132000Y-95728485D01*
X172832000Y-95728485D01*
X172695516Y-95754166D01*
X172570164Y-95834828D01*
X172486070Y-95957904D01*
X172456485Y-96104000D01*
X172456485Y-97179055D01*
X171252137Y-98383403D01*
X170905428Y-98151739D01*
X170434000Y-98057966D01*
X169962572Y-98151739D01*
X169562915Y-98418781D01*
X169295873Y-98818438D01*
X169202100Y-99289866D01*
X169202100Y-99338134D01*
X169295873Y-99809562D01*
X169428933Y-100008700D01*
X169289160Y-100008700D01*
X169041732Y-99761272D01*
X169125900Y-99338134D01*
X169125900Y-99289866D01*
X169032127Y-98818438D01*
X168765085Y-98418781D01*
X168365428Y-98151739D01*
X167894000Y-98057966D01*
X167422572Y-98151739D01*
X167022915Y-98418781D01*
X166755873Y-98818438D01*
X166662100Y-99289866D01*
X166662100Y-99338134D01*
X166755873Y-99809562D01*
X166989557Y-100159295D01*
X166516632Y-99686370D01*
X166585900Y-99338134D01*
X166585900Y-99289866D01*
X166492127Y-98818438D01*
X166225085Y-98418781D01*
X166103300Y-98337407D01*
X166103300Y-96786000D01*
X166091300Y-96725672D01*
X166091300Y-93840300D01*
X172378038Y-93840300D01*
X172456485Y-93918747D01*
X172456485Y-93918747D01*
G37*
X172456485Y-93918747D02*
X172456485Y-94904000D01*
X172482166Y-95040484D01*
X172562828Y-95165836D01*
X172685904Y-95249930D01*
X172832000Y-95279515D01*
X173727449Y-95279515D01*
X174187699Y-95739764D01*
X174132000Y-95728485D01*
X172832000Y-95728485D01*
X172695516Y-95754166D01*
X172570164Y-95834828D01*
X172486070Y-95957904D01*
X172456485Y-96104000D01*
X172456485Y-97179055D01*
X171252137Y-98383403D01*
X170905428Y-98151739D01*
X170434000Y-98057966D01*
X169962572Y-98151739D01*
X169562915Y-98418781D01*
X169295873Y-98818438D01*
X169202100Y-99289866D01*
X169202100Y-99338134D01*
X169295873Y-99809562D01*
X169428933Y-100008700D01*
X169289160Y-100008700D01*
X169041732Y-99761272D01*
X169125900Y-99338134D01*
X169125900Y-99289866D01*
X169032127Y-98818438D01*
X168765085Y-98418781D01*
X168365428Y-98151739D01*
X167894000Y-98057966D01*
X167422572Y-98151739D01*
X167022915Y-98418781D01*
X166755873Y-98818438D01*
X166662100Y-99289866D01*
X166662100Y-99338134D01*
X166755873Y-99809562D01*
X166989557Y-100159295D01*
X166516632Y-99686370D01*
X166585900Y-99338134D01*
X166585900Y-99289866D01*
X166492127Y-98818438D01*
X166225085Y-98418781D01*
X166103300Y-98337407D01*
X166103300Y-96786000D01*
X166091300Y-96725672D01*
X166091300Y-93840300D01*
X172378038Y-93840300D01*
X172456485Y-93918747D01*
G36*
X178452564Y-93863228D02*
X178368470Y-93986304D01*
X178338885Y-94132400D01*
X178338885Y-94500700D01*
X178308000Y-94500700D01*
X178118456Y-94538402D01*
X177957770Y-94645770D01*
X176518515Y-96085025D01*
X176518515Y-95600000D01*
X176492834Y-95463516D01*
X176412172Y-95338164D01*
X176289096Y-95254070D01*
X176143000Y-95224485D01*
X175432550Y-95224485D01*
X174507515Y-94299449D01*
X174507515Y-93840300D01*
X178488195Y-93840300D01*
X178452564Y-93863228D01*
X178452564Y-93863228D01*
G37*
X178452564Y-93863228D02*
X178368470Y-93986304D01*
X178338885Y-94132400D01*
X178338885Y-94500700D01*
X178308000Y-94500700D01*
X178118456Y-94538402D01*
X177957770Y-94645770D01*
X176518515Y-96085025D01*
X176518515Y-95600000D01*
X176492834Y-95463516D01*
X176412172Y-95338164D01*
X176289096Y-95254070D01*
X176143000Y-95224485D01*
X175432550Y-95224485D01*
X174507515Y-94299449D01*
X174507515Y-93840300D01*
X178488195Y-93840300D01*
X178452564Y-93863228D01*
M02*
