G04 #@! TF.FileFunction,Soldermask,Top*
%FSLAX46Y46*%
G04 Gerber Fmt 4.6, Leading zero omitted, Abs format (unit mm)*
G04 Created by KiCad (PCBNEW 4.0.2-4+6225~38~ubuntu14.04.1-stable) date Wed 02 Mar 2016 03:50:32 PM CST*
%MOMM*%
G01*
G04 APERTURE LIST*
%ADD10C,0.100000*%
%ADD11R,1.550000X0.250000*%
%ADD12R,3.100000X5.180000*%
%ADD13R,1.727200X1.727200*%
%ADD14O,1.727200X1.727200*%
%ADD15R,1.300000X1.500000*%
%ADD16R,0.500000X0.900000*%
%ADD17R,0.750000X0.800000*%
%ADD18R,0.800000X0.750000*%
%ADD19R,1.727200X2.032000*%
%ADD20O,1.727200X2.032000*%
%ADD21R,0.900000X0.500000*%
%ADD22C,2.000000*%
%ADD23R,0.250000X0.750000*%
%ADD24R,2.032000X2.032000*%
%ADD25O,2.032000X2.032000*%
%ADD26O,0.899160X1.501140*%
%ADD27R,0.500000X0.400000*%
%ADD28R,1.219200X0.914400*%
%ADD29R,1.200000X1.200000*%
%ADD30R,1.500000X1.600000*%
%ADD31C,1.300000*%
%ADD32R,1.300000X1.300000*%
%ADD33R,1.500000X1.300000*%
%ADD34R,2.800000X2.400000*%
%ADD35C,2.600000*%
%ADD36C,2.800000*%
G04 APERTURE END LIST*
D10*
D11*
X173494000Y-127558800D03*
X173494000Y-128208800D03*
X173494000Y-128858800D03*
X173494000Y-129508800D03*
X173494000Y-130158800D03*
X173494000Y-130808800D03*
X173494000Y-131458800D03*
X173494000Y-132108800D03*
X173494000Y-132758800D03*
X173494000Y-133408800D03*
X173494000Y-134058800D03*
X173494000Y-134708800D03*
X173494000Y-135358800D03*
X173494000Y-136008800D03*
X167894000Y-127558800D03*
X167894000Y-128208800D03*
X167894000Y-128858800D03*
X167894000Y-129508800D03*
X167894000Y-130158800D03*
X167894000Y-130808800D03*
X167894000Y-131458800D03*
X167894000Y-132108800D03*
X167894000Y-132758800D03*
X167894000Y-133408800D03*
X167894000Y-134058800D03*
X167894000Y-134708800D03*
X167894000Y-135358800D03*
X167894000Y-136008800D03*
D12*
X170694000Y-131813800D03*
D13*
X179578000Y-94996000D03*
D14*
X182118000Y-94996000D03*
X179578000Y-97536000D03*
X182118000Y-97536000D03*
X179578000Y-100076000D03*
X182118000Y-100076000D03*
X179578000Y-102616000D03*
X182118000Y-102616000D03*
X179578000Y-105156000D03*
X182118000Y-105156000D03*
X179578000Y-107696000D03*
X182118000Y-107696000D03*
X179578000Y-110236000D03*
X182118000Y-110236000D03*
X179578000Y-112776000D03*
X182118000Y-112776000D03*
X179578000Y-115316000D03*
X182118000Y-115316000D03*
X179578000Y-117856000D03*
X182118000Y-117856000D03*
X179578000Y-120396000D03*
X182118000Y-120396000D03*
X179578000Y-122936000D03*
X182118000Y-122936000D03*
X179578000Y-125476000D03*
X182118000Y-125476000D03*
X179578000Y-128016000D03*
X182118000Y-128016000D03*
X179578000Y-130556000D03*
X182118000Y-130556000D03*
X179578000Y-133096000D03*
X182118000Y-133096000D03*
X179578000Y-135636000D03*
X182118000Y-135636000D03*
X179578000Y-138176000D03*
X182118000Y-138176000D03*
X179578000Y-140716000D03*
X182118000Y-140716000D03*
X179578000Y-143256000D03*
X182118000Y-143256000D03*
D15*
X173482000Y-94154000D03*
X173482000Y-96854000D03*
D16*
X163945000Y-130733800D03*
X162445000Y-130733800D03*
D17*
X161925000Y-127697800D03*
X161925000Y-129197800D03*
X164084000Y-92976000D03*
X164084000Y-94476000D03*
X162306000Y-107176000D03*
X162306000Y-105676000D03*
D18*
X175526000Y-101854000D03*
X177026000Y-101854000D03*
D17*
X175768000Y-94500000D03*
X175768000Y-96000000D03*
X161925000Y-135801800D03*
X161925000Y-134301800D03*
X164973000Y-127697800D03*
X164973000Y-129197800D03*
X166243000Y-127546800D03*
X166243000Y-126046800D03*
X173990000Y-137426000D03*
X173990000Y-138926000D03*
D19*
X164846000Y-139369800D03*
D20*
X162306000Y-139369800D03*
X159766000Y-139369800D03*
X157226000Y-139369800D03*
D21*
X163449000Y-127697800D03*
X163449000Y-129197800D03*
D16*
X163945000Y-132765800D03*
X162445000Y-132765800D03*
D15*
X173482000Y-103204000D03*
X173482000Y-100504000D03*
D22*
X155956000Y-98806000D03*
X153416000Y-98806000D03*
X150876000Y-98806000D03*
D23*
X175514000Y-97230000D03*
X176014000Y-97230000D03*
X176514000Y-97230000D03*
X177014000Y-97230000D03*
X175514000Y-100330000D03*
X176014000Y-100330000D03*
X176514000Y-100330000D03*
X177014000Y-100330000D03*
D24*
X149606000Y-128143000D03*
D25*
X149606000Y-130683000D03*
D26*
X155448000Y-133858000D03*
X156718000Y-133858000D03*
X154178000Y-133858000D03*
D27*
X170180000Y-106680000D03*
X170180000Y-106030000D03*
X170180000Y-105380000D03*
X168280000Y-106680000D03*
X168280000Y-106030000D03*
X168280000Y-105380000D03*
D28*
X152781000Y-128143000D03*
X152781000Y-130505200D03*
D13*
X162814000Y-101854000D03*
D14*
X162814000Y-99314000D03*
X165354000Y-101854000D03*
X165354000Y-99314000D03*
X167894000Y-101854000D03*
X167894000Y-99314000D03*
X170434000Y-101854000D03*
X170434000Y-99314000D03*
D29*
X171472000Y-140192000D03*
X171472000Y-138192000D03*
D30*
X168422000Y-139192000D03*
D29*
X153692000Y-141716000D03*
X153692000Y-139716000D03*
D30*
X150642000Y-140716000D03*
D31*
X149606000Y-120944000D03*
D32*
X149606000Y-123444000D03*
D31*
X156885000Y-125476000D03*
D32*
X159385000Y-125476000D03*
D33*
X153496000Y-137160000D03*
X150796000Y-137160000D03*
D17*
X162306000Y-94476000D03*
X162306000Y-92976000D03*
X164084000Y-107176000D03*
X164084000Y-105676000D03*
D34*
X150876000Y-104394000D03*
X156976000Y-104394000D03*
X150876000Y-115794000D03*
X156976000Y-115794000D03*
D35*
X150876000Y-110094000D03*
D36*
X155576000Y-110094000D03*
D13*
X167894000Y-110236000D03*
D14*
X170434000Y-110236000D03*
X167894000Y-112776000D03*
X170434000Y-112776000D03*
X167894000Y-115316000D03*
X170434000Y-115316000D03*
X167894000Y-117856000D03*
X170434000Y-117856000D03*
X167894000Y-120396000D03*
X170434000Y-120396000D03*
X167894000Y-122936000D03*
X170434000Y-122936000D03*
M02*
