G04 #@! TF.FileFunction,Copper,L2,Bot,Signal*
%FSLAX46Y46*%
G04 Gerber Fmt 4.6, Leading zero omitted, Abs format (unit mm)*
G04 Created by KiCad (PCBNEW 4.0.2-4+6225~38~ubuntu14.04.1-stable) date Wed 02 Mar 2016 03:50:32 PM CST*
%MOMM*%
G01*
G04 APERTURE LIST*
%ADD10C,0.100000*%
%ADD11R,1.727200X1.727200*%
%ADD12O,1.727200X1.727200*%
%ADD13R,1.727200X2.032000*%
%ADD14O,1.727200X2.032000*%
%ADD15C,2.000000*%
%ADD16R,2.032000X2.032000*%
%ADD17O,2.032000X2.032000*%
%ADD18O,0.899160X1.501140*%
%ADD19C,1.300000*%
%ADD20R,1.300000X1.300000*%
%ADD21C,2.600000*%
%ADD22C,2.800000*%
%ADD23C,0.914400*%
%ADD24C,0.685800*%
%ADD25C,0.381000*%
%ADD26C,0.254000*%
%ADD27C,0.228600*%
G04 APERTURE END LIST*
D10*
D11*
X179578000Y-94996000D03*
D12*
X182118000Y-94996000D03*
X179578000Y-97536000D03*
X182118000Y-97536000D03*
X179578000Y-100076000D03*
X182118000Y-100076000D03*
X179578000Y-102616000D03*
X182118000Y-102616000D03*
X179578000Y-105156000D03*
X182118000Y-105156000D03*
X179578000Y-107696000D03*
X182118000Y-107696000D03*
X179578000Y-110236000D03*
X182118000Y-110236000D03*
X179578000Y-112776000D03*
X182118000Y-112776000D03*
X179578000Y-115316000D03*
X182118000Y-115316000D03*
X179578000Y-117856000D03*
X182118000Y-117856000D03*
X179578000Y-120396000D03*
X182118000Y-120396000D03*
X179578000Y-122936000D03*
X182118000Y-122936000D03*
X179578000Y-125476000D03*
X182118000Y-125476000D03*
X179578000Y-128016000D03*
X182118000Y-128016000D03*
X179578000Y-130556000D03*
X182118000Y-130556000D03*
X179578000Y-133096000D03*
X182118000Y-133096000D03*
X179578000Y-135636000D03*
X182118000Y-135636000D03*
X179578000Y-138176000D03*
X182118000Y-138176000D03*
X179578000Y-140716000D03*
X182118000Y-140716000D03*
X179578000Y-143256000D03*
X182118000Y-143256000D03*
D13*
X164846000Y-139369800D03*
D14*
X162306000Y-139369800D03*
X159766000Y-139369800D03*
X157226000Y-139369800D03*
D15*
X155956000Y-98806000D03*
X153416000Y-98806000D03*
X150876000Y-98806000D03*
D16*
X149606000Y-128143000D03*
D17*
X149606000Y-130683000D03*
D18*
X155448000Y-133858000D03*
X156718000Y-133858000D03*
X154178000Y-133858000D03*
D11*
X162814000Y-101854000D03*
D12*
X162814000Y-99314000D03*
X165354000Y-101854000D03*
X165354000Y-99314000D03*
X167894000Y-101854000D03*
X167894000Y-99314000D03*
X170434000Y-101854000D03*
X170434000Y-99314000D03*
D19*
X149606000Y-120944000D03*
D20*
X149606000Y-123444000D03*
D19*
X156885000Y-125476000D03*
D20*
X159385000Y-125476000D03*
D21*
X150876000Y-110094000D03*
D22*
X155576000Y-110094000D03*
D11*
X167894000Y-110236000D03*
D12*
X170434000Y-110236000D03*
X167894000Y-112776000D03*
X170434000Y-112776000D03*
X167894000Y-115316000D03*
X170434000Y-115316000D03*
X167894000Y-117856000D03*
X170434000Y-117856000D03*
X167894000Y-120396000D03*
X170434000Y-120396000D03*
X167894000Y-122936000D03*
X170434000Y-122936000D03*
D23*
X164084000Y-95631000D03*
X166751000Y-95631000D03*
X148590000Y-115824000D03*
X150876000Y-113792000D03*
X153162000Y-115824000D03*
X150876000Y-117856000D03*
X156972000Y-113792000D03*
X154686000Y-115824000D03*
X156972000Y-117856000D03*
D24*
X155194000Y-139700000D03*
X171450000Y-141478000D03*
D23*
X162306000Y-95631000D03*
X164084000Y-108331000D03*
X162306000Y-108331000D03*
D24*
X169164000Y-105156000D03*
X171196000Y-106934000D03*
X171704000Y-132588000D03*
X169672000Y-132588000D03*
X171704000Y-131064000D03*
X169672000Y-131064000D03*
X170688000Y-132588000D03*
X170688000Y-131064000D03*
X171704000Y-133858000D03*
X169672000Y-133858000D03*
X170688000Y-133858000D03*
X170688000Y-129794000D03*
X169672000Y-129794000D03*
X173482000Y-126746000D03*
X171704000Y-129794000D03*
X161671000Y-131318000D03*
X161671000Y-132207000D03*
X161671000Y-130302000D03*
X161671000Y-133223000D03*
X176784000Y-94488000D03*
X175514000Y-102870000D03*
X161925000Y-126619000D03*
X167894000Y-136779000D03*
X160274000Y-135255000D03*
X173990000Y-139954000D03*
X174371000Y-101854000D03*
X174625000Y-99441000D03*
X177800000Y-97790000D03*
X165404800Y-133400800D03*
X166624000Y-133400800D03*
X165404800Y-132105400D03*
X166624000Y-132105400D03*
X164744400Y-131495800D03*
X166039800Y-131470400D03*
X164795200Y-130149600D03*
X166039800Y-130149600D03*
D25*
X166751000Y-95631000D02*
X164084000Y-95631000D01*
D26*
X170688000Y-132588000D02*
X171704000Y-132588000D01*
X170688000Y-132588000D02*
X169672000Y-132588000D01*
X170688000Y-131064000D02*
X171704000Y-131064000D01*
X170688000Y-131064000D02*
X169672000Y-131064000D01*
X170688000Y-133858000D02*
X170688000Y-132588000D01*
X170688000Y-129794000D02*
X170688000Y-131064000D01*
X170688000Y-133858000D02*
X171704000Y-133858000D01*
X170688000Y-133858000D02*
X169672000Y-133858000D01*
X170688000Y-129794000D02*
X170688000Y-133858000D01*
X171704000Y-129794000D02*
X170688000Y-129794000D01*
X171704000Y-129794000D02*
X169672000Y-129794000D01*
X173482000Y-126746000D02*
X173482000Y-128016000D01*
X173482000Y-128016000D02*
X171704000Y-129794000D01*
X174371000Y-99695000D02*
X174371000Y-101854000D01*
X174625000Y-99441000D02*
X174371000Y-99695000D01*
X177800000Y-97790000D02*
X179578000Y-99568000D01*
X179578000Y-99568000D02*
X179578000Y-100076000D01*
X179578000Y-138176000D02*
X179324000Y-138176000D01*
D25*
X164846000Y-139369800D02*
X164846000Y-133959600D01*
X164846000Y-133959600D02*
X165404800Y-133400800D01*
X166624000Y-133400800D02*
X165404800Y-133400800D01*
X165404800Y-132105400D02*
X165404800Y-132283200D01*
X164084000Y-137591800D02*
X162306000Y-139369800D01*
X164084000Y-133604000D02*
X164084000Y-137591800D01*
X165404800Y-132283200D02*
X164084000Y-133604000D01*
X165404800Y-132105400D02*
X165506400Y-132105400D01*
X166522400Y-132207000D02*
X166624000Y-132105400D01*
X165608000Y-132207000D02*
X166522400Y-132207000D01*
X165506400Y-132105400D02*
X165608000Y-132207000D01*
X164744400Y-131495800D02*
X164744400Y-131800600D01*
X163322000Y-135813800D02*
X159766000Y-139369800D01*
X163322000Y-133223000D02*
X163322000Y-135813800D01*
X164744400Y-131800600D02*
X163322000Y-133223000D01*
X164744400Y-131495800D02*
X164820600Y-131495800D01*
X165938200Y-131368800D02*
X166039800Y-131470400D01*
X164947600Y-131368800D02*
X165938200Y-131368800D01*
X164820600Y-131495800D02*
X164947600Y-131368800D01*
X164795200Y-130149600D02*
X164744400Y-130149600D01*
X162560000Y-134035800D02*
X157226000Y-139369800D01*
X162560000Y-132842000D02*
X162560000Y-134035800D01*
X163830000Y-131572000D02*
X162560000Y-132842000D01*
X163830000Y-131064000D02*
X163830000Y-131572000D01*
X164744400Y-130149600D02*
X163830000Y-131064000D01*
X166039800Y-130149600D02*
X164795200Y-130149600D01*
D27*
G36*
X183972200Y-145872200D02*
X145592800Y-145872200D01*
X145592800Y-143256000D01*
X180861966Y-143256000D01*
X180955739Y-143727428D01*
X181222781Y-144127085D01*
X181622438Y-144394127D01*
X182093866Y-144487900D01*
X182142134Y-144487900D01*
X182613562Y-144394127D01*
X183013219Y-144127085D01*
X183280261Y-143727428D01*
X183374034Y-143256000D01*
X183280261Y-142784572D01*
X183013219Y-142384915D01*
X182613562Y-142117873D01*
X182142134Y-142024100D01*
X182093866Y-142024100D01*
X181622438Y-142117873D01*
X181222781Y-142384915D01*
X180955739Y-142784572D01*
X180861966Y-143256000D01*
X145592800Y-143256000D01*
X145592800Y-139190280D01*
X155994100Y-139190280D01*
X155994100Y-139549320D01*
X156087873Y-140020748D01*
X156354915Y-140420405D01*
X156754572Y-140687447D01*
X157226000Y-140781220D01*
X157697428Y-140687447D01*
X158097085Y-140420405D01*
X158364127Y-140020748D01*
X158457900Y-139549320D01*
X158457900Y-139190280D01*
X158414412Y-138971650D01*
X158618105Y-138767957D01*
X158534100Y-139190280D01*
X158534100Y-139549320D01*
X158627873Y-140020748D01*
X158894915Y-140420405D01*
X159294572Y-140687447D01*
X159766000Y-140781220D01*
X160237428Y-140687447D01*
X160637085Y-140420405D01*
X160904127Y-140020748D01*
X160997900Y-139549320D01*
X160997900Y-139190280D01*
X160954412Y-138971650D01*
X161158105Y-138767957D01*
X161074100Y-139190280D01*
X161074100Y-139549320D01*
X161167873Y-140020748D01*
X161434915Y-140420405D01*
X161834572Y-140687447D01*
X162306000Y-140781220D01*
X162777428Y-140687447D01*
X163177085Y-140420405D01*
X163444127Y-140020748D01*
X163537900Y-139549320D01*
X163537900Y-139190280D01*
X163494412Y-138971650D01*
X163606885Y-138859177D01*
X163606885Y-140385800D01*
X163632566Y-140522284D01*
X163713228Y-140647636D01*
X163836304Y-140731730D01*
X163982400Y-140761315D01*
X165709600Y-140761315D01*
X165846084Y-140735634D01*
X165876596Y-140716000D01*
X178321966Y-140716000D01*
X178415739Y-141187428D01*
X178682781Y-141587085D01*
X179082438Y-141854127D01*
X179553866Y-141947900D01*
X179602134Y-141947900D01*
X180073562Y-141854127D01*
X180473219Y-141587085D01*
X180740261Y-141187428D01*
X180834034Y-140716000D01*
X180861966Y-140716000D01*
X180955739Y-141187428D01*
X181222781Y-141587085D01*
X181622438Y-141854127D01*
X182093866Y-141947900D01*
X182142134Y-141947900D01*
X182613562Y-141854127D01*
X183013219Y-141587085D01*
X183280261Y-141187428D01*
X183374034Y-140716000D01*
X183280261Y-140244572D01*
X183013219Y-139844915D01*
X182613562Y-139577873D01*
X182142134Y-139484100D01*
X182093866Y-139484100D01*
X181622438Y-139577873D01*
X181222781Y-139844915D01*
X180955739Y-140244572D01*
X180861966Y-140716000D01*
X180834034Y-140716000D01*
X180740261Y-140244572D01*
X180473219Y-139844915D01*
X180073562Y-139577873D01*
X179602134Y-139484100D01*
X179553866Y-139484100D01*
X179082438Y-139577873D01*
X178682781Y-139844915D01*
X178415739Y-140244572D01*
X178321966Y-140716000D01*
X165876596Y-140716000D01*
X165971436Y-140654972D01*
X166055530Y-140531896D01*
X166085115Y-140385800D01*
X166085115Y-138353800D01*
X166059434Y-138217316D01*
X166032848Y-138176000D01*
X178321966Y-138176000D01*
X178415739Y-138647428D01*
X178682781Y-139047085D01*
X179082438Y-139314127D01*
X179553866Y-139407900D01*
X179602134Y-139407900D01*
X180073562Y-139314127D01*
X180473219Y-139047085D01*
X180740261Y-138647428D01*
X180834034Y-138176000D01*
X180861966Y-138176000D01*
X180955739Y-138647428D01*
X181222781Y-139047085D01*
X181622438Y-139314127D01*
X182093866Y-139407900D01*
X182142134Y-139407900D01*
X182613562Y-139314127D01*
X183013219Y-139047085D01*
X183280261Y-138647428D01*
X183374034Y-138176000D01*
X183280261Y-137704572D01*
X183013219Y-137304915D01*
X182613562Y-137037873D01*
X182142134Y-136944100D01*
X182093866Y-136944100D01*
X181622438Y-137037873D01*
X181222781Y-137304915D01*
X180955739Y-137704572D01*
X180861966Y-138176000D01*
X180834034Y-138176000D01*
X180740261Y-137704572D01*
X180473219Y-137304915D01*
X180073562Y-137037873D01*
X179602134Y-136944100D01*
X179553866Y-136944100D01*
X179082438Y-137037873D01*
X178682781Y-137304915D01*
X178415739Y-137704572D01*
X178321966Y-138176000D01*
X166032848Y-138176000D01*
X165978772Y-138091964D01*
X165855696Y-138007870D01*
X165709600Y-137978285D01*
X165404800Y-137978285D01*
X165404800Y-135636000D01*
X178321966Y-135636000D01*
X178415739Y-136107428D01*
X178682781Y-136507085D01*
X179082438Y-136774127D01*
X179553866Y-136867900D01*
X179602134Y-136867900D01*
X180073562Y-136774127D01*
X180473219Y-136507085D01*
X180740261Y-136107428D01*
X180834034Y-135636000D01*
X180740261Y-135164572D01*
X180473219Y-134764915D01*
X180073562Y-134497873D01*
X179602134Y-134404100D01*
X179553866Y-134404100D01*
X179082438Y-134497873D01*
X178682781Y-134764915D01*
X178415739Y-135164572D01*
X178321966Y-135636000D01*
X165404800Y-135636000D01*
X165404800Y-134191062D01*
X165483793Y-134112069D01*
X165545646Y-134112123D01*
X165807136Y-134004077D01*
X165851691Y-133959600D01*
X166176914Y-133959600D01*
X166220612Y-134003374D01*
X166481913Y-134111876D01*
X166764846Y-134112123D01*
X167026336Y-134004077D01*
X167226574Y-133804188D01*
X167335076Y-133542887D01*
X167335323Y-133259954D01*
X167267579Y-133096000D01*
X178321966Y-133096000D01*
X178415739Y-133567428D01*
X178682781Y-133967085D01*
X179082438Y-134234127D01*
X179553866Y-134327900D01*
X179602134Y-134327900D01*
X180073562Y-134234127D01*
X180473219Y-133967085D01*
X180740261Y-133567428D01*
X180834034Y-133096000D01*
X180861966Y-133096000D01*
X180955739Y-133567428D01*
X181222781Y-133967085D01*
X181622438Y-134234127D01*
X182093866Y-134327900D01*
X182142134Y-134327900D01*
X182613562Y-134234127D01*
X183013219Y-133967085D01*
X183280261Y-133567428D01*
X183374034Y-133096000D01*
X183280261Y-132624572D01*
X183013219Y-132224915D01*
X182613562Y-131957873D01*
X182142134Y-131864100D01*
X182093866Y-131864100D01*
X181622438Y-131957873D01*
X181222781Y-132224915D01*
X180955739Y-132624572D01*
X180861966Y-133096000D01*
X180834034Y-133096000D01*
X180740261Y-132624572D01*
X180473219Y-132224915D01*
X180073562Y-131957873D01*
X179602134Y-131864100D01*
X179553866Y-131864100D01*
X179082438Y-131957873D01*
X178682781Y-132224915D01*
X178415739Y-132624572D01*
X178321966Y-133096000D01*
X167267579Y-133096000D01*
X167227277Y-132998464D01*
X167027388Y-132798226D01*
X166918769Y-132753123D01*
X167026336Y-132708677D01*
X167226574Y-132508788D01*
X167335076Y-132247487D01*
X167335323Y-131964554D01*
X167227277Y-131703064D01*
X167027388Y-131502826D01*
X166766087Y-131394324D01*
X166751066Y-131394311D01*
X166751123Y-131329554D01*
X166643077Y-131068064D01*
X166443188Y-130867826D01*
X166303908Y-130809992D01*
X166442136Y-130752877D01*
X166639356Y-130556000D01*
X178321966Y-130556000D01*
X178415739Y-131027428D01*
X178682781Y-131427085D01*
X179082438Y-131694127D01*
X179553866Y-131787900D01*
X179602134Y-131787900D01*
X180073562Y-131694127D01*
X180473219Y-131427085D01*
X180740261Y-131027428D01*
X180834034Y-130556000D01*
X180740261Y-130084572D01*
X180473219Y-129684915D01*
X180073562Y-129417873D01*
X179602134Y-129324100D01*
X179553866Y-129324100D01*
X179082438Y-129417873D01*
X178682781Y-129684915D01*
X178415739Y-130084572D01*
X178321966Y-130556000D01*
X166639356Y-130556000D01*
X166642374Y-130552988D01*
X166750876Y-130291687D01*
X166751123Y-130008754D01*
X166643077Y-129747264D01*
X166443188Y-129547026D01*
X166181887Y-129438524D01*
X165898954Y-129438277D01*
X165637464Y-129546323D01*
X165592909Y-129590800D01*
X165242286Y-129590800D01*
X165198588Y-129547026D01*
X164937287Y-129438524D01*
X164654354Y-129438277D01*
X164392864Y-129546323D01*
X164192626Y-129746212D01*
X164084124Y-130007513D01*
X164084113Y-130019625D01*
X163434869Y-130668869D01*
X163313736Y-130850156D01*
X163271200Y-131064000D01*
X163271200Y-131340538D01*
X162164869Y-132446869D01*
X162043736Y-132628156D01*
X162001200Y-132842000D01*
X162001200Y-133804338D01*
X157730972Y-138074566D01*
X157697428Y-138052153D01*
X157226000Y-137958380D01*
X156754572Y-138052153D01*
X156354915Y-138319195D01*
X156087873Y-138718852D01*
X155994100Y-139190280D01*
X145592800Y-139190280D01*
X145592800Y-133535090D01*
X153360120Y-133535090D01*
X153360120Y-134180910D01*
X153422377Y-134493899D01*
X153599672Y-134759238D01*
X153865011Y-134936533D01*
X154178000Y-134998790D01*
X154490989Y-134936533D01*
X154756328Y-134759238D01*
X154813000Y-134674423D01*
X154869672Y-134759238D01*
X155135011Y-134936533D01*
X155448000Y-134998790D01*
X155760989Y-134936533D01*
X156026328Y-134759238D01*
X156203623Y-134493899D01*
X156265880Y-134180910D01*
X156265880Y-133535090D01*
X156203623Y-133222101D01*
X156026328Y-132956762D01*
X155760989Y-132779467D01*
X155448000Y-132717210D01*
X155135011Y-132779467D01*
X154869672Y-132956762D01*
X154813000Y-133041577D01*
X154756328Y-132956762D01*
X154490989Y-132779467D01*
X154178000Y-132717210D01*
X153865011Y-132779467D01*
X153599672Y-132956762D01*
X153422377Y-133222101D01*
X153360120Y-133535090D01*
X145592800Y-133535090D01*
X145592800Y-130683000D01*
X148194580Y-130683000D01*
X148299954Y-131212749D01*
X148600032Y-131661848D01*
X149049131Y-131961926D01*
X149578880Y-132067300D01*
X149633120Y-132067300D01*
X150162869Y-131961926D01*
X150611968Y-131661848D01*
X150912046Y-131212749D01*
X151017420Y-130683000D01*
X150912046Y-130153251D01*
X150611968Y-129704152D01*
X150358088Y-129534515D01*
X150622000Y-129534515D01*
X150758484Y-129508834D01*
X150883836Y-129428172D01*
X150967930Y-129305096D01*
X150997515Y-129159000D01*
X150997515Y-128016000D01*
X178321966Y-128016000D01*
X178415739Y-128487428D01*
X178682781Y-128887085D01*
X179082438Y-129154127D01*
X179553866Y-129247900D01*
X179602134Y-129247900D01*
X180073562Y-129154127D01*
X180473219Y-128887085D01*
X180740261Y-128487428D01*
X180834034Y-128016000D01*
X180861966Y-128016000D01*
X180955739Y-128487428D01*
X181222781Y-128887085D01*
X181622438Y-129154127D01*
X182093866Y-129247900D01*
X182142134Y-129247900D01*
X182613562Y-129154127D01*
X183013219Y-128887085D01*
X183280261Y-128487428D01*
X183374034Y-128016000D01*
X183280261Y-127544572D01*
X183013219Y-127144915D01*
X182613562Y-126877873D01*
X182142134Y-126784100D01*
X182093866Y-126784100D01*
X181622438Y-126877873D01*
X181222781Y-127144915D01*
X180955739Y-127544572D01*
X180861966Y-128016000D01*
X180834034Y-128016000D01*
X180740261Y-127544572D01*
X180473219Y-127144915D01*
X180073562Y-126877873D01*
X179602134Y-126784100D01*
X179553866Y-126784100D01*
X179082438Y-126877873D01*
X178682781Y-127144915D01*
X178415739Y-127544572D01*
X178321966Y-128016000D01*
X150997515Y-128016000D01*
X150997515Y-127127000D01*
X150971834Y-126990516D01*
X150891172Y-126865164D01*
X150768096Y-126781070D01*
X150622000Y-126751485D01*
X148590000Y-126751485D01*
X148453516Y-126777166D01*
X148328164Y-126857828D01*
X148244070Y-126980904D01*
X148214485Y-127127000D01*
X148214485Y-129159000D01*
X148240166Y-129295484D01*
X148320828Y-129420836D01*
X148443904Y-129504930D01*
X148590000Y-129534515D01*
X148853912Y-129534515D01*
X148600032Y-129704152D01*
X148299954Y-130153251D01*
X148194580Y-130683000D01*
X145592800Y-130683000D01*
X145592800Y-124826000D01*
X158359485Y-124826000D01*
X158359485Y-126126000D01*
X158385166Y-126262484D01*
X158465828Y-126387836D01*
X158588904Y-126471930D01*
X158735000Y-126501515D01*
X160035000Y-126501515D01*
X160171484Y-126475834D01*
X160296836Y-126395172D01*
X160380930Y-126272096D01*
X160410515Y-126126000D01*
X160410515Y-125476000D01*
X180861966Y-125476000D01*
X180955739Y-125947428D01*
X181222781Y-126347085D01*
X181622438Y-126614127D01*
X182093866Y-126707900D01*
X182142134Y-126707900D01*
X182613562Y-126614127D01*
X183013219Y-126347085D01*
X183280261Y-125947428D01*
X183374034Y-125476000D01*
X183280261Y-125004572D01*
X183013219Y-124604915D01*
X182613562Y-124337873D01*
X182142134Y-124244100D01*
X182093866Y-124244100D01*
X181622438Y-124337873D01*
X181222781Y-124604915D01*
X180955739Y-125004572D01*
X180861966Y-125476000D01*
X160410515Y-125476000D01*
X160410515Y-124826000D01*
X160384834Y-124689516D01*
X160304172Y-124564164D01*
X160181096Y-124480070D01*
X160035000Y-124450485D01*
X158735000Y-124450485D01*
X158598516Y-124476166D01*
X158473164Y-124556828D01*
X158389070Y-124679904D01*
X158359485Y-124826000D01*
X145592800Y-124826000D01*
X145592800Y-122794000D01*
X148580485Y-122794000D01*
X148580485Y-124094000D01*
X148606166Y-124230484D01*
X148686828Y-124355836D01*
X148809904Y-124439930D01*
X148956000Y-124469515D01*
X150256000Y-124469515D01*
X150392484Y-124443834D01*
X150517836Y-124363172D01*
X150601930Y-124240096D01*
X150631515Y-124094000D01*
X150631515Y-122936000D01*
X166637966Y-122936000D01*
X166731739Y-123407428D01*
X166998781Y-123807085D01*
X167398438Y-124074127D01*
X167869866Y-124167900D01*
X167918134Y-124167900D01*
X168389562Y-124074127D01*
X168789219Y-123807085D01*
X169056261Y-123407428D01*
X169150034Y-122936000D01*
X178321966Y-122936000D01*
X178415739Y-123407428D01*
X178682781Y-123807085D01*
X179082438Y-124074127D01*
X179553866Y-124167900D01*
X179602134Y-124167900D01*
X180073562Y-124074127D01*
X180473219Y-123807085D01*
X180740261Y-123407428D01*
X180834034Y-122936000D01*
X180861966Y-122936000D01*
X180955739Y-123407428D01*
X181222781Y-123807085D01*
X181622438Y-124074127D01*
X182093866Y-124167900D01*
X182142134Y-124167900D01*
X182613562Y-124074127D01*
X183013219Y-123807085D01*
X183280261Y-123407428D01*
X183374034Y-122936000D01*
X183280261Y-122464572D01*
X183013219Y-122064915D01*
X182613562Y-121797873D01*
X182142134Y-121704100D01*
X182093866Y-121704100D01*
X181622438Y-121797873D01*
X181222781Y-122064915D01*
X180955739Y-122464572D01*
X180861966Y-122936000D01*
X180834034Y-122936000D01*
X180740261Y-122464572D01*
X180473219Y-122064915D01*
X180073562Y-121797873D01*
X179602134Y-121704100D01*
X179553866Y-121704100D01*
X179082438Y-121797873D01*
X178682781Y-122064915D01*
X178415739Y-122464572D01*
X178321966Y-122936000D01*
X169150034Y-122936000D01*
X169056261Y-122464572D01*
X168789219Y-122064915D01*
X168389562Y-121797873D01*
X167918134Y-121704100D01*
X167869866Y-121704100D01*
X167398438Y-121797873D01*
X166998781Y-122064915D01*
X166731739Y-122464572D01*
X166637966Y-122936000D01*
X150631515Y-122936000D01*
X150631515Y-122794000D01*
X150605834Y-122657516D01*
X150525172Y-122532164D01*
X150402096Y-122448070D01*
X150256000Y-122418485D01*
X148956000Y-122418485D01*
X148819516Y-122444166D01*
X148694164Y-122524828D01*
X148610070Y-122647904D01*
X148580485Y-122794000D01*
X145592800Y-122794000D01*
X145592800Y-120396000D01*
X166637966Y-120396000D01*
X166731739Y-120867428D01*
X166998781Y-121267085D01*
X167398438Y-121534127D01*
X167869866Y-121627900D01*
X167918134Y-121627900D01*
X168389562Y-121534127D01*
X168789219Y-121267085D01*
X169056261Y-120867428D01*
X169150034Y-120396000D01*
X169177966Y-120396000D01*
X169271739Y-120867428D01*
X169538781Y-121267085D01*
X169938438Y-121534127D01*
X170409866Y-121627900D01*
X170458134Y-121627900D01*
X170929562Y-121534127D01*
X171329219Y-121267085D01*
X171596261Y-120867428D01*
X171690034Y-120396000D01*
X178321966Y-120396000D01*
X178415739Y-120867428D01*
X178682781Y-121267085D01*
X179082438Y-121534127D01*
X179553866Y-121627900D01*
X179602134Y-121627900D01*
X180073562Y-121534127D01*
X180473219Y-121267085D01*
X180740261Y-120867428D01*
X180834034Y-120396000D01*
X180861966Y-120396000D01*
X180955739Y-120867428D01*
X181222781Y-121267085D01*
X181622438Y-121534127D01*
X182093866Y-121627900D01*
X182142134Y-121627900D01*
X182613562Y-121534127D01*
X183013219Y-121267085D01*
X183280261Y-120867428D01*
X183374034Y-120396000D01*
X183280261Y-119924572D01*
X183013219Y-119524915D01*
X182613562Y-119257873D01*
X182142134Y-119164100D01*
X182093866Y-119164100D01*
X181622438Y-119257873D01*
X181222781Y-119524915D01*
X180955739Y-119924572D01*
X180861966Y-120396000D01*
X180834034Y-120396000D01*
X180740261Y-119924572D01*
X180473219Y-119524915D01*
X180073562Y-119257873D01*
X179602134Y-119164100D01*
X179553866Y-119164100D01*
X179082438Y-119257873D01*
X178682781Y-119524915D01*
X178415739Y-119924572D01*
X178321966Y-120396000D01*
X171690034Y-120396000D01*
X171596261Y-119924572D01*
X171329219Y-119524915D01*
X170929562Y-119257873D01*
X170458134Y-119164100D01*
X170409866Y-119164100D01*
X169938438Y-119257873D01*
X169538781Y-119524915D01*
X169271739Y-119924572D01*
X169177966Y-120396000D01*
X169150034Y-120396000D01*
X169056261Y-119924572D01*
X168789219Y-119524915D01*
X168389562Y-119257873D01*
X167918134Y-119164100D01*
X167869866Y-119164100D01*
X167398438Y-119257873D01*
X166998781Y-119524915D01*
X166731739Y-119924572D01*
X166637966Y-120396000D01*
X145592800Y-120396000D01*
X145592800Y-117856000D01*
X166637966Y-117856000D01*
X166731739Y-118327428D01*
X166998781Y-118727085D01*
X167398438Y-118994127D01*
X167869866Y-119087900D01*
X167918134Y-119087900D01*
X168389562Y-118994127D01*
X168789219Y-118727085D01*
X169056261Y-118327428D01*
X169150034Y-117856000D01*
X169177966Y-117856000D01*
X169271739Y-118327428D01*
X169538781Y-118727085D01*
X169938438Y-118994127D01*
X170409866Y-119087900D01*
X170458134Y-119087900D01*
X170929562Y-118994127D01*
X171329219Y-118727085D01*
X171596261Y-118327428D01*
X171690034Y-117856000D01*
X178321966Y-117856000D01*
X178415739Y-118327428D01*
X178682781Y-118727085D01*
X179082438Y-118994127D01*
X179553866Y-119087900D01*
X179602134Y-119087900D01*
X180073562Y-118994127D01*
X180473219Y-118727085D01*
X180740261Y-118327428D01*
X180834034Y-117856000D01*
X180740261Y-117384572D01*
X180473219Y-116984915D01*
X180073562Y-116717873D01*
X179602134Y-116624100D01*
X179553866Y-116624100D01*
X179082438Y-116717873D01*
X178682781Y-116984915D01*
X178415739Y-117384572D01*
X178321966Y-117856000D01*
X171690034Y-117856000D01*
X171596261Y-117384572D01*
X171329219Y-116984915D01*
X170929562Y-116717873D01*
X170458134Y-116624100D01*
X170409866Y-116624100D01*
X169938438Y-116717873D01*
X169538781Y-116984915D01*
X169271739Y-117384572D01*
X169177966Y-117856000D01*
X169150034Y-117856000D01*
X169056261Y-117384572D01*
X168789219Y-116984915D01*
X168389562Y-116717873D01*
X167918134Y-116624100D01*
X167869866Y-116624100D01*
X167398438Y-116717873D01*
X166998781Y-116984915D01*
X166731739Y-117384572D01*
X166637966Y-117856000D01*
X145592800Y-117856000D01*
X145592800Y-115316000D01*
X166637966Y-115316000D01*
X166731739Y-115787428D01*
X166998781Y-116187085D01*
X167398438Y-116454127D01*
X167869866Y-116547900D01*
X167918134Y-116547900D01*
X168389562Y-116454127D01*
X168789219Y-116187085D01*
X169056261Y-115787428D01*
X169150034Y-115316000D01*
X169177966Y-115316000D01*
X169271739Y-115787428D01*
X169538781Y-116187085D01*
X169938438Y-116454127D01*
X170409866Y-116547900D01*
X170458134Y-116547900D01*
X170929562Y-116454127D01*
X171329219Y-116187085D01*
X171596261Y-115787428D01*
X171690034Y-115316000D01*
X178321966Y-115316000D01*
X178415739Y-115787428D01*
X178682781Y-116187085D01*
X179082438Y-116454127D01*
X179553866Y-116547900D01*
X179602134Y-116547900D01*
X180073562Y-116454127D01*
X180473219Y-116187085D01*
X180740261Y-115787428D01*
X180834034Y-115316000D01*
X180861966Y-115316000D01*
X180955739Y-115787428D01*
X181222781Y-116187085D01*
X181622438Y-116454127D01*
X182093866Y-116547900D01*
X182142134Y-116547900D01*
X182613562Y-116454127D01*
X183013219Y-116187085D01*
X183280261Y-115787428D01*
X183374034Y-115316000D01*
X183280261Y-114844572D01*
X183013219Y-114444915D01*
X182613562Y-114177873D01*
X182142134Y-114084100D01*
X182093866Y-114084100D01*
X181622438Y-114177873D01*
X181222781Y-114444915D01*
X180955739Y-114844572D01*
X180861966Y-115316000D01*
X180834034Y-115316000D01*
X180740261Y-114844572D01*
X180473219Y-114444915D01*
X180073562Y-114177873D01*
X179602134Y-114084100D01*
X179553866Y-114084100D01*
X179082438Y-114177873D01*
X178682781Y-114444915D01*
X178415739Y-114844572D01*
X178321966Y-115316000D01*
X171690034Y-115316000D01*
X171596261Y-114844572D01*
X171329219Y-114444915D01*
X170929562Y-114177873D01*
X170458134Y-114084100D01*
X170409866Y-114084100D01*
X169938438Y-114177873D01*
X169538781Y-114444915D01*
X169271739Y-114844572D01*
X169177966Y-115316000D01*
X169150034Y-115316000D01*
X169056261Y-114844572D01*
X168789219Y-114444915D01*
X168389562Y-114177873D01*
X167918134Y-114084100D01*
X167869866Y-114084100D01*
X167398438Y-114177873D01*
X166998781Y-114444915D01*
X166731739Y-114844572D01*
X166637966Y-115316000D01*
X145592800Y-115316000D01*
X145592800Y-112776000D01*
X166637966Y-112776000D01*
X166731739Y-113247428D01*
X166998781Y-113647085D01*
X167398438Y-113914127D01*
X167869866Y-114007900D01*
X167918134Y-114007900D01*
X168389562Y-113914127D01*
X168789219Y-113647085D01*
X169056261Y-113247428D01*
X169150034Y-112776000D01*
X169177966Y-112776000D01*
X169271739Y-113247428D01*
X169538781Y-113647085D01*
X169938438Y-113914127D01*
X170409866Y-114007900D01*
X170458134Y-114007900D01*
X170929562Y-113914127D01*
X171329219Y-113647085D01*
X171596261Y-113247428D01*
X171690034Y-112776000D01*
X178321966Y-112776000D01*
X178415739Y-113247428D01*
X178682781Y-113647085D01*
X179082438Y-113914127D01*
X179553866Y-114007900D01*
X179602134Y-114007900D01*
X180073562Y-113914127D01*
X180473219Y-113647085D01*
X180740261Y-113247428D01*
X180834034Y-112776000D01*
X180861966Y-112776000D01*
X180955739Y-113247428D01*
X181222781Y-113647085D01*
X181622438Y-113914127D01*
X182093866Y-114007900D01*
X182142134Y-114007900D01*
X182613562Y-113914127D01*
X183013219Y-113647085D01*
X183280261Y-113247428D01*
X183374034Y-112776000D01*
X183280261Y-112304572D01*
X183013219Y-111904915D01*
X182613562Y-111637873D01*
X182142134Y-111544100D01*
X182093866Y-111544100D01*
X181622438Y-111637873D01*
X181222781Y-111904915D01*
X180955739Y-112304572D01*
X180861966Y-112776000D01*
X180834034Y-112776000D01*
X180740261Y-112304572D01*
X180473219Y-111904915D01*
X180073562Y-111637873D01*
X179602134Y-111544100D01*
X179553866Y-111544100D01*
X179082438Y-111637873D01*
X178682781Y-111904915D01*
X178415739Y-112304572D01*
X178321966Y-112776000D01*
X171690034Y-112776000D01*
X171596261Y-112304572D01*
X171329219Y-111904915D01*
X170929562Y-111637873D01*
X170458134Y-111544100D01*
X170409866Y-111544100D01*
X169938438Y-111637873D01*
X169538781Y-111904915D01*
X169271739Y-112304572D01*
X169177966Y-112776000D01*
X169150034Y-112776000D01*
X169056261Y-112304572D01*
X168789219Y-111904915D01*
X168389562Y-111637873D01*
X167918134Y-111544100D01*
X167869866Y-111544100D01*
X167398438Y-111637873D01*
X166998781Y-111904915D01*
X166731739Y-112304572D01*
X166637966Y-112776000D01*
X145592800Y-112776000D01*
X145592800Y-110236000D01*
X169177966Y-110236000D01*
X169271739Y-110707428D01*
X169538781Y-111107085D01*
X169938438Y-111374127D01*
X170409866Y-111467900D01*
X170458134Y-111467900D01*
X170929562Y-111374127D01*
X171329219Y-111107085D01*
X171596261Y-110707428D01*
X171690034Y-110236000D01*
X178321966Y-110236000D01*
X178415739Y-110707428D01*
X178682781Y-111107085D01*
X179082438Y-111374127D01*
X179553866Y-111467900D01*
X179602134Y-111467900D01*
X180073562Y-111374127D01*
X180473219Y-111107085D01*
X180740261Y-110707428D01*
X180834034Y-110236000D01*
X180740261Y-109764572D01*
X180473219Y-109364915D01*
X180073562Y-109097873D01*
X179602134Y-109004100D01*
X179553866Y-109004100D01*
X179082438Y-109097873D01*
X178682781Y-109364915D01*
X178415739Y-109764572D01*
X178321966Y-110236000D01*
X171690034Y-110236000D01*
X171596261Y-109764572D01*
X171329219Y-109364915D01*
X170929562Y-109097873D01*
X170458134Y-109004100D01*
X170409866Y-109004100D01*
X169938438Y-109097873D01*
X169538781Y-109364915D01*
X169271739Y-109764572D01*
X169177966Y-110236000D01*
X145592800Y-110236000D01*
X145592800Y-107696000D01*
X178321966Y-107696000D01*
X178415739Y-108167428D01*
X178682781Y-108567085D01*
X179082438Y-108834127D01*
X179553866Y-108927900D01*
X179602134Y-108927900D01*
X180073562Y-108834127D01*
X180473219Y-108567085D01*
X180740261Y-108167428D01*
X180834034Y-107696000D01*
X180861966Y-107696000D01*
X180955739Y-108167428D01*
X181222781Y-108567085D01*
X181622438Y-108834127D01*
X182093866Y-108927900D01*
X182142134Y-108927900D01*
X182613562Y-108834127D01*
X183013219Y-108567085D01*
X183280261Y-108167428D01*
X183374034Y-107696000D01*
X183280261Y-107224572D01*
X183013219Y-106824915D01*
X182613562Y-106557873D01*
X182142134Y-106464100D01*
X182093866Y-106464100D01*
X181622438Y-106557873D01*
X181222781Y-106824915D01*
X180955739Y-107224572D01*
X180861966Y-107696000D01*
X180834034Y-107696000D01*
X180740261Y-107224572D01*
X180473219Y-106824915D01*
X180073562Y-106557873D01*
X179602134Y-106464100D01*
X179553866Y-106464100D01*
X179082438Y-106557873D01*
X178682781Y-106824915D01*
X178415739Y-107224572D01*
X178321966Y-107696000D01*
X145592800Y-107696000D01*
X145592800Y-105156000D01*
X180861966Y-105156000D01*
X180955739Y-105627428D01*
X181222781Y-106027085D01*
X181622438Y-106294127D01*
X182093866Y-106387900D01*
X182142134Y-106387900D01*
X182613562Y-106294127D01*
X183013219Y-106027085D01*
X183280261Y-105627428D01*
X183374034Y-105156000D01*
X183280261Y-104684572D01*
X183013219Y-104284915D01*
X182613562Y-104017873D01*
X182142134Y-103924100D01*
X182093866Y-103924100D01*
X181622438Y-104017873D01*
X181222781Y-104284915D01*
X180955739Y-104684572D01*
X180861966Y-105156000D01*
X145592800Y-105156000D01*
X145592800Y-101829866D01*
X164122100Y-101829866D01*
X164122100Y-101878134D01*
X164215873Y-102349562D01*
X164482915Y-102749219D01*
X164882572Y-103016261D01*
X165354000Y-103110034D01*
X165825428Y-103016261D01*
X166225085Y-102749219D01*
X166492127Y-102349562D01*
X166585900Y-101878134D01*
X166585900Y-101829866D01*
X166662100Y-101829866D01*
X166662100Y-101878134D01*
X166755873Y-102349562D01*
X167022915Y-102749219D01*
X167422572Y-103016261D01*
X167894000Y-103110034D01*
X168365428Y-103016261D01*
X168765085Y-102749219D01*
X169032127Y-102349562D01*
X169125900Y-101878134D01*
X169125900Y-101829866D01*
X169202100Y-101829866D01*
X169202100Y-101878134D01*
X169295873Y-102349562D01*
X169562915Y-102749219D01*
X169962572Y-103016261D01*
X170434000Y-103110034D01*
X170905428Y-103016261D01*
X171305085Y-102749219D01*
X171394099Y-102616000D01*
X178321966Y-102616000D01*
X178415739Y-103087428D01*
X178682781Y-103487085D01*
X179082438Y-103754127D01*
X179553866Y-103847900D01*
X179602134Y-103847900D01*
X180073562Y-103754127D01*
X180473219Y-103487085D01*
X180740261Y-103087428D01*
X180834034Y-102616000D01*
X180861966Y-102616000D01*
X180955739Y-103087428D01*
X181222781Y-103487085D01*
X181622438Y-103754127D01*
X182093866Y-103847900D01*
X182142134Y-103847900D01*
X182613562Y-103754127D01*
X183013219Y-103487085D01*
X183280261Y-103087428D01*
X183374034Y-102616000D01*
X183280261Y-102144572D01*
X183013219Y-101744915D01*
X182613562Y-101477873D01*
X182142134Y-101384100D01*
X182093866Y-101384100D01*
X181622438Y-101477873D01*
X181222781Y-101744915D01*
X180955739Y-102144572D01*
X180861966Y-102616000D01*
X180834034Y-102616000D01*
X180740261Y-102144572D01*
X180473219Y-101744915D01*
X180073562Y-101477873D01*
X179602134Y-101384100D01*
X179553866Y-101384100D01*
X179082438Y-101477873D01*
X178682781Y-101744915D01*
X178415739Y-102144572D01*
X178321966Y-102616000D01*
X171394099Y-102616000D01*
X171572127Y-102349562D01*
X171642684Y-101994846D01*
X173659677Y-101994846D01*
X173767723Y-102256336D01*
X173967612Y-102456574D01*
X174228913Y-102565076D01*
X174511846Y-102565323D01*
X174773336Y-102457277D01*
X174973574Y-102257388D01*
X175082076Y-101996087D01*
X175082323Y-101713154D01*
X174974277Y-101451664D01*
X174866300Y-101343498D01*
X174866300Y-100110816D01*
X175027336Y-100044277D01*
X175227574Y-99844388D01*
X175336076Y-99583087D01*
X175336323Y-99300154D01*
X175228277Y-99038664D01*
X175028388Y-98838426D01*
X174767087Y-98729924D01*
X174484154Y-98729677D01*
X174222664Y-98837723D01*
X174022426Y-99037612D01*
X173913924Y-99298913D01*
X173913744Y-99504944D01*
X173913402Y-99505456D01*
X173893687Y-99604572D01*
X173875700Y-99695000D01*
X173875700Y-101343525D01*
X173768426Y-101450612D01*
X173659924Y-101711913D01*
X173659677Y-101994846D01*
X171642684Y-101994846D01*
X171665900Y-101878134D01*
X171665900Y-101829866D01*
X171572127Y-101358438D01*
X171305085Y-100958781D01*
X170905428Y-100691739D01*
X170434000Y-100597966D01*
X169962572Y-100691739D01*
X169562915Y-100958781D01*
X169295873Y-101358438D01*
X169202100Y-101829866D01*
X169125900Y-101829866D01*
X169032127Y-101358438D01*
X168765085Y-100958781D01*
X168365428Y-100691739D01*
X167894000Y-100597966D01*
X167422572Y-100691739D01*
X167022915Y-100958781D01*
X166755873Y-101358438D01*
X166662100Y-101829866D01*
X166585900Y-101829866D01*
X166492127Y-101358438D01*
X166225085Y-100958781D01*
X165825428Y-100691739D01*
X165354000Y-100597966D01*
X164882572Y-100691739D01*
X164482915Y-100958781D01*
X164215873Y-101358438D01*
X164122100Y-101829866D01*
X145592800Y-101829866D01*
X145592800Y-99076978D01*
X149507463Y-99076978D01*
X149715335Y-99580067D01*
X150099908Y-99965312D01*
X150602634Y-100174062D01*
X151146978Y-100174537D01*
X151650067Y-99966665D01*
X152035312Y-99582092D01*
X152244062Y-99079366D01*
X152244064Y-99076978D01*
X154587463Y-99076978D01*
X154795335Y-99580067D01*
X155179908Y-99965312D01*
X155682634Y-100174062D01*
X156226978Y-100174537D01*
X156730067Y-99966665D01*
X157115312Y-99582092D01*
X157236654Y-99289866D01*
X164122100Y-99289866D01*
X164122100Y-99338134D01*
X164215873Y-99809562D01*
X164482915Y-100209219D01*
X164882572Y-100476261D01*
X165354000Y-100570034D01*
X165825428Y-100476261D01*
X166225085Y-100209219D01*
X166492127Y-99809562D01*
X166585900Y-99338134D01*
X166585900Y-99289866D01*
X166662100Y-99289866D01*
X166662100Y-99338134D01*
X166755873Y-99809562D01*
X167022915Y-100209219D01*
X167422572Y-100476261D01*
X167894000Y-100570034D01*
X168365428Y-100476261D01*
X168765085Y-100209219D01*
X169032127Y-99809562D01*
X169125900Y-99338134D01*
X169125900Y-99289866D01*
X169202100Y-99289866D01*
X169202100Y-99338134D01*
X169295873Y-99809562D01*
X169562915Y-100209219D01*
X169962572Y-100476261D01*
X170434000Y-100570034D01*
X170905428Y-100476261D01*
X171305085Y-100209219D01*
X171572127Y-99809562D01*
X171665900Y-99338134D01*
X171665900Y-99289866D01*
X171572127Y-98818438D01*
X171305085Y-98418781D01*
X170905428Y-98151739D01*
X170434000Y-98057966D01*
X169962572Y-98151739D01*
X169562915Y-98418781D01*
X169295873Y-98818438D01*
X169202100Y-99289866D01*
X169125900Y-99289866D01*
X169032127Y-98818438D01*
X168765085Y-98418781D01*
X168365428Y-98151739D01*
X167894000Y-98057966D01*
X167422572Y-98151739D01*
X167022915Y-98418781D01*
X166755873Y-98818438D01*
X166662100Y-99289866D01*
X166585900Y-99289866D01*
X166492127Y-98818438D01*
X166225085Y-98418781D01*
X165825428Y-98151739D01*
X165354000Y-98057966D01*
X164882572Y-98151739D01*
X164482915Y-98418781D01*
X164215873Y-98818438D01*
X164122100Y-99289866D01*
X157236654Y-99289866D01*
X157324062Y-99079366D01*
X157324537Y-98535022D01*
X157116665Y-98031933D01*
X157015755Y-97930846D01*
X177088677Y-97930846D01*
X177196723Y-98192336D01*
X177396612Y-98392574D01*
X177657913Y-98501076D01*
X177810749Y-98501209D01*
X178615359Y-99305819D01*
X178415739Y-99604572D01*
X178321966Y-100076000D01*
X178415739Y-100547428D01*
X178682781Y-100947085D01*
X179082438Y-101214127D01*
X179553866Y-101307900D01*
X179602134Y-101307900D01*
X180073562Y-101214127D01*
X180473219Y-100947085D01*
X180740261Y-100547428D01*
X180834034Y-100076000D01*
X180740261Y-99604572D01*
X180473219Y-99204915D01*
X180073562Y-98937873D01*
X179602134Y-98844100D01*
X179554560Y-98844100D01*
X179459612Y-98749152D01*
X179553866Y-98767900D01*
X179602134Y-98767900D01*
X180073562Y-98674127D01*
X180473219Y-98407085D01*
X180740261Y-98007428D01*
X180834034Y-97536000D01*
X180861966Y-97536000D01*
X180955739Y-98007428D01*
X181222781Y-98407085D01*
X181622438Y-98674127D01*
X182093866Y-98767900D01*
X182142134Y-98767900D01*
X182613562Y-98674127D01*
X183013219Y-98407085D01*
X183280261Y-98007428D01*
X183374034Y-97536000D01*
X183280261Y-97064572D01*
X183013219Y-96664915D01*
X182613562Y-96397873D01*
X182142134Y-96304100D01*
X182093866Y-96304100D01*
X181622438Y-96397873D01*
X181222781Y-96664915D01*
X180955739Y-97064572D01*
X180861966Y-97536000D01*
X180834034Y-97536000D01*
X180740261Y-97064572D01*
X180473219Y-96664915D01*
X180073562Y-96397873D01*
X179602134Y-96304100D01*
X179553866Y-96304100D01*
X179082438Y-96397873D01*
X178682781Y-96664915D01*
X178415739Y-97064572D01*
X178360079Y-97344391D01*
X178203388Y-97187426D01*
X177942087Y-97078924D01*
X177659154Y-97078677D01*
X177397664Y-97186723D01*
X177197426Y-97386612D01*
X177088924Y-97647913D01*
X177088677Y-97930846D01*
X157015755Y-97930846D01*
X156732092Y-97646688D01*
X156229366Y-97437938D01*
X155685022Y-97437463D01*
X155181933Y-97645335D01*
X154796688Y-98029908D01*
X154587938Y-98532634D01*
X154587463Y-99076978D01*
X152244064Y-99076978D01*
X152244537Y-98535022D01*
X152036665Y-98031933D01*
X151652092Y-97646688D01*
X151149366Y-97437938D01*
X150605022Y-97437463D01*
X150101933Y-97645335D01*
X149716688Y-98029908D01*
X149507938Y-98532634D01*
X149507463Y-99076978D01*
X145592800Y-99076978D01*
X145592800Y-94132400D01*
X178338885Y-94132400D01*
X178338885Y-95859600D01*
X178364566Y-95996084D01*
X178445228Y-96121436D01*
X178568304Y-96205530D01*
X178714400Y-96235115D01*
X180441600Y-96235115D01*
X180578084Y-96209434D01*
X180703436Y-96128772D01*
X180787530Y-96005696D01*
X180817115Y-95859600D01*
X180817115Y-94996000D01*
X180861966Y-94996000D01*
X180955739Y-95467428D01*
X181222781Y-95867085D01*
X181622438Y-96134127D01*
X182093866Y-96227900D01*
X182142134Y-96227900D01*
X182613562Y-96134127D01*
X183013219Y-95867085D01*
X183280261Y-95467428D01*
X183374034Y-94996000D01*
X183280261Y-94524572D01*
X183013219Y-94124915D01*
X182613562Y-93857873D01*
X182142134Y-93764100D01*
X182093866Y-93764100D01*
X181622438Y-93857873D01*
X181222781Y-94124915D01*
X180955739Y-94524572D01*
X180861966Y-94996000D01*
X180817115Y-94996000D01*
X180817115Y-94132400D01*
X180791434Y-93995916D01*
X180710772Y-93870564D01*
X180587696Y-93786470D01*
X180441600Y-93756885D01*
X178714400Y-93756885D01*
X178577916Y-93782566D01*
X178452564Y-93863228D01*
X178368470Y-93986304D01*
X178338885Y-94132400D01*
X145592800Y-94132400D01*
X145592800Y-90601800D01*
X183972200Y-90601800D01*
X183972200Y-145872200D01*
X183972200Y-145872200D01*
G37*
X183972200Y-145872200D02*
X145592800Y-145872200D01*
X145592800Y-143256000D01*
X180861966Y-143256000D01*
X180955739Y-143727428D01*
X181222781Y-144127085D01*
X181622438Y-144394127D01*
X182093866Y-144487900D01*
X182142134Y-144487900D01*
X182613562Y-144394127D01*
X183013219Y-144127085D01*
X183280261Y-143727428D01*
X183374034Y-143256000D01*
X183280261Y-142784572D01*
X183013219Y-142384915D01*
X182613562Y-142117873D01*
X182142134Y-142024100D01*
X182093866Y-142024100D01*
X181622438Y-142117873D01*
X181222781Y-142384915D01*
X180955739Y-142784572D01*
X180861966Y-143256000D01*
X145592800Y-143256000D01*
X145592800Y-139190280D01*
X155994100Y-139190280D01*
X155994100Y-139549320D01*
X156087873Y-140020748D01*
X156354915Y-140420405D01*
X156754572Y-140687447D01*
X157226000Y-140781220D01*
X157697428Y-140687447D01*
X158097085Y-140420405D01*
X158364127Y-140020748D01*
X158457900Y-139549320D01*
X158457900Y-139190280D01*
X158414412Y-138971650D01*
X158618105Y-138767957D01*
X158534100Y-139190280D01*
X158534100Y-139549320D01*
X158627873Y-140020748D01*
X158894915Y-140420405D01*
X159294572Y-140687447D01*
X159766000Y-140781220D01*
X160237428Y-140687447D01*
X160637085Y-140420405D01*
X160904127Y-140020748D01*
X160997900Y-139549320D01*
X160997900Y-139190280D01*
X160954412Y-138971650D01*
X161158105Y-138767957D01*
X161074100Y-139190280D01*
X161074100Y-139549320D01*
X161167873Y-140020748D01*
X161434915Y-140420405D01*
X161834572Y-140687447D01*
X162306000Y-140781220D01*
X162777428Y-140687447D01*
X163177085Y-140420405D01*
X163444127Y-140020748D01*
X163537900Y-139549320D01*
X163537900Y-139190280D01*
X163494412Y-138971650D01*
X163606885Y-138859177D01*
X163606885Y-140385800D01*
X163632566Y-140522284D01*
X163713228Y-140647636D01*
X163836304Y-140731730D01*
X163982400Y-140761315D01*
X165709600Y-140761315D01*
X165846084Y-140735634D01*
X165876596Y-140716000D01*
X178321966Y-140716000D01*
X178415739Y-141187428D01*
X178682781Y-141587085D01*
X179082438Y-141854127D01*
X179553866Y-141947900D01*
X179602134Y-141947900D01*
X180073562Y-141854127D01*
X180473219Y-141587085D01*
X180740261Y-141187428D01*
X180834034Y-140716000D01*
X180861966Y-140716000D01*
X180955739Y-141187428D01*
X181222781Y-141587085D01*
X181622438Y-141854127D01*
X182093866Y-141947900D01*
X182142134Y-141947900D01*
X182613562Y-141854127D01*
X183013219Y-141587085D01*
X183280261Y-141187428D01*
X183374034Y-140716000D01*
X183280261Y-140244572D01*
X183013219Y-139844915D01*
X182613562Y-139577873D01*
X182142134Y-139484100D01*
X182093866Y-139484100D01*
X181622438Y-139577873D01*
X181222781Y-139844915D01*
X180955739Y-140244572D01*
X180861966Y-140716000D01*
X180834034Y-140716000D01*
X180740261Y-140244572D01*
X180473219Y-139844915D01*
X180073562Y-139577873D01*
X179602134Y-139484100D01*
X179553866Y-139484100D01*
X179082438Y-139577873D01*
X178682781Y-139844915D01*
X178415739Y-140244572D01*
X178321966Y-140716000D01*
X165876596Y-140716000D01*
X165971436Y-140654972D01*
X166055530Y-140531896D01*
X166085115Y-140385800D01*
X166085115Y-138353800D01*
X166059434Y-138217316D01*
X166032848Y-138176000D01*
X178321966Y-138176000D01*
X178415739Y-138647428D01*
X178682781Y-139047085D01*
X179082438Y-139314127D01*
X179553866Y-139407900D01*
X179602134Y-139407900D01*
X180073562Y-139314127D01*
X180473219Y-139047085D01*
X180740261Y-138647428D01*
X180834034Y-138176000D01*
X180861966Y-138176000D01*
X180955739Y-138647428D01*
X181222781Y-139047085D01*
X181622438Y-139314127D01*
X182093866Y-139407900D01*
X182142134Y-139407900D01*
X182613562Y-139314127D01*
X183013219Y-139047085D01*
X183280261Y-138647428D01*
X183374034Y-138176000D01*
X183280261Y-137704572D01*
X183013219Y-137304915D01*
X182613562Y-137037873D01*
X182142134Y-136944100D01*
X182093866Y-136944100D01*
X181622438Y-137037873D01*
X181222781Y-137304915D01*
X180955739Y-137704572D01*
X180861966Y-138176000D01*
X180834034Y-138176000D01*
X180740261Y-137704572D01*
X180473219Y-137304915D01*
X180073562Y-137037873D01*
X179602134Y-136944100D01*
X179553866Y-136944100D01*
X179082438Y-137037873D01*
X178682781Y-137304915D01*
X178415739Y-137704572D01*
X178321966Y-138176000D01*
X166032848Y-138176000D01*
X165978772Y-138091964D01*
X165855696Y-138007870D01*
X165709600Y-137978285D01*
X165404800Y-137978285D01*
X165404800Y-135636000D01*
X178321966Y-135636000D01*
X178415739Y-136107428D01*
X178682781Y-136507085D01*
X179082438Y-136774127D01*
X179553866Y-136867900D01*
X179602134Y-136867900D01*
X180073562Y-136774127D01*
X180473219Y-136507085D01*
X180740261Y-136107428D01*
X180834034Y-135636000D01*
X180740261Y-135164572D01*
X180473219Y-134764915D01*
X180073562Y-134497873D01*
X179602134Y-134404100D01*
X179553866Y-134404100D01*
X179082438Y-134497873D01*
X178682781Y-134764915D01*
X178415739Y-135164572D01*
X178321966Y-135636000D01*
X165404800Y-135636000D01*
X165404800Y-134191062D01*
X165483793Y-134112069D01*
X165545646Y-134112123D01*
X165807136Y-134004077D01*
X165851691Y-133959600D01*
X166176914Y-133959600D01*
X166220612Y-134003374D01*
X166481913Y-134111876D01*
X166764846Y-134112123D01*
X167026336Y-134004077D01*
X167226574Y-133804188D01*
X167335076Y-133542887D01*
X167335323Y-133259954D01*
X167267579Y-133096000D01*
X178321966Y-133096000D01*
X178415739Y-133567428D01*
X178682781Y-133967085D01*
X179082438Y-134234127D01*
X179553866Y-134327900D01*
X179602134Y-134327900D01*
X180073562Y-134234127D01*
X180473219Y-133967085D01*
X180740261Y-133567428D01*
X180834034Y-133096000D01*
X180861966Y-133096000D01*
X180955739Y-133567428D01*
X181222781Y-133967085D01*
X181622438Y-134234127D01*
X182093866Y-134327900D01*
X182142134Y-134327900D01*
X182613562Y-134234127D01*
X183013219Y-133967085D01*
X183280261Y-133567428D01*
X183374034Y-133096000D01*
X183280261Y-132624572D01*
X183013219Y-132224915D01*
X182613562Y-131957873D01*
X182142134Y-131864100D01*
X182093866Y-131864100D01*
X181622438Y-131957873D01*
X181222781Y-132224915D01*
X180955739Y-132624572D01*
X180861966Y-133096000D01*
X180834034Y-133096000D01*
X180740261Y-132624572D01*
X180473219Y-132224915D01*
X180073562Y-131957873D01*
X179602134Y-131864100D01*
X179553866Y-131864100D01*
X179082438Y-131957873D01*
X178682781Y-132224915D01*
X178415739Y-132624572D01*
X178321966Y-133096000D01*
X167267579Y-133096000D01*
X167227277Y-132998464D01*
X167027388Y-132798226D01*
X166918769Y-132753123D01*
X167026336Y-132708677D01*
X167226574Y-132508788D01*
X167335076Y-132247487D01*
X167335323Y-131964554D01*
X167227277Y-131703064D01*
X167027388Y-131502826D01*
X166766087Y-131394324D01*
X166751066Y-131394311D01*
X166751123Y-131329554D01*
X166643077Y-131068064D01*
X166443188Y-130867826D01*
X166303908Y-130809992D01*
X166442136Y-130752877D01*
X166639356Y-130556000D01*
X178321966Y-130556000D01*
X178415739Y-131027428D01*
X178682781Y-131427085D01*
X179082438Y-131694127D01*
X179553866Y-131787900D01*
X179602134Y-131787900D01*
X180073562Y-131694127D01*
X180473219Y-131427085D01*
X180740261Y-131027428D01*
X180834034Y-130556000D01*
X180740261Y-130084572D01*
X180473219Y-129684915D01*
X180073562Y-129417873D01*
X179602134Y-129324100D01*
X179553866Y-129324100D01*
X179082438Y-129417873D01*
X178682781Y-129684915D01*
X178415739Y-130084572D01*
X178321966Y-130556000D01*
X166639356Y-130556000D01*
X166642374Y-130552988D01*
X166750876Y-130291687D01*
X166751123Y-130008754D01*
X166643077Y-129747264D01*
X166443188Y-129547026D01*
X166181887Y-129438524D01*
X165898954Y-129438277D01*
X165637464Y-129546323D01*
X165592909Y-129590800D01*
X165242286Y-129590800D01*
X165198588Y-129547026D01*
X164937287Y-129438524D01*
X164654354Y-129438277D01*
X164392864Y-129546323D01*
X164192626Y-129746212D01*
X164084124Y-130007513D01*
X164084113Y-130019625D01*
X163434869Y-130668869D01*
X163313736Y-130850156D01*
X163271200Y-131064000D01*
X163271200Y-131340538D01*
X162164869Y-132446869D01*
X162043736Y-132628156D01*
X162001200Y-132842000D01*
X162001200Y-133804338D01*
X157730972Y-138074566D01*
X157697428Y-138052153D01*
X157226000Y-137958380D01*
X156754572Y-138052153D01*
X156354915Y-138319195D01*
X156087873Y-138718852D01*
X155994100Y-139190280D01*
X145592800Y-139190280D01*
X145592800Y-133535090D01*
X153360120Y-133535090D01*
X153360120Y-134180910D01*
X153422377Y-134493899D01*
X153599672Y-134759238D01*
X153865011Y-134936533D01*
X154178000Y-134998790D01*
X154490989Y-134936533D01*
X154756328Y-134759238D01*
X154813000Y-134674423D01*
X154869672Y-134759238D01*
X155135011Y-134936533D01*
X155448000Y-134998790D01*
X155760989Y-134936533D01*
X156026328Y-134759238D01*
X156203623Y-134493899D01*
X156265880Y-134180910D01*
X156265880Y-133535090D01*
X156203623Y-133222101D01*
X156026328Y-132956762D01*
X155760989Y-132779467D01*
X155448000Y-132717210D01*
X155135011Y-132779467D01*
X154869672Y-132956762D01*
X154813000Y-133041577D01*
X154756328Y-132956762D01*
X154490989Y-132779467D01*
X154178000Y-132717210D01*
X153865011Y-132779467D01*
X153599672Y-132956762D01*
X153422377Y-133222101D01*
X153360120Y-133535090D01*
X145592800Y-133535090D01*
X145592800Y-130683000D01*
X148194580Y-130683000D01*
X148299954Y-131212749D01*
X148600032Y-131661848D01*
X149049131Y-131961926D01*
X149578880Y-132067300D01*
X149633120Y-132067300D01*
X150162869Y-131961926D01*
X150611968Y-131661848D01*
X150912046Y-131212749D01*
X151017420Y-130683000D01*
X150912046Y-130153251D01*
X150611968Y-129704152D01*
X150358088Y-129534515D01*
X150622000Y-129534515D01*
X150758484Y-129508834D01*
X150883836Y-129428172D01*
X150967930Y-129305096D01*
X150997515Y-129159000D01*
X150997515Y-128016000D01*
X178321966Y-128016000D01*
X178415739Y-128487428D01*
X178682781Y-128887085D01*
X179082438Y-129154127D01*
X179553866Y-129247900D01*
X179602134Y-129247900D01*
X180073562Y-129154127D01*
X180473219Y-128887085D01*
X180740261Y-128487428D01*
X180834034Y-128016000D01*
X180861966Y-128016000D01*
X180955739Y-128487428D01*
X181222781Y-128887085D01*
X181622438Y-129154127D01*
X182093866Y-129247900D01*
X182142134Y-129247900D01*
X182613562Y-129154127D01*
X183013219Y-128887085D01*
X183280261Y-128487428D01*
X183374034Y-128016000D01*
X183280261Y-127544572D01*
X183013219Y-127144915D01*
X182613562Y-126877873D01*
X182142134Y-126784100D01*
X182093866Y-126784100D01*
X181622438Y-126877873D01*
X181222781Y-127144915D01*
X180955739Y-127544572D01*
X180861966Y-128016000D01*
X180834034Y-128016000D01*
X180740261Y-127544572D01*
X180473219Y-127144915D01*
X180073562Y-126877873D01*
X179602134Y-126784100D01*
X179553866Y-126784100D01*
X179082438Y-126877873D01*
X178682781Y-127144915D01*
X178415739Y-127544572D01*
X178321966Y-128016000D01*
X150997515Y-128016000D01*
X150997515Y-127127000D01*
X150971834Y-126990516D01*
X150891172Y-126865164D01*
X150768096Y-126781070D01*
X150622000Y-126751485D01*
X148590000Y-126751485D01*
X148453516Y-126777166D01*
X148328164Y-126857828D01*
X148244070Y-126980904D01*
X148214485Y-127127000D01*
X148214485Y-129159000D01*
X148240166Y-129295484D01*
X148320828Y-129420836D01*
X148443904Y-129504930D01*
X148590000Y-129534515D01*
X148853912Y-129534515D01*
X148600032Y-129704152D01*
X148299954Y-130153251D01*
X148194580Y-130683000D01*
X145592800Y-130683000D01*
X145592800Y-124826000D01*
X158359485Y-124826000D01*
X158359485Y-126126000D01*
X158385166Y-126262484D01*
X158465828Y-126387836D01*
X158588904Y-126471930D01*
X158735000Y-126501515D01*
X160035000Y-126501515D01*
X160171484Y-126475834D01*
X160296836Y-126395172D01*
X160380930Y-126272096D01*
X160410515Y-126126000D01*
X160410515Y-125476000D01*
X180861966Y-125476000D01*
X180955739Y-125947428D01*
X181222781Y-126347085D01*
X181622438Y-126614127D01*
X182093866Y-126707900D01*
X182142134Y-126707900D01*
X182613562Y-126614127D01*
X183013219Y-126347085D01*
X183280261Y-125947428D01*
X183374034Y-125476000D01*
X183280261Y-125004572D01*
X183013219Y-124604915D01*
X182613562Y-124337873D01*
X182142134Y-124244100D01*
X182093866Y-124244100D01*
X181622438Y-124337873D01*
X181222781Y-124604915D01*
X180955739Y-125004572D01*
X180861966Y-125476000D01*
X160410515Y-125476000D01*
X160410515Y-124826000D01*
X160384834Y-124689516D01*
X160304172Y-124564164D01*
X160181096Y-124480070D01*
X160035000Y-124450485D01*
X158735000Y-124450485D01*
X158598516Y-124476166D01*
X158473164Y-124556828D01*
X158389070Y-124679904D01*
X158359485Y-124826000D01*
X145592800Y-124826000D01*
X145592800Y-122794000D01*
X148580485Y-122794000D01*
X148580485Y-124094000D01*
X148606166Y-124230484D01*
X148686828Y-124355836D01*
X148809904Y-124439930D01*
X148956000Y-124469515D01*
X150256000Y-124469515D01*
X150392484Y-124443834D01*
X150517836Y-124363172D01*
X150601930Y-124240096D01*
X150631515Y-124094000D01*
X150631515Y-122936000D01*
X166637966Y-122936000D01*
X166731739Y-123407428D01*
X166998781Y-123807085D01*
X167398438Y-124074127D01*
X167869866Y-124167900D01*
X167918134Y-124167900D01*
X168389562Y-124074127D01*
X168789219Y-123807085D01*
X169056261Y-123407428D01*
X169150034Y-122936000D01*
X178321966Y-122936000D01*
X178415739Y-123407428D01*
X178682781Y-123807085D01*
X179082438Y-124074127D01*
X179553866Y-124167900D01*
X179602134Y-124167900D01*
X180073562Y-124074127D01*
X180473219Y-123807085D01*
X180740261Y-123407428D01*
X180834034Y-122936000D01*
X180861966Y-122936000D01*
X180955739Y-123407428D01*
X181222781Y-123807085D01*
X181622438Y-124074127D01*
X182093866Y-124167900D01*
X182142134Y-124167900D01*
X182613562Y-124074127D01*
X183013219Y-123807085D01*
X183280261Y-123407428D01*
X183374034Y-122936000D01*
X183280261Y-122464572D01*
X183013219Y-122064915D01*
X182613562Y-121797873D01*
X182142134Y-121704100D01*
X182093866Y-121704100D01*
X181622438Y-121797873D01*
X181222781Y-122064915D01*
X180955739Y-122464572D01*
X180861966Y-122936000D01*
X180834034Y-122936000D01*
X180740261Y-122464572D01*
X180473219Y-122064915D01*
X180073562Y-121797873D01*
X179602134Y-121704100D01*
X179553866Y-121704100D01*
X179082438Y-121797873D01*
X178682781Y-122064915D01*
X178415739Y-122464572D01*
X178321966Y-122936000D01*
X169150034Y-122936000D01*
X169056261Y-122464572D01*
X168789219Y-122064915D01*
X168389562Y-121797873D01*
X167918134Y-121704100D01*
X167869866Y-121704100D01*
X167398438Y-121797873D01*
X166998781Y-122064915D01*
X166731739Y-122464572D01*
X166637966Y-122936000D01*
X150631515Y-122936000D01*
X150631515Y-122794000D01*
X150605834Y-122657516D01*
X150525172Y-122532164D01*
X150402096Y-122448070D01*
X150256000Y-122418485D01*
X148956000Y-122418485D01*
X148819516Y-122444166D01*
X148694164Y-122524828D01*
X148610070Y-122647904D01*
X148580485Y-122794000D01*
X145592800Y-122794000D01*
X145592800Y-120396000D01*
X166637966Y-120396000D01*
X166731739Y-120867428D01*
X166998781Y-121267085D01*
X167398438Y-121534127D01*
X167869866Y-121627900D01*
X167918134Y-121627900D01*
X168389562Y-121534127D01*
X168789219Y-121267085D01*
X169056261Y-120867428D01*
X169150034Y-120396000D01*
X169177966Y-120396000D01*
X169271739Y-120867428D01*
X169538781Y-121267085D01*
X169938438Y-121534127D01*
X170409866Y-121627900D01*
X170458134Y-121627900D01*
X170929562Y-121534127D01*
X171329219Y-121267085D01*
X171596261Y-120867428D01*
X171690034Y-120396000D01*
X178321966Y-120396000D01*
X178415739Y-120867428D01*
X178682781Y-121267085D01*
X179082438Y-121534127D01*
X179553866Y-121627900D01*
X179602134Y-121627900D01*
X180073562Y-121534127D01*
X180473219Y-121267085D01*
X180740261Y-120867428D01*
X180834034Y-120396000D01*
X180861966Y-120396000D01*
X180955739Y-120867428D01*
X181222781Y-121267085D01*
X181622438Y-121534127D01*
X182093866Y-121627900D01*
X182142134Y-121627900D01*
X182613562Y-121534127D01*
X183013219Y-121267085D01*
X183280261Y-120867428D01*
X183374034Y-120396000D01*
X183280261Y-119924572D01*
X183013219Y-119524915D01*
X182613562Y-119257873D01*
X182142134Y-119164100D01*
X182093866Y-119164100D01*
X181622438Y-119257873D01*
X181222781Y-119524915D01*
X180955739Y-119924572D01*
X180861966Y-120396000D01*
X180834034Y-120396000D01*
X180740261Y-119924572D01*
X180473219Y-119524915D01*
X180073562Y-119257873D01*
X179602134Y-119164100D01*
X179553866Y-119164100D01*
X179082438Y-119257873D01*
X178682781Y-119524915D01*
X178415739Y-119924572D01*
X178321966Y-120396000D01*
X171690034Y-120396000D01*
X171596261Y-119924572D01*
X171329219Y-119524915D01*
X170929562Y-119257873D01*
X170458134Y-119164100D01*
X170409866Y-119164100D01*
X169938438Y-119257873D01*
X169538781Y-119524915D01*
X169271739Y-119924572D01*
X169177966Y-120396000D01*
X169150034Y-120396000D01*
X169056261Y-119924572D01*
X168789219Y-119524915D01*
X168389562Y-119257873D01*
X167918134Y-119164100D01*
X167869866Y-119164100D01*
X167398438Y-119257873D01*
X166998781Y-119524915D01*
X166731739Y-119924572D01*
X166637966Y-120396000D01*
X145592800Y-120396000D01*
X145592800Y-117856000D01*
X166637966Y-117856000D01*
X166731739Y-118327428D01*
X166998781Y-118727085D01*
X167398438Y-118994127D01*
X167869866Y-119087900D01*
X167918134Y-119087900D01*
X168389562Y-118994127D01*
X168789219Y-118727085D01*
X169056261Y-118327428D01*
X169150034Y-117856000D01*
X169177966Y-117856000D01*
X169271739Y-118327428D01*
X169538781Y-118727085D01*
X169938438Y-118994127D01*
X170409866Y-119087900D01*
X170458134Y-119087900D01*
X170929562Y-118994127D01*
X171329219Y-118727085D01*
X171596261Y-118327428D01*
X171690034Y-117856000D01*
X178321966Y-117856000D01*
X178415739Y-118327428D01*
X178682781Y-118727085D01*
X179082438Y-118994127D01*
X179553866Y-119087900D01*
X179602134Y-119087900D01*
X180073562Y-118994127D01*
X180473219Y-118727085D01*
X180740261Y-118327428D01*
X180834034Y-117856000D01*
X180740261Y-117384572D01*
X180473219Y-116984915D01*
X180073562Y-116717873D01*
X179602134Y-116624100D01*
X179553866Y-116624100D01*
X179082438Y-116717873D01*
X178682781Y-116984915D01*
X178415739Y-117384572D01*
X178321966Y-117856000D01*
X171690034Y-117856000D01*
X171596261Y-117384572D01*
X171329219Y-116984915D01*
X170929562Y-116717873D01*
X170458134Y-116624100D01*
X170409866Y-116624100D01*
X169938438Y-116717873D01*
X169538781Y-116984915D01*
X169271739Y-117384572D01*
X169177966Y-117856000D01*
X169150034Y-117856000D01*
X169056261Y-117384572D01*
X168789219Y-116984915D01*
X168389562Y-116717873D01*
X167918134Y-116624100D01*
X167869866Y-116624100D01*
X167398438Y-116717873D01*
X166998781Y-116984915D01*
X166731739Y-117384572D01*
X166637966Y-117856000D01*
X145592800Y-117856000D01*
X145592800Y-115316000D01*
X166637966Y-115316000D01*
X166731739Y-115787428D01*
X166998781Y-116187085D01*
X167398438Y-116454127D01*
X167869866Y-116547900D01*
X167918134Y-116547900D01*
X168389562Y-116454127D01*
X168789219Y-116187085D01*
X169056261Y-115787428D01*
X169150034Y-115316000D01*
X169177966Y-115316000D01*
X169271739Y-115787428D01*
X169538781Y-116187085D01*
X169938438Y-116454127D01*
X170409866Y-116547900D01*
X170458134Y-116547900D01*
X170929562Y-116454127D01*
X171329219Y-116187085D01*
X171596261Y-115787428D01*
X171690034Y-115316000D01*
X178321966Y-115316000D01*
X178415739Y-115787428D01*
X178682781Y-116187085D01*
X179082438Y-116454127D01*
X179553866Y-116547900D01*
X179602134Y-116547900D01*
X180073562Y-116454127D01*
X180473219Y-116187085D01*
X180740261Y-115787428D01*
X180834034Y-115316000D01*
X180861966Y-115316000D01*
X180955739Y-115787428D01*
X181222781Y-116187085D01*
X181622438Y-116454127D01*
X182093866Y-116547900D01*
X182142134Y-116547900D01*
X182613562Y-116454127D01*
X183013219Y-116187085D01*
X183280261Y-115787428D01*
X183374034Y-115316000D01*
X183280261Y-114844572D01*
X183013219Y-114444915D01*
X182613562Y-114177873D01*
X182142134Y-114084100D01*
X182093866Y-114084100D01*
X181622438Y-114177873D01*
X181222781Y-114444915D01*
X180955739Y-114844572D01*
X180861966Y-115316000D01*
X180834034Y-115316000D01*
X180740261Y-114844572D01*
X180473219Y-114444915D01*
X180073562Y-114177873D01*
X179602134Y-114084100D01*
X179553866Y-114084100D01*
X179082438Y-114177873D01*
X178682781Y-114444915D01*
X178415739Y-114844572D01*
X178321966Y-115316000D01*
X171690034Y-115316000D01*
X171596261Y-114844572D01*
X171329219Y-114444915D01*
X170929562Y-114177873D01*
X170458134Y-114084100D01*
X170409866Y-114084100D01*
X169938438Y-114177873D01*
X169538781Y-114444915D01*
X169271739Y-114844572D01*
X169177966Y-115316000D01*
X169150034Y-115316000D01*
X169056261Y-114844572D01*
X168789219Y-114444915D01*
X168389562Y-114177873D01*
X167918134Y-114084100D01*
X167869866Y-114084100D01*
X167398438Y-114177873D01*
X166998781Y-114444915D01*
X166731739Y-114844572D01*
X166637966Y-115316000D01*
X145592800Y-115316000D01*
X145592800Y-112776000D01*
X166637966Y-112776000D01*
X166731739Y-113247428D01*
X166998781Y-113647085D01*
X167398438Y-113914127D01*
X167869866Y-114007900D01*
X167918134Y-114007900D01*
X168389562Y-113914127D01*
X168789219Y-113647085D01*
X169056261Y-113247428D01*
X169150034Y-112776000D01*
X169177966Y-112776000D01*
X169271739Y-113247428D01*
X169538781Y-113647085D01*
X169938438Y-113914127D01*
X170409866Y-114007900D01*
X170458134Y-114007900D01*
X170929562Y-113914127D01*
X171329219Y-113647085D01*
X171596261Y-113247428D01*
X171690034Y-112776000D01*
X178321966Y-112776000D01*
X178415739Y-113247428D01*
X178682781Y-113647085D01*
X179082438Y-113914127D01*
X179553866Y-114007900D01*
X179602134Y-114007900D01*
X180073562Y-113914127D01*
X180473219Y-113647085D01*
X180740261Y-113247428D01*
X180834034Y-112776000D01*
X180861966Y-112776000D01*
X180955739Y-113247428D01*
X181222781Y-113647085D01*
X181622438Y-113914127D01*
X182093866Y-114007900D01*
X182142134Y-114007900D01*
X182613562Y-113914127D01*
X183013219Y-113647085D01*
X183280261Y-113247428D01*
X183374034Y-112776000D01*
X183280261Y-112304572D01*
X183013219Y-111904915D01*
X182613562Y-111637873D01*
X182142134Y-111544100D01*
X182093866Y-111544100D01*
X181622438Y-111637873D01*
X181222781Y-111904915D01*
X180955739Y-112304572D01*
X180861966Y-112776000D01*
X180834034Y-112776000D01*
X180740261Y-112304572D01*
X180473219Y-111904915D01*
X180073562Y-111637873D01*
X179602134Y-111544100D01*
X179553866Y-111544100D01*
X179082438Y-111637873D01*
X178682781Y-111904915D01*
X178415739Y-112304572D01*
X178321966Y-112776000D01*
X171690034Y-112776000D01*
X171596261Y-112304572D01*
X171329219Y-111904915D01*
X170929562Y-111637873D01*
X170458134Y-111544100D01*
X170409866Y-111544100D01*
X169938438Y-111637873D01*
X169538781Y-111904915D01*
X169271739Y-112304572D01*
X169177966Y-112776000D01*
X169150034Y-112776000D01*
X169056261Y-112304572D01*
X168789219Y-111904915D01*
X168389562Y-111637873D01*
X167918134Y-111544100D01*
X167869866Y-111544100D01*
X167398438Y-111637873D01*
X166998781Y-111904915D01*
X166731739Y-112304572D01*
X166637966Y-112776000D01*
X145592800Y-112776000D01*
X145592800Y-110236000D01*
X169177966Y-110236000D01*
X169271739Y-110707428D01*
X169538781Y-111107085D01*
X169938438Y-111374127D01*
X170409866Y-111467900D01*
X170458134Y-111467900D01*
X170929562Y-111374127D01*
X171329219Y-111107085D01*
X171596261Y-110707428D01*
X171690034Y-110236000D01*
X178321966Y-110236000D01*
X178415739Y-110707428D01*
X178682781Y-111107085D01*
X179082438Y-111374127D01*
X179553866Y-111467900D01*
X179602134Y-111467900D01*
X180073562Y-111374127D01*
X180473219Y-111107085D01*
X180740261Y-110707428D01*
X180834034Y-110236000D01*
X180740261Y-109764572D01*
X180473219Y-109364915D01*
X180073562Y-109097873D01*
X179602134Y-109004100D01*
X179553866Y-109004100D01*
X179082438Y-109097873D01*
X178682781Y-109364915D01*
X178415739Y-109764572D01*
X178321966Y-110236000D01*
X171690034Y-110236000D01*
X171596261Y-109764572D01*
X171329219Y-109364915D01*
X170929562Y-109097873D01*
X170458134Y-109004100D01*
X170409866Y-109004100D01*
X169938438Y-109097873D01*
X169538781Y-109364915D01*
X169271739Y-109764572D01*
X169177966Y-110236000D01*
X145592800Y-110236000D01*
X145592800Y-107696000D01*
X178321966Y-107696000D01*
X178415739Y-108167428D01*
X178682781Y-108567085D01*
X179082438Y-108834127D01*
X179553866Y-108927900D01*
X179602134Y-108927900D01*
X180073562Y-108834127D01*
X180473219Y-108567085D01*
X180740261Y-108167428D01*
X180834034Y-107696000D01*
X180861966Y-107696000D01*
X180955739Y-108167428D01*
X181222781Y-108567085D01*
X181622438Y-108834127D01*
X182093866Y-108927900D01*
X182142134Y-108927900D01*
X182613562Y-108834127D01*
X183013219Y-108567085D01*
X183280261Y-108167428D01*
X183374034Y-107696000D01*
X183280261Y-107224572D01*
X183013219Y-106824915D01*
X182613562Y-106557873D01*
X182142134Y-106464100D01*
X182093866Y-106464100D01*
X181622438Y-106557873D01*
X181222781Y-106824915D01*
X180955739Y-107224572D01*
X180861966Y-107696000D01*
X180834034Y-107696000D01*
X180740261Y-107224572D01*
X180473219Y-106824915D01*
X180073562Y-106557873D01*
X179602134Y-106464100D01*
X179553866Y-106464100D01*
X179082438Y-106557873D01*
X178682781Y-106824915D01*
X178415739Y-107224572D01*
X178321966Y-107696000D01*
X145592800Y-107696000D01*
X145592800Y-105156000D01*
X180861966Y-105156000D01*
X180955739Y-105627428D01*
X181222781Y-106027085D01*
X181622438Y-106294127D01*
X182093866Y-106387900D01*
X182142134Y-106387900D01*
X182613562Y-106294127D01*
X183013219Y-106027085D01*
X183280261Y-105627428D01*
X183374034Y-105156000D01*
X183280261Y-104684572D01*
X183013219Y-104284915D01*
X182613562Y-104017873D01*
X182142134Y-103924100D01*
X182093866Y-103924100D01*
X181622438Y-104017873D01*
X181222781Y-104284915D01*
X180955739Y-104684572D01*
X180861966Y-105156000D01*
X145592800Y-105156000D01*
X145592800Y-101829866D01*
X164122100Y-101829866D01*
X164122100Y-101878134D01*
X164215873Y-102349562D01*
X164482915Y-102749219D01*
X164882572Y-103016261D01*
X165354000Y-103110034D01*
X165825428Y-103016261D01*
X166225085Y-102749219D01*
X166492127Y-102349562D01*
X166585900Y-101878134D01*
X166585900Y-101829866D01*
X166662100Y-101829866D01*
X166662100Y-101878134D01*
X166755873Y-102349562D01*
X167022915Y-102749219D01*
X167422572Y-103016261D01*
X167894000Y-103110034D01*
X168365428Y-103016261D01*
X168765085Y-102749219D01*
X169032127Y-102349562D01*
X169125900Y-101878134D01*
X169125900Y-101829866D01*
X169202100Y-101829866D01*
X169202100Y-101878134D01*
X169295873Y-102349562D01*
X169562915Y-102749219D01*
X169962572Y-103016261D01*
X170434000Y-103110034D01*
X170905428Y-103016261D01*
X171305085Y-102749219D01*
X171394099Y-102616000D01*
X178321966Y-102616000D01*
X178415739Y-103087428D01*
X178682781Y-103487085D01*
X179082438Y-103754127D01*
X179553866Y-103847900D01*
X179602134Y-103847900D01*
X180073562Y-103754127D01*
X180473219Y-103487085D01*
X180740261Y-103087428D01*
X180834034Y-102616000D01*
X180861966Y-102616000D01*
X180955739Y-103087428D01*
X181222781Y-103487085D01*
X181622438Y-103754127D01*
X182093866Y-103847900D01*
X182142134Y-103847900D01*
X182613562Y-103754127D01*
X183013219Y-103487085D01*
X183280261Y-103087428D01*
X183374034Y-102616000D01*
X183280261Y-102144572D01*
X183013219Y-101744915D01*
X182613562Y-101477873D01*
X182142134Y-101384100D01*
X182093866Y-101384100D01*
X181622438Y-101477873D01*
X181222781Y-101744915D01*
X180955739Y-102144572D01*
X180861966Y-102616000D01*
X180834034Y-102616000D01*
X180740261Y-102144572D01*
X180473219Y-101744915D01*
X180073562Y-101477873D01*
X179602134Y-101384100D01*
X179553866Y-101384100D01*
X179082438Y-101477873D01*
X178682781Y-101744915D01*
X178415739Y-102144572D01*
X178321966Y-102616000D01*
X171394099Y-102616000D01*
X171572127Y-102349562D01*
X171642684Y-101994846D01*
X173659677Y-101994846D01*
X173767723Y-102256336D01*
X173967612Y-102456574D01*
X174228913Y-102565076D01*
X174511846Y-102565323D01*
X174773336Y-102457277D01*
X174973574Y-102257388D01*
X175082076Y-101996087D01*
X175082323Y-101713154D01*
X174974277Y-101451664D01*
X174866300Y-101343498D01*
X174866300Y-100110816D01*
X175027336Y-100044277D01*
X175227574Y-99844388D01*
X175336076Y-99583087D01*
X175336323Y-99300154D01*
X175228277Y-99038664D01*
X175028388Y-98838426D01*
X174767087Y-98729924D01*
X174484154Y-98729677D01*
X174222664Y-98837723D01*
X174022426Y-99037612D01*
X173913924Y-99298913D01*
X173913744Y-99504944D01*
X173913402Y-99505456D01*
X173893687Y-99604572D01*
X173875700Y-99695000D01*
X173875700Y-101343525D01*
X173768426Y-101450612D01*
X173659924Y-101711913D01*
X173659677Y-101994846D01*
X171642684Y-101994846D01*
X171665900Y-101878134D01*
X171665900Y-101829866D01*
X171572127Y-101358438D01*
X171305085Y-100958781D01*
X170905428Y-100691739D01*
X170434000Y-100597966D01*
X169962572Y-100691739D01*
X169562915Y-100958781D01*
X169295873Y-101358438D01*
X169202100Y-101829866D01*
X169125900Y-101829866D01*
X169032127Y-101358438D01*
X168765085Y-100958781D01*
X168365428Y-100691739D01*
X167894000Y-100597966D01*
X167422572Y-100691739D01*
X167022915Y-100958781D01*
X166755873Y-101358438D01*
X166662100Y-101829866D01*
X166585900Y-101829866D01*
X166492127Y-101358438D01*
X166225085Y-100958781D01*
X165825428Y-100691739D01*
X165354000Y-100597966D01*
X164882572Y-100691739D01*
X164482915Y-100958781D01*
X164215873Y-101358438D01*
X164122100Y-101829866D01*
X145592800Y-101829866D01*
X145592800Y-99076978D01*
X149507463Y-99076978D01*
X149715335Y-99580067D01*
X150099908Y-99965312D01*
X150602634Y-100174062D01*
X151146978Y-100174537D01*
X151650067Y-99966665D01*
X152035312Y-99582092D01*
X152244062Y-99079366D01*
X152244064Y-99076978D01*
X154587463Y-99076978D01*
X154795335Y-99580067D01*
X155179908Y-99965312D01*
X155682634Y-100174062D01*
X156226978Y-100174537D01*
X156730067Y-99966665D01*
X157115312Y-99582092D01*
X157236654Y-99289866D01*
X164122100Y-99289866D01*
X164122100Y-99338134D01*
X164215873Y-99809562D01*
X164482915Y-100209219D01*
X164882572Y-100476261D01*
X165354000Y-100570034D01*
X165825428Y-100476261D01*
X166225085Y-100209219D01*
X166492127Y-99809562D01*
X166585900Y-99338134D01*
X166585900Y-99289866D01*
X166662100Y-99289866D01*
X166662100Y-99338134D01*
X166755873Y-99809562D01*
X167022915Y-100209219D01*
X167422572Y-100476261D01*
X167894000Y-100570034D01*
X168365428Y-100476261D01*
X168765085Y-100209219D01*
X169032127Y-99809562D01*
X169125900Y-99338134D01*
X169125900Y-99289866D01*
X169202100Y-99289866D01*
X169202100Y-99338134D01*
X169295873Y-99809562D01*
X169562915Y-100209219D01*
X169962572Y-100476261D01*
X170434000Y-100570034D01*
X170905428Y-100476261D01*
X171305085Y-100209219D01*
X171572127Y-99809562D01*
X171665900Y-99338134D01*
X171665900Y-99289866D01*
X171572127Y-98818438D01*
X171305085Y-98418781D01*
X170905428Y-98151739D01*
X170434000Y-98057966D01*
X169962572Y-98151739D01*
X169562915Y-98418781D01*
X169295873Y-98818438D01*
X169202100Y-99289866D01*
X169125900Y-99289866D01*
X169032127Y-98818438D01*
X168765085Y-98418781D01*
X168365428Y-98151739D01*
X167894000Y-98057966D01*
X167422572Y-98151739D01*
X167022915Y-98418781D01*
X166755873Y-98818438D01*
X166662100Y-99289866D01*
X166585900Y-99289866D01*
X166492127Y-98818438D01*
X166225085Y-98418781D01*
X165825428Y-98151739D01*
X165354000Y-98057966D01*
X164882572Y-98151739D01*
X164482915Y-98418781D01*
X164215873Y-98818438D01*
X164122100Y-99289866D01*
X157236654Y-99289866D01*
X157324062Y-99079366D01*
X157324537Y-98535022D01*
X157116665Y-98031933D01*
X157015755Y-97930846D01*
X177088677Y-97930846D01*
X177196723Y-98192336D01*
X177396612Y-98392574D01*
X177657913Y-98501076D01*
X177810749Y-98501209D01*
X178615359Y-99305819D01*
X178415739Y-99604572D01*
X178321966Y-100076000D01*
X178415739Y-100547428D01*
X178682781Y-100947085D01*
X179082438Y-101214127D01*
X179553866Y-101307900D01*
X179602134Y-101307900D01*
X180073562Y-101214127D01*
X180473219Y-100947085D01*
X180740261Y-100547428D01*
X180834034Y-100076000D01*
X180740261Y-99604572D01*
X180473219Y-99204915D01*
X180073562Y-98937873D01*
X179602134Y-98844100D01*
X179554560Y-98844100D01*
X179459612Y-98749152D01*
X179553866Y-98767900D01*
X179602134Y-98767900D01*
X180073562Y-98674127D01*
X180473219Y-98407085D01*
X180740261Y-98007428D01*
X180834034Y-97536000D01*
X180861966Y-97536000D01*
X180955739Y-98007428D01*
X181222781Y-98407085D01*
X181622438Y-98674127D01*
X182093866Y-98767900D01*
X182142134Y-98767900D01*
X182613562Y-98674127D01*
X183013219Y-98407085D01*
X183280261Y-98007428D01*
X183374034Y-97536000D01*
X183280261Y-97064572D01*
X183013219Y-96664915D01*
X182613562Y-96397873D01*
X182142134Y-96304100D01*
X182093866Y-96304100D01*
X181622438Y-96397873D01*
X181222781Y-96664915D01*
X180955739Y-97064572D01*
X180861966Y-97536000D01*
X180834034Y-97536000D01*
X180740261Y-97064572D01*
X180473219Y-96664915D01*
X180073562Y-96397873D01*
X179602134Y-96304100D01*
X179553866Y-96304100D01*
X179082438Y-96397873D01*
X178682781Y-96664915D01*
X178415739Y-97064572D01*
X178360079Y-97344391D01*
X178203388Y-97187426D01*
X177942087Y-97078924D01*
X177659154Y-97078677D01*
X177397664Y-97186723D01*
X177197426Y-97386612D01*
X177088924Y-97647913D01*
X177088677Y-97930846D01*
X157015755Y-97930846D01*
X156732092Y-97646688D01*
X156229366Y-97437938D01*
X155685022Y-97437463D01*
X155181933Y-97645335D01*
X154796688Y-98029908D01*
X154587938Y-98532634D01*
X154587463Y-99076978D01*
X152244064Y-99076978D01*
X152244537Y-98535022D01*
X152036665Y-98031933D01*
X151652092Y-97646688D01*
X151149366Y-97437938D01*
X150605022Y-97437463D01*
X150101933Y-97645335D01*
X149716688Y-98029908D01*
X149507938Y-98532634D01*
X149507463Y-99076978D01*
X145592800Y-99076978D01*
X145592800Y-94132400D01*
X178338885Y-94132400D01*
X178338885Y-95859600D01*
X178364566Y-95996084D01*
X178445228Y-96121436D01*
X178568304Y-96205530D01*
X178714400Y-96235115D01*
X180441600Y-96235115D01*
X180578084Y-96209434D01*
X180703436Y-96128772D01*
X180787530Y-96005696D01*
X180817115Y-95859600D01*
X180817115Y-94996000D01*
X180861966Y-94996000D01*
X180955739Y-95467428D01*
X181222781Y-95867085D01*
X181622438Y-96134127D01*
X182093866Y-96227900D01*
X182142134Y-96227900D01*
X182613562Y-96134127D01*
X183013219Y-95867085D01*
X183280261Y-95467428D01*
X183374034Y-94996000D01*
X183280261Y-94524572D01*
X183013219Y-94124915D01*
X182613562Y-93857873D01*
X182142134Y-93764100D01*
X182093866Y-93764100D01*
X181622438Y-93857873D01*
X181222781Y-94124915D01*
X180955739Y-94524572D01*
X180861966Y-94996000D01*
X180817115Y-94996000D01*
X180817115Y-94132400D01*
X180791434Y-93995916D01*
X180710772Y-93870564D01*
X180587696Y-93786470D01*
X180441600Y-93756885D01*
X178714400Y-93756885D01*
X178577916Y-93782566D01*
X178452564Y-93863228D01*
X178368470Y-93986304D01*
X178338885Y-94132400D01*
X145592800Y-94132400D01*
X145592800Y-90601800D01*
X183972200Y-90601800D01*
X183972200Y-145872200D01*
M02*
