M48
;DRILL file {KiCad 4.0.2-4+6225~38~ubuntu14.04.1-stable} date Wed 02 Mar 2016 03:50:34 PM CST
;FORMAT={2:4/ absolute / inch / suppress leading zeros}
FMAT,2
INCH,TZ
T1C0.013
T2C0.020
T3C0.024
T4C0.031
T5C0.040
T6C0.043
T7C0.063
T8C0.071
%
G90
G05
M72
T1
X61100Y-55000
X63100Y-53250
X63650Y-51300
X63650Y-51700
X63650Y-52050
X63650Y-52450
X63750Y-49850
X64860Y-51770
X64880Y-51240
X65120Y-52010
X65120Y-52520
X65370Y-51240
X65370Y-51760
X65600Y-52010
X65600Y-52520
X66100Y-53850
X66600Y-41400
X66800Y-51100
X66800Y-51600
X66800Y-52200
X66800Y-52700
X67200Y-51100
X67200Y-51600
X67200Y-52200
X67200Y-52700
X67400Y-42100
X67500Y-55700
X67600Y-51100
X67600Y-51600
X67600Y-52200
X67600Y-52700
X68300Y-49900
X68500Y-55100
X68650Y-40100
X68750Y-39150
X69100Y-40500
X69600Y-37200
X70000Y-38500
T2
X58500Y-45600
X59400Y-44800
X59400Y-46400
X60300Y-45600
X60900Y-45600
X61800Y-44800
X61800Y-46400
X63900Y-37650
X63900Y-42650
X64600Y-37650
X64600Y-42650
X65650Y-37650
T3
X60700Y-52700
X61200Y-52700
X61700Y-52700
T4
X58900Y-47616
X58900Y-48600
X61766Y-49400
X62750Y-49400
T5
X58900Y-50450
X58900Y-51450
X61900Y-54870
X62900Y-54870
X63900Y-54870
X64100Y-39100
X64100Y-40100
X64900Y-54870
X65100Y-39100
X65100Y-40100
X66100Y-39100
X66100Y-40100
X66100Y-43400
X66100Y-44400
X66100Y-45400
X66100Y-46400
X66100Y-47400
X66100Y-48400
X67100Y-39100
X67100Y-40100
X67100Y-43400
X67100Y-44400
X67100Y-45400
X67100Y-46400
X67100Y-47400
X67100Y-48400
X70700Y-37400
X70700Y-38400
X70700Y-39400
X70700Y-40400
X70700Y-41400
X70700Y-42400
X70700Y-43400
X70700Y-44400
X70700Y-45400
X70700Y-46400
X70700Y-47400
X70700Y-48400
X70700Y-49400
X70700Y-50400
X70700Y-51400
X70700Y-52400
X70700Y-53400
X70700Y-54400
X70700Y-55400
X70700Y-56400
X71700Y-37400
X71700Y-38400
X71700Y-39400
X71700Y-40400
X71700Y-41400
X71700Y-42400
X71700Y-43400
X71700Y-44400
X71700Y-45400
X71700Y-46400
X71700Y-47400
X71700Y-48400
X71700Y-49400
X71700Y-50400
X71700Y-51400
X71700Y-52400
X71700Y-53400
X71700Y-54400
X71700Y-55400
X71700Y-56400
T6
X59400Y-38900
X60400Y-38900
X61400Y-38900
T7
X59400Y-43344
T8
X61250Y-43344
T0
M30
