G04 #@! TF.FileFunction,Soldermask,Bot*
%FSLAX46Y46*%
G04 Gerber Fmt 4.6, Leading zero omitted, Abs format (unit mm)*
G04 Created by KiCad (PCBNEW 4.0.2-4+6225~38~ubuntu14.04.1-stable) date Tue 01 Mar 2016 05:51:26 PM CST*
%MOMM*%
G01*
G04 APERTURE LIST*
%ADD10C,0.100000*%
%ADD11R,1.727200X1.727200*%
%ADD12O,1.727200X1.727200*%
%ADD13R,3.500000X4.500000*%
%ADD14R,3.500000X4.000000*%
%ADD15R,4.000000X3.500000*%
%ADD16R,1.727200X2.032000*%
%ADD17O,1.727200X2.032000*%
%ADD18C,2.000000*%
%ADD19R,2.032000X2.032000*%
%ADD20O,2.032000X2.032000*%
%ADD21O,0.899160X1.501140*%
%ADD22C,1.300000*%
%ADD23R,1.300000X1.300000*%
G04 APERTURE END LIST*
D10*
D11*
X179578000Y-94996000D03*
D12*
X182118000Y-94996000D03*
X179578000Y-97536000D03*
X182118000Y-97536000D03*
X179578000Y-100076000D03*
X182118000Y-100076000D03*
X179578000Y-102616000D03*
X182118000Y-102616000D03*
X179578000Y-105156000D03*
X182118000Y-105156000D03*
X179578000Y-107696000D03*
X182118000Y-107696000D03*
X179578000Y-110236000D03*
X182118000Y-110236000D03*
X179578000Y-112776000D03*
X182118000Y-112776000D03*
X179578000Y-115316000D03*
X182118000Y-115316000D03*
X179578000Y-117856000D03*
X182118000Y-117856000D03*
X179578000Y-120396000D03*
X182118000Y-120396000D03*
X179578000Y-122936000D03*
X182118000Y-122936000D03*
X179578000Y-125476000D03*
X182118000Y-125476000D03*
X179578000Y-128016000D03*
X182118000Y-128016000D03*
X179578000Y-130556000D03*
X182118000Y-130556000D03*
X179578000Y-133096000D03*
X182118000Y-133096000D03*
X179578000Y-135636000D03*
X182118000Y-135636000D03*
X179578000Y-138176000D03*
X182118000Y-138176000D03*
X179578000Y-140716000D03*
X182118000Y-140716000D03*
X179578000Y-143256000D03*
X182118000Y-143256000D03*
D13*
X159362140Y-110744000D03*
D14*
X153362660Y-110744000D03*
D15*
X156362400Y-115443000D03*
D16*
X164846000Y-139369800D03*
D17*
X162306000Y-139369800D03*
X159766000Y-139369800D03*
X157226000Y-139369800D03*
D18*
X155956000Y-102108000D03*
X153416000Y-102108000D03*
X150876000Y-102108000D03*
D19*
X149606000Y-125603000D03*
D20*
X149606000Y-128143000D03*
D21*
X154559000Y-132207000D03*
X155829000Y-132207000D03*
X153289000Y-132207000D03*
D11*
X162814000Y-101854000D03*
D12*
X162814000Y-99314000D03*
X165354000Y-101854000D03*
X165354000Y-99314000D03*
X167894000Y-101854000D03*
X167894000Y-99314000D03*
X170434000Y-101854000D03*
X170434000Y-99314000D03*
D22*
X149479000Y-118785000D03*
D23*
X149479000Y-121285000D03*
D22*
X156885000Y-125476000D03*
D23*
X159385000Y-125476000D03*
D11*
X167894000Y-110236000D03*
D12*
X170434000Y-110236000D03*
X167894000Y-112776000D03*
X170434000Y-112776000D03*
X167894000Y-115316000D03*
X170434000Y-115316000D03*
X167894000Y-117856000D03*
X170434000Y-117856000D03*
X167894000Y-120396000D03*
X170434000Y-120396000D03*
M02*
