G04 #@! TF.FileFunction,Legend,Top*
%FSLAX46Y46*%
G04 Gerber Fmt 4.6, Leading zero omitted, Abs format (unit mm)*
G04 Created by KiCad (PCBNEW 4.0.2-4+6225~38~ubuntu14.04.1-stable) date Tue 01 Mar 2016 05:51:26 PM CST*
%MOMM*%
G01*
G04 APERTURE LIST*
%ADD10C,0.100000*%
%ADD11C,0.076200*%
%ADD12C,0.150000*%
G04 APERTURE END LIST*
D10*
D11*
X146140714Y-128315357D02*
X146140714Y-127934357D01*
X146285857Y-127934357D01*
X146322143Y-127952500D01*
X146340286Y-127970643D01*
X146358429Y-128006929D01*
X146358429Y-128061357D01*
X146340286Y-128097643D01*
X146322143Y-128115786D01*
X146285857Y-128133929D01*
X146140714Y-128133929D01*
X146521714Y-128315357D02*
X146521714Y-127934357D01*
X146612429Y-127934357D01*
X146666857Y-127952500D01*
X146703143Y-127988786D01*
X146721286Y-128025071D01*
X146739429Y-128097643D01*
X146739429Y-128152071D01*
X146721286Y-128224643D01*
X146703143Y-128260929D01*
X146666857Y-128297214D01*
X146612429Y-128315357D01*
X146521714Y-128315357D01*
X146902714Y-128315357D02*
X146902714Y-127934357D01*
X147120429Y-128315357D01*
X147120429Y-127934357D01*
X147265572Y-127934357D02*
X147501429Y-127934357D01*
X147374429Y-128079500D01*
X147428857Y-128079500D01*
X147465143Y-128097643D01*
X147483286Y-128115786D01*
X147501429Y-128152071D01*
X147501429Y-128242786D01*
X147483286Y-128279071D01*
X147465143Y-128297214D01*
X147428857Y-128315357D01*
X147320000Y-128315357D01*
X147283714Y-128297214D01*
X147265572Y-128279071D01*
X146812001Y-125775357D02*
X146594286Y-125775357D01*
X146703144Y-125775357D02*
X146703144Y-125394357D01*
X146666858Y-125448786D01*
X146630572Y-125485071D01*
X146594286Y-125503214D01*
X146957143Y-125430643D02*
X146975286Y-125412500D01*
X147011572Y-125394357D01*
X147102286Y-125394357D01*
X147138572Y-125412500D01*
X147156715Y-125430643D01*
X147174858Y-125466929D01*
X147174858Y-125503214D01*
X147156715Y-125557643D01*
X146939001Y-125775357D01*
X147174858Y-125775357D01*
X147283715Y-125394357D02*
X147410715Y-125775357D01*
X147537715Y-125394357D01*
X167730715Y-142216414D02*
X167785144Y-142234557D01*
X167875858Y-142234557D01*
X167912144Y-142216414D01*
X167930287Y-142198271D01*
X167948430Y-142161986D01*
X167948430Y-142125700D01*
X167930287Y-142089414D01*
X167912144Y-142071271D01*
X167875858Y-142053129D01*
X167803287Y-142034986D01*
X167767001Y-142016843D01*
X167748858Y-141998700D01*
X167730715Y-141962414D01*
X167730715Y-141926129D01*
X167748858Y-141889843D01*
X167767001Y-141871700D01*
X167803287Y-141853557D01*
X167894001Y-141853557D01*
X167948430Y-141871700D01*
X168057287Y-141980557D02*
X168202430Y-141980557D01*
X168111715Y-141853557D02*
X168111715Y-142180129D01*
X168129858Y-142216414D01*
X168166144Y-142234557D01*
X168202430Y-142234557D01*
X168474572Y-142216414D02*
X168438286Y-142234557D01*
X168365715Y-142234557D01*
X168329429Y-142216414D01*
X168311286Y-142180129D01*
X168311286Y-142034986D01*
X168329429Y-141998700D01*
X168365715Y-141980557D01*
X168438286Y-141980557D01*
X168474572Y-141998700D01*
X168492715Y-142034986D01*
X168492715Y-142071271D01*
X168311286Y-142107557D01*
X168656000Y-141980557D02*
X168656000Y-142361557D01*
X168656000Y-141998700D02*
X168692286Y-141980557D01*
X168764857Y-141980557D01*
X168801143Y-141998700D01*
X168819286Y-142016843D01*
X168837429Y-142053129D01*
X168837429Y-142161986D01*
X168819286Y-142198271D01*
X168801143Y-142216414D01*
X168764857Y-142234557D01*
X168692286Y-142234557D01*
X168656000Y-142216414D01*
X169000714Y-141980557D02*
X169000714Y-142361557D01*
X169000714Y-141998700D02*
X169037000Y-141980557D01*
X169109571Y-141980557D01*
X169145857Y-141998700D01*
X169164000Y-142016843D01*
X169182143Y-142053129D01*
X169182143Y-142161986D01*
X169164000Y-142198271D01*
X169145857Y-142216414D01*
X169109571Y-142234557D01*
X169037000Y-142234557D01*
X169000714Y-142216414D01*
X169490571Y-142216414D02*
X169454285Y-142234557D01*
X169381714Y-142234557D01*
X169345428Y-142216414D01*
X169327285Y-142180129D01*
X169327285Y-142034986D01*
X169345428Y-141998700D01*
X169381714Y-141980557D01*
X169454285Y-141980557D01*
X169490571Y-141998700D01*
X169508714Y-142034986D01*
X169508714Y-142071271D01*
X169327285Y-142107557D01*
X169671999Y-142234557D02*
X169671999Y-141980557D01*
X169671999Y-142053129D02*
X169690142Y-142016843D01*
X169708285Y-141998700D01*
X169744571Y-141980557D01*
X169780856Y-141980557D01*
X170198142Y-142234557D02*
X170198142Y-141853557D01*
X170325142Y-142125700D01*
X170452142Y-141853557D01*
X170452142Y-142234557D01*
X170688000Y-142234557D02*
X170651714Y-142216414D01*
X170633571Y-142198271D01*
X170615428Y-142161986D01*
X170615428Y-142053129D01*
X170633571Y-142016843D01*
X170651714Y-141998700D01*
X170688000Y-141980557D01*
X170742428Y-141980557D01*
X170778714Y-141998700D01*
X170796857Y-142016843D01*
X170815000Y-142053129D01*
X170815000Y-142161986D01*
X170796857Y-142198271D01*
X170778714Y-142216414D01*
X170742428Y-142234557D01*
X170688000Y-142234557D01*
X170923857Y-141980557D02*
X171069000Y-141980557D01*
X170978285Y-141853557D02*
X170978285Y-142180129D01*
X170996428Y-142216414D01*
X171032714Y-142234557D01*
X171069000Y-142234557D01*
X171250428Y-142234557D02*
X171214142Y-142216414D01*
X171195999Y-142198271D01*
X171177856Y-142161986D01*
X171177856Y-142053129D01*
X171195999Y-142016843D01*
X171214142Y-141998700D01*
X171250428Y-141980557D01*
X171304856Y-141980557D01*
X171341142Y-141998700D01*
X171359285Y-142016843D01*
X171377428Y-142053129D01*
X171377428Y-142161986D01*
X171359285Y-142198271D01*
X171341142Y-142216414D01*
X171304856Y-142234557D01*
X171250428Y-142234557D01*
X171540713Y-142234557D02*
X171540713Y-141980557D01*
X171540713Y-142053129D02*
X171558856Y-142016843D01*
X171576999Y-141998700D01*
X171613285Y-141980557D01*
X171649570Y-141980557D01*
X168937216Y-142807871D02*
X168919073Y-142826014D01*
X168864644Y-142844157D01*
X168828358Y-142844157D01*
X168773930Y-142826014D01*
X168737644Y-142789729D01*
X168719501Y-142753443D01*
X168701358Y-142680871D01*
X168701358Y-142626443D01*
X168719501Y-142553871D01*
X168737644Y-142517586D01*
X168773930Y-142481300D01*
X168828358Y-142463157D01*
X168864644Y-142463157D01*
X168919073Y-142481300D01*
X168937216Y-142499443D01*
X169263787Y-142590157D02*
X169263787Y-142844157D01*
X169100501Y-142590157D02*
X169100501Y-142789729D01*
X169118644Y-142826014D01*
X169154930Y-142844157D01*
X169209358Y-142844157D01*
X169245644Y-142826014D01*
X169263787Y-142807871D01*
X169445215Y-142844157D02*
X169445215Y-142590157D01*
X169445215Y-142662729D02*
X169463358Y-142626443D01*
X169481501Y-142608300D01*
X169517787Y-142590157D01*
X169554072Y-142590157D01*
X169681072Y-142844157D02*
X169681072Y-142590157D01*
X169681072Y-142662729D02*
X169699215Y-142626443D01*
X169717358Y-142608300D01*
X169753644Y-142590157D01*
X169789929Y-142590157D01*
X170062072Y-142826014D02*
X170025786Y-142844157D01*
X169953215Y-142844157D01*
X169916929Y-142826014D01*
X169898786Y-142789729D01*
X169898786Y-142644586D01*
X169916929Y-142608300D01*
X169953215Y-142590157D01*
X170025786Y-142590157D01*
X170062072Y-142608300D01*
X170080215Y-142644586D01*
X170080215Y-142680871D01*
X169898786Y-142717157D01*
X170243500Y-142590157D02*
X170243500Y-142844157D01*
X170243500Y-142626443D02*
X170261643Y-142608300D01*
X170297929Y-142590157D01*
X170352357Y-142590157D01*
X170388643Y-142608300D01*
X170406786Y-142644586D01*
X170406786Y-142844157D01*
X170533786Y-142590157D02*
X170678929Y-142590157D01*
X170588214Y-142463157D02*
X170588214Y-142789729D01*
X170606357Y-142826014D01*
X170642643Y-142844157D01*
X170678929Y-142844157D01*
X151810357Y-143631557D02*
X151810357Y-143250557D01*
X151901072Y-143250557D01*
X151955500Y-143268700D01*
X151991786Y-143304986D01*
X152009929Y-143341271D01*
X152028072Y-143413843D01*
X152028072Y-143468271D01*
X152009929Y-143540843D01*
X151991786Y-143577129D01*
X151955500Y-143613414D01*
X151901072Y-143631557D01*
X151810357Y-143631557D01*
X152409072Y-143595271D02*
X152390929Y-143613414D01*
X152336500Y-143631557D01*
X152300214Y-143631557D01*
X152245786Y-143613414D01*
X152209500Y-143577129D01*
X152191357Y-143540843D01*
X152173214Y-143468271D01*
X152173214Y-143413843D01*
X152191357Y-143341271D01*
X152209500Y-143304986D01*
X152245786Y-143268700D01*
X152300214Y-143250557D01*
X152336500Y-143250557D01*
X152390929Y-143268700D01*
X152409072Y-143286843D01*
X152862643Y-143631557D02*
X152862643Y-143250557D01*
X152989643Y-143522700D01*
X153116643Y-143250557D01*
X153116643Y-143631557D01*
X153352501Y-143631557D02*
X153316215Y-143613414D01*
X153298072Y-143595271D01*
X153279929Y-143558986D01*
X153279929Y-143450129D01*
X153298072Y-143413843D01*
X153316215Y-143395700D01*
X153352501Y-143377557D01*
X153406929Y-143377557D01*
X153443215Y-143395700D01*
X153461358Y-143413843D01*
X153479501Y-143450129D01*
X153479501Y-143558986D01*
X153461358Y-143595271D01*
X153443215Y-143613414D01*
X153406929Y-143631557D01*
X153352501Y-143631557D01*
X153588358Y-143377557D02*
X153733501Y-143377557D01*
X153642786Y-143250557D02*
X153642786Y-143577129D01*
X153660929Y-143613414D01*
X153697215Y-143631557D01*
X153733501Y-143631557D01*
X153914929Y-143631557D02*
X153878643Y-143613414D01*
X153860500Y-143595271D01*
X153842357Y-143558986D01*
X153842357Y-143450129D01*
X153860500Y-143413843D01*
X153878643Y-143395700D01*
X153914929Y-143377557D01*
X153969357Y-143377557D01*
X154005643Y-143395700D01*
X154023786Y-143413843D01*
X154041929Y-143450129D01*
X154041929Y-143558986D01*
X154023786Y-143595271D01*
X154005643Y-143613414D01*
X153969357Y-143631557D01*
X153914929Y-143631557D01*
X154205214Y-143631557D02*
X154205214Y-143377557D01*
X154205214Y-143450129D02*
X154223357Y-143413843D01*
X154241500Y-143395700D01*
X154277786Y-143377557D01*
X154314071Y-143377557D01*
X152300216Y-144204871D02*
X152282073Y-144223014D01*
X152227644Y-144241157D01*
X152191358Y-144241157D01*
X152136930Y-144223014D01*
X152100644Y-144186729D01*
X152082501Y-144150443D01*
X152064358Y-144077871D01*
X152064358Y-144023443D01*
X152082501Y-143950871D01*
X152100644Y-143914586D01*
X152136930Y-143878300D01*
X152191358Y-143860157D01*
X152227644Y-143860157D01*
X152282073Y-143878300D01*
X152300216Y-143896443D01*
X152626787Y-143987157D02*
X152626787Y-144241157D01*
X152463501Y-143987157D02*
X152463501Y-144186729D01*
X152481644Y-144223014D01*
X152517930Y-144241157D01*
X152572358Y-144241157D01*
X152608644Y-144223014D01*
X152626787Y-144204871D01*
X152808215Y-144241157D02*
X152808215Y-143987157D01*
X152808215Y-144059729D02*
X152826358Y-144023443D01*
X152844501Y-144005300D01*
X152880787Y-143987157D01*
X152917072Y-143987157D01*
X153044072Y-144241157D02*
X153044072Y-143987157D01*
X153044072Y-144059729D02*
X153062215Y-144023443D01*
X153080358Y-144005300D01*
X153116644Y-143987157D01*
X153152929Y-143987157D01*
X153425072Y-144223014D02*
X153388786Y-144241157D01*
X153316215Y-144241157D01*
X153279929Y-144223014D01*
X153261786Y-144186729D01*
X153261786Y-144041586D01*
X153279929Y-144005300D01*
X153316215Y-143987157D01*
X153388786Y-143987157D01*
X153425072Y-144005300D01*
X153443215Y-144041586D01*
X153443215Y-144077871D01*
X153261786Y-144114157D01*
X153606500Y-143987157D02*
X153606500Y-144241157D01*
X153606500Y-144023443D02*
X153624643Y-144005300D01*
X153660929Y-143987157D01*
X153715357Y-143987157D01*
X153751643Y-144005300D01*
X153769786Y-144041586D01*
X153769786Y-144241157D01*
X153896786Y-143987157D02*
X154041929Y-143987157D01*
X153951214Y-143860157D02*
X153951214Y-144186729D01*
X153969357Y-144223014D01*
X154005643Y-144241157D01*
X154041929Y-144241157D01*
X164147500Y-141577786D02*
X164201929Y-141595929D01*
X164220072Y-141614071D01*
X164238215Y-141650357D01*
X164238215Y-141704786D01*
X164220072Y-141741071D01*
X164201929Y-141759214D01*
X164165643Y-141777357D01*
X164020500Y-141777357D01*
X164020500Y-141396357D01*
X164147500Y-141396357D01*
X164183786Y-141414500D01*
X164201929Y-141432643D01*
X164220072Y-141468929D01*
X164220072Y-141505214D01*
X164201929Y-141541500D01*
X164183786Y-141559643D01*
X164147500Y-141577786D01*
X164020500Y-141577786D01*
X164474072Y-141396357D02*
X164546643Y-141396357D01*
X164582929Y-141414500D01*
X164619215Y-141450786D01*
X164637357Y-141523357D01*
X164637357Y-141650357D01*
X164619215Y-141722929D01*
X164582929Y-141759214D01*
X164546643Y-141777357D01*
X164474072Y-141777357D01*
X164437786Y-141759214D01*
X164401500Y-141722929D01*
X164383357Y-141650357D01*
X164383357Y-141523357D01*
X164401500Y-141450786D01*
X164437786Y-141414500D01*
X164474072Y-141396357D01*
X164800643Y-141396357D02*
X164800643Y-141704786D01*
X164818786Y-141741071D01*
X164836929Y-141759214D01*
X164873215Y-141777357D01*
X164945786Y-141777357D01*
X164982072Y-141759214D01*
X165000215Y-141741071D01*
X165018358Y-141704786D01*
X165018358Y-141396357D01*
X165145358Y-141396357D02*
X165363072Y-141396357D01*
X165254215Y-141777357D02*
X165254215Y-141396357D01*
X165689644Y-141777357D02*
X165471929Y-141777357D01*
X165580787Y-141777357D02*
X165580787Y-141396357D01*
X165544501Y-141450786D01*
X165508215Y-141487071D01*
X165471929Y-141505214D01*
X161607500Y-141577786D02*
X161661929Y-141595929D01*
X161680072Y-141614071D01*
X161698215Y-141650357D01*
X161698215Y-141704786D01*
X161680072Y-141741071D01*
X161661929Y-141759214D01*
X161625643Y-141777357D01*
X161480500Y-141777357D01*
X161480500Y-141396357D01*
X161607500Y-141396357D01*
X161643786Y-141414500D01*
X161661929Y-141432643D01*
X161680072Y-141468929D01*
X161680072Y-141505214D01*
X161661929Y-141541500D01*
X161643786Y-141559643D01*
X161607500Y-141577786D01*
X161480500Y-141577786D01*
X161934072Y-141396357D02*
X162006643Y-141396357D01*
X162042929Y-141414500D01*
X162079215Y-141450786D01*
X162097357Y-141523357D01*
X162097357Y-141650357D01*
X162079215Y-141722929D01*
X162042929Y-141759214D01*
X162006643Y-141777357D01*
X161934072Y-141777357D01*
X161897786Y-141759214D01*
X161861500Y-141722929D01*
X161843357Y-141650357D01*
X161843357Y-141523357D01*
X161861500Y-141450786D01*
X161897786Y-141414500D01*
X161934072Y-141396357D01*
X162260643Y-141396357D02*
X162260643Y-141704786D01*
X162278786Y-141741071D01*
X162296929Y-141759214D01*
X162333215Y-141777357D01*
X162405786Y-141777357D01*
X162442072Y-141759214D01*
X162460215Y-141741071D01*
X162478358Y-141704786D01*
X162478358Y-141396357D01*
X162605358Y-141396357D02*
X162823072Y-141396357D01*
X162714215Y-141777357D02*
X162714215Y-141396357D01*
X162931929Y-141432643D02*
X162950072Y-141414500D01*
X162986358Y-141396357D01*
X163077072Y-141396357D01*
X163113358Y-141414500D01*
X163131501Y-141432643D01*
X163149644Y-141468929D01*
X163149644Y-141505214D01*
X163131501Y-141559643D01*
X162913787Y-141777357D01*
X163149644Y-141777357D01*
X158949571Y-141668500D02*
X159131000Y-141668500D01*
X158913286Y-141777357D02*
X159040286Y-141396357D01*
X159167286Y-141777357D01*
X159366857Y-141396357D02*
X159439428Y-141396357D01*
X159475714Y-141414500D01*
X159512000Y-141450786D01*
X159530142Y-141523357D01*
X159530142Y-141650357D01*
X159512000Y-141722929D01*
X159475714Y-141759214D01*
X159439428Y-141777357D01*
X159366857Y-141777357D01*
X159330571Y-141759214D01*
X159294285Y-141722929D01*
X159276142Y-141650357D01*
X159276142Y-141523357D01*
X159294285Y-141450786D01*
X159330571Y-141414500D01*
X159366857Y-141396357D01*
X159693428Y-141396357D02*
X159693428Y-141704786D01*
X159711571Y-141741071D01*
X159729714Y-141759214D01*
X159766000Y-141777357D01*
X159838571Y-141777357D01*
X159874857Y-141759214D01*
X159893000Y-141741071D01*
X159911143Y-141704786D01*
X159911143Y-141396357D01*
X160038143Y-141396357D02*
X160255857Y-141396357D01*
X160147000Y-141777357D02*
X160147000Y-141396357D01*
X160364714Y-141432643D02*
X160382857Y-141414500D01*
X160419143Y-141396357D01*
X160509857Y-141396357D01*
X160546143Y-141414500D01*
X160564286Y-141432643D01*
X160582429Y-141468929D01*
X160582429Y-141505214D01*
X160564286Y-141559643D01*
X160346572Y-141777357D01*
X160582429Y-141777357D01*
X156409571Y-141668500D02*
X156591000Y-141668500D01*
X156373286Y-141777357D02*
X156500286Y-141396357D01*
X156627286Y-141777357D01*
X156826857Y-141396357D02*
X156899428Y-141396357D01*
X156935714Y-141414500D01*
X156972000Y-141450786D01*
X156990142Y-141523357D01*
X156990142Y-141650357D01*
X156972000Y-141722929D01*
X156935714Y-141759214D01*
X156899428Y-141777357D01*
X156826857Y-141777357D01*
X156790571Y-141759214D01*
X156754285Y-141722929D01*
X156736142Y-141650357D01*
X156736142Y-141523357D01*
X156754285Y-141450786D01*
X156790571Y-141414500D01*
X156826857Y-141396357D01*
X157153428Y-141396357D02*
X157153428Y-141704786D01*
X157171571Y-141741071D01*
X157189714Y-141759214D01*
X157226000Y-141777357D01*
X157298571Y-141777357D01*
X157334857Y-141759214D01*
X157353000Y-141741071D01*
X157371143Y-141704786D01*
X157371143Y-141396357D01*
X157498143Y-141396357D02*
X157715857Y-141396357D01*
X157607000Y-141777357D02*
X157607000Y-141396357D01*
X158042429Y-141777357D02*
X157824714Y-141777357D01*
X157933572Y-141777357D02*
X157933572Y-141396357D01*
X157897286Y-141450786D01*
X157861000Y-141487071D01*
X157824714Y-141505214D01*
X169853429Y-96819357D02*
X169672000Y-96819357D01*
X169653857Y-97000786D01*
X169672000Y-96982643D01*
X169708286Y-96964500D01*
X169799000Y-96964500D01*
X169835286Y-96982643D01*
X169853429Y-97000786D01*
X169871572Y-97037071D01*
X169871572Y-97127786D01*
X169853429Y-97164071D01*
X169835286Y-97182214D01*
X169799000Y-97200357D01*
X169708286Y-97200357D01*
X169672000Y-97182214D01*
X169653857Y-97164071D01*
X169998572Y-96946357D02*
X170089286Y-97200357D01*
X170180000Y-96946357D01*
X170307000Y-97182214D02*
X170361429Y-97200357D01*
X170452143Y-97200357D01*
X170488429Y-97182214D01*
X170506572Y-97164071D01*
X170524715Y-97127786D01*
X170524715Y-97091500D01*
X170506572Y-97055214D01*
X170488429Y-97037071D01*
X170452143Y-97018929D01*
X170379572Y-97000786D01*
X170343286Y-96982643D01*
X170325143Y-96964500D01*
X170307000Y-96928214D01*
X170307000Y-96891929D01*
X170325143Y-96855643D01*
X170343286Y-96837500D01*
X170379572Y-96819357D01*
X170470286Y-96819357D01*
X170524715Y-96837500D01*
X170905715Y-97164071D02*
X170887572Y-97182214D01*
X170833143Y-97200357D01*
X170796857Y-97200357D01*
X170742429Y-97182214D01*
X170706143Y-97145929D01*
X170688000Y-97109643D01*
X170669857Y-97037071D01*
X170669857Y-96982643D01*
X170688000Y-96910071D01*
X170706143Y-96873786D01*
X170742429Y-96837500D01*
X170796857Y-96819357D01*
X170833143Y-96819357D01*
X170887572Y-96837500D01*
X170905715Y-96855643D01*
X171250429Y-97200357D02*
X171069000Y-97200357D01*
X171069000Y-96819357D01*
X167304358Y-96819357D02*
X167122929Y-96819357D01*
X167104786Y-97000786D01*
X167122929Y-96982643D01*
X167159215Y-96964500D01*
X167249929Y-96964500D01*
X167286215Y-96982643D01*
X167304358Y-97000786D01*
X167322501Y-97037071D01*
X167322501Y-97127786D01*
X167304358Y-97164071D01*
X167286215Y-97182214D01*
X167249929Y-97200357D01*
X167159215Y-97200357D01*
X167122929Y-97182214D01*
X167104786Y-97164071D01*
X167449501Y-96946357D02*
X167540215Y-97200357D01*
X167630929Y-96946357D01*
X167757929Y-97182214D02*
X167812358Y-97200357D01*
X167903072Y-97200357D01*
X167939358Y-97182214D01*
X167957501Y-97164071D01*
X167975644Y-97127786D01*
X167975644Y-97091500D01*
X167957501Y-97055214D01*
X167939358Y-97037071D01*
X167903072Y-97018929D01*
X167830501Y-97000786D01*
X167794215Y-96982643D01*
X167776072Y-96964500D01*
X167757929Y-96928214D01*
X167757929Y-96891929D01*
X167776072Y-96855643D01*
X167794215Y-96837500D01*
X167830501Y-96819357D01*
X167921215Y-96819357D01*
X167975644Y-96837500D01*
X168138929Y-97200357D02*
X168138929Y-96819357D01*
X168229644Y-96819357D01*
X168284072Y-96837500D01*
X168320358Y-96873786D01*
X168338501Y-96910071D01*
X168356644Y-96982643D01*
X168356644Y-97037071D01*
X168338501Y-97109643D01*
X168320358Y-97145929D01*
X168284072Y-97182214D01*
X168229644Y-97200357D01*
X168138929Y-97200357D01*
X168501786Y-97091500D02*
X168683215Y-97091500D01*
X168465501Y-97200357D02*
X168592501Y-96819357D01*
X168719501Y-97200357D01*
X165281429Y-96819357D02*
X165100000Y-96819357D01*
X165081857Y-97000786D01*
X165100000Y-96982643D01*
X165136286Y-96964500D01*
X165227000Y-96964500D01*
X165263286Y-96982643D01*
X165281429Y-97000786D01*
X165299572Y-97037071D01*
X165299572Y-97127786D01*
X165281429Y-97164071D01*
X165263286Y-97182214D01*
X165227000Y-97200357D01*
X165136286Y-97200357D01*
X165100000Y-97182214D01*
X165081857Y-97164071D01*
X165408429Y-96819357D02*
X165535429Y-97200357D01*
X165662429Y-96819357D01*
X162523715Y-96837500D02*
X162487429Y-96819357D01*
X162433000Y-96819357D01*
X162378572Y-96837500D01*
X162342286Y-96873786D01*
X162324143Y-96910071D01*
X162306000Y-96982643D01*
X162306000Y-97037071D01*
X162324143Y-97109643D01*
X162342286Y-97145929D01*
X162378572Y-97182214D01*
X162433000Y-97200357D01*
X162469286Y-97200357D01*
X162523715Y-97182214D01*
X162541858Y-97164071D01*
X162541858Y-97037071D01*
X162469286Y-97037071D01*
X162705143Y-97200357D02*
X162705143Y-96819357D01*
X162922858Y-97200357D01*
X162922858Y-96819357D01*
X163104286Y-97200357D02*
X163104286Y-96819357D01*
X163195001Y-96819357D01*
X163249429Y-96837500D01*
X163285715Y-96873786D01*
X163303858Y-96910071D01*
X163322001Y-96982643D01*
X163322001Y-97037071D01*
X163303858Y-97109643D01*
X163285715Y-97145929D01*
X163249429Y-97182214D01*
X163195001Y-97200357D01*
X163104286Y-97200357D01*
X169762714Y-104312357D02*
X169762714Y-103931357D01*
X169907857Y-103931357D01*
X169944143Y-103949500D01*
X169962286Y-103967643D01*
X169980429Y-104003929D01*
X169980429Y-104058357D01*
X169962286Y-104094643D01*
X169944143Y-104112786D01*
X169907857Y-104130929D01*
X169762714Y-104130929D01*
X170143714Y-104312357D02*
X170143714Y-103931357D01*
X170234429Y-103931357D01*
X170288857Y-103949500D01*
X170325143Y-103985786D01*
X170343286Y-104022071D01*
X170361429Y-104094643D01*
X170361429Y-104149071D01*
X170343286Y-104221643D01*
X170325143Y-104257929D01*
X170288857Y-104294214D01*
X170234429Y-104312357D01*
X170143714Y-104312357D01*
X170524714Y-104312357D02*
X170524714Y-103931357D01*
X170742429Y-104312357D01*
X170742429Y-103931357D01*
X170905714Y-103967643D02*
X170923857Y-103949500D01*
X170960143Y-103931357D01*
X171050857Y-103931357D01*
X171087143Y-103949500D01*
X171105286Y-103967643D01*
X171123429Y-104003929D01*
X171123429Y-104040214D01*
X171105286Y-104094643D01*
X170887572Y-104312357D01*
X171123429Y-104312357D01*
X167222714Y-104312357D02*
X167222714Y-103931357D01*
X167367857Y-103931357D01*
X167404143Y-103949500D01*
X167422286Y-103967643D01*
X167440429Y-104003929D01*
X167440429Y-104058357D01*
X167422286Y-104094643D01*
X167404143Y-104112786D01*
X167367857Y-104130929D01*
X167222714Y-104130929D01*
X167603714Y-104312357D02*
X167603714Y-103931357D01*
X167694429Y-103931357D01*
X167748857Y-103949500D01*
X167785143Y-103985786D01*
X167803286Y-104022071D01*
X167821429Y-104094643D01*
X167821429Y-104149071D01*
X167803286Y-104221643D01*
X167785143Y-104257929D01*
X167748857Y-104294214D01*
X167694429Y-104312357D01*
X167603714Y-104312357D01*
X167984714Y-104312357D02*
X167984714Y-103931357D01*
X168202429Y-104312357D01*
X168202429Y-103931357D01*
X168583429Y-104312357D02*
X168365714Y-104312357D01*
X168474572Y-104312357D02*
X168474572Y-103931357D01*
X168438286Y-103985786D01*
X168402000Y-104022071D01*
X168365714Y-104040214D01*
X165118144Y-104312357D02*
X164900429Y-104312357D01*
X165009287Y-104312357D02*
X165009287Y-103931357D01*
X164973001Y-103985786D01*
X164936715Y-104022071D01*
X164900429Y-104040214D01*
X165263286Y-103967643D02*
X165281429Y-103949500D01*
X165317715Y-103931357D01*
X165408429Y-103931357D01*
X165444715Y-103949500D01*
X165462858Y-103967643D01*
X165481001Y-104003929D01*
X165481001Y-104040214D01*
X165462858Y-104094643D01*
X165245144Y-104312357D01*
X165481001Y-104312357D01*
X165589858Y-103931357D02*
X165716858Y-104312357D01*
X165843858Y-103931357D01*
X162523715Y-103949500D02*
X162487429Y-103931357D01*
X162433000Y-103931357D01*
X162378572Y-103949500D01*
X162342286Y-103985786D01*
X162324143Y-104022071D01*
X162306000Y-104094643D01*
X162306000Y-104149071D01*
X162324143Y-104221643D01*
X162342286Y-104257929D01*
X162378572Y-104294214D01*
X162433000Y-104312357D01*
X162469286Y-104312357D01*
X162523715Y-104294214D01*
X162541858Y-104276071D01*
X162541858Y-104149071D01*
X162469286Y-104149071D01*
X162705143Y-104312357D02*
X162705143Y-103931357D01*
X162922858Y-104312357D01*
X162922858Y-103931357D01*
X163104286Y-104312357D02*
X163104286Y-103931357D01*
X163195001Y-103931357D01*
X163249429Y-103949500D01*
X163285715Y-103985786D01*
X163303858Y-104022071D01*
X163322001Y-104094643D01*
X163322001Y-104149071D01*
X163303858Y-104221643D01*
X163285715Y-104257929D01*
X163249429Y-104294214D01*
X163195001Y-104312357D01*
X163104286Y-104312357D01*
X164882286Y-110045500D02*
X164846000Y-110027357D01*
X164791571Y-110027357D01*
X164737143Y-110045500D01*
X164700857Y-110081786D01*
X164682714Y-110118071D01*
X164664571Y-110190643D01*
X164664571Y-110245071D01*
X164682714Y-110317643D01*
X164700857Y-110353929D01*
X164737143Y-110390214D01*
X164791571Y-110408357D01*
X164827857Y-110408357D01*
X164882286Y-110390214D01*
X164900429Y-110372071D01*
X164900429Y-110245071D01*
X164827857Y-110245071D01*
X165063714Y-110408357D02*
X165063714Y-110027357D01*
X165281429Y-110408357D01*
X165281429Y-110027357D01*
X165462857Y-110408357D02*
X165462857Y-110027357D01*
X165553572Y-110027357D01*
X165608000Y-110045500D01*
X165644286Y-110081786D01*
X165662429Y-110118071D01*
X165680572Y-110190643D01*
X165680572Y-110245071D01*
X165662429Y-110317643D01*
X165644286Y-110353929D01*
X165608000Y-110390214D01*
X165553572Y-110408357D01*
X165462857Y-110408357D01*
X172756286Y-120205500D02*
X172720000Y-120187357D01*
X172665571Y-120187357D01*
X172611143Y-120205500D01*
X172574857Y-120241786D01*
X172556714Y-120278071D01*
X172538571Y-120350643D01*
X172538571Y-120405071D01*
X172556714Y-120477643D01*
X172574857Y-120513929D01*
X172611143Y-120550214D01*
X172665571Y-120568357D01*
X172701857Y-120568357D01*
X172756286Y-120550214D01*
X172774429Y-120532071D01*
X172774429Y-120405071D01*
X172701857Y-120405071D01*
X172937714Y-120568357D02*
X172937714Y-120187357D01*
X173082857Y-120187357D01*
X173119143Y-120205500D01*
X173137286Y-120223643D01*
X173155429Y-120259929D01*
X173155429Y-120314357D01*
X173137286Y-120350643D01*
X173119143Y-120368786D01*
X173082857Y-120386929D01*
X172937714Y-120386929D01*
X173318714Y-120568357D02*
X173318714Y-120187357D01*
X173572715Y-120187357D02*
X173645286Y-120187357D01*
X173681572Y-120205500D01*
X173717858Y-120241786D01*
X173736000Y-120314357D01*
X173736000Y-120441357D01*
X173717858Y-120513929D01*
X173681572Y-120550214D01*
X173645286Y-120568357D01*
X173572715Y-120568357D01*
X173536429Y-120550214D01*
X173500143Y-120513929D01*
X173482000Y-120441357D01*
X173482000Y-120314357D01*
X173500143Y-120241786D01*
X173536429Y-120205500D01*
X173572715Y-120187357D01*
X173917429Y-120568357D02*
X173990001Y-120568357D01*
X174026286Y-120550214D01*
X174044429Y-120532071D01*
X174080715Y-120477643D01*
X174098858Y-120405071D01*
X174098858Y-120259929D01*
X174080715Y-120223643D01*
X174062572Y-120205500D01*
X174026286Y-120187357D01*
X173953715Y-120187357D01*
X173917429Y-120205500D01*
X173899286Y-120223643D01*
X173881143Y-120259929D01*
X173881143Y-120350643D01*
X173899286Y-120386929D01*
X173917429Y-120405071D01*
X173953715Y-120423214D01*
X174026286Y-120423214D01*
X174062572Y-120405071D01*
X174080715Y-120386929D01*
X174098858Y-120350643D01*
X164120286Y-120205500D02*
X164084000Y-120187357D01*
X164029571Y-120187357D01*
X163975143Y-120205500D01*
X163938857Y-120241786D01*
X163920714Y-120278071D01*
X163902571Y-120350643D01*
X163902571Y-120405071D01*
X163920714Y-120477643D01*
X163938857Y-120513929D01*
X163975143Y-120550214D01*
X164029571Y-120568357D01*
X164065857Y-120568357D01*
X164120286Y-120550214D01*
X164138429Y-120532071D01*
X164138429Y-120405071D01*
X164065857Y-120405071D01*
X164301714Y-120568357D02*
X164301714Y-120187357D01*
X164446857Y-120187357D01*
X164483143Y-120205500D01*
X164501286Y-120223643D01*
X164519429Y-120259929D01*
X164519429Y-120314357D01*
X164501286Y-120350643D01*
X164483143Y-120368786D01*
X164446857Y-120386929D01*
X164301714Y-120386929D01*
X164682714Y-120568357D02*
X164682714Y-120187357D01*
X164936715Y-120187357D02*
X165009286Y-120187357D01*
X165045572Y-120205500D01*
X165081858Y-120241786D01*
X165100000Y-120314357D01*
X165100000Y-120441357D01*
X165081858Y-120513929D01*
X165045572Y-120550214D01*
X165009286Y-120568357D01*
X164936715Y-120568357D01*
X164900429Y-120550214D01*
X164864143Y-120513929D01*
X164846000Y-120441357D01*
X164846000Y-120314357D01*
X164864143Y-120241786D01*
X164900429Y-120205500D01*
X164936715Y-120187357D01*
X165245143Y-120223643D02*
X165263286Y-120205500D01*
X165299572Y-120187357D01*
X165390286Y-120187357D01*
X165426572Y-120205500D01*
X165444715Y-120223643D01*
X165462858Y-120259929D01*
X165462858Y-120296214D01*
X165444715Y-120350643D01*
X165227001Y-120568357D01*
X165462858Y-120568357D01*
X165807572Y-120187357D02*
X165626143Y-120187357D01*
X165608000Y-120368786D01*
X165626143Y-120350643D01*
X165662429Y-120332500D01*
X165753143Y-120332500D01*
X165789429Y-120350643D01*
X165807572Y-120368786D01*
X165825715Y-120405071D01*
X165825715Y-120495786D01*
X165807572Y-120532071D01*
X165789429Y-120550214D01*
X165753143Y-120568357D01*
X165662429Y-120568357D01*
X165626143Y-120550214D01*
X165608000Y-120532071D01*
X172756286Y-117665500D02*
X172720000Y-117647357D01*
X172665571Y-117647357D01*
X172611143Y-117665500D01*
X172574857Y-117701786D01*
X172556714Y-117738071D01*
X172538571Y-117810643D01*
X172538571Y-117865071D01*
X172556714Y-117937643D01*
X172574857Y-117973929D01*
X172611143Y-118010214D01*
X172665571Y-118028357D01*
X172701857Y-118028357D01*
X172756286Y-118010214D01*
X172774429Y-117992071D01*
X172774429Y-117865071D01*
X172701857Y-117865071D01*
X172937714Y-118028357D02*
X172937714Y-117647357D01*
X173082857Y-117647357D01*
X173119143Y-117665500D01*
X173137286Y-117683643D01*
X173155429Y-117719929D01*
X173155429Y-117774357D01*
X173137286Y-117810643D01*
X173119143Y-117828786D01*
X173082857Y-117846929D01*
X172937714Y-117846929D01*
X173318714Y-118028357D02*
X173318714Y-117647357D01*
X173572715Y-117647357D02*
X173645286Y-117647357D01*
X173681572Y-117665500D01*
X173717858Y-117701786D01*
X173736000Y-117774357D01*
X173736000Y-117901357D01*
X173717858Y-117973929D01*
X173681572Y-118010214D01*
X173645286Y-118028357D01*
X173572715Y-118028357D01*
X173536429Y-118010214D01*
X173500143Y-117973929D01*
X173482000Y-117901357D01*
X173482000Y-117774357D01*
X173500143Y-117701786D01*
X173536429Y-117665500D01*
X173572715Y-117647357D01*
X174098858Y-118028357D02*
X173881143Y-118028357D01*
X173990001Y-118028357D02*
X173990001Y-117647357D01*
X173953715Y-117701786D01*
X173917429Y-117738071D01*
X173881143Y-117756214D01*
X174334715Y-117647357D02*
X174371000Y-117647357D01*
X174407286Y-117665500D01*
X174425429Y-117683643D01*
X174443572Y-117719929D01*
X174461715Y-117792500D01*
X174461715Y-117883214D01*
X174443572Y-117955786D01*
X174425429Y-117992071D01*
X174407286Y-118010214D01*
X174371000Y-118028357D01*
X174334715Y-118028357D01*
X174298429Y-118010214D01*
X174280286Y-117992071D01*
X174262143Y-117955786D01*
X174244000Y-117883214D01*
X174244000Y-117792500D01*
X174262143Y-117719929D01*
X174280286Y-117683643D01*
X174298429Y-117665500D01*
X174334715Y-117647357D01*
X164120286Y-117665500D02*
X164084000Y-117647357D01*
X164029571Y-117647357D01*
X163975143Y-117665500D01*
X163938857Y-117701786D01*
X163920714Y-117738071D01*
X163902571Y-117810643D01*
X163902571Y-117865071D01*
X163920714Y-117937643D01*
X163938857Y-117973929D01*
X163975143Y-118010214D01*
X164029571Y-118028357D01*
X164065857Y-118028357D01*
X164120286Y-118010214D01*
X164138429Y-117992071D01*
X164138429Y-117865071D01*
X164065857Y-117865071D01*
X164301714Y-118028357D02*
X164301714Y-117647357D01*
X164446857Y-117647357D01*
X164483143Y-117665500D01*
X164501286Y-117683643D01*
X164519429Y-117719929D01*
X164519429Y-117774357D01*
X164501286Y-117810643D01*
X164483143Y-117828786D01*
X164446857Y-117846929D01*
X164301714Y-117846929D01*
X164682714Y-118028357D02*
X164682714Y-117647357D01*
X164936715Y-117647357D02*
X165009286Y-117647357D01*
X165045572Y-117665500D01*
X165081858Y-117701786D01*
X165100000Y-117774357D01*
X165100000Y-117901357D01*
X165081858Y-117973929D01*
X165045572Y-118010214D01*
X165009286Y-118028357D01*
X164936715Y-118028357D01*
X164900429Y-118010214D01*
X164864143Y-117973929D01*
X164846000Y-117901357D01*
X164846000Y-117774357D01*
X164864143Y-117701786D01*
X164900429Y-117665500D01*
X164936715Y-117647357D01*
X165245143Y-117683643D02*
X165263286Y-117665500D01*
X165299572Y-117647357D01*
X165390286Y-117647357D01*
X165426572Y-117665500D01*
X165444715Y-117683643D01*
X165462858Y-117719929D01*
X165462858Y-117756214D01*
X165444715Y-117810643D01*
X165227001Y-118028357D01*
X165462858Y-118028357D01*
X165789429Y-117774357D02*
X165789429Y-118028357D01*
X165698715Y-117629214D02*
X165608000Y-117901357D01*
X165843858Y-117901357D01*
X172520429Y-115107357D02*
X172756286Y-115107357D01*
X172629286Y-115252500D01*
X172683714Y-115252500D01*
X172720000Y-115270643D01*
X172738143Y-115288786D01*
X172756286Y-115325071D01*
X172756286Y-115415786D01*
X172738143Y-115452071D01*
X172720000Y-115470214D01*
X172683714Y-115488357D01*
X172574857Y-115488357D01*
X172538571Y-115470214D01*
X172520429Y-115452071D01*
X172919571Y-115452071D02*
X172937714Y-115470214D01*
X172919571Y-115488357D01*
X172901428Y-115470214D01*
X172919571Y-115452071D01*
X172919571Y-115488357D01*
X173064715Y-115107357D02*
X173300572Y-115107357D01*
X173173572Y-115252500D01*
X173228000Y-115252500D01*
X173264286Y-115270643D01*
X173282429Y-115288786D01*
X173300572Y-115325071D01*
X173300572Y-115415786D01*
X173282429Y-115452071D01*
X173264286Y-115470214D01*
X173228000Y-115488357D01*
X173119143Y-115488357D01*
X173082857Y-115470214D01*
X173064715Y-115452071D01*
X173409429Y-115107357D02*
X173536429Y-115488357D01*
X173663429Y-115107357D01*
X164120286Y-115125500D02*
X164084000Y-115107357D01*
X164029571Y-115107357D01*
X163975143Y-115125500D01*
X163938857Y-115161786D01*
X163920714Y-115198071D01*
X163902571Y-115270643D01*
X163902571Y-115325071D01*
X163920714Y-115397643D01*
X163938857Y-115433929D01*
X163975143Y-115470214D01*
X164029571Y-115488357D01*
X164065857Y-115488357D01*
X164120286Y-115470214D01*
X164138429Y-115452071D01*
X164138429Y-115325071D01*
X164065857Y-115325071D01*
X164301714Y-115488357D02*
X164301714Y-115107357D01*
X164446857Y-115107357D01*
X164483143Y-115125500D01*
X164501286Y-115143643D01*
X164519429Y-115179929D01*
X164519429Y-115234357D01*
X164501286Y-115270643D01*
X164483143Y-115288786D01*
X164446857Y-115306929D01*
X164301714Y-115306929D01*
X164682714Y-115488357D02*
X164682714Y-115107357D01*
X164936715Y-115107357D02*
X165009286Y-115107357D01*
X165045572Y-115125500D01*
X165081858Y-115161786D01*
X165100000Y-115234357D01*
X165100000Y-115361357D01*
X165081858Y-115433929D01*
X165045572Y-115470214D01*
X165009286Y-115488357D01*
X164936715Y-115488357D01*
X164900429Y-115470214D01*
X164864143Y-115433929D01*
X164846000Y-115361357D01*
X164846000Y-115234357D01*
X164864143Y-115161786D01*
X164900429Y-115125500D01*
X164936715Y-115107357D01*
X165245143Y-115143643D02*
X165263286Y-115125500D01*
X165299572Y-115107357D01*
X165390286Y-115107357D01*
X165426572Y-115125500D01*
X165444715Y-115143643D01*
X165462858Y-115179929D01*
X165462858Y-115216214D01*
X165444715Y-115270643D01*
X165227001Y-115488357D01*
X165462858Y-115488357D01*
X165589858Y-115107357D02*
X165825715Y-115107357D01*
X165698715Y-115252500D01*
X165753143Y-115252500D01*
X165789429Y-115270643D01*
X165807572Y-115288786D01*
X165825715Y-115325071D01*
X165825715Y-115415786D01*
X165807572Y-115452071D01*
X165789429Y-115470214D01*
X165753143Y-115488357D01*
X165644286Y-115488357D01*
X165608000Y-115470214D01*
X165589858Y-115452071D01*
X172756286Y-112585500D02*
X172720000Y-112567357D01*
X172665571Y-112567357D01*
X172611143Y-112585500D01*
X172574857Y-112621786D01*
X172556714Y-112658071D01*
X172538571Y-112730643D01*
X172538571Y-112785071D01*
X172556714Y-112857643D01*
X172574857Y-112893929D01*
X172611143Y-112930214D01*
X172665571Y-112948357D01*
X172701857Y-112948357D01*
X172756286Y-112930214D01*
X172774429Y-112912071D01*
X172774429Y-112785071D01*
X172701857Y-112785071D01*
X172937714Y-112948357D02*
X172937714Y-112567357D01*
X173082857Y-112567357D01*
X173119143Y-112585500D01*
X173137286Y-112603643D01*
X173155429Y-112639929D01*
X173155429Y-112694357D01*
X173137286Y-112730643D01*
X173119143Y-112748786D01*
X173082857Y-112766929D01*
X172937714Y-112766929D01*
X173318714Y-112948357D02*
X173318714Y-112567357D01*
X173572715Y-112567357D02*
X173645286Y-112567357D01*
X173681572Y-112585500D01*
X173717858Y-112621786D01*
X173736000Y-112694357D01*
X173736000Y-112821357D01*
X173717858Y-112893929D01*
X173681572Y-112930214D01*
X173645286Y-112948357D01*
X173572715Y-112948357D01*
X173536429Y-112930214D01*
X173500143Y-112893929D01*
X173482000Y-112821357D01*
X173482000Y-112694357D01*
X173500143Y-112621786D01*
X173536429Y-112585500D01*
X173572715Y-112567357D01*
X173881143Y-112603643D02*
X173899286Y-112585500D01*
X173935572Y-112567357D01*
X174026286Y-112567357D01*
X174062572Y-112585500D01*
X174080715Y-112603643D01*
X174098858Y-112639929D01*
X174098858Y-112676214D01*
X174080715Y-112730643D01*
X173863001Y-112948357D01*
X174098858Y-112948357D01*
X174244000Y-112603643D02*
X174262143Y-112585500D01*
X174298429Y-112567357D01*
X174389143Y-112567357D01*
X174425429Y-112585500D01*
X174443572Y-112603643D01*
X174461715Y-112639929D01*
X174461715Y-112676214D01*
X174443572Y-112730643D01*
X174225858Y-112948357D01*
X174461715Y-112948357D01*
X164120286Y-112585500D02*
X164084000Y-112567357D01*
X164029571Y-112567357D01*
X163975143Y-112585500D01*
X163938857Y-112621786D01*
X163920714Y-112658071D01*
X163902571Y-112730643D01*
X163902571Y-112785071D01*
X163920714Y-112857643D01*
X163938857Y-112893929D01*
X163975143Y-112930214D01*
X164029571Y-112948357D01*
X164065857Y-112948357D01*
X164120286Y-112930214D01*
X164138429Y-112912071D01*
X164138429Y-112785071D01*
X164065857Y-112785071D01*
X164301714Y-112948357D02*
X164301714Y-112567357D01*
X164446857Y-112567357D01*
X164483143Y-112585500D01*
X164501286Y-112603643D01*
X164519429Y-112639929D01*
X164519429Y-112694357D01*
X164501286Y-112730643D01*
X164483143Y-112748786D01*
X164446857Y-112766929D01*
X164301714Y-112766929D01*
X164682714Y-112948357D02*
X164682714Y-112567357D01*
X164936715Y-112567357D02*
X165009286Y-112567357D01*
X165045572Y-112585500D01*
X165081858Y-112621786D01*
X165100000Y-112694357D01*
X165100000Y-112821357D01*
X165081858Y-112893929D01*
X165045572Y-112930214D01*
X165009286Y-112948357D01*
X164936715Y-112948357D01*
X164900429Y-112930214D01*
X164864143Y-112893929D01*
X164846000Y-112821357D01*
X164846000Y-112694357D01*
X164864143Y-112621786D01*
X164900429Y-112585500D01*
X164936715Y-112567357D01*
X165245143Y-112603643D02*
X165263286Y-112585500D01*
X165299572Y-112567357D01*
X165390286Y-112567357D01*
X165426572Y-112585500D01*
X165444715Y-112603643D01*
X165462858Y-112639929D01*
X165462858Y-112676214D01*
X165444715Y-112730643D01*
X165227001Y-112948357D01*
X165462858Y-112948357D01*
X165589858Y-112567357D02*
X165843858Y-112567357D01*
X165680572Y-112948357D01*
X172738143Y-110045500D02*
X172701857Y-110027357D01*
X172647428Y-110027357D01*
X172593000Y-110045500D01*
X172556714Y-110081786D01*
X172538571Y-110118071D01*
X172520428Y-110190643D01*
X172520428Y-110245071D01*
X172538571Y-110317643D01*
X172556714Y-110353929D01*
X172593000Y-110390214D01*
X172647428Y-110408357D01*
X172683714Y-110408357D01*
X172738143Y-110390214D01*
X172756286Y-110372071D01*
X172756286Y-110245071D01*
X172683714Y-110245071D01*
X172919571Y-110408357D02*
X172919571Y-110027357D01*
X173064714Y-110027357D01*
X173101000Y-110045500D01*
X173119143Y-110063643D01*
X173137286Y-110099929D01*
X173137286Y-110154357D01*
X173119143Y-110190643D01*
X173101000Y-110208786D01*
X173064714Y-110226929D01*
X172919571Y-110226929D01*
X173300571Y-110408357D02*
X173300571Y-110027357D01*
X173554572Y-110027357D02*
X173627143Y-110027357D01*
X173663429Y-110045500D01*
X173699715Y-110081786D01*
X173717857Y-110154357D01*
X173717857Y-110281357D01*
X173699715Y-110353929D01*
X173663429Y-110390214D01*
X173627143Y-110408357D01*
X173554572Y-110408357D01*
X173518286Y-110390214D01*
X173482000Y-110353929D01*
X173463857Y-110281357D01*
X173463857Y-110154357D01*
X173482000Y-110081786D01*
X173518286Y-110045500D01*
X173554572Y-110027357D01*
X174080715Y-110408357D02*
X173863000Y-110408357D01*
X173971858Y-110408357D02*
X173971858Y-110027357D01*
X173935572Y-110081786D01*
X173899286Y-110118071D01*
X173863000Y-110136214D01*
X174298429Y-110190643D02*
X174262143Y-110172500D01*
X174244000Y-110154357D01*
X174225857Y-110118071D01*
X174225857Y-110099929D01*
X174244000Y-110063643D01*
X174262143Y-110045500D01*
X174298429Y-110027357D01*
X174371000Y-110027357D01*
X174407286Y-110045500D01*
X174425429Y-110063643D01*
X174443572Y-110099929D01*
X174443572Y-110118071D01*
X174425429Y-110154357D01*
X174407286Y-110172500D01*
X174371000Y-110190643D01*
X174298429Y-110190643D01*
X174262143Y-110208786D01*
X174244000Y-110226929D01*
X174225857Y-110263214D01*
X174225857Y-110335786D01*
X174244000Y-110372071D01*
X174262143Y-110390214D01*
X174298429Y-110408357D01*
X174371000Y-110408357D01*
X174407286Y-110390214D01*
X174425429Y-110372071D01*
X174443572Y-110335786D01*
X174443572Y-110263214D01*
X174425429Y-110226929D01*
X174407286Y-110208786D01*
X174371000Y-110190643D01*
X168594000Y-136708800D02*
X168594000Y-136808800D01*
X168594000Y-136808800D02*
X172794000Y-136808800D01*
X172794000Y-136808800D02*
X172794000Y-136708800D01*
X167194000Y-126858800D02*
X168594000Y-126858800D01*
X168594000Y-126858800D02*
X168594000Y-126758800D01*
X168594000Y-126758800D02*
X172794000Y-126758800D01*
X172794000Y-126758800D02*
X172794000Y-126858800D01*
D12*
X183388000Y-144526000D02*
X183388000Y-93726000D01*
X178308000Y-96266000D02*
X178308000Y-144526000D01*
X183388000Y-144526000D02*
X178308000Y-144526000D01*
X183388000Y-93726000D02*
X180848000Y-93726000D01*
X179578000Y-93446000D02*
X178028000Y-93446000D01*
X180848000Y-93726000D02*
X180848000Y-96266000D01*
X180848000Y-96266000D02*
X178308000Y-96266000D01*
X178028000Y-93446000D02*
X178028000Y-94996000D01*
X172607000Y-96104000D02*
X172607000Y-94904000D01*
X174357000Y-94904000D02*
X174357000Y-96104000D01*
X162695000Y-130058800D02*
X163695000Y-130058800D01*
X163695000Y-131408800D02*
X162695000Y-131408800D01*
X162525000Y-128097800D02*
X162525000Y-128797800D01*
X161325000Y-128797800D02*
X161325000Y-128097800D01*
X164684000Y-93376000D02*
X164684000Y-94076000D01*
X163484000Y-94076000D02*
X163484000Y-93376000D01*
X161706000Y-106776000D02*
X161706000Y-106076000D01*
X162906000Y-106076000D02*
X162906000Y-106776000D01*
X175926000Y-101254000D02*
X176626000Y-101254000D01*
X176626000Y-102454000D02*
X175926000Y-102454000D01*
X176368000Y-94900000D02*
X176368000Y-95600000D01*
X175168000Y-95600000D02*
X175168000Y-94900000D01*
X161325000Y-135401800D02*
X161325000Y-134701800D01*
X162525000Y-134701800D02*
X162525000Y-135401800D01*
X165573000Y-128097800D02*
X165573000Y-128797800D01*
X164373000Y-128797800D02*
X164373000Y-128097800D01*
X165643000Y-127146800D02*
X165643000Y-126446800D01*
X166843000Y-126446800D02*
X166843000Y-127146800D01*
X174082000Y-138334000D02*
X174082000Y-139034000D01*
X172882000Y-139034000D02*
X172882000Y-138334000D01*
X149161500Y-106243120D02*
X149161500Y-115244880D01*
X145661380Y-106243120D02*
X145661380Y-115244880D01*
X145661380Y-115244880D02*
X160162240Y-115244880D01*
X160162240Y-115244880D02*
X160162240Y-106243120D01*
X160162240Y-106243120D02*
X145661380Y-106243120D01*
X163576000Y-138099800D02*
X155956000Y-138099800D01*
X163576000Y-140639800D02*
X155956000Y-140639800D01*
X166396000Y-140919800D02*
X164846000Y-140919800D01*
X155956000Y-138099800D02*
X155956000Y-140639800D01*
X163576000Y-140639800D02*
X163576000Y-138099800D01*
X164846000Y-137819800D02*
X166396000Y-137819800D01*
X166396000Y-137819800D02*
X166396000Y-140919800D01*
X162774000Y-128947800D02*
X162774000Y-127947800D01*
X164124000Y-127947800D02*
X164124000Y-128947800D01*
X162695000Y-132090800D02*
X163695000Y-132090800D01*
X163695000Y-133440800D02*
X162695000Y-133440800D01*
X174357000Y-101254000D02*
X174357000Y-102454000D01*
X172607000Y-102454000D02*
X172607000Y-101254000D01*
D11*
X159356000Y-104308000D02*
X159356000Y-95408000D01*
X147476000Y-104308000D02*
X147476000Y-95408000D01*
X159356000Y-95408000D02*
X147476000Y-95408000D01*
X155956000Y-104308000D02*
X159356000Y-104308000D01*
X147476000Y-104308000D02*
X155956000Y-104308000D01*
X175214000Y-100030000D02*
X175214000Y-100630000D01*
X177314000Y-97530000D02*
X177414000Y-97530000D01*
X177414000Y-97530000D02*
X177414000Y-100030000D01*
X177414000Y-100030000D02*
X177314000Y-100030000D01*
X175214000Y-97530000D02*
X175114000Y-97530000D01*
X175114000Y-97530000D02*
X175114000Y-100030000D01*
X175114000Y-100030000D02*
X175214000Y-100030000D01*
D12*
X150876000Y-126873000D02*
X150876000Y-129413000D01*
X151156000Y-124053000D02*
X151156000Y-125603000D01*
X150876000Y-126873000D02*
X148336000Y-126873000D01*
X148056000Y-125603000D02*
X148056000Y-124053000D01*
X148056000Y-124053000D02*
X151156000Y-124053000D01*
X148336000Y-126873000D02*
X148336000Y-129413000D01*
X148336000Y-129413000D02*
X150876000Y-129413000D01*
X152859000Y-133907000D02*
X156259000Y-133907000D01*
X152861944Y-133904056D02*
G75*
G02X154559000Y-129807000I1697056J1697056D01*
G01*
X156256056Y-133904056D02*
G75*
G03X154559000Y-129807000I-1697056J1697056D01*
G01*
D11*
X169880000Y-105080000D02*
X169880000Y-104980000D01*
X169880000Y-104980000D02*
X168580000Y-104980000D01*
X168580000Y-104980000D02*
X168580000Y-105080000D01*
X170380000Y-107080000D02*
X169880000Y-107080000D01*
X169880000Y-107080000D02*
X169880000Y-107180000D01*
X169880000Y-107180000D02*
X168580000Y-107180000D01*
X168580000Y-107180000D02*
X168580000Y-107080000D01*
X151765000Y-126111000D02*
X151765000Y-127444500D01*
X153797000Y-126111000D02*
X153797000Y-127444500D01*
X153797000Y-126111000D02*
X153670000Y-126111000D01*
X153670000Y-126111000D02*
X153670000Y-125222000D01*
D12*
X164084000Y-103124000D02*
X171704000Y-103124000D01*
X171704000Y-103124000D02*
X171704000Y-98044000D01*
X171704000Y-98044000D02*
X161544000Y-98044000D01*
X161544000Y-98044000D02*
X161544000Y-100584000D01*
X161264000Y-101854000D02*
X161264000Y-103404000D01*
X161544000Y-100584000D02*
X164084000Y-100584000D01*
X164084000Y-100584000D02*
X164084000Y-103124000D01*
X161264000Y-103404000D02*
X162814000Y-103404000D01*
D11*
X169672000Y-139392000D02*
X169672000Y-138992000D01*
X169472000Y-139192000D02*
X169872000Y-139192000D01*
X167672000Y-138192000D02*
X167672000Y-137392000D01*
X167672000Y-137392000D02*
X171872000Y-137392000D01*
X167672000Y-140892000D02*
X167672000Y-140992000D01*
X167672000Y-140992000D02*
X172072000Y-140992000D01*
X171872000Y-139392000D02*
X171872000Y-138992000D01*
X171872000Y-139392000D02*
X172072000Y-139392000D01*
X167672000Y-140192000D02*
X167672000Y-140892000D01*
X152835000Y-140081000D02*
X153235000Y-140081000D01*
X153035000Y-139881000D02*
X153035000Y-140281000D01*
X154035000Y-138081000D02*
X154835000Y-138081000D01*
X154835000Y-138081000D02*
X154835000Y-142281000D01*
X151335000Y-138081000D02*
X151235000Y-138081000D01*
X151235000Y-138081000D02*
X151235000Y-142481000D01*
X152835000Y-142281000D02*
X153235000Y-142281000D01*
X152835000Y-142281000D02*
X152835000Y-142481000D01*
X152035000Y-138081000D02*
X151335000Y-138081000D01*
D12*
X146330000Y-119960000D02*
X152628000Y-119960000D01*
X146336000Y-119820000D02*
X152622000Y-119820000D01*
X146349000Y-119680000D02*
X149033000Y-119680000D01*
X149925000Y-119680000D02*
X152609000Y-119680000D01*
X146368000Y-119540000D02*
X148823000Y-119540000D01*
X150135000Y-119540000D02*
X152590000Y-119540000D01*
X146394000Y-119400000D02*
X148690000Y-119400000D01*
X150268000Y-119400000D02*
X152564000Y-119400000D01*
X146426000Y-119260000D02*
X148599000Y-119260000D01*
X150359000Y-119260000D02*
X152532000Y-119260000D01*
X146465000Y-119120000D02*
X148537000Y-119120000D01*
X150421000Y-119120000D02*
X152493000Y-119120000D01*
X146511000Y-118980000D02*
X148498000Y-118980000D01*
X150460000Y-118980000D02*
X152447000Y-118980000D01*
X146564000Y-118840000D02*
X148481000Y-118840000D01*
X150477000Y-118840000D02*
X152394000Y-118840000D01*
X146626000Y-118700000D02*
X148483000Y-118700000D01*
X150475000Y-118700000D02*
X152332000Y-118700000D01*
X146696000Y-118560000D02*
X148505000Y-118560000D01*
X150453000Y-118560000D02*
X152262000Y-118560000D01*
X146775000Y-118420000D02*
X148548000Y-118420000D01*
X150410000Y-118420000D02*
X152183000Y-118420000D01*
X146863000Y-118280000D02*
X148616000Y-118280000D01*
X150342000Y-118280000D02*
X152095000Y-118280000D01*
X146963000Y-118140000D02*
X148715000Y-118140000D01*
X150243000Y-118140000D02*
X151995000Y-118140000D01*
X147075000Y-118000000D02*
X148860000Y-118000000D01*
X150098000Y-118000000D02*
X151883000Y-118000000D01*
X147200000Y-117860000D02*
X149099000Y-117860000D01*
X149859000Y-117860000D02*
X151758000Y-117860000D01*
X147343000Y-117720000D02*
X151615000Y-117720000D01*
X147505000Y-117580000D02*
X151453000Y-117580000D01*
X147693000Y-117440000D02*
X151265000Y-117440000D01*
X147916000Y-117300000D02*
X151042000Y-117300000D01*
X148192000Y-117160000D02*
X150766000Y-117160000D01*
X148567000Y-117020000D02*
X150391000Y-117020000D01*
X150479000Y-118785000D02*
G75*
G03X150479000Y-118785000I-1000000J0D01*
G01*
X152666500Y-120035000D02*
G75*
G03X152666500Y-120035000I-3187500J0D01*
G01*
X158060000Y-128625000D02*
X158060000Y-122327000D01*
X157920000Y-128619000D02*
X157920000Y-122333000D01*
X157780000Y-128606000D02*
X157780000Y-125922000D01*
X157780000Y-125030000D02*
X157780000Y-122346000D01*
X157640000Y-128587000D02*
X157640000Y-126132000D01*
X157640000Y-124820000D02*
X157640000Y-122365000D01*
X157500000Y-128561000D02*
X157500000Y-126265000D01*
X157500000Y-124687000D02*
X157500000Y-122391000D01*
X157360000Y-128529000D02*
X157360000Y-126356000D01*
X157360000Y-124596000D02*
X157360000Y-122423000D01*
X157220000Y-128490000D02*
X157220000Y-126418000D01*
X157220000Y-124534000D02*
X157220000Y-122462000D01*
X157080000Y-128444000D02*
X157080000Y-126457000D01*
X157080000Y-124495000D02*
X157080000Y-122508000D01*
X156940000Y-128391000D02*
X156940000Y-126474000D01*
X156940000Y-124478000D02*
X156940000Y-122561000D01*
X156800000Y-128329000D02*
X156800000Y-126472000D01*
X156800000Y-124480000D02*
X156800000Y-122623000D01*
X156660000Y-128259000D02*
X156660000Y-126450000D01*
X156660000Y-124502000D02*
X156660000Y-122693000D01*
X156520000Y-128180000D02*
X156520000Y-126407000D01*
X156520000Y-124545000D02*
X156520000Y-122772000D01*
X156380000Y-128092000D02*
X156380000Y-126339000D01*
X156380000Y-124613000D02*
X156380000Y-122860000D01*
X156240000Y-127992000D02*
X156240000Y-126240000D01*
X156240000Y-124712000D02*
X156240000Y-122960000D01*
X156100000Y-127880000D02*
X156100000Y-126095000D01*
X156100000Y-124857000D02*
X156100000Y-123072000D01*
X155960000Y-127755000D02*
X155960000Y-125856000D01*
X155960000Y-125096000D02*
X155960000Y-123197000D01*
X155820000Y-127612000D02*
X155820000Y-123340000D01*
X155680000Y-127450000D02*
X155680000Y-123502000D01*
X155540000Y-127262000D02*
X155540000Y-123690000D01*
X155400000Y-127039000D02*
X155400000Y-123913000D01*
X155260000Y-126763000D02*
X155260000Y-124189000D01*
X155120000Y-126388000D02*
X155120000Y-124564000D01*
X157885000Y-125476000D02*
G75*
G03X157885000Y-125476000I-1000000J0D01*
G01*
X161322500Y-125476000D02*
G75*
G03X161322500Y-125476000I-3187500J0D01*
G01*
X153197000Y-135015000D02*
X154397000Y-135015000D01*
X154397000Y-136765000D02*
X153197000Y-136765000D01*
X171704000Y-108966000D02*
X171704000Y-121666000D01*
X171704000Y-121666000D02*
X166624000Y-121666000D01*
X166624000Y-121666000D02*
X166624000Y-111506000D01*
X171704000Y-108966000D02*
X169164000Y-108966000D01*
X167894000Y-108686000D02*
X166344000Y-108686000D01*
X169164000Y-108966000D02*
X169164000Y-111506000D01*
X169164000Y-111506000D02*
X166624000Y-111506000D01*
X166344000Y-108686000D02*
X166344000Y-110236000D01*
X161706000Y-94076000D02*
X161706000Y-93376000D01*
X162906000Y-93376000D02*
X162906000Y-94076000D01*
X163484000Y-106776000D02*
X163484000Y-106076000D01*
X164684000Y-106076000D02*
X164684000Y-106776000D01*
D11*
X174585357Y-134549086D02*
X174893786Y-134549086D01*
X174930071Y-134530943D01*
X174948214Y-134512800D01*
X174966357Y-134476514D01*
X174966357Y-134403943D01*
X174948214Y-134367657D01*
X174930071Y-134349514D01*
X174893786Y-134331371D01*
X174585357Y-134331371D01*
X174585357Y-134186228D02*
X174585357Y-133950371D01*
X174730500Y-134077371D01*
X174730500Y-134022943D01*
X174748643Y-133986657D01*
X174766786Y-133968514D01*
X174803071Y-133950371D01*
X174893786Y-133950371D01*
X174930071Y-133968514D01*
X174948214Y-133986657D01*
X174966357Y-134022943D01*
X174966357Y-134131800D01*
X174948214Y-134168086D01*
X174930071Y-134186228D01*
X180312786Y-92374357D02*
X180312786Y-91993357D01*
X180457929Y-91993357D01*
X180494215Y-92011500D01*
X180512358Y-92029643D01*
X180530501Y-92065929D01*
X180530501Y-92120357D01*
X180512358Y-92156643D01*
X180494215Y-92174786D01*
X180457929Y-92192929D01*
X180312786Y-92192929D01*
X180657501Y-91993357D02*
X180893358Y-91993357D01*
X180766358Y-92138500D01*
X180820786Y-92138500D01*
X180857072Y-92156643D01*
X180875215Y-92174786D01*
X180893358Y-92211071D01*
X180893358Y-92301786D01*
X180875215Y-92338071D01*
X180857072Y-92356214D01*
X180820786Y-92374357D01*
X180711929Y-92374357D01*
X180675643Y-92356214D01*
X180657501Y-92338071D01*
X173418501Y-93136357D02*
X173291501Y-92954929D01*
X173200786Y-93136357D02*
X173200786Y-92755357D01*
X173345929Y-92755357D01*
X173382215Y-92773500D01*
X173400358Y-92791643D01*
X173418501Y-92827929D01*
X173418501Y-92882357D01*
X173400358Y-92918643D01*
X173382215Y-92936786D01*
X173345929Y-92954929D01*
X173200786Y-92954929D01*
X173636215Y-92918643D02*
X173599929Y-92900500D01*
X173581786Y-92882357D01*
X173563643Y-92846071D01*
X173563643Y-92827929D01*
X173581786Y-92791643D01*
X173599929Y-92773500D01*
X173636215Y-92755357D01*
X173708786Y-92755357D01*
X173745072Y-92773500D01*
X173763215Y-92791643D01*
X173781358Y-92827929D01*
X173781358Y-92846071D01*
X173763215Y-92882357D01*
X173745072Y-92900500D01*
X173708786Y-92918643D01*
X173636215Y-92918643D01*
X173599929Y-92936786D01*
X173581786Y-92954929D01*
X173563643Y-92991214D01*
X173563643Y-93063786D01*
X173581786Y-93100071D01*
X173599929Y-93118214D01*
X173636215Y-93136357D01*
X173708786Y-93136357D01*
X173745072Y-93118214D01*
X173763215Y-93100071D01*
X173781358Y-93063786D01*
X173781358Y-92991214D01*
X173763215Y-92954929D01*
X173745072Y-92936786D01*
X173708786Y-92918643D01*
X161480501Y-130906157D02*
X161353501Y-130724729D01*
X161262786Y-130906157D02*
X161262786Y-130525157D01*
X161407929Y-130525157D01*
X161444215Y-130543300D01*
X161462358Y-130561443D01*
X161480501Y-130597729D01*
X161480501Y-130652157D01*
X161462358Y-130688443D01*
X161444215Y-130706586D01*
X161407929Y-130724729D01*
X161262786Y-130724729D01*
X161607501Y-130525157D02*
X161843358Y-130525157D01*
X161716358Y-130670300D01*
X161770786Y-130670300D01*
X161807072Y-130688443D01*
X161825215Y-130706586D01*
X161843358Y-130742871D01*
X161843358Y-130833586D01*
X161825215Y-130869871D01*
X161807072Y-130888014D01*
X161770786Y-130906157D01*
X161661929Y-130906157D01*
X161625643Y-130888014D01*
X161607501Y-130869871D01*
X161680072Y-126932871D02*
X161661929Y-126951014D01*
X161607500Y-126969157D01*
X161571214Y-126969157D01*
X161516786Y-126951014D01*
X161480500Y-126914729D01*
X161462357Y-126878443D01*
X161444214Y-126805871D01*
X161444214Y-126751443D01*
X161462357Y-126678871D01*
X161480500Y-126642586D01*
X161516786Y-126606300D01*
X161571214Y-126588157D01*
X161607500Y-126588157D01*
X161661929Y-126606300D01*
X161680072Y-126624443D01*
X162042929Y-126969157D02*
X161825214Y-126969157D01*
X161934072Y-126969157D02*
X161934072Y-126588157D01*
X161897786Y-126642586D01*
X161861500Y-126678871D01*
X161825214Y-126697014D01*
X162369500Y-126715157D02*
X162369500Y-126969157D01*
X162278786Y-126570014D02*
X162188071Y-126842157D01*
X162423929Y-126842157D01*
X164020501Y-92338071D02*
X164002358Y-92356214D01*
X163947929Y-92374357D01*
X163911643Y-92374357D01*
X163857215Y-92356214D01*
X163820929Y-92319929D01*
X163802786Y-92283643D01*
X163784643Y-92211071D01*
X163784643Y-92156643D01*
X163802786Y-92084071D01*
X163820929Y-92047786D01*
X163857215Y-92011500D01*
X163911643Y-91993357D01*
X163947929Y-91993357D01*
X164002358Y-92011500D01*
X164020501Y-92029643D01*
X164165643Y-92029643D02*
X164183786Y-92011500D01*
X164220072Y-91993357D01*
X164310786Y-91993357D01*
X164347072Y-92011500D01*
X164365215Y-92029643D01*
X164383358Y-92065929D01*
X164383358Y-92102214D01*
X164365215Y-92156643D01*
X164147501Y-92374357D01*
X164383358Y-92374357D01*
X162242501Y-104911071D02*
X162224358Y-104929214D01*
X162169929Y-104947357D01*
X162133643Y-104947357D01*
X162079215Y-104929214D01*
X162042929Y-104892929D01*
X162024786Y-104856643D01*
X162006643Y-104784071D01*
X162006643Y-104729643D01*
X162024786Y-104657071D01*
X162042929Y-104620786D01*
X162079215Y-104584500D01*
X162133643Y-104566357D01*
X162169929Y-104566357D01*
X162224358Y-104584500D01*
X162242501Y-104602643D01*
X162369501Y-104566357D02*
X162605358Y-104566357D01*
X162478358Y-104711500D01*
X162532786Y-104711500D01*
X162569072Y-104729643D01*
X162587215Y-104747786D01*
X162605358Y-104784071D01*
X162605358Y-104874786D01*
X162587215Y-104911071D01*
X162569072Y-104929214D01*
X162532786Y-104947357D01*
X162423929Y-104947357D01*
X162387643Y-104929214D01*
X162369501Y-104911071D01*
X175015072Y-103006071D02*
X174996929Y-103024214D01*
X174942500Y-103042357D01*
X174906214Y-103042357D01*
X174851786Y-103024214D01*
X174815500Y-102987929D01*
X174797357Y-102951643D01*
X174779214Y-102879071D01*
X174779214Y-102824643D01*
X174797357Y-102752071D01*
X174815500Y-102715786D01*
X174851786Y-102679500D01*
X174906214Y-102661357D01*
X174942500Y-102661357D01*
X174996929Y-102679500D01*
X175015072Y-102697643D01*
X175377929Y-103042357D02*
X175160214Y-103042357D01*
X175269072Y-103042357D02*
X175269072Y-102661357D01*
X175232786Y-102715786D01*
X175196500Y-102752071D01*
X175160214Y-102770214D01*
X175740786Y-103042357D02*
X175523071Y-103042357D01*
X175631929Y-103042357D02*
X175631929Y-102661357D01*
X175595643Y-102715786D01*
X175559357Y-102752071D01*
X175523071Y-102770214D01*
X175523072Y-93862071D02*
X175504929Y-93880214D01*
X175450500Y-93898357D01*
X175414214Y-93898357D01*
X175359786Y-93880214D01*
X175323500Y-93843929D01*
X175305357Y-93807643D01*
X175287214Y-93735071D01*
X175287214Y-93680643D01*
X175305357Y-93608071D01*
X175323500Y-93571786D01*
X175359786Y-93535500D01*
X175414214Y-93517357D01*
X175450500Y-93517357D01*
X175504929Y-93535500D01*
X175523072Y-93553643D01*
X175885929Y-93898357D02*
X175668214Y-93898357D01*
X175777072Y-93898357D02*
X175777072Y-93517357D01*
X175740786Y-93571786D01*
X175704500Y-93608071D01*
X175668214Y-93626214D01*
X176031071Y-93553643D02*
X176049214Y-93535500D01*
X176085500Y-93517357D01*
X176176214Y-93517357D01*
X176212500Y-93535500D01*
X176230643Y-93553643D01*
X176248786Y-93589929D01*
X176248786Y-93626214D01*
X176230643Y-93680643D01*
X176012929Y-93898357D01*
X176248786Y-93898357D01*
X161680072Y-136965871D02*
X161661929Y-136984014D01*
X161607500Y-137002157D01*
X161571214Y-137002157D01*
X161516786Y-136984014D01*
X161480500Y-136947729D01*
X161462357Y-136911443D01*
X161444214Y-136838871D01*
X161444214Y-136784443D01*
X161462357Y-136711871D01*
X161480500Y-136675586D01*
X161516786Y-136639300D01*
X161571214Y-136621157D01*
X161607500Y-136621157D01*
X161661929Y-136639300D01*
X161680072Y-136657443D01*
X162042929Y-137002157D02*
X161825214Y-137002157D01*
X161934072Y-137002157D02*
X161934072Y-136621157D01*
X161897786Y-136675586D01*
X161861500Y-136711871D01*
X161825214Y-136730014D01*
X162387643Y-136621157D02*
X162206214Y-136621157D01*
X162188071Y-136802586D01*
X162206214Y-136784443D01*
X162242500Y-136766300D01*
X162333214Y-136766300D01*
X162369500Y-136784443D01*
X162387643Y-136802586D01*
X162405786Y-136838871D01*
X162405786Y-136929586D01*
X162387643Y-136965871D01*
X162369500Y-136984014D01*
X162333214Y-137002157D01*
X162242500Y-137002157D01*
X162206214Y-136984014D01*
X162188071Y-136965871D01*
X164601072Y-126907471D02*
X164582929Y-126925614D01*
X164528500Y-126943757D01*
X164492214Y-126943757D01*
X164437786Y-126925614D01*
X164401500Y-126889329D01*
X164383357Y-126853043D01*
X164365214Y-126780471D01*
X164365214Y-126726043D01*
X164383357Y-126653471D01*
X164401500Y-126617186D01*
X164437786Y-126580900D01*
X164492214Y-126562757D01*
X164528500Y-126562757D01*
X164582929Y-126580900D01*
X164601072Y-126599043D01*
X164963929Y-126943757D02*
X164746214Y-126943757D01*
X164855072Y-126943757D02*
X164855072Y-126562757D01*
X164818786Y-126617186D01*
X164782500Y-126653471D01*
X164746214Y-126671614D01*
X165290500Y-126562757D02*
X165217929Y-126562757D01*
X165181643Y-126580900D01*
X165163500Y-126599043D01*
X165127214Y-126653471D01*
X165109071Y-126726043D01*
X165109071Y-126871186D01*
X165127214Y-126907471D01*
X165145357Y-126925614D01*
X165181643Y-126943757D01*
X165254214Y-126943757D01*
X165290500Y-126925614D01*
X165308643Y-126907471D01*
X165326786Y-126871186D01*
X165326786Y-126780471D01*
X165308643Y-126744186D01*
X165290500Y-126726043D01*
X165254214Y-126707900D01*
X165181643Y-126707900D01*
X165145357Y-126726043D01*
X165127214Y-126744186D01*
X165109071Y-126780471D01*
X165998072Y-125281871D02*
X165979929Y-125300014D01*
X165925500Y-125318157D01*
X165889214Y-125318157D01*
X165834786Y-125300014D01*
X165798500Y-125263729D01*
X165780357Y-125227443D01*
X165762214Y-125154871D01*
X165762214Y-125100443D01*
X165780357Y-125027871D01*
X165798500Y-124991586D01*
X165834786Y-124955300D01*
X165889214Y-124937157D01*
X165925500Y-124937157D01*
X165979929Y-124955300D01*
X165998072Y-124973443D01*
X166360929Y-125318157D02*
X166143214Y-125318157D01*
X166252072Y-125318157D02*
X166252072Y-124937157D01*
X166215786Y-124991586D01*
X166179500Y-125027871D01*
X166143214Y-125046014D01*
X166487929Y-124937157D02*
X166741929Y-124937157D01*
X166578643Y-125318157D01*
X173237072Y-140598071D02*
X173218929Y-140616214D01*
X173164500Y-140634357D01*
X173128214Y-140634357D01*
X173073786Y-140616214D01*
X173037500Y-140579929D01*
X173019357Y-140543643D01*
X173001214Y-140471071D01*
X173001214Y-140416643D01*
X173019357Y-140344071D01*
X173037500Y-140307786D01*
X173073786Y-140271500D01*
X173128214Y-140253357D01*
X173164500Y-140253357D01*
X173218929Y-140271500D01*
X173237072Y-140289643D01*
X173599929Y-140634357D02*
X173382214Y-140634357D01*
X173491072Y-140634357D02*
X173491072Y-140253357D01*
X173454786Y-140307786D01*
X173418500Y-140344071D01*
X173382214Y-140362214D01*
X173817643Y-140416643D02*
X173781357Y-140398500D01*
X173763214Y-140380357D01*
X173745071Y-140344071D01*
X173745071Y-140325929D01*
X173763214Y-140289643D01*
X173781357Y-140271500D01*
X173817643Y-140253357D01*
X173890214Y-140253357D01*
X173926500Y-140271500D01*
X173944643Y-140289643D01*
X173962786Y-140325929D01*
X173962786Y-140344071D01*
X173944643Y-140380357D01*
X173926500Y-140398500D01*
X173890214Y-140416643D01*
X173817643Y-140416643D01*
X173781357Y-140434786D01*
X173763214Y-140452929D01*
X173745071Y-140489214D01*
X173745071Y-140561786D01*
X173763214Y-140598071D01*
X173781357Y-140616214D01*
X173817643Y-140634357D01*
X173890214Y-140634357D01*
X173926500Y-140616214D01*
X173944643Y-140598071D01*
X173962786Y-140561786D01*
X173962786Y-140489214D01*
X173944643Y-140452929D01*
X173926500Y-140434786D01*
X173890214Y-140416643D01*
X151937358Y-116468071D02*
X151919215Y-116486214D01*
X151864786Y-116504357D01*
X151828500Y-116504357D01*
X151774072Y-116486214D01*
X151737786Y-116449929D01*
X151719643Y-116413643D01*
X151701500Y-116341071D01*
X151701500Y-116286643D01*
X151719643Y-116214071D01*
X151737786Y-116177786D01*
X151774072Y-116141500D01*
X151828500Y-116123357D01*
X151864786Y-116123357D01*
X151919215Y-116141500D01*
X151937358Y-116159643D01*
X152173215Y-116123357D02*
X152245786Y-116123357D01*
X152282072Y-116141500D01*
X152318358Y-116177786D01*
X152336500Y-116250357D01*
X152336500Y-116377357D01*
X152318358Y-116449929D01*
X152282072Y-116486214D01*
X152245786Y-116504357D01*
X152173215Y-116504357D01*
X152136929Y-116486214D01*
X152100643Y-116449929D01*
X152082500Y-116377357D01*
X152082500Y-116250357D01*
X152100643Y-116177786D01*
X152136929Y-116141500D01*
X152173215Y-116123357D01*
X152499786Y-116504357D02*
X152499786Y-116123357D01*
X152717501Y-116504357D01*
X152717501Y-116123357D01*
X153098501Y-116504357D02*
X152880786Y-116504357D01*
X152989644Y-116504357D02*
X152989644Y-116123357D01*
X152953358Y-116177786D01*
X152917072Y-116214071D01*
X152880786Y-116232214D01*
X165326786Y-137586357D02*
X165326786Y-137205357D01*
X165471929Y-137205357D01*
X165508215Y-137223500D01*
X165526358Y-137241643D01*
X165544501Y-137277929D01*
X165544501Y-137332357D01*
X165526358Y-137368643D01*
X165508215Y-137386786D01*
X165471929Y-137404929D01*
X165326786Y-137404929D01*
X165871072Y-137332357D02*
X165871072Y-137586357D01*
X165780358Y-137187214D02*
X165689643Y-137459357D01*
X165925501Y-137459357D01*
X163385501Y-127223157D02*
X163258501Y-127041729D01*
X163167786Y-127223157D02*
X163167786Y-126842157D01*
X163312929Y-126842157D01*
X163349215Y-126860300D01*
X163367358Y-126878443D01*
X163385501Y-126914729D01*
X163385501Y-126969157D01*
X163367358Y-127005443D01*
X163349215Y-127023586D01*
X163312929Y-127041729D01*
X163167786Y-127041729D01*
X163530643Y-126878443D02*
X163548786Y-126860300D01*
X163585072Y-126842157D01*
X163675786Y-126842157D01*
X163712072Y-126860300D01*
X163730215Y-126878443D01*
X163748358Y-126914729D01*
X163748358Y-126951014D01*
X163730215Y-127005443D01*
X163512501Y-127223157D01*
X163748358Y-127223157D01*
X161480501Y-132938157D02*
X161353501Y-132756729D01*
X161262786Y-132938157D02*
X161262786Y-132557157D01*
X161407929Y-132557157D01*
X161444215Y-132575300D01*
X161462358Y-132593443D01*
X161480501Y-132629729D01*
X161480501Y-132684157D01*
X161462358Y-132720443D01*
X161444215Y-132738586D01*
X161407929Y-132756729D01*
X161262786Y-132756729D01*
X161807072Y-132684157D02*
X161807072Y-132938157D01*
X161716358Y-132539014D02*
X161625643Y-132811157D01*
X161861501Y-132811157D01*
X173418501Y-104566357D02*
X173291501Y-104384929D01*
X173200786Y-104566357D02*
X173200786Y-104185357D01*
X173345929Y-104185357D01*
X173382215Y-104203500D01*
X173400358Y-104221643D01*
X173418501Y-104257929D01*
X173418501Y-104312357D01*
X173400358Y-104348643D01*
X173382215Y-104366786D01*
X173345929Y-104384929D01*
X173200786Y-104384929D01*
X173545501Y-104185357D02*
X173799501Y-104185357D01*
X173636215Y-104566357D01*
X153125714Y-94660357D02*
X153125714Y-94968786D01*
X153143857Y-95005071D01*
X153162000Y-95023214D01*
X153198286Y-95041357D01*
X153270857Y-95041357D01*
X153307143Y-95023214D01*
X153325286Y-95005071D01*
X153343429Y-94968786D01*
X153343429Y-94660357D01*
X153724429Y-95041357D02*
X153506714Y-95041357D01*
X153615572Y-95041357D02*
X153615572Y-94660357D01*
X153579286Y-94714786D01*
X153543000Y-94751071D01*
X153506714Y-94769214D01*
X174207714Y-98089357D02*
X174207714Y-98397786D01*
X174225857Y-98434071D01*
X174244000Y-98452214D01*
X174280286Y-98470357D01*
X174352857Y-98470357D01*
X174389143Y-98452214D01*
X174407286Y-98434071D01*
X174425429Y-98397786D01*
X174425429Y-98089357D01*
X174770143Y-98216357D02*
X174770143Y-98470357D01*
X174679429Y-98071214D02*
X174588714Y-98343357D01*
X174824572Y-98343357D01*
X149324786Y-130347357D02*
X149324786Y-129966357D01*
X149469929Y-129966357D01*
X149506215Y-129984500D01*
X149524358Y-130002643D01*
X149542501Y-130038929D01*
X149542501Y-130093357D01*
X149524358Y-130129643D01*
X149506215Y-130147786D01*
X149469929Y-130165929D01*
X149324786Y-130165929D01*
X149687643Y-130002643D02*
X149705786Y-129984500D01*
X149742072Y-129966357D01*
X149832786Y-129966357D01*
X149869072Y-129984500D01*
X149887215Y-130002643D01*
X149905358Y-130038929D01*
X149905358Y-130075214D01*
X149887215Y-130129643D01*
X149669501Y-130347357D01*
X149905358Y-130347357D01*
X154522714Y-129367643D02*
X154486429Y-129349500D01*
X154450143Y-129313214D01*
X154395714Y-129258786D01*
X154359429Y-129240643D01*
X154323143Y-129240643D01*
X154341286Y-129331357D02*
X154305000Y-129313214D01*
X154268714Y-129276929D01*
X154250571Y-129204357D01*
X154250571Y-129077357D01*
X154268714Y-129004786D01*
X154305000Y-128968500D01*
X154341286Y-128950357D01*
X154413857Y-128950357D01*
X154450143Y-128968500D01*
X154486429Y-129004786D01*
X154504571Y-129077357D01*
X154504571Y-129204357D01*
X154486429Y-129276929D01*
X154450143Y-129313214D01*
X154413857Y-129331357D01*
X154341286Y-129331357D01*
X154867429Y-129331357D02*
X154649714Y-129331357D01*
X154758572Y-129331357D02*
X154758572Y-128950357D01*
X154722286Y-129004786D01*
X154686000Y-129041071D01*
X154649714Y-129059214D01*
X169000714Y-107487357D02*
X169000714Y-107795786D01*
X169018857Y-107832071D01*
X169037000Y-107850214D01*
X169073286Y-107868357D01*
X169145857Y-107868357D01*
X169182143Y-107850214D01*
X169200286Y-107832071D01*
X169218429Y-107795786D01*
X169218429Y-107487357D01*
X169381714Y-107523643D02*
X169399857Y-107505500D01*
X169436143Y-107487357D01*
X169526857Y-107487357D01*
X169563143Y-107505500D01*
X169581286Y-107523643D01*
X169599429Y-107559929D01*
X169599429Y-107596214D01*
X169581286Y-107650643D01*
X169363572Y-107868357D01*
X169599429Y-107868357D01*
X152499786Y-124632357D02*
X152499786Y-124251357D01*
X152590501Y-124251357D01*
X152644929Y-124269500D01*
X152681215Y-124305786D01*
X152699358Y-124342071D01*
X152717501Y-124414643D01*
X152717501Y-124469071D01*
X152699358Y-124541643D01*
X152681215Y-124577929D01*
X152644929Y-124614214D01*
X152590501Y-124632357D01*
X152499786Y-124632357D01*
X153080358Y-124632357D02*
X152862643Y-124632357D01*
X152971501Y-124632357D02*
X152971501Y-124251357D01*
X152935215Y-124305786D01*
X152898929Y-124342071D01*
X152862643Y-124360214D01*
X160500786Y-100756357D02*
X160500786Y-100375357D01*
X160645929Y-100375357D01*
X160682215Y-100393500D01*
X160700358Y-100411643D01*
X160718501Y-100447929D01*
X160718501Y-100502357D01*
X160700358Y-100538643D01*
X160682215Y-100556786D01*
X160645929Y-100574929D01*
X160500786Y-100574929D01*
X161081358Y-100756357D02*
X160863643Y-100756357D01*
X160972501Y-100756357D02*
X160972501Y-100375357D01*
X160936215Y-100429786D01*
X160899929Y-100466071D01*
X160863643Y-100484214D01*
X167304357Y-138148785D02*
X167122929Y-138275785D01*
X167304357Y-138366500D02*
X166923357Y-138366500D01*
X166923357Y-138221357D01*
X166941500Y-138185071D01*
X166959643Y-138166928D01*
X166995929Y-138148785D01*
X167050357Y-138148785D01*
X167086643Y-138166928D01*
X167104786Y-138185071D01*
X167122929Y-138221357D01*
X167122929Y-138366500D01*
X166923357Y-138039928D02*
X167304357Y-137912928D01*
X166923357Y-137785928D01*
X167304357Y-137459357D02*
X167304357Y-137677072D01*
X167304357Y-137568214D02*
X166923357Y-137568214D01*
X166977786Y-137604500D01*
X167014071Y-137640786D01*
X167032214Y-137677072D01*
X152681215Y-137586357D02*
X152554215Y-137404929D01*
X152463500Y-137586357D02*
X152463500Y-137205357D01*
X152608643Y-137205357D01*
X152644929Y-137223500D01*
X152663072Y-137241643D01*
X152681215Y-137277929D01*
X152681215Y-137332357D01*
X152663072Y-137368643D01*
X152644929Y-137386786D01*
X152608643Y-137404929D01*
X152463500Y-137404929D01*
X152790072Y-137205357D02*
X152917072Y-137586357D01*
X153044072Y-137205357D01*
X153152928Y-137241643D02*
X153171071Y-137223500D01*
X153207357Y-137205357D01*
X153298071Y-137205357D01*
X153334357Y-137223500D01*
X153352500Y-137241643D01*
X153370643Y-137277929D01*
X153370643Y-137314214D01*
X153352500Y-137368643D01*
X153134786Y-137586357D01*
X153370643Y-137586357D01*
X149415501Y-116341071D02*
X149397358Y-116359214D01*
X149342929Y-116377357D01*
X149306643Y-116377357D01*
X149252215Y-116359214D01*
X149215929Y-116322929D01*
X149197786Y-116286643D01*
X149179643Y-116214071D01*
X149179643Y-116159643D01*
X149197786Y-116087071D01*
X149215929Y-116050786D01*
X149252215Y-116014500D01*
X149306643Y-115996357D01*
X149342929Y-115996357D01*
X149397358Y-116014500D01*
X149415501Y-116032643D01*
X149778358Y-116377357D02*
X149560643Y-116377357D01*
X149669501Y-116377357D02*
X149669501Y-115996357D01*
X149633215Y-116050786D01*
X149596929Y-116087071D01*
X149560643Y-116105214D01*
X158051501Y-121675071D02*
X158033358Y-121693214D01*
X157978929Y-121711357D01*
X157942643Y-121711357D01*
X157888215Y-121693214D01*
X157851929Y-121656929D01*
X157833786Y-121620643D01*
X157815643Y-121548071D01*
X157815643Y-121493643D01*
X157833786Y-121421071D01*
X157851929Y-121384786D01*
X157888215Y-121348500D01*
X157942643Y-121330357D01*
X157978929Y-121330357D01*
X158033358Y-121348500D01*
X158051501Y-121366643D01*
X158378072Y-121457357D02*
X158378072Y-121711357D01*
X158287358Y-121312214D02*
X158196643Y-121584357D01*
X158432501Y-121584357D01*
X151066501Y-136062357D02*
X150939501Y-135880929D01*
X150848786Y-136062357D02*
X150848786Y-135681357D01*
X150993929Y-135681357D01*
X151030215Y-135699500D01*
X151048358Y-135717643D01*
X151066501Y-135753929D01*
X151066501Y-135808357D01*
X151048358Y-135844643D01*
X151030215Y-135862786D01*
X150993929Y-135880929D01*
X150848786Y-135880929D01*
X151429358Y-136062357D02*
X151211643Y-136062357D01*
X151320501Y-136062357D02*
X151320501Y-135681357D01*
X151284215Y-135735786D01*
X151247929Y-135772071D01*
X151211643Y-135790214D01*
X168882786Y-122346357D02*
X168882786Y-121965357D01*
X169027929Y-121965357D01*
X169064215Y-121983500D01*
X169082358Y-122001643D01*
X169100501Y-122037929D01*
X169100501Y-122092357D01*
X169082358Y-122128643D01*
X169064215Y-122146786D01*
X169027929Y-122164929D01*
X168882786Y-122164929D01*
X169445215Y-121965357D02*
X169263786Y-121965357D01*
X169245643Y-122146786D01*
X169263786Y-122128643D01*
X169300072Y-122110500D01*
X169390786Y-122110500D01*
X169427072Y-122128643D01*
X169445215Y-122146786D01*
X169463358Y-122183071D01*
X169463358Y-122273786D01*
X169445215Y-122310071D01*
X169427072Y-122328214D01*
X169390786Y-122346357D01*
X169300072Y-122346357D01*
X169263786Y-122328214D01*
X169245643Y-122310071D01*
X162242501Y-92338071D02*
X162224358Y-92356214D01*
X162169929Y-92374357D01*
X162133643Y-92374357D01*
X162079215Y-92356214D01*
X162042929Y-92319929D01*
X162024786Y-92283643D01*
X162006643Y-92211071D01*
X162006643Y-92156643D01*
X162024786Y-92084071D01*
X162042929Y-92047786D01*
X162079215Y-92011500D01*
X162133643Y-91993357D01*
X162169929Y-91993357D01*
X162224358Y-92011500D01*
X162242501Y-92029643D01*
X162587215Y-91993357D02*
X162405786Y-91993357D01*
X162387643Y-92174786D01*
X162405786Y-92156643D01*
X162442072Y-92138500D01*
X162532786Y-92138500D01*
X162569072Y-92156643D01*
X162587215Y-92174786D01*
X162605358Y-92211071D01*
X162605358Y-92301786D01*
X162587215Y-92338071D01*
X162569072Y-92356214D01*
X162532786Y-92374357D01*
X162442072Y-92374357D01*
X162405786Y-92356214D01*
X162387643Y-92338071D01*
X164020501Y-104911071D02*
X164002358Y-104929214D01*
X163947929Y-104947357D01*
X163911643Y-104947357D01*
X163857215Y-104929214D01*
X163820929Y-104892929D01*
X163802786Y-104856643D01*
X163784643Y-104784071D01*
X163784643Y-104729643D01*
X163802786Y-104657071D01*
X163820929Y-104620786D01*
X163857215Y-104584500D01*
X163911643Y-104566357D01*
X163947929Y-104566357D01*
X164002358Y-104584500D01*
X164020501Y-104602643D01*
X164347072Y-104566357D02*
X164274501Y-104566357D01*
X164238215Y-104584500D01*
X164220072Y-104602643D01*
X164183786Y-104657071D01*
X164165643Y-104729643D01*
X164165643Y-104874786D01*
X164183786Y-104911071D01*
X164201929Y-104929214D01*
X164238215Y-104947357D01*
X164310786Y-104947357D01*
X164347072Y-104929214D01*
X164365215Y-104911071D01*
X164383358Y-104874786D01*
X164383358Y-104784071D01*
X164365215Y-104747786D01*
X164347072Y-104729643D01*
X164310786Y-104711500D01*
X164238215Y-104711500D01*
X164201929Y-104729643D01*
X164183786Y-104747786D01*
X164165643Y-104784071D01*
M02*
