G04 #@! TF.FileFunction,Copper,L1,Top,Signal*
%FSLAX46Y46*%
G04 Gerber Fmt 4.6, Leading zero omitted, Abs format (unit mm)*
G04 Created by KiCad (PCBNEW 4.0.2-4+6225~38~ubuntu14.04.1-stable) date Tue 01 Mar 2016 05:51:26 PM CST*
%MOMM*%
G01*
G04 APERTURE LIST*
%ADD10C,0.100000*%
%ADD11R,1.550000X0.250000*%
%ADD12R,3.100000X5.180000*%
%ADD13R,1.727200X1.727200*%
%ADD14O,1.727200X1.727200*%
%ADD15R,1.300000X1.500000*%
%ADD16R,0.500000X0.900000*%
%ADD17R,0.750000X0.800000*%
%ADD18R,0.800000X0.750000*%
%ADD19R,3.500000X4.500000*%
%ADD20R,3.500000X4.000000*%
%ADD21R,4.000000X3.500000*%
%ADD22R,1.727200X2.032000*%
%ADD23O,1.727200X2.032000*%
%ADD24R,0.900000X0.500000*%
%ADD25C,2.000000*%
%ADD26R,0.250000X0.750000*%
%ADD27R,2.032000X2.032000*%
%ADD28O,2.032000X2.032000*%
%ADD29O,0.899160X1.501140*%
%ADD30R,0.500000X0.400000*%
%ADD31R,1.219200X0.914400*%
%ADD32R,1.200000X1.200000*%
%ADD33R,1.500000X1.600000*%
%ADD34R,1.600000X1.500000*%
%ADD35C,1.300000*%
%ADD36R,1.300000X1.300000*%
%ADD37R,1.500000X1.300000*%
%ADD38C,0.685800*%
%ADD39C,0.914400*%
%ADD40C,0.381000*%
%ADD41C,0.762000*%
%ADD42C,2.032000*%
%ADD43C,1.270000*%
%ADD44C,0.508000*%
%ADD45C,0.254000*%
G04 APERTURE END LIST*
D10*
D11*
X173494000Y-127558800D03*
X173494000Y-128208800D03*
X173494000Y-128858800D03*
X173494000Y-129508800D03*
X173494000Y-130158800D03*
X173494000Y-130808800D03*
X173494000Y-131458800D03*
X173494000Y-132108800D03*
X173494000Y-132758800D03*
X173494000Y-133408800D03*
X173494000Y-134058800D03*
X173494000Y-134708800D03*
X173494000Y-135358800D03*
X173494000Y-136008800D03*
X167894000Y-127558800D03*
X167894000Y-128208800D03*
X167894000Y-128858800D03*
X167894000Y-129508800D03*
X167894000Y-130158800D03*
X167894000Y-130808800D03*
X167894000Y-131458800D03*
X167894000Y-132108800D03*
X167894000Y-132758800D03*
X167894000Y-133408800D03*
X167894000Y-134058800D03*
X167894000Y-134708800D03*
X167894000Y-135358800D03*
X167894000Y-136008800D03*
D12*
X170694000Y-131813800D03*
D13*
X179578000Y-94996000D03*
D14*
X182118000Y-94996000D03*
X179578000Y-97536000D03*
X182118000Y-97536000D03*
X179578000Y-100076000D03*
X182118000Y-100076000D03*
X179578000Y-102616000D03*
X182118000Y-102616000D03*
X179578000Y-105156000D03*
X182118000Y-105156000D03*
X179578000Y-107696000D03*
X182118000Y-107696000D03*
X179578000Y-110236000D03*
X182118000Y-110236000D03*
X179578000Y-112776000D03*
X182118000Y-112776000D03*
X179578000Y-115316000D03*
X182118000Y-115316000D03*
X179578000Y-117856000D03*
X182118000Y-117856000D03*
X179578000Y-120396000D03*
X182118000Y-120396000D03*
X179578000Y-122936000D03*
X182118000Y-122936000D03*
X179578000Y-125476000D03*
X182118000Y-125476000D03*
X179578000Y-128016000D03*
X182118000Y-128016000D03*
X179578000Y-130556000D03*
X182118000Y-130556000D03*
X179578000Y-133096000D03*
X182118000Y-133096000D03*
X179578000Y-135636000D03*
X182118000Y-135636000D03*
X179578000Y-138176000D03*
X182118000Y-138176000D03*
X179578000Y-140716000D03*
X182118000Y-140716000D03*
X179578000Y-143256000D03*
X182118000Y-143256000D03*
D15*
X173482000Y-94154000D03*
X173482000Y-96854000D03*
D16*
X163945000Y-130733800D03*
X162445000Y-130733800D03*
D17*
X161925000Y-127697800D03*
X161925000Y-129197800D03*
X164084000Y-92976000D03*
X164084000Y-94476000D03*
X162306000Y-107176000D03*
X162306000Y-105676000D03*
D18*
X175526000Y-101854000D03*
X177026000Y-101854000D03*
D17*
X175768000Y-94500000D03*
X175768000Y-96000000D03*
X161925000Y-135801800D03*
X161925000Y-134301800D03*
X164973000Y-127697800D03*
X164973000Y-129197800D03*
X166243000Y-127546800D03*
X166243000Y-126046800D03*
X173482000Y-137934000D03*
X173482000Y-139434000D03*
D19*
X159362140Y-110744000D03*
D20*
X153362660Y-110744000D03*
D21*
X156362400Y-115443000D03*
D22*
X164846000Y-139369800D03*
D23*
X162306000Y-139369800D03*
X159766000Y-139369800D03*
X157226000Y-139369800D03*
D24*
X163449000Y-127697800D03*
X163449000Y-129197800D03*
D16*
X163945000Y-132765800D03*
X162445000Y-132765800D03*
D15*
X173482000Y-103204000D03*
X173482000Y-100504000D03*
D25*
X155956000Y-102108000D03*
X153416000Y-102108000D03*
X150876000Y-102108000D03*
D26*
X175514000Y-97230000D03*
X176014000Y-97230000D03*
X176514000Y-97230000D03*
X177014000Y-97230000D03*
X175514000Y-100330000D03*
X176014000Y-100330000D03*
X176514000Y-100330000D03*
X177014000Y-100330000D03*
D27*
X149606000Y-125603000D03*
D28*
X149606000Y-128143000D03*
D29*
X154559000Y-132207000D03*
X155829000Y-132207000D03*
X153289000Y-132207000D03*
D30*
X170180000Y-106680000D03*
X170180000Y-106030000D03*
X170180000Y-105380000D03*
X168280000Y-106680000D03*
X168280000Y-106030000D03*
X168280000Y-105380000D03*
D31*
X152781000Y-125603000D03*
X152781000Y-127965200D03*
D13*
X162814000Y-101854000D03*
D14*
X162814000Y-99314000D03*
X165354000Y-101854000D03*
X165354000Y-99314000D03*
X167894000Y-101854000D03*
X167894000Y-99314000D03*
X170434000Y-101854000D03*
X170434000Y-99314000D03*
D32*
X171472000Y-140192000D03*
X171472000Y-138192000D03*
D33*
X168422000Y-139192000D03*
D32*
X152035000Y-141881000D03*
X154035000Y-141881000D03*
D34*
X153035000Y-138831000D03*
D35*
X149479000Y-118785000D03*
D36*
X149479000Y-121285000D03*
D35*
X156885000Y-125476000D03*
D36*
X159385000Y-125476000D03*
D37*
X155147000Y-135890000D03*
X152447000Y-135890000D03*
D13*
X167894000Y-110236000D03*
D14*
X170434000Y-110236000D03*
X167894000Y-112776000D03*
X170434000Y-112776000D03*
X167894000Y-115316000D03*
X170434000Y-115316000D03*
X167894000Y-117856000D03*
X170434000Y-117856000D03*
X167894000Y-120396000D03*
X170434000Y-120396000D03*
D17*
X162306000Y-94476000D03*
X162306000Y-92976000D03*
X164084000Y-107176000D03*
X164084000Y-105676000D03*
D38*
X171450000Y-141478000D03*
D39*
X164084000Y-95631000D03*
X162306000Y-95631000D03*
X164084000Y-108331000D03*
X162306000Y-108331000D03*
D38*
X169164000Y-105156000D03*
X171196000Y-106934000D03*
X171704000Y-132588000D03*
X169672000Y-132588000D03*
X171704000Y-131064000D03*
X169672000Y-131064000D03*
X170688000Y-132588000D03*
X170688000Y-131064000D03*
X171704000Y-133858000D03*
X169672000Y-133858000D03*
X170688000Y-133858000D03*
X170688000Y-129794000D03*
X169672000Y-129794000D03*
X173482000Y-126746000D03*
X171704000Y-129794000D03*
X161671000Y-131318000D03*
X161671000Y-132207000D03*
X161671000Y-130302000D03*
X161671000Y-133223000D03*
D39*
X160909000Y-115443000D03*
D38*
X176784000Y-94488000D03*
X175514000Y-102870000D03*
X150749000Y-141859000D03*
X161925000Y-126619000D03*
X167894000Y-136779000D03*
X160274000Y-135255000D03*
X173482000Y-140462000D03*
X174371000Y-101854000D03*
X174625000Y-99441000D03*
X177800000Y-97790000D03*
X165404800Y-133400800D03*
X166624000Y-133400800D03*
X165404800Y-132105400D03*
X166624000Y-132105400D03*
X164744400Y-131495800D03*
X166039800Y-131470400D03*
X164795200Y-130149600D03*
X166039800Y-130149600D03*
D40*
X161925000Y-129197800D02*
X163449000Y-129197800D01*
D41*
X162306000Y-105676000D02*
X159270000Y-105676000D01*
X158750000Y-105918000D02*
X158750000Y-105156000D01*
X159028000Y-105918000D02*
X158750000Y-105918000D01*
X159270000Y-105676000D02*
X159028000Y-105918000D01*
X164084000Y-105676000D02*
X162306000Y-105676000D01*
X165354000Y-101854000D02*
X165354000Y-104406000D01*
X165354000Y-104406000D02*
X164084000Y-105676000D01*
D42*
X155956000Y-102108000D02*
X155956000Y-102362000D01*
X155956000Y-102362000D02*
X158750000Y-105156000D01*
X158750000Y-105156000D02*
X159362140Y-105768140D01*
X159362140Y-110744000D02*
X159362140Y-105768140D01*
D41*
X152781000Y-125603000D02*
X149606000Y-125603000D01*
D43*
X149479000Y-121285000D02*
X149479000Y-125476000D01*
X149479000Y-125476000D02*
X149606000Y-125603000D01*
X149479000Y-121285000D02*
X158115000Y-121285000D01*
X158115000Y-121285000D02*
X159362140Y-120037860D01*
X159385000Y-125476000D02*
X159385000Y-127762000D01*
X159385000Y-127762000D02*
X160655000Y-129032000D01*
X159362140Y-110744000D02*
X159362140Y-120037860D01*
X159362140Y-120037860D02*
X159362140Y-125453140D01*
X159362140Y-125453140D02*
X159385000Y-125476000D01*
X159385000Y-110766860D02*
X159362140Y-110744000D01*
D41*
X159385000Y-110766860D02*
X159362140Y-110744000D01*
D40*
X167817800Y-134112000D02*
X166673400Y-134112000D01*
X166673400Y-134112000D02*
X166483600Y-134301800D01*
X167843200Y-129438400D02*
X165912800Y-129438400D01*
X165912800Y-129438400D02*
X165672200Y-129197800D01*
D44*
X164973000Y-129197800D02*
X165672200Y-129197800D01*
X165672200Y-129197800D02*
X165760400Y-129286000D01*
D41*
X161925000Y-134301800D02*
X166483600Y-134301800D01*
X166483600Y-134301800D02*
X166497000Y-134315200D01*
X161925000Y-129197800D02*
X164973000Y-129197800D01*
X161925000Y-134301800D02*
X161048000Y-134301800D01*
X161048000Y-129197800D02*
X161925000Y-129197800D01*
X160655000Y-129590800D02*
X161048000Y-129197800D01*
X160655000Y-133908800D02*
X160655000Y-130606800D01*
X160655000Y-130606800D02*
X160655000Y-129590800D01*
X161048000Y-134301800D02*
X160655000Y-133908800D01*
D44*
X161925000Y-134301800D02*
X161925000Y-134289800D01*
D45*
X171472000Y-140192000D02*
X171472000Y-141456000D01*
X171472000Y-141456000D02*
X171450000Y-141478000D01*
D41*
X164084000Y-94476000D02*
X164084000Y-95631000D01*
X162306000Y-94476000D02*
X162306000Y-95631000D01*
X164084000Y-107176000D02*
X164084000Y-108331000D01*
X162306000Y-107176000D02*
X162306000Y-108331000D01*
D40*
X168280000Y-105380000D02*
X168940000Y-105380000D01*
X168940000Y-105380000D02*
X169164000Y-105156000D01*
X170180000Y-106680000D02*
X170942000Y-106680000D01*
X170942000Y-106680000D02*
X171196000Y-106934000D01*
D45*
X171704000Y-132588000D02*
X170929800Y-131813800D01*
X170929800Y-131813800D02*
X170694000Y-131813800D01*
X169672000Y-132588000D02*
X170446200Y-131813800D01*
X170446200Y-131813800D02*
X170694000Y-131813800D01*
X171704000Y-131064000D02*
X170954200Y-131813800D01*
X170954200Y-131813800D02*
X170694000Y-131813800D01*
X169672000Y-131064000D02*
X170421800Y-131813800D01*
X170421800Y-131813800D02*
X170694000Y-131813800D01*
X170688000Y-132588000D02*
X170694000Y-132582000D01*
X170694000Y-132582000D02*
X170694000Y-131813800D01*
X170688000Y-131064000D02*
X170694000Y-131070000D01*
X170694000Y-131070000D02*
X170694000Y-131813800D01*
X171704000Y-133858000D02*
X170694000Y-132848000D01*
X170694000Y-132848000D02*
X170694000Y-131813800D01*
X169672000Y-133858000D02*
X170694000Y-132836000D01*
X170694000Y-132836000D02*
X170694000Y-131813800D01*
X170688000Y-133858000D02*
X170694000Y-133852000D01*
X170694000Y-133852000D02*
X170694000Y-131813800D01*
X170688000Y-129794000D02*
X170694000Y-129800000D01*
X170694000Y-129800000D02*
X170694000Y-131813800D01*
X169672000Y-129794000D02*
X170694000Y-130816000D01*
X170694000Y-130816000D02*
X170694000Y-131813800D01*
X173494000Y-126758000D02*
X173482000Y-126746000D01*
X173494000Y-127558800D02*
X173494000Y-126758000D01*
X171704000Y-129794000D02*
X170694000Y-130804000D01*
X170694000Y-130804000D02*
X170694000Y-131813800D01*
D44*
X162445000Y-130733800D02*
X162255200Y-130733800D01*
X162255200Y-130733800D02*
X161671000Y-131318000D01*
X162445000Y-132765800D02*
X162229800Y-132765800D01*
X162229800Y-132765800D02*
X161671000Y-132207000D01*
X161671000Y-132207000D02*
X161671000Y-131318000D01*
X162445000Y-130733800D02*
X162102800Y-130733800D01*
X162102800Y-130733800D02*
X161671000Y-130302000D01*
X161671000Y-131318000D02*
X161671000Y-130302000D01*
X162128200Y-132765800D02*
X162445000Y-132765800D01*
X162128200Y-132765800D02*
X161671000Y-133223000D01*
X161671000Y-132207000D02*
X161671000Y-133223000D01*
D45*
X175768000Y-94500000D02*
X176772000Y-94500000D01*
X176772000Y-94500000D02*
X176784000Y-94488000D01*
X175526000Y-101854000D02*
X175526000Y-102858000D01*
X175526000Y-102858000D02*
X175514000Y-102870000D01*
D44*
X152035000Y-141881000D02*
X150771000Y-141881000D01*
X150771000Y-141881000D02*
X150749000Y-141859000D01*
D45*
X161925000Y-127697800D02*
X161925000Y-126619000D01*
X167894000Y-136008800D02*
X167894000Y-136779000D01*
D40*
X161925000Y-135801800D02*
X160820800Y-135801800D01*
X160820800Y-135801800D02*
X160274000Y-135255000D01*
D45*
X173482000Y-139434000D02*
X173482000Y-140462000D01*
X176014000Y-100330000D02*
X176014000Y-101366000D01*
X176014000Y-101366000D02*
X175526000Y-101854000D01*
X170688500Y-131813800D02*
X170694000Y-131813800D01*
X171703500Y-131813800D02*
X170694000Y-131813800D01*
X170688000Y-133908800D02*
X170694000Y-133902800D01*
D42*
X182118000Y-94996000D02*
X182118000Y-97536000D01*
D45*
X176014000Y-97230000D02*
X176014000Y-98052000D01*
X174371000Y-101854000D02*
X173482000Y-102743000D01*
X176014000Y-98052000D02*
X174625000Y-99441000D01*
X173482000Y-102743000D02*
X173482000Y-103204000D01*
D44*
X175328000Y-96000000D02*
X173482000Y-94154000D01*
X175768000Y-96000000D02*
X175328000Y-96000000D01*
D40*
X164084000Y-92976000D02*
X172304000Y-92976000D01*
X172304000Y-92976000D02*
X173482000Y-94154000D01*
X164084000Y-92976000D02*
X164084000Y-92456000D01*
X162306000Y-92976000D02*
X162306000Y-92456000D01*
X162306000Y-92456000D02*
X162306000Y-92329000D01*
X162306000Y-92329000D02*
X162306000Y-92456000D01*
D42*
X150876000Y-102108000D02*
X150876000Y-99568000D01*
X157988000Y-92456000D02*
X162306000Y-92456000D01*
X162306000Y-92456000D02*
X164084000Y-92456000D01*
X150876000Y-99568000D02*
X157988000Y-92456000D01*
D41*
X165342000Y-96774000D02*
X165342000Y-93714000D01*
X165342000Y-93714000D02*
X164084000Y-92456000D01*
X165354000Y-99314000D02*
X165354000Y-96786000D01*
D42*
X182118000Y-93472000D02*
X182118000Y-97536000D01*
X181102000Y-92456000D02*
X182118000Y-93472000D01*
X164084000Y-92456000D02*
X165354000Y-92456000D01*
X165354000Y-92456000D02*
X181102000Y-92456000D01*
D45*
X176014000Y-97230000D02*
X176014000Y-96246000D01*
X176014000Y-96246000D02*
X175768000Y-96000000D01*
X176014000Y-95762000D02*
X176010000Y-95758000D01*
X176514000Y-97230000D02*
X176514000Y-100330000D01*
X176514000Y-100330000D02*
X176514000Y-101342000D01*
X176514000Y-101342000D02*
X177026000Y-101854000D01*
X176514000Y-97230000D02*
X176514000Y-96790000D01*
X178308000Y-94996000D02*
X179578000Y-94996000D01*
X176514000Y-96790000D02*
X178308000Y-94996000D01*
X164973000Y-127697800D02*
X163449000Y-127697800D01*
X167894000Y-128858800D02*
X166134000Y-128858800D01*
X166134000Y-128858800D02*
X164973000Y-127697800D01*
X167894000Y-128208800D02*
X166905000Y-128208800D01*
X166905000Y-128208800D02*
X166243000Y-127546800D01*
X167894000Y-127558800D02*
X167755000Y-127558800D01*
X167755000Y-127558800D02*
X166243000Y-126046800D01*
X173482000Y-137934000D02*
X171730000Y-137934000D01*
X171730000Y-137934000D02*
X171472000Y-138192000D01*
X173494000Y-136008800D02*
X173494000Y-137922000D01*
X173494000Y-137922000D02*
X173482000Y-137934000D01*
X173482000Y-100504000D02*
X169084000Y-100504000D01*
X169084000Y-100504000D02*
X167894000Y-99314000D01*
X175514000Y-100330000D02*
X173656000Y-100330000D01*
X173656000Y-100330000D02*
X173402000Y-100584000D01*
X173656000Y-100330000D02*
X173482000Y-100504000D01*
X170434000Y-99314000D02*
X171022000Y-99314000D01*
X171022000Y-99314000D02*
X173482000Y-96854000D01*
X175514000Y-97230000D02*
X173858000Y-97230000D01*
X177014000Y-100330000D02*
X177014000Y-100100000D01*
X177014000Y-100100000D02*
X179578000Y-97536000D01*
X177014000Y-97230000D02*
X177240000Y-97230000D01*
X177240000Y-97230000D02*
X177800000Y-97790000D01*
X173494000Y-128858800D02*
X175941200Y-128858800D01*
X180848000Y-124206000D02*
X182118000Y-122936000D01*
X179070000Y-124206000D02*
X180848000Y-124206000D01*
X178308000Y-124968000D02*
X179070000Y-124206000D01*
X178308000Y-126492000D02*
X178308000Y-124968000D01*
X175941200Y-128858800D02*
X178308000Y-126492000D01*
X173494000Y-129508800D02*
X178593200Y-129508800D01*
X180848000Y-126746000D02*
X182118000Y-125476000D01*
X180848000Y-128524000D02*
X180848000Y-126746000D01*
X180086000Y-129286000D02*
X180848000Y-128524000D01*
X178816000Y-129286000D02*
X180086000Y-129286000D01*
X178593200Y-129508800D02*
X178816000Y-129286000D01*
X173494000Y-130158800D02*
X179180800Y-130158800D01*
X179180800Y-130158800D02*
X179578000Y-130556000D01*
X173494000Y-131458800D02*
X176924800Y-131458800D01*
X180848000Y-131826000D02*
X182118000Y-133096000D01*
X177292000Y-131826000D02*
X180848000Y-131826000D01*
X176924800Y-131458800D02*
X177292000Y-131826000D01*
X173494000Y-132108800D02*
X176558800Y-132108800D01*
X177546000Y-133096000D02*
X179578000Y-133096000D01*
X176558800Y-132108800D02*
X177546000Y-133096000D01*
X173494000Y-132758800D02*
X176192800Y-132758800D01*
X176192800Y-132758800D02*
X179070000Y-135636000D01*
X179070000Y-135636000D02*
X179578000Y-135636000D01*
X173494000Y-133408800D02*
X175826800Y-133408800D01*
X180848000Y-136906000D02*
X182118000Y-138176000D01*
X178562000Y-136906000D02*
X180848000Y-136906000D01*
X178054000Y-136398000D02*
X178562000Y-136906000D01*
X178054000Y-135636000D02*
X178054000Y-136398000D01*
X175826800Y-133408800D02*
X178054000Y-135636000D01*
X173494000Y-134058800D02*
X175460800Y-134058800D01*
X177292000Y-136652000D02*
X178816000Y-138176000D01*
X177292000Y-135890000D02*
X177292000Y-136652000D01*
X175460800Y-134058800D02*
X177292000Y-135890000D01*
X178816000Y-138176000D02*
X179578000Y-138176000D01*
X173494000Y-134708800D02*
X175094800Y-134708800D01*
X180848000Y-139446000D02*
X182118000Y-140716000D01*
X179070000Y-139446000D02*
X180848000Y-139446000D01*
X176530000Y-136906000D02*
X179070000Y-139446000D01*
X176530000Y-136144000D02*
X176530000Y-136906000D01*
X175094800Y-134708800D02*
X176530000Y-136144000D01*
X173494000Y-135358800D02*
X174728800Y-135358800D01*
X175768000Y-137160000D02*
X179324000Y-140716000D01*
X175768000Y-136398000D02*
X175768000Y-137160000D01*
X174728800Y-135358800D02*
X175768000Y-136398000D01*
X179324000Y-140716000D02*
X179578000Y-140716000D01*
D40*
X165412800Y-133408800D02*
X165404800Y-133400800D01*
X165412800Y-133408800D02*
X166624000Y-133408800D01*
X166624000Y-133408800D02*
X166624000Y-133400800D01*
X166624000Y-133400800D02*
X166624000Y-133408800D01*
X167894000Y-133408800D02*
X166624000Y-133408800D01*
X165506400Y-132207000D02*
X165404800Y-132105400D01*
X166624000Y-132207000D02*
X165506400Y-132207000D01*
X166624000Y-132207000D02*
X166624000Y-132105400D01*
X166624000Y-132105400D02*
X166624000Y-132207000D01*
X167894000Y-132108800D02*
X167230200Y-132108800D01*
X167230200Y-132108800D02*
X167132000Y-132207000D01*
X167132000Y-132207000D02*
X166624000Y-132207000D01*
X164871400Y-131368800D02*
X164744400Y-131495800D01*
X166039800Y-131368800D02*
X164871400Y-131368800D01*
X166039800Y-131368800D02*
X166039800Y-131470400D01*
X166039800Y-131470400D02*
X166039800Y-131368800D01*
X167894000Y-131458800D02*
X167247400Y-131458800D01*
X167247400Y-131458800D02*
X167157400Y-131368800D01*
X167157400Y-131368800D02*
X166039800Y-131368800D01*
X164804400Y-130158800D02*
X166039800Y-130158800D01*
X164804400Y-130158800D02*
X164795200Y-130149600D01*
X166039800Y-130158800D02*
X166039800Y-130149600D01*
X166039800Y-130149600D02*
X166039800Y-130158800D01*
X167894000Y-130158800D02*
X166039800Y-130158800D01*
D45*
X167894000Y-130808800D02*
X164020000Y-130808800D01*
X164020000Y-130808800D02*
X163945000Y-130733800D01*
X167894000Y-132758800D02*
X163952000Y-132758800D01*
X163952000Y-132758800D02*
X163945000Y-132765800D01*
X173494000Y-128208800D02*
X175575200Y-128208800D01*
X177546000Y-124714000D02*
X179324000Y-122936000D01*
X177546000Y-126238000D02*
X177546000Y-124714000D01*
X175575200Y-128208800D02*
X177546000Y-126238000D01*
X179324000Y-122936000D02*
X179578000Y-122936000D01*
X168422000Y-139192000D02*
X168422000Y-138450000D01*
X168422000Y-138450000D02*
X166624000Y-136652000D01*
X166624000Y-136652000D02*
X166624000Y-135636000D01*
X166624000Y-135636000D02*
X166901200Y-135358800D01*
X166901200Y-135358800D02*
X167894000Y-135358800D01*
X168632800Y-135358800D02*
X167894000Y-135358800D01*
X167894000Y-134708800D02*
X167894000Y-135358800D01*
D41*
X152781000Y-127965200D02*
X149783800Y-127965200D01*
X149783800Y-127965200D02*
X149606000Y-128143000D01*
X153289000Y-132207000D02*
X153289000Y-131826000D01*
X153289000Y-131826000D02*
X149606000Y-128143000D01*
D40*
X168280000Y-106680000D02*
X167894000Y-106680000D01*
X167386000Y-106172000D02*
X167386000Y-102362000D01*
X167894000Y-106680000D02*
X167386000Y-106172000D01*
X167386000Y-102362000D02*
X167894000Y-101854000D01*
X170180000Y-105380000D02*
X170180000Y-102108000D01*
X170180000Y-102108000D02*
X170434000Y-101854000D01*
X179578000Y-117856000D02*
X170434000Y-117856000D01*
X179578000Y-120396000D02*
X170434000Y-120396000D01*
X170180000Y-106030000D02*
X176164000Y-106030000D01*
X176164000Y-106030000D02*
X179578000Y-102616000D01*
X168280000Y-106030000D02*
X168768000Y-106030000D01*
X169672000Y-107696000D02*
X179578000Y-107696000D01*
X168910000Y-106934000D02*
X169672000Y-107696000D01*
X168910000Y-106172000D02*
X168910000Y-106934000D01*
X168768000Y-106030000D02*
X168910000Y-106172000D01*
D44*
X182118000Y-143256000D02*
X181610000Y-143256000D01*
X181610000Y-143256000D02*
X180086000Y-144780000D01*
X180086000Y-144780000D02*
X156934000Y-144780000D01*
X156934000Y-144780000D02*
X154035000Y-141881000D01*
X154394000Y-142240000D02*
X154035000Y-141881000D01*
X154559000Y-132207000D02*
X154559000Y-135302000D01*
X154559000Y-135302000D02*
X155147000Y-135890000D01*
D45*
X154547000Y-132219000D02*
X154559000Y-132207000D01*
D44*
X153035000Y-138831000D02*
X153035000Y-136478000D01*
X153035000Y-136478000D02*
X152447000Y-135890000D01*
D45*
X153035000Y-135648000D02*
X153047000Y-135636000D01*
D40*
X182118000Y-112776000D02*
X181864000Y-112776000D01*
X181864000Y-112776000D02*
X180594000Y-114046000D01*
X180594000Y-114046000D02*
X169164000Y-114046000D01*
X169164000Y-114046000D02*
X167894000Y-115316000D01*
X182118000Y-115316000D02*
X180848000Y-116586000D01*
X169418000Y-116586000D02*
X168148000Y-117856000D01*
X180848000Y-116586000D02*
X169418000Y-116586000D01*
X168148000Y-117856000D02*
X167894000Y-117856000D01*
X182118000Y-120396000D02*
X180848000Y-119126000D01*
X169164000Y-119126000D02*
X167894000Y-120396000D01*
X180848000Y-119126000D02*
X169164000Y-119126000D01*
X182118000Y-107696000D02*
X180848000Y-108966000D01*
X177038000Y-110236000D02*
X170434000Y-110236000D01*
X178308000Y-108966000D02*
X177038000Y-110236000D01*
X180848000Y-108966000D02*
X178308000Y-108966000D01*
X179578000Y-110236000D02*
X178308000Y-111506000D01*
X169164000Y-111506000D02*
X167894000Y-112776000D01*
X178308000Y-111506000D02*
X169164000Y-111506000D01*
X179578000Y-112776000D02*
X170434000Y-112776000D01*
X179578000Y-115316000D02*
X170434000Y-115316000D01*
D45*
G36*
X157453391Y-91165340D02*
X157000172Y-91468172D01*
X149888172Y-98580172D01*
X149585340Y-99033391D01*
X149479000Y-99568000D01*
X149479000Y-102108000D01*
X149494930Y-102188086D01*
X149494761Y-102381493D01*
X149569269Y-102561817D01*
X149585340Y-102642609D01*
X149630706Y-102710504D01*
X149704563Y-102889251D01*
X149842407Y-103027336D01*
X149888172Y-103095828D01*
X149956064Y-103141192D01*
X150092705Y-103278072D01*
X150272899Y-103352895D01*
X150341391Y-103398660D01*
X150421479Y-103414590D01*
X150600097Y-103488759D01*
X150795208Y-103488929D01*
X150876000Y-103505000D01*
X150956086Y-103489070D01*
X151149493Y-103489239D01*
X151329817Y-103414731D01*
X151410609Y-103398660D01*
X151478504Y-103353294D01*
X151657251Y-103279437D01*
X151795336Y-103141593D01*
X151863828Y-103095828D01*
X151909192Y-103027936D01*
X152046072Y-102891295D01*
X152120895Y-102711101D01*
X152166660Y-102642609D01*
X152182590Y-102562521D01*
X152256759Y-102383903D01*
X152256929Y-102188792D01*
X152273000Y-102108000D01*
X152273000Y-100146656D01*
X158566656Y-93853000D01*
X164403369Y-93853000D01*
X164580000Y-94029631D01*
X164580000Y-96774000D01*
X164592000Y-96834328D01*
X164592000Y-98330664D01*
X164473935Y-98409552D01*
X164204140Y-98813329D01*
X164109400Y-99289617D01*
X164109400Y-99338383D01*
X164204140Y-99814671D01*
X164473935Y-100218448D01*
X164877712Y-100488243D01*
X165354000Y-100582983D01*
X165830288Y-100488243D01*
X166234065Y-100218448D01*
X166503860Y-99814671D01*
X166598600Y-99338383D01*
X166598600Y-99289617D01*
X166503860Y-98813329D01*
X166234065Y-98409552D01*
X166116000Y-98330664D01*
X166116000Y-96786000D01*
X166104000Y-96725672D01*
X166104000Y-93853000D01*
X172372776Y-93853000D01*
X172443536Y-93923760D01*
X172443536Y-94904000D01*
X172470103Y-95045190D01*
X172553546Y-95174865D01*
X172680866Y-95261859D01*
X172832000Y-95292464D01*
X173722438Y-95292464D01*
X174148940Y-95718966D01*
X174132000Y-95715536D01*
X172832000Y-95715536D01*
X172690810Y-95742103D01*
X172561135Y-95825546D01*
X172474141Y-95952866D01*
X172443536Y-96104000D01*
X172443536Y-97174043D01*
X171250500Y-98367079D01*
X170910288Y-98139757D01*
X170434000Y-98045017D01*
X169957712Y-98139757D01*
X169553935Y-98409552D01*
X169284140Y-98813329D01*
X169189400Y-99289617D01*
X169189400Y-99338383D01*
X169284140Y-99814671D01*
X169405300Y-99996000D01*
X169294420Y-99996000D01*
X169055346Y-99756926D01*
X169138600Y-99338383D01*
X169138600Y-99289617D01*
X169043860Y-98813329D01*
X168774065Y-98409552D01*
X168370288Y-98139757D01*
X167894000Y-98045017D01*
X167417712Y-98139757D01*
X167013935Y-98409552D01*
X166744140Y-98813329D01*
X166649400Y-99289617D01*
X166649400Y-99338383D01*
X166744140Y-99814671D01*
X167013935Y-100218448D01*
X167417712Y-100488243D01*
X167894000Y-100582983D01*
X168353218Y-100491638D01*
X168724790Y-100863210D01*
X168889596Y-100973331D01*
X169084000Y-101012000D01*
X169512209Y-101012000D01*
X169284140Y-101353329D01*
X169189400Y-101829617D01*
X169189400Y-101878383D01*
X169284140Y-102354671D01*
X169553935Y-102758448D01*
X169608500Y-102794907D01*
X169608500Y-104975653D01*
X169572141Y-105028866D01*
X169541536Y-105180000D01*
X169541536Y-105580000D01*
X169565920Y-105709588D01*
X169541536Y-105830000D01*
X169541536Y-106230000D01*
X169568103Y-106371190D01*
X169651546Y-106500865D01*
X169778866Y-106587859D01*
X169930000Y-106618464D01*
X170430000Y-106618464D01*
X170520155Y-106601500D01*
X176163995Y-106601500D01*
X176164000Y-106601501D01*
X176346418Y-106565215D01*
X176382704Y-106557997D01*
X176568112Y-106434112D01*
X177846224Y-105156000D01*
X180849017Y-105156000D01*
X180943757Y-105632288D01*
X181213552Y-106036065D01*
X181617329Y-106305860D01*
X182093617Y-106400600D01*
X182142383Y-106400600D01*
X182618671Y-106305860D01*
X183022448Y-106036065D01*
X183292243Y-105632288D01*
X183386983Y-105156000D01*
X183292243Y-104679712D01*
X183022448Y-104275935D01*
X182618671Y-104006140D01*
X182142383Y-103911400D01*
X182093617Y-103911400D01*
X181617329Y-104006140D01*
X181213552Y-104275935D01*
X180943757Y-104679712D01*
X180849017Y-105156000D01*
X177846224Y-105156000D01*
X179209978Y-103792246D01*
X179553617Y-103860600D01*
X179602383Y-103860600D01*
X180078671Y-103765860D01*
X180482448Y-103496065D01*
X180752243Y-103092288D01*
X180846983Y-102616000D01*
X180849017Y-102616000D01*
X180943757Y-103092288D01*
X181213552Y-103496065D01*
X181617329Y-103765860D01*
X182093617Y-103860600D01*
X182142383Y-103860600D01*
X182618671Y-103765860D01*
X183022448Y-103496065D01*
X183292243Y-103092288D01*
X183386983Y-102616000D01*
X183292243Y-102139712D01*
X183022448Y-101735935D01*
X182618671Y-101466140D01*
X182142383Y-101371400D01*
X182093617Y-101371400D01*
X181617329Y-101466140D01*
X181213552Y-101735935D01*
X180943757Y-102139712D01*
X180849017Y-102616000D01*
X180846983Y-102616000D01*
X180752243Y-102139712D01*
X180482448Y-101735935D01*
X180078671Y-101466140D01*
X179602383Y-101371400D01*
X179553617Y-101371400D01*
X179077329Y-101466140D01*
X178673552Y-101735935D01*
X178403757Y-102139712D01*
X178309017Y-102616000D01*
X178385462Y-103000315D01*
X175927276Y-105458500D01*
X170818464Y-105458500D01*
X170818464Y-105180000D01*
X170791897Y-105038810D01*
X170751500Y-104976031D01*
X170751500Y-103059828D01*
X170910288Y-103028243D01*
X171314065Y-102758448D01*
X171583860Y-102354671D01*
X171678600Y-101878383D01*
X171678600Y-101829617D01*
X171583860Y-101353329D01*
X171355791Y-101012000D01*
X172443536Y-101012000D01*
X172443536Y-101254000D01*
X172470103Y-101395190D01*
X172553546Y-101524865D01*
X172680866Y-101611859D01*
X172832000Y-101642464D01*
X173675010Y-101642464D01*
X173647226Y-101709376D01*
X173647095Y-101859485D01*
X173441044Y-102065536D01*
X172832000Y-102065536D01*
X172690810Y-102092103D01*
X172561135Y-102175546D01*
X172474141Y-102302866D01*
X172443536Y-102454000D01*
X172443536Y-103954000D01*
X172470103Y-104095190D01*
X172553546Y-104224865D01*
X172680866Y-104311859D01*
X172832000Y-104342464D01*
X174132000Y-104342464D01*
X174273190Y-104315897D01*
X174402865Y-104232454D01*
X174489859Y-104105134D01*
X174520464Y-103954000D01*
X174520464Y-102575503D01*
X174780521Y-102468050D01*
X174984335Y-102264592D01*
X175094774Y-101998624D01*
X175095025Y-101710639D01*
X174985050Y-101444479D01*
X174781592Y-101240665D01*
X174520464Y-101132236D01*
X174520464Y-100838000D01*
X175025562Y-100838000D01*
X175027103Y-100846190D01*
X175110546Y-100975865D01*
X175237866Y-101062859D01*
X175389000Y-101093464D01*
X175639000Y-101093464D01*
X175780190Y-101066897D01*
X175909865Y-100983454D01*
X175996859Y-100856134D01*
X176006000Y-100810994D01*
X176006000Y-101342000D01*
X176044669Y-101536403D01*
X176154790Y-101701210D01*
X176237536Y-101783956D01*
X176237536Y-102229000D01*
X176264103Y-102370190D01*
X176347546Y-102499865D01*
X176474866Y-102586859D01*
X176626000Y-102617464D01*
X177426000Y-102617464D01*
X177567190Y-102590897D01*
X177696865Y-102507454D01*
X177783859Y-102380134D01*
X177814464Y-102229000D01*
X177814464Y-101479000D01*
X177787897Y-101337810D01*
X177704454Y-101208135D01*
X177577134Y-101121141D01*
X177426000Y-101090536D01*
X177154561Y-101090536D01*
X177280190Y-101066897D01*
X177409865Y-100983454D01*
X177496859Y-100856134D01*
X177527464Y-100705000D01*
X177527464Y-100304956D01*
X177756420Y-100076000D01*
X178309017Y-100076000D01*
X178403757Y-100552288D01*
X178673552Y-100956065D01*
X179077329Y-101225860D01*
X179553617Y-101320600D01*
X179602383Y-101320600D01*
X180078671Y-101225860D01*
X180482448Y-100956065D01*
X180752243Y-100552288D01*
X180846983Y-100076000D01*
X180752243Y-99599712D01*
X180482448Y-99195935D01*
X180078671Y-98926140D01*
X179602383Y-98831400D01*
X179553617Y-98831400D01*
X179077329Y-98926140D01*
X178673552Y-99195935D01*
X178403757Y-99599712D01*
X178309017Y-100076000D01*
X177756420Y-100076000D01*
X179135074Y-98697346D01*
X179553617Y-98780600D01*
X179602383Y-98780600D01*
X180078671Y-98685860D01*
X180482448Y-98416065D01*
X180752243Y-98012288D01*
X180783991Y-97852679D01*
X180827340Y-98070609D01*
X181130172Y-98523828D01*
X181583391Y-98826660D01*
X182118000Y-98933000D01*
X182652609Y-98826660D01*
X183105828Y-98523828D01*
X183408660Y-98070609D01*
X183515000Y-97536000D01*
X183515000Y-93472000D01*
X183408660Y-92937391D01*
X183105828Y-92484172D01*
X182089828Y-91468172D01*
X181636609Y-91165340D01*
X181102000Y-91059000D01*
X183769000Y-91059000D01*
X183769000Y-145669000D01*
X145415000Y-145669000D01*
X145415000Y-141281000D01*
X153046536Y-141281000D01*
X153046536Y-142481000D01*
X153073103Y-142622190D01*
X153156546Y-142751865D01*
X153283866Y-142838859D01*
X153435000Y-142869464D01*
X154125438Y-142869464D01*
X156484987Y-145229013D01*
X156690996Y-145366664D01*
X156934000Y-145415000D01*
X180086000Y-145415000D01*
X180329004Y-145366664D01*
X180535013Y-145229013D01*
X181461972Y-144302054D01*
X181617329Y-144405860D01*
X182093617Y-144500600D01*
X182142383Y-144500600D01*
X182618671Y-144405860D01*
X183022448Y-144136065D01*
X183292243Y-143732288D01*
X183386983Y-143256000D01*
X183292243Y-142779712D01*
X183022448Y-142375935D01*
X182618671Y-142106140D01*
X182142383Y-142011400D01*
X182093617Y-142011400D01*
X181617329Y-142106140D01*
X181213552Y-142375935D01*
X180943757Y-142779712D01*
X180883045Y-143084930D01*
X179822974Y-144145000D01*
X157197026Y-144145000D01*
X155023464Y-141971438D01*
X155023464Y-141281000D01*
X154996897Y-141139810D01*
X154913454Y-141010135D01*
X154786134Y-140923141D01*
X154635000Y-140892536D01*
X153435000Y-140892536D01*
X153293810Y-140919103D01*
X153164135Y-141002546D01*
X153077141Y-141129866D01*
X153046536Y-141281000D01*
X145415000Y-141281000D01*
X145415000Y-135240000D01*
X151308536Y-135240000D01*
X151308536Y-136540000D01*
X151335103Y-136681190D01*
X151418546Y-136810865D01*
X151545866Y-136897859D01*
X151697000Y-136928464D01*
X152400000Y-136928464D01*
X152400000Y-137692536D01*
X152235000Y-137692536D01*
X152093810Y-137719103D01*
X151964135Y-137802546D01*
X151877141Y-137929866D01*
X151846536Y-138081000D01*
X151846536Y-139581000D01*
X151873103Y-139722190D01*
X151956546Y-139851865D01*
X152083866Y-139938859D01*
X152235000Y-139969464D01*
X153835000Y-139969464D01*
X153976190Y-139942897D01*
X154105865Y-139859454D01*
X154192859Y-139732134D01*
X154223464Y-139581000D01*
X154223464Y-139190031D01*
X155981400Y-139190031D01*
X155981400Y-139549569D01*
X156076140Y-140025857D01*
X156345935Y-140429634D01*
X156749712Y-140699429D01*
X157226000Y-140794169D01*
X157702288Y-140699429D01*
X158106065Y-140429634D01*
X158375860Y-140025857D01*
X158470600Y-139549569D01*
X158470600Y-139190031D01*
X158521400Y-139190031D01*
X158521400Y-139549569D01*
X158616140Y-140025857D01*
X158885935Y-140429634D01*
X159289712Y-140699429D01*
X159766000Y-140794169D01*
X160242288Y-140699429D01*
X160646065Y-140429634D01*
X160915860Y-140025857D01*
X161010600Y-139549569D01*
X161010600Y-139190031D01*
X161061400Y-139190031D01*
X161061400Y-139549569D01*
X161156140Y-140025857D01*
X161425935Y-140429634D01*
X161829712Y-140699429D01*
X162306000Y-140794169D01*
X162782288Y-140699429D01*
X163186065Y-140429634D01*
X163455860Y-140025857D01*
X163550600Y-139549569D01*
X163550600Y-139190031D01*
X163455860Y-138713743D01*
X163215354Y-138353800D01*
X163593936Y-138353800D01*
X163593936Y-140385800D01*
X163620503Y-140526990D01*
X163703946Y-140656665D01*
X163831266Y-140743659D01*
X163982400Y-140774264D01*
X165709600Y-140774264D01*
X165850790Y-140747697D01*
X165980465Y-140664254D01*
X166067459Y-140536934D01*
X166098064Y-140385800D01*
X166098064Y-138353800D01*
X166071497Y-138212610D01*
X165988054Y-138082935D01*
X165860734Y-137995941D01*
X165709600Y-137965336D01*
X163982400Y-137965336D01*
X163841210Y-137991903D01*
X163711535Y-138075346D01*
X163624541Y-138202666D01*
X163593936Y-138353800D01*
X163215354Y-138353800D01*
X163186065Y-138309966D01*
X162782288Y-138040171D01*
X162306000Y-137945431D01*
X161829712Y-138040171D01*
X161425935Y-138309966D01*
X161156140Y-138713743D01*
X161061400Y-139190031D01*
X161010600Y-139190031D01*
X160915860Y-138713743D01*
X160646065Y-138309966D01*
X160242288Y-138040171D01*
X159766000Y-137945431D01*
X159289712Y-138040171D01*
X158885935Y-138309966D01*
X158616140Y-138713743D01*
X158521400Y-139190031D01*
X158470600Y-139190031D01*
X158375860Y-138713743D01*
X158106065Y-138309966D01*
X157702288Y-138040171D01*
X157226000Y-137945431D01*
X156749712Y-138040171D01*
X156345935Y-138309966D01*
X156076140Y-138713743D01*
X155981400Y-139190031D01*
X154223464Y-139190031D01*
X154223464Y-138081000D01*
X154196897Y-137939810D01*
X154113454Y-137810135D01*
X153986134Y-137723141D01*
X153835000Y-137692536D01*
X153670000Y-137692536D01*
X153670000Y-136478005D01*
X153670001Y-136478000D01*
X153621664Y-136234996D01*
X153585464Y-136180819D01*
X153585464Y-135240000D01*
X153558897Y-135098810D01*
X153475454Y-134969135D01*
X153348134Y-134882141D01*
X153197000Y-134851536D01*
X151697000Y-134851536D01*
X151555810Y-134878103D01*
X151426135Y-134961546D01*
X151339141Y-135088866D01*
X151308536Y-135240000D01*
X145415000Y-135240000D01*
X145415000Y-128143000D01*
X148181631Y-128143000D01*
X148287971Y-128677609D01*
X148590803Y-129130828D01*
X149044022Y-129433660D01*
X149578631Y-129540000D01*
X149633369Y-129540000D01*
X149876924Y-129491554D01*
X152458420Y-132073051D01*
X152458420Y-132530159D01*
X152521644Y-132848008D01*
X152701691Y-133117468D01*
X152971151Y-133297515D01*
X153289000Y-133360739D01*
X153606849Y-133297515D01*
X153876309Y-133117468D01*
X153924000Y-133046093D01*
X153924000Y-135302000D01*
X153972336Y-135545004D01*
X154008536Y-135599181D01*
X154008536Y-136540000D01*
X154035103Y-136681190D01*
X154118546Y-136810865D01*
X154245866Y-136897859D01*
X154397000Y-136928464D01*
X155897000Y-136928464D01*
X156038190Y-136901897D01*
X156167865Y-136818454D01*
X156254859Y-136691134D01*
X156285464Y-136540000D01*
X156285464Y-135240000D01*
X156258897Y-135098810D01*
X156175454Y-134969135D01*
X156048134Y-134882141D01*
X155897000Y-134851536D01*
X155194000Y-134851536D01*
X155194000Y-133046093D01*
X155326356Y-132848008D01*
X155389580Y-132530159D01*
X155389580Y-131883841D01*
X155326356Y-131565992D01*
X155146309Y-131296532D01*
X154876849Y-131116485D01*
X154559000Y-131053261D01*
X154241151Y-131116485D01*
X153971691Y-131296532D01*
X153924000Y-131367907D01*
X153876309Y-131296532D01*
X153758336Y-131217705D01*
X151267830Y-128727200D01*
X151942612Y-128727200D01*
X152020266Y-128780259D01*
X152171400Y-128810864D01*
X153390600Y-128810864D01*
X153531790Y-128784297D01*
X153661465Y-128700854D01*
X153748459Y-128573534D01*
X153779064Y-128422400D01*
X153779064Y-127508000D01*
X153752497Y-127366810D01*
X153669054Y-127237135D01*
X153541734Y-127150141D01*
X153390600Y-127119536D01*
X152171400Y-127119536D01*
X152030210Y-127146103D01*
X151941478Y-127203200D01*
X150653288Y-127203200D01*
X150621197Y-127155172D01*
X150400137Y-127007464D01*
X150622000Y-127007464D01*
X150763190Y-126980897D01*
X150892865Y-126897454D01*
X150979859Y-126770134D01*
X151010464Y-126619000D01*
X151010464Y-126365000D01*
X151942612Y-126365000D01*
X152020266Y-126418059D01*
X152171400Y-126448664D01*
X153390600Y-126448664D01*
X153531790Y-126422097D01*
X153661465Y-126338654D01*
X153748459Y-126211334D01*
X153779064Y-126060200D01*
X153779064Y-125145800D01*
X153752497Y-125004610D01*
X153669054Y-124874935D01*
X153541734Y-124787941D01*
X153390600Y-124757336D01*
X152171400Y-124757336D01*
X152030210Y-124783903D01*
X151941478Y-124841000D01*
X151010464Y-124841000D01*
X151010464Y-124587000D01*
X150983897Y-124445810D01*
X150900454Y-124316135D01*
X150773134Y-124229141D01*
X150622000Y-124198536D01*
X150495000Y-124198536D01*
X150495000Y-122301000D01*
X158115000Y-122301000D01*
X158346140Y-122255024D01*
X158346140Y-125453140D01*
X158346536Y-125455131D01*
X158346536Y-126126000D01*
X158369000Y-126245385D01*
X158369000Y-127762000D01*
X158425431Y-128045697D01*
X158446338Y-128150807D01*
X158666580Y-128480420D01*
X159893000Y-129706841D01*
X159893000Y-133908800D01*
X159951004Y-134200405D01*
X160040894Y-134334934D01*
X160116185Y-134447615D01*
X160509185Y-134840615D01*
X160756395Y-135005796D01*
X161048000Y-135063800D01*
X161419315Y-135063800D01*
X161550000Y-135090264D01*
X162300000Y-135090264D01*
X162440643Y-135063800D01*
X166429638Y-135063800D01*
X166469793Y-135071787D01*
X166264790Y-135276790D01*
X166154669Y-135441597D01*
X166116000Y-135636000D01*
X166116000Y-136652000D01*
X166154669Y-136846403D01*
X166264790Y-137011210D01*
X167387330Y-138133750D01*
X167314141Y-138240866D01*
X167283536Y-138392000D01*
X167283536Y-139992000D01*
X167310103Y-140133190D01*
X167393546Y-140262865D01*
X167520866Y-140349859D01*
X167672000Y-140380464D01*
X169172000Y-140380464D01*
X169313190Y-140353897D01*
X169442865Y-140270454D01*
X169529859Y-140143134D01*
X169560464Y-139992000D01*
X169560464Y-138392000D01*
X169533897Y-138250810D01*
X169450454Y-138121135D01*
X169323134Y-138034141D01*
X169172000Y-138003536D01*
X168693956Y-138003536D01*
X168282420Y-137592000D01*
X170483536Y-137592000D01*
X170483536Y-138792000D01*
X170510103Y-138933190D01*
X170593546Y-139062865D01*
X170720866Y-139149859D01*
X170872000Y-139180464D01*
X172072000Y-139180464D01*
X172213190Y-139153897D01*
X172342865Y-139070454D01*
X172429859Y-138943134D01*
X172460464Y-138792000D01*
X172460464Y-138442000D01*
X172738858Y-138442000D01*
X172745103Y-138475190D01*
X172828546Y-138604865D01*
X172955866Y-138691859D01*
X173107000Y-138722464D01*
X173857000Y-138722464D01*
X173998190Y-138695897D01*
X174127865Y-138612454D01*
X174214859Y-138485134D01*
X174245464Y-138334000D01*
X174245464Y-137534000D01*
X174218897Y-137392810D01*
X174135454Y-137263135D01*
X174008134Y-137176141D01*
X174002000Y-137174899D01*
X174002000Y-136522264D01*
X174269000Y-136522264D01*
X174410190Y-136495697D01*
X174539865Y-136412254D01*
X174626859Y-136284934D01*
X174657464Y-136133800D01*
X174657464Y-136005884D01*
X175260000Y-136608420D01*
X175260000Y-137160000D01*
X175298669Y-137354403D01*
X175408790Y-137519210D01*
X178358220Y-140468641D01*
X178309017Y-140716000D01*
X178403757Y-141192288D01*
X178673552Y-141596065D01*
X179077329Y-141865860D01*
X179553617Y-141960600D01*
X179602383Y-141960600D01*
X180078671Y-141865860D01*
X180482448Y-141596065D01*
X180752243Y-141192288D01*
X180846983Y-140716000D01*
X180752243Y-140239712D01*
X180561336Y-139954000D01*
X180637580Y-139954000D01*
X180940362Y-140256782D01*
X180849017Y-140716000D01*
X180943757Y-141192288D01*
X181213552Y-141596065D01*
X181617329Y-141865860D01*
X182093617Y-141960600D01*
X182142383Y-141960600D01*
X182618671Y-141865860D01*
X183022448Y-141596065D01*
X183292243Y-141192288D01*
X183386983Y-140716000D01*
X183292243Y-140239712D01*
X183022448Y-139835935D01*
X182618671Y-139566140D01*
X182142383Y-139471400D01*
X182093617Y-139471400D01*
X181675074Y-139554654D01*
X181207210Y-139086790D01*
X181042403Y-138976669D01*
X180848000Y-138938000D01*
X180561336Y-138938000D01*
X180752243Y-138652288D01*
X180846983Y-138176000D01*
X180752243Y-137699712D01*
X180561336Y-137414000D01*
X180637580Y-137414000D01*
X180940362Y-137716782D01*
X180849017Y-138176000D01*
X180943757Y-138652288D01*
X181213552Y-139056065D01*
X181617329Y-139325860D01*
X182093617Y-139420600D01*
X182142383Y-139420600D01*
X182618671Y-139325860D01*
X183022448Y-139056065D01*
X183292243Y-138652288D01*
X183386983Y-138176000D01*
X183292243Y-137699712D01*
X183022448Y-137295935D01*
X182618671Y-137026140D01*
X182142383Y-136931400D01*
X182093617Y-136931400D01*
X181675074Y-137014654D01*
X181207210Y-136546790D01*
X181042403Y-136436669D01*
X180848000Y-136398000D01*
X180561336Y-136398000D01*
X180752243Y-136112288D01*
X180846983Y-135636000D01*
X180752243Y-135159712D01*
X180482448Y-134755935D01*
X180078671Y-134486140D01*
X179602383Y-134391400D01*
X179553617Y-134391400D01*
X179077329Y-134486140D01*
X178814306Y-134661886D01*
X177756420Y-133604000D01*
X178424946Y-133604000D01*
X178673552Y-133976065D01*
X179077329Y-134245860D01*
X179553617Y-134340600D01*
X179602383Y-134340600D01*
X180078671Y-134245860D01*
X180482448Y-133976065D01*
X180752243Y-133572288D01*
X180846983Y-133096000D01*
X180752243Y-132619712D01*
X180561336Y-132334000D01*
X180637580Y-132334000D01*
X180940362Y-132636782D01*
X180849017Y-133096000D01*
X180943757Y-133572288D01*
X181213552Y-133976065D01*
X181617329Y-134245860D01*
X182093617Y-134340600D01*
X182142383Y-134340600D01*
X182618671Y-134245860D01*
X183022448Y-133976065D01*
X183292243Y-133572288D01*
X183386983Y-133096000D01*
X183292243Y-132619712D01*
X183022448Y-132215935D01*
X182618671Y-131946140D01*
X182142383Y-131851400D01*
X182093617Y-131851400D01*
X181675074Y-131934654D01*
X181207210Y-131466790D01*
X181042403Y-131356669D01*
X180848000Y-131318000D01*
X180561336Y-131318000D01*
X180752243Y-131032288D01*
X180846983Y-130556000D01*
X180752243Y-130079712D01*
X180482448Y-129675935D01*
X180440837Y-129648132D01*
X180445210Y-129645210D01*
X181205863Y-128884557D01*
X181213552Y-128896065D01*
X181617329Y-129165860D01*
X182093617Y-129260600D01*
X182142383Y-129260600D01*
X182618671Y-129165860D01*
X183022448Y-128896065D01*
X183292243Y-128492288D01*
X183386983Y-128016000D01*
X183292243Y-127539712D01*
X183022448Y-127135935D01*
X182618671Y-126866140D01*
X182142383Y-126771400D01*
X182093617Y-126771400D01*
X181617329Y-126866140D01*
X181356000Y-127040754D01*
X181356000Y-126956420D01*
X181675074Y-126637346D01*
X182093617Y-126720600D01*
X182142383Y-126720600D01*
X182618671Y-126625860D01*
X183022448Y-126356065D01*
X183292243Y-125952288D01*
X183386983Y-125476000D01*
X183292243Y-124999712D01*
X183022448Y-124595935D01*
X182618671Y-124326140D01*
X182142383Y-124231400D01*
X182093617Y-124231400D01*
X181617329Y-124326140D01*
X181213552Y-124595935D01*
X180943757Y-124999712D01*
X180849017Y-125476000D01*
X180940362Y-125935218D01*
X180488790Y-126386790D01*
X180378669Y-126551597D01*
X180340000Y-126746000D01*
X180340000Y-127040754D01*
X180078671Y-126866140D01*
X179602383Y-126771400D01*
X179553617Y-126771400D01*
X179077329Y-126866140D01*
X178673552Y-127135935D01*
X178403757Y-127539712D01*
X178309017Y-128016000D01*
X178403757Y-128492288D01*
X178620840Y-128817175D01*
X178456790Y-128926790D01*
X178382780Y-129000800D01*
X176517620Y-129000800D01*
X178667210Y-126851210D01*
X178777331Y-126686403D01*
X178816000Y-126492000D01*
X178816000Y-125178420D01*
X179280420Y-124714000D01*
X180848000Y-124714000D01*
X181042403Y-124675331D01*
X181207210Y-124565210D01*
X181675074Y-124097346D01*
X182093617Y-124180600D01*
X182142383Y-124180600D01*
X182618671Y-124085860D01*
X183022448Y-123816065D01*
X183292243Y-123412288D01*
X183386983Y-122936000D01*
X183292243Y-122459712D01*
X183022448Y-122055935D01*
X182618671Y-121786140D01*
X182142383Y-121691400D01*
X182093617Y-121691400D01*
X181617329Y-121786140D01*
X181213552Y-122055935D01*
X180943757Y-122459712D01*
X180849017Y-122936000D01*
X180940362Y-123395218D01*
X180637580Y-123698000D01*
X180561336Y-123698000D01*
X180752243Y-123412288D01*
X180846983Y-122936000D01*
X180752243Y-122459712D01*
X180482448Y-122055935D01*
X180078671Y-121786140D01*
X179602383Y-121691400D01*
X179553617Y-121691400D01*
X179077329Y-121786140D01*
X178673552Y-122055935D01*
X178403757Y-122459712D01*
X178309017Y-122936000D01*
X178358220Y-123183360D01*
X177186790Y-124354790D01*
X177076669Y-124519597D01*
X177038000Y-124714000D01*
X177038000Y-126027580D01*
X175364780Y-127700800D01*
X174295982Y-127700800D01*
X174269000Y-127695336D01*
X172719000Y-127695336D01*
X172577810Y-127721903D01*
X172448135Y-127805346D01*
X172361141Y-127932666D01*
X172330536Y-128083800D01*
X172330536Y-128333800D01*
X172357103Y-128474990D01*
X172394744Y-128533486D01*
X172361141Y-128582666D01*
X172330536Y-128733800D01*
X172330536Y-128983800D01*
X172357103Y-129124990D01*
X172394744Y-129183486D01*
X172361141Y-129232666D01*
X172330536Y-129383800D01*
X172330536Y-129633800D01*
X172357103Y-129774990D01*
X172394744Y-129833486D01*
X172361141Y-129882666D01*
X172330536Y-130033800D01*
X172330536Y-130283800D01*
X172357103Y-130424990D01*
X172394744Y-130483486D01*
X172361141Y-130532666D01*
X172330536Y-130683800D01*
X172330536Y-130933800D01*
X172357103Y-131074990D01*
X172394744Y-131133486D01*
X172361141Y-131182666D01*
X172330536Y-131333800D01*
X172330536Y-131583800D01*
X172357103Y-131724990D01*
X172394744Y-131783486D01*
X172361141Y-131832666D01*
X172330536Y-131983800D01*
X172330536Y-132233800D01*
X172357103Y-132374990D01*
X172394744Y-132433486D01*
X172361141Y-132482666D01*
X172330536Y-132633800D01*
X172330536Y-132883800D01*
X172357103Y-133024990D01*
X172394744Y-133083486D01*
X172361141Y-133132666D01*
X172330536Y-133283800D01*
X172330536Y-133533800D01*
X172357103Y-133674990D01*
X172394744Y-133733486D01*
X172361141Y-133782666D01*
X172330536Y-133933800D01*
X172330536Y-134183800D01*
X172357103Y-134324990D01*
X172394744Y-134383486D01*
X172361141Y-134432666D01*
X172330536Y-134583800D01*
X172330536Y-134833800D01*
X172357103Y-134974990D01*
X172394744Y-135033486D01*
X172361141Y-135082666D01*
X172330536Y-135233800D01*
X172330536Y-135483800D01*
X172357103Y-135624990D01*
X172394744Y-135683486D01*
X172361141Y-135732666D01*
X172330536Y-135883800D01*
X172330536Y-136133800D01*
X172357103Y-136274990D01*
X172440546Y-136404665D01*
X172567866Y-136491659D01*
X172719000Y-136522264D01*
X172986000Y-136522264D01*
X172986000Y-137168304D01*
X172965810Y-137172103D01*
X172836135Y-137255546D01*
X172749141Y-137382866D01*
X172740406Y-137426000D01*
X172417932Y-137426000D01*
X172350454Y-137321135D01*
X172223134Y-137234141D01*
X172072000Y-137203536D01*
X170872000Y-137203536D01*
X170730810Y-137230103D01*
X170601135Y-137313546D01*
X170514141Y-137440866D01*
X170483536Y-137592000D01*
X168282420Y-137592000D01*
X167132000Y-136441580D01*
X167132000Y-135872264D01*
X168669000Y-135872264D01*
X168810190Y-135845697D01*
X168939865Y-135762254D01*
X168951686Y-135744954D01*
X168992010Y-135718010D01*
X169102131Y-135553203D01*
X169140800Y-135358800D01*
X169102131Y-135164397D01*
X169004289Y-135017967D01*
X169026859Y-134984934D01*
X169057464Y-134833800D01*
X169057464Y-134583800D01*
X169030897Y-134442610D01*
X168993256Y-134384114D01*
X169026859Y-134334934D01*
X169057464Y-134183800D01*
X169057464Y-133933800D01*
X169030897Y-133792610D01*
X168993256Y-133734114D01*
X169026859Y-133684934D01*
X169057464Y-133533800D01*
X169057464Y-133283800D01*
X169030897Y-133142610D01*
X168993256Y-133084114D01*
X169026859Y-133034934D01*
X169057464Y-132883800D01*
X169057464Y-132633800D01*
X169030897Y-132492610D01*
X168993256Y-132434114D01*
X169026859Y-132384934D01*
X169057464Y-132233800D01*
X169057464Y-131983800D01*
X169030897Y-131842610D01*
X168993256Y-131784114D01*
X169026859Y-131734934D01*
X169057464Y-131583800D01*
X169057464Y-131333800D01*
X169030897Y-131192610D01*
X168993256Y-131134114D01*
X169026859Y-131084934D01*
X169057464Y-130933800D01*
X169057464Y-130683800D01*
X169030897Y-130542610D01*
X168993256Y-130484114D01*
X169026859Y-130434934D01*
X169057464Y-130283800D01*
X169057464Y-130033800D01*
X169030897Y-129892610D01*
X168993256Y-129834114D01*
X169026859Y-129784934D01*
X169057464Y-129633800D01*
X169057464Y-129383800D01*
X169030897Y-129242610D01*
X168993256Y-129184114D01*
X169026859Y-129134934D01*
X169057464Y-128983800D01*
X169057464Y-128733800D01*
X169030897Y-128592610D01*
X168993256Y-128534114D01*
X169026859Y-128484934D01*
X169057464Y-128333800D01*
X169057464Y-128083800D01*
X169030897Y-127942610D01*
X168993256Y-127884114D01*
X169026859Y-127834934D01*
X169057464Y-127683800D01*
X169057464Y-127433800D01*
X169030897Y-127292610D01*
X168947454Y-127162935D01*
X168820134Y-127075941D01*
X168669000Y-127045336D01*
X167959956Y-127045336D01*
X167006464Y-126091844D01*
X167006464Y-125646800D01*
X166979897Y-125505610D01*
X166896454Y-125375935D01*
X166769134Y-125288941D01*
X166618000Y-125258336D01*
X165868000Y-125258336D01*
X165726810Y-125284903D01*
X165597135Y-125368346D01*
X165510141Y-125495666D01*
X165479536Y-125646800D01*
X165479536Y-126446800D01*
X165506103Y-126587990D01*
X165589546Y-126717665D01*
X165706798Y-126797780D01*
X165597135Y-126868346D01*
X165532595Y-126962804D01*
X165499134Y-126939941D01*
X165348000Y-126909336D01*
X164598000Y-126909336D01*
X164456810Y-126935903D01*
X164327135Y-127019346D01*
X164240141Y-127146666D01*
X164231406Y-127189800D01*
X164185732Y-127189800D01*
X164177454Y-127176935D01*
X164050134Y-127089941D01*
X163899000Y-127059336D01*
X162999000Y-127059336D01*
X162857810Y-127085903D01*
X162728135Y-127169346D01*
X162641141Y-127296666D01*
X162610536Y-127447800D01*
X162610536Y-127947800D01*
X162637103Y-128088990D01*
X162720546Y-128218665D01*
X162847866Y-128305659D01*
X162999000Y-128336264D01*
X163899000Y-128336264D01*
X164040190Y-128309697D01*
X164169865Y-128226254D01*
X164183841Y-128205800D01*
X164229858Y-128205800D01*
X164236103Y-128238990D01*
X164319546Y-128368665D01*
X164417801Y-128435800D01*
X162430685Y-128435800D01*
X162300000Y-128409336D01*
X161550000Y-128409336D01*
X161449978Y-128428157D01*
X161373420Y-128313579D01*
X160401000Y-127341160D01*
X160401000Y-126236932D01*
X160423464Y-126126000D01*
X160423464Y-124826000D01*
X160396897Y-124684810D01*
X160378140Y-124655661D01*
X160378140Y-113382464D01*
X161112140Y-113382464D01*
X161253330Y-113355897D01*
X161383005Y-113272454D01*
X161469999Y-113145134D01*
X161500604Y-112994000D01*
X161500604Y-112776000D01*
X166625017Y-112776000D01*
X166719757Y-113252288D01*
X166989552Y-113656065D01*
X167393329Y-113925860D01*
X167869617Y-114020600D01*
X167918383Y-114020600D01*
X168394671Y-113925860D01*
X168639519Y-113762258D01*
X168262022Y-114139754D01*
X167918383Y-114071400D01*
X167869617Y-114071400D01*
X167393329Y-114166140D01*
X166989552Y-114435935D01*
X166719757Y-114839712D01*
X166625017Y-115316000D01*
X166719757Y-115792288D01*
X166989552Y-116196065D01*
X167393329Y-116465860D01*
X167869617Y-116560600D01*
X167918383Y-116560600D01*
X168394671Y-116465860D01*
X168798448Y-116196065D01*
X169068243Y-115792288D01*
X169162983Y-115316000D01*
X169086538Y-114931686D01*
X169400723Y-114617500D01*
X169408234Y-114617500D01*
X169259757Y-114839712D01*
X169165017Y-115316000D01*
X169259757Y-115792288D01*
X169409379Y-116016214D01*
X169235582Y-116050785D01*
X169199296Y-116058003D01*
X169013888Y-116181888D01*
X169013886Y-116181891D01*
X168451599Y-116744178D01*
X168394671Y-116706140D01*
X167918383Y-116611400D01*
X167869617Y-116611400D01*
X167393329Y-116706140D01*
X166989552Y-116975935D01*
X166719757Y-117379712D01*
X166625017Y-117856000D01*
X166719757Y-118332288D01*
X166989552Y-118736065D01*
X167393329Y-119005860D01*
X167869617Y-119100600D01*
X167918383Y-119100600D01*
X168394671Y-119005860D01*
X168639519Y-118842258D01*
X168262022Y-119219754D01*
X167918383Y-119151400D01*
X167869617Y-119151400D01*
X167393329Y-119246140D01*
X166989552Y-119515935D01*
X166719757Y-119919712D01*
X166625017Y-120396000D01*
X166719757Y-120872288D01*
X166989552Y-121276065D01*
X167393329Y-121545860D01*
X167869617Y-121640600D01*
X167918383Y-121640600D01*
X168394671Y-121545860D01*
X168798448Y-121276065D01*
X169068243Y-120872288D01*
X169162983Y-120396000D01*
X169086538Y-120011686D01*
X169400723Y-119697500D01*
X169408234Y-119697500D01*
X169259757Y-119919712D01*
X169165017Y-120396000D01*
X169259757Y-120872288D01*
X169529552Y-121276065D01*
X169933329Y-121545860D01*
X170409617Y-121640600D01*
X170458383Y-121640600D01*
X170934671Y-121545860D01*
X171338448Y-121276065D01*
X171544624Y-120967500D01*
X178467376Y-120967500D01*
X178673552Y-121276065D01*
X179077329Y-121545860D01*
X179553617Y-121640600D01*
X179602383Y-121640600D01*
X180078671Y-121545860D01*
X180482448Y-121276065D01*
X180752243Y-120872288D01*
X180846983Y-120396000D01*
X180752243Y-119919712D01*
X180603766Y-119697500D01*
X180611276Y-119697500D01*
X180925462Y-120011686D01*
X180849017Y-120396000D01*
X180943757Y-120872288D01*
X181213552Y-121276065D01*
X181617329Y-121545860D01*
X182093617Y-121640600D01*
X182142383Y-121640600D01*
X182618671Y-121545860D01*
X183022448Y-121276065D01*
X183292243Y-120872288D01*
X183386983Y-120396000D01*
X183292243Y-119919712D01*
X183022448Y-119515935D01*
X182618671Y-119246140D01*
X182142383Y-119151400D01*
X182093617Y-119151400D01*
X181749978Y-119219754D01*
X181252112Y-118721888D01*
X181066704Y-118598003D01*
X181030418Y-118590785D01*
X180848000Y-118554499D01*
X180847995Y-118554500D01*
X180603766Y-118554500D01*
X180752243Y-118332288D01*
X180846983Y-117856000D01*
X180752243Y-117379712D01*
X180603766Y-117157500D01*
X180847995Y-117157500D01*
X180848000Y-117157501D01*
X181030418Y-117121215D01*
X181066704Y-117113997D01*
X181252112Y-116990112D01*
X181749978Y-116492246D01*
X182093617Y-116560600D01*
X182142383Y-116560600D01*
X182618671Y-116465860D01*
X183022448Y-116196065D01*
X183292243Y-115792288D01*
X183386983Y-115316000D01*
X183292243Y-114839712D01*
X183022448Y-114435935D01*
X182618671Y-114166140D01*
X182142383Y-114071400D01*
X182093617Y-114071400D01*
X181617329Y-114166140D01*
X181213552Y-114435935D01*
X180943757Y-114839712D01*
X180849017Y-115316000D01*
X180925462Y-115700314D01*
X180611276Y-116014500D01*
X180603766Y-116014500D01*
X180752243Y-115792288D01*
X180846983Y-115316000D01*
X180752243Y-114839712D01*
X180602621Y-114615786D01*
X180776418Y-114581215D01*
X180812704Y-114573997D01*
X180998112Y-114450112D01*
X181560401Y-113887822D01*
X181617329Y-113925860D01*
X182093617Y-114020600D01*
X182142383Y-114020600D01*
X182618671Y-113925860D01*
X183022448Y-113656065D01*
X183292243Y-113252288D01*
X183386983Y-112776000D01*
X183292243Y-112299712D01*
X183022448Y-111895935D01*
X182618671Y-111626140D01*
X182142383Y-111531400D01*
X182093617Y-111531400D01*
X181617329Y-111626140D01*
X181213552Y-111895935D01*
X180943757Y-112299712D01*
X180849017Y-112776000D01*
X180883321Y-112948456D01*
X180795139Y-113036638D01*
X180846983Y-112776000D01*
X180752243Y-112299712D01*
X180482448Y-111895935D01*
X180078671Y-111626140D01*
X179602383Y-111531400D01*
X179553617Y-111531400D01*
X179077329Y-111626140D01*
X178832483Y-111789740D01*
X179209978Y-111412246D01*
X179553617Y-111480600D01*
X179602383Y-111480600D01*
X180078671Y-111385860D01*
X180482448Y-111116065D01*
X180752243Y-110712288D01*
X180846983Y-110236000D01*
X180752243Y-109759712D01*
X180603766Y-109537500D01*
X180847995Y-109537500D01*
X180848000Y-109537501D01*
X181030418Y-109501215D01*
X181066704Y-109493997D01*
X181252112Y-109370112D01*
X181749978Y-108872246D01*
X182093617Y-108940600D01*
X182142383Y-108940600D01*
X182618671Y-108845860D01*
X183022448Y-108576065D01*
X183292243Y-108172288D01*
X183386983Y-107696000D01*
X183292243Y-107219712D01*
X183022448Y-106815935D01*
X182618671Y-106546140D01*
X182142383Y-106451400D01*
X182093617Y-106451400D01*
X181617329Y-106546140D01*
X181213552Y-106815935D01*
X180943757Y-107219712D01*
X180849017Y-107696000D01*
X180925462Y-108080314D01*
X180611276Y-108394500D01*
X180603766Y-108394500D01*
X180752243Y-108172288D01*
X180846983Y-107696000D01*
X180752243Y-107219712D01*
X180482448Y-106815935D01*
X180078671Y-106546140D01*
X179602383Y-106451400D01*
X179553617Y-106451400D01*
X179077329Y-106546140D01*
X178673552Y-106815935D01*
X178467376Y-107124500D01*
X169908723Y-107124500D01*
X169481500Y-106697276D01*
X169481500Y-106172000D01*
X169437997Y-105953296D01*
X169314112Y-105767888D01*
X169314109Y-105767886D01*
X169172112Y-105625888D01*
X169103435Y-105580000D01*
X168986704Y-105502003D01*
X168950418Y-105494785D01*
X168768000Y-105458499D01*
X168767995Y-105458500D01*
X168613772Y-105458500D01*
X168530000Y-105441536D01*
X168030000Y-105441536D01*
X167957500Y-105455178D01*
X167957500Y-103110352D01*
X168370288Y-103028243D01*
X168774065Y-102758448D01*
X169043860Y-102354671D01*
X169138600Y-101878383D01*
X169138600Y-101829617D01*
X169043860Y-101353329D01*
X168774065Y-100949552D01*
X168370288Y-100679757D01*
X167894000Y-100585017D01*
X167417712Y-100679757D01*
X167013935Y-100949552D01*
X166744140Y-101353329D01*
X166649400Y-101829617D01*
X166649400Y-101878383D01*
X166744140Y-102354671D01*
X166814500Y-102459972D01*
X166814500Y-106171995D01*
X166814499Y-106172000D01*
X166847681Y-106338810D01*
X166858003Y-106390704D01*
X166966445Y-106553000D01*
X166981888Y-106576112D01*
X167489886Y-107084109D01*
X167489888Y-107084112D01*
X167675296Y-107207997D01*
X167894000Y-107251500D01*
X167946228Y-107251500D01*
X168030000Y-107268464D01*
X168459351Y-107268464D01*
X168505888Y-107338112D01*
X169267886Y-108100109D01*
X169267888Y-108100112D01*
X169375908Y-108172288D01*
X169453297Y-108223998D01*
X169672000Y-108267501D01*
X169672005Y-108267500D01*
X178467376Y-108267500D01*
X178552234Y-108394500D01*
X178308005Y-108394500D01*
X178308000Y-108394499D01*
X178125582Y-108430785D01*
X178089296Y-108438003D01*
X177903888Y-108561888D01*
X177903886Y-108561891D01*
X176801276Y-109664500D01*
X171544624Y-109664500D01*
X171338448Y-109355935D01*
X170934671Y-109086140D01*
X170458383Y-108991400D01*
X170409617Y-108991400D01*
X169933329Y-109086140D01*
X169529552Y-109355935D01*
X169259757Y-109759712D01*
X169165017Y-110236000D01*
X169259757Y-110712288D01*
X169408234Y-110934500D01*
X169164005Y-110934500D01*
X169164000Y-110934499D01*
X168981582Y-110970785D01*
X168945296Y-110978003D01*
X168759888Y-111101888D01*
X168759886Y-111101891D01*
X168262022Y-111599754D01*
X167918383Y-111531400D01*
X167869617Y-111531400D01*
X167393329Y-111626140D01*
X166989552Y-111895935D01*
X166719757Y-112299712D01*
X166625017Y-112776000D01*
X161500604Y-112776000D01*
X161500604Y-108494000D01*
X161474037Y-108352810D01*
X161390594Y-108223135D01*
X161263274Y-108136141D01*
X161112140Y-108105536D01*
X160759140Y-108105536D01*
X160759140Y-106438000D01*
X161800315Y-106438000D01*
X161931000Y-106464464D01*
X162681000Y-106464464D01*
X162821643Y-106438000D01*
X163578315Y-106438000D01*
X163709000Y-106464464D01*
X164459000Y-106464464D01*
X164600190Y-106437897D01*
X164729865Y-106354454D01*
X164816859Y-106227134D01*
X164847464Y-106076000D01*
X164847464Y-105990166D01*
X165892815Y-104944816D01*
X166057996Y-104697605D01*
X166073156Y-104621391D01*
X166116000Y-104406000D01*
X166116000Y-102837336D01*
X166234065Y-102758448D01*
X166503860Y-102354671D01*
X166598600Y-101878383D01*
X166598600Y-101829617D01*
X166503860Y-101353329D01*
X166234065Y-100949552D01*
X165830288Y-100679757D01*
X165354000Y-100585017D01*
X164877712Y-100679757D01*
X164473935Y-100949552D01*
X164204140Y-101353329D01*
X164109400Y-101829617D01*
X164109400Y-101878383D01*
X164204140Y-102354671D01*
X164473935Y-102758448D01*
X164592000Y-102837336D01*
X164592000Y-104090369D01*
X163794834Y-104887536D01*
X163709000Y-104887536D01*
X163568357Y-104914000D01*
X162811685Y-104914000D01*
X162681000Y-104887536D01*
X161931000Y-104887536D01*
X161790357Y-104914000D01*
X160439296Y-104914000D01*
X160349968Y-104780312D01*
X157290115Y-101720459D01*
X157262731Y-101654183D01*
X157246660Y-101573391D01*
X157201294Y-101505496D01*
X157127437Y-101326749D01*
X156989593Y-101188664D01*
X156943828Y-101120172D01*
X156875936Y-101074808D01*
X156739295Y-100937928D01*
X156559101Y-100863105D01*
X156490609Y-100817340D01*
X156410521Y-100801410D01*
X156231903Y-100727241D01*
X156036792Y-100727071D01*
X155956000Y-100711000D01*
X155875914Y-100726930D01*
X155682507Y-100726761D01*
X155502183Y-100801269D01*
X155421391Y-100817340D01*
X155353496Y-100862706D01*
X155174749Y-100936563D01*
X155036664Y-101074407D01*
X154968172Y-101120172D01*
X154922808Y-101188064D01*
X154785928Y-101324705D01*
X154711105Y-101504899D01*
X154665340Y-101573391D01*
X154649410Y-101653479D01*
X154575241Y-101832097D01*
X154575071Y-102027208D01*
X154559000Y-102108000D01*
X154559000Y-102362000D01*
X154665340Y-102896609D01*
X154968172Y-103349828D01*
X157965140Y-106346796D01*
X157965140Y-108105536D01*
X157612140Y-108105536D01*
X157470950Y-108132103D01*
X157341275Y-108215546D01*
X157254281Y-108342866D01*
X157223676Y-108494000D01*
X157223676Y-112994000D01*
X157250243Y-113135190D01*
X157333686Y-113264865D01*
X157461006Y-113351859D01*
X157612140Y-113382464D01*
X158346140Y-113382464D01*
X158346140Y-119617019D01*
X157694160Y-120269000D01*
X150239932Y-120269000D01*
X150129000Y-120246536D01*
X148829000Y-120246536D01*
X148687810Y-120273103D01*
X148558135Y-120356546D01*
X148471141Y-120483866D01*
X148440536Y-120635000D01*
X148440536Y-121935000D01*
X148463000Y-122054385D01*
X148463000Y-124222433D01*
X148448810Y-124225103D01*
X148319135Y-124308546D01*
X148232141Y-124435866D01*
X148201536Y-124587000D01*
X148201536Y-126619000D01*
X148228103Y-126760190D01*
X148311546Y-126889865D01*
X148438866Y-126976859D01*
X148590000Y-127007464D01*
X148811863Y-127007464D01*
X148590803Y-127155172D01*
X148287971Y-127608391D01*
X148181631Y-128143000D01*
X145415000Y-128143000D01*
X145415000Y-91059000D01*
X157988000Y-91059000D01*
X157453391Y-91165340D01*
X157453391Y-91165340D01*
G37*
X157453391Y-91165340D02*
X157000172Y-91468172D01*
X149888172Y-98580172D01*
X149585340Y-99033391D01*
X149479000Y-99568000D01*
X149479000Y-102108000D01*
X149494930Y-102188086D01*
X149494761Y-102381493D01*
X149569269Y-102561817D01*
X149585340Y-102642609D01*
X149630706Y-102710504D01*
X149704563Y-102889251D01*
X149842407Y-103027336D01*
X149888172Y-103095828D01*
X149956064Y-103141192D01*
X150092705Y-103278072D01*
X150272899Y-103352895D01*
X150341391Y-103398660D01*
X150421479Y-103414590D01*
X150600097Y-103488759D01*
X150795208Y-103488929D01*
X150876000Y-103505000D01*
X150956086Y-103489070D01*
X151149493Y-103489239D01*
X151329817Y-103414731D01*
X151410609Y-103398660D01*
X151478504Y-103353294D01*
X151657251Y-103279437D01*
X151795336Y-103141593D01*
X151863828Y-103095828D01*
X151909192Y-103027936D01*
X152046072Y-102891295D01*
X152120895Y-102711101D01*
X152166660Y-102642609D01*
X152182590Y-102562521D01*
X152256759Y-102383903D01*
X152256929Y-102188792D01*
X152273000Y-102108000D01*
X152273000Y-100146656D01*
X158566656Y-93853000D01*
X164403369Y-93853000D01*
X164580000Y-94029631D01*
X164580000Y-96774000D01*
X164592000Y-96834328D01*
X164592000Y-98330664D01*
X164473935Y-98409552D01*
X164204140Y-98813329D01*
X164109400Y-99289617D01*
X164109400Y-99338383D01*
X164204140Y-99814671D01*
X164473935Y-100218448D01*
X164877712Y-100488243D01*
X165354000Y-100582983D01*
X165830288Y-100488243D01*
X166234065Y-100218448D01*
X166503860Y-99814671D01*
X166598600Y-99338383D01*
X166598600Y-99289617D01*
X166503860Y-98813329D01*
X166234065Y-98409552D01*
X166116000Y-98330664D01*
X166116000Y-96786000D01*
X166104000Y-96725672D01*
X166104000Y-93853000D01*
X172372776Y-93853000D01*
X172443536Y-93923760D01*
X172443536Y-94904000D01*
X172470103Y-95045190D01*
X172553546Y-95174865D01*
X172680866Y-95261859D01*
X172832000Y-95292464D01*
X173722438Y-95292464D01*
X174148940Y-95718966D01*
X174132000Y-95715536D01*
X172832000Y-95715536D01*
X172690810Y-95742103D01*
X172561135Y-95825546D01*
X172474141Y-95952866D01*
X172443536Y-96104000D01*
X172443536Y-97174043D01*
X171250500Y-98367079D01*
X170910288Y-98139757D01*
X170434000Y-98045017D01*
X169957712Y-98139757D01*
X169553935Y-98409552D01*
X169284140Y-98813329D01*
X169189400Y-99289617D01*
X169189400Y-99338383D01*
X169284140Y-99814671D01*
X169405300Y-99996000D01*
X169294420Y-99996000D01*
X169055346Y-99756926D01*
X169138600Y-99338383D01*
X169138600Y-99289617D01*
X169043860Y-98813329D01*
X168774065Y-98409552D01*
X168370288Y-98139757D01*
X167894000Y-98045017D01*
X167417712Y-98139757D01*
X167013935Y-98409552D01*
X166744140Y-98813329D01*
X166649400Y-99289617D01*
X166649400Y-99338383D01*
X166744140Y-99814671D01*
X167013935Y-100218448D01*
X167417712Y-100488243D01*
X167894000Y-100582983D01*
X168353218Y-100491638D01*
X168724790Y-100863210D01*
X168889596Y-100973331D01*
X169084000Y-101012000D01*
X169512209Y-101012000D01*
X169284140Y-101353329D01*
X169189400Y-101829617D01*
X169189400Y-101878383D01*
X169284140Y-102354671D01*
X169553935Y-102758448D01*
X169608500Y-102794907D01*
X169608500Y-104975653D01*
X169572141Y-105028866D01*
X169541536Y-105180000D01*
X169541536Y-105580000D01*
X169565920Y-105709588D01*
X169541536Y-105830000D01*
X169541536Y-106230000D01*
X169568103Y-106371190D01*
X169651546Y-106500865D01*
X169778866Y-106587859D01*
X169930000Y-106618464D01*
X170430000Y-106618464D01*
X170520155Y-106601500D01*
X176163995Y-106601500D01*
X176164000Y-106601501D01*
X176346418Y-106565215D01*
X176382704Y-106557997D01*
X176568112Y-106434112D01*
X177846224Y-105156000D01*
X180849017Y-105156000D01*
X180943757Y-105632288D01*
X181213552Y-106036065D01*
X181617329Y-106305860D01*
X182093617Y-106400600D01*
X182142383Y-106400600D01*
X182618671Y-106305860D01*
X183022448Y-106036065D01*
X183292243Y-105632288D01*
X183386983Y-105156000D01*
X183292243Y-104679712D01*
X183022448Y-104275935D01*
X182618671Y-104006140D01*
X182142383Y-103911400D01*
X182093617Y-103911400D01*
X181617329Y-104006140D01*
X181213552Y-104275935D01*
X180943757Y-104679712D01*
X180849017Y-105156000D01*
X177846224Y-105156000D01*
X179209978Y-103792246D01*
X179553617Y-103860600D01*
X179602383Y-103860600D01*
X180078671Y-103765860D01*
X180482448Y-103496065D01*
X180752243Y-103092288D01*
X180846983Y-102616000D01*
X180849017Y-102616000D01*
X180943757Y-103092288D01*
X181213552Y-103496065D01*
X181617329Y-103765860D01*
X182093617Y-103860600D01*
X182142383Y-103860600D01*
X182618671Y-103765860D01*
X183022448Y-103496065D01*
X183292243Y-103092288D01*
X183386983Y-102616000D01*
X183292243Y-102139712D01*
X183022448Y-101735935D01*
X182618671Y-101466140D01*
X182142383Y-101371400D01*
X182093617Y-101371400D01*
X181617329Y-101466140D01*
X181213552Y-101735935D01*
X180943757Y-102139712D01*
X180849017Y-102616000D01*
X180846983Y-102616000D01*
X180752243Y-102139712D01*
X180482448Y-101735935D01*
X180078671Y-101466140D01*
X179602383Y-101371400D01*
X179553617Y-101371400D01*
X179077329Y-101466140D01*
X178673552Y-101735935D01*
X178403757Y-102139712D01*
X178309017Y-102616000D01*
X178385462Y-103000315D01*
X175927276Y-105458500D01*
X170818464Y-105458500D01*
X170818464Y-105180000D01*
X170791897Y-105038810D01*
X170751500Y-104976031D01*
X170751500Y-103059828D01*
X170910288Y-103028243D01*
X171314065Y-102758448D01*
X171583860Y-102354671D01*
X171678600Y-101878383D01*
X171678600Y-101829617D01*
X171583860Y-101353329D01*
X171355791Y-101012000D01*
X172443536Y-101012000D01*
X172443536Y-101254000D01*
X172470103Y-101395190D01*
X172553546Y-101524865D01*
X172680866Y-101611859D01*
X172832000Y-101642464D01*
X173675010Y-101642464D01*
X173647226Y-101709376D01*
X173647095Y-101859485D01*
X173441044Y-102065536D01*
X172832000Y-102065536D01*
X172690810Y-102092103D01*
X172561135Y-102175546D01*
X172474141Y-102302866D01*
X172443536Y-102454000D01*
X172443536Y-103954000D01*
X172470103Y-104095190D01*
X172553546Y-104224865D01*
X172680866Y-104311859D01*
X172832000Y-104342464D01*
X174132000Y-104342464D01*
X174273190Y-104315897D01*
X174402865Y-104232454D01*
X174489859Y-104105134D01*
X174520464Y-103954000D01*
X174520464Y-102575503D01*
X174780521Y-102468050D01*
X174984335Y-102264592D01*
X175094774Y-101998624D01*
X175095025Y-101710639D01*
X174985050Y-101444479D01*
X174781592Y-101240665D01*
X174520464Y-101132236D01*
X174520464Y-100838000D01*
X175025562Y-100838000D01*
X175027103Y-100846190D01*
X175110546Y-100975865D01*
X175237866Y-101062859D01*
X175389000Y-101093464D01*
X175639000Y-101093464D01*
X175780190Y-101066897D01*
X175909865Y-100983454D01*
X175996859Y-100856134D01*
X176006000Y-100810994D01*
X176006000Y-101342000D01*
X176044669Y-101536403D01*
X176154790Y-101701210D01*
X176237536Y-101783956D01*
X176237536Y-102229000D01*
X176264103Y-102370190D01*
X176347546Y-102499865D01*
X176474866Y-102586859D01*
X176626000Y-102617464D01*
X177426000Y-102617464D01*
X177567190Y-102590897D01*
X177696865Y-102507454D01*
X177783859Y-102380134D01*
X177814464Y-102229000D01*
X177814464Y-101479000D01*
X177787897Y-101337810D01*
X177704454Y-101208135D01*
X177577134Y-101121141D01*
X177426000Y-101090536D01*
X177154561Y-101090536D01*
X177280190Y-101066897D01*
X177409865Y-100983454D01*
X177496859Y-100856134D01*
X177527464Y-100705000D01*
X177527464Y-100304956D01*
X177756420Y-100076000D01*
X178309017Y-100076000D01*
X178403757Y-100552288D01*
X178673552Y-100956065D01*
X179077329Y-101225860D01*
X179553617Y-101320600D01*
X179602383Y-101320600D01*
X180078671Y-101225860D01*
X180482448Y-100956065D01*
X180752243Y-100552288D01*
X180846983Y-100076000D01*
X180752243Y-99599712D01*
X180482448Y-99195935D01*
X180078671Y-98926140D01*
X179602383Y-98831400D01*
X179553617Y-98831400D01*
X179077329Y-98926140D01*
X178673552Y-99195935D01*
X178403757Y-99599712D01*
X178309017Y-100076000D01*
X177756420Y-100076000D01*
X179135074Y-98697346D01*
X179553617Y-98780600D01*
X179602383Y-98780600D01*
X180078671Y-98685860D01*
X180482448Y-98416065D01*
X180752243Y-98012288D01*
X180783991Y-97852679D01*
X180827340Y-98070609D01*
X181130172Y-98523828D01*
X181583391Y-98826660D01*
X182118000Y-98933000D01*
X182652609Y-98826660D01*
X183105828Y-98523828D01*
X183408660Y-98070609D01*
X183515000Y-97536000D01*
X183515000Y-93472000D01*
X183408660Y-92937391D01*
X183105828Y-92484172D01*
X182089828Y-91468172D01*
X181636609Y-91165340D01*
X181102000Y-91059000D01*
X183769000Y-91059000D01*
X183769000Y-145669000D01*
X145415000Y-145669000D01*
X145415000Y-141281000D01*
X153046536Y-141281000D01*
X153046536Y-142481000D01*
X153073103Y-142622190D01*
X153156546Y-142751865D01*
X153283866Y-142838859D01*
X153435000Y-142869464D01*
X154125438Y-142869464D01*
X156484987Y-145229013D01*
X156690996Y-145366664D01*
X156934000Y-145415000D01*
X180086000Y-145415000D01*
X180329004Y-145366664D01*
X180535013Y-145229013D01*
X181461972Y-144302054D01*
X181617329Y-144405860D01*
X182093617Y-144500600D01*
X182142383Y-144500600D01*
X182618671Y-144405860D01*
X183022448Y-144136065D01*
X183292243Y-143732288D01*
X183386983Y-143256000D01*
X183292243Y-142779712D01*
X183022448Y-142375935D01*
X182618671Y-142106140D01*
X182142383Y-142011400D01*
X182093617Y-142011400D01*
X181617329Y-142106140D01*
X181213552Y-142375935D01*
X180943757Y-142779712D01*
X180883045Y-143084930D01*
X179822974Y-144145000D01*
X157197026Y-144145000D01*
X155023464Y-141971438D01*
X155023464Y-141281000D01*
X154996897Y-141139810D01*
X154913454Y-141010135D01*
X154786134Y-140923141D01*
X154635000Y-140892536D01*
X153435000Y-140892536D01*
X153293810Y-140919103D01*
X153164135Y-141002546D01*
X153077141Y-141129866D01*
X153046536Y-141281000D01*
X145415000Y-141281000D01*
X145415000Y-135240000D01*
X151308536Y-135240000D01*
X151308536Y-136540000D01*
X151335103Y-136681190D01*
X151418546Y-136810865D01*
X151545866Y-136897859D01*
X151697000Y-136928464D01*
X152400000Y-136928464D01*
X152400000Y-137692536D01*
X152235000Y-137692536D01*
X152093810Y-137719103D01*
X151964135Y-137802546D01*
X151877141Y-137929866D01*
X151846536Y-138081000D01*
X151846536Y-139581000D01*
X151873103Y-139722190D01*
X151956546Y-139851865D01*
X152083866Y-139938859D01*
X152235000Y-139969464D01*
X153835000Y-139969464D01*
X153976190Y-139942897D01*
X154105865Y-139859454D01*
X154192859Y-139732134D01*
X154223464Y-139581000D01*
X154223464Y-139190031D01*
X155981400Y-139190031D01*
X155981400Y-139549569D01*
X156076140Y-140025857D01*
X156345935Y-140429634D01*
X156749712Y-140699429D01*
X157226000Y-140794169D01*
X157702288Y-140699429D01*
X158106065Y-140429634D01*
X158375860Y-140025857D01*
X158470600Y-139549569D01*
X158470600Y-139190031D01*
X158521400Y-139190031D01*
X158521400Y-139549569D01*
X158616140Y-140025857D01*
X158885935Y-140429634D01*
X159289712Y-140699429D01*
X159766000Y-140794169D01*
X160242288Y-140699429D01*
X160646065Y-140429634D01*
X160915860Y-140025857D01*
X161010600Y-139549569D01*
X161010600Y-139190031D01*
X161061400Y-139190031D01*
X161061400Y-139549569D01*
X161156140Y-140025857D01*
X161425935Y-140429634D01*
X161829712Y-140699429D01*
X162306000Y-140794169D01*
X162782288Y-140699429D01*
X163186065Y-140429634D01*
X163455860Y-140025857D01*
X163550600Y-139549569D01*
X163550600Y-139190031D01*
X163455860Y-138713743D01*
X163215354Y-138353800D01*
X163593936Y-138353800D01*
X163593936Y-140385800D01*
X163620503Y-140526990D01*
X163703946Y-140656665D01*
X163831266Y-140743659D01*
X163982400Y-140774264D01*
X165709600Y-140774264D01*
X165850790Y-140747697D01*
X165980465Y-140664254D01*
X166067459Y-140536934D01*
X166098064Y-140385800D01*
X166098064Y-138353800D01*
X166071497Y-138212610D01*
X165988054Y-138082935D01*
X165860734Y-137995941D01*
X165709600Y-137965336D01*
X163982400Y-137965336D01*
X163841210Y-137991903D01*
X163711535Y-138075346D01*
X163624541Y-138202666D01*
X163593936Y-138353800D01*
X163215354Y-138353800D01*
X163186065Y-138309966D01*
X162782288Y-138040171D01*
X162306000Y-137945431D01*
X161829712Y-138040171D01*
X161425935Y-138309966D01*
X161156140Y-138713743D01*
X161061400Y-139190031D01*
X161010600Y-139190031D01*
X160915860Y-138713743D01*
X160646065Y-138309966D01*
X160242288Y-138040171D01*
X159766000Y-137945431D01*
X159289712Y-138040171D01*
X158885935Y-138309966D01*
X158616140Y-138713743D01*
X158521400Y-139190031D01*
X158470600Y-139190031D01*
X158375860Y-138713743D01*
X158106065Y-138309966D01*
X157702288Y-138040171D01*
X157226000Y-137945431D01*
X156749712Y-138040171D01*
X156345935Y-138309966D01*
X156076140Y-138713743D01*
X155981400Y-139190031D01*
X154223464Y-139190031D01*
X154223464Y-138081000D01*
X154196897Y-137939810D01*
X154113454Y-137810135D01*
X153986134Y-137723141D01*
X153835000Y-137692536D01*
X153670000Y-137692536D01*
X153670000Y-136478005D01*
X153670001Y-136478000D01*
X153621664Y-136234996D01*
X153585464Y-136180819D01*
X153585464Y-135240000D01*
X153558897Y-135098810D01*
X153475454Y-134969135D01*
X153348134Y-134882141D01*
X153197000Y-134851536D01*
X151697000Y-134851536D01*
X151555810Y-134878103D01*
X151426135Y-134961546D01*
X151339141Y-135088866D01*
X151308536Y-135240000D01*
X145415000Y-135240000D01*
X145415000Y-128143000D01*
X148181631Y-128143000D01*
X148287971Y-128677609D01*
X148590803Y-129130828D01*
X149044022Y-129433660D01*
X149578631Y-129540000D01*
X149633369Y-129540000D01*
X149876924Y-129491554D01*
X152458420Y-132073051D01*
X152458420Y-132530159D01*
X152521644Y-132848008D01*
X152701691Y-133117468D01*
X152971151Y-133297515D01*
X153289000Y-133360739D01*
X153606849Y-133297515D01*
X153876309Y-133117468D01*
X153924000Y-133046093D01*
X153924000Y-135302000D01*
X153972336Y-135545004D01*
X154008536Y-135599181D01*
X154008536Y-136540000D01*
X154035103Y-136681190D01*
X154118546Y-136810865D01*
X154245866Y-136897859D01*
X154397000Y-136928464D01*
X155897000Y-136928464D01*
X156038190Y-136901897D01*
X156167865Y-136818454D01*
X156254859Y-136691134D01*
X156285464Y-136540000D01*
X156285464Y-135240000D01*
X156258897Y-135098810D01*
X156175454Y-134969135D01*
X156048134Y-134882141D01*
X155897000Y-134851536D01*
X155194000Y-134851536D01*
X155194000Y-133046093D01*
X155326356Y-132848008D01*
X155389580Y-132530159D01*
X155389580Y-131883841D01*
X155326356Y-131565992D01*
X155146309Y-131296532D01*
X154876849Y-131116485D01*
X154559000Y-131053261D01*
X154241151Y-131116485D01*
X153971691Y-131296532D01*
X153924000Y-131367907D01*
X153876309Y-131296532D01*
X153758336Y-131217705D01*
X151267830Y-128727200D01*
X151942612Y-128727200D01*
X152020266Y-128780259D01*
X152171400Y-128810864D01*
X153390600Y-128810864D01*
X153531790Y-128784297D01*
X153661465Y-128700854D01*
X153748459Y-128573534D01*
X153779064Y-128422400D01*
X153779064Y-127508000D01*
X153752497Y-127366810D01*
X153669054Y-127237135D01*
X153541734Y-127150141D01*
X153390600Y-127119536D01*
X152171400Y-127119536D01*
X152030210Y-127146103D01*
X151941478Y-127203200D01*
X150653288Y-127203200D01*
X150621197Y-127155172D01*
X150400137Y-127007464D01*
X150622000Y-127007464D01*
X150763190Y-126980897D01*
X150892865Y-126897454D01*
X150979859Y-126770134D01*
X151010464Y-126619000D01*
X151010464Y-126365000D01*
X151942612Y-126365000D01*
X152020266Y-126418059D01*
X152171400Y-126448664D01*
X153390600Y-126448664D01*
X153531790Y-126422097D01*
X153661465Y-126338654D01*
X153748459Y-126211334D01*
X153779064Y-126060200D01*
X153779064Y-125145800D01*
X153752497Y-125004610D01*
X153669054Y-124874935D01*
X153541734Y-124787941D01*
X153390600Y-124757336D01*
X152171400Y-124757336D01*
X152030210Y-124783903D01*
X151941478Y-124841000D01*
X151010464Y-124841000D01*
X151010464Y-124587000D01*
X150983897Y-124445810D01*
X150900454Y-124316135D01*
X150773134Y-124229141D01*
X150622000Y-124198536D01*
X150495000Y-124198536D01*
X150495000Y-122301000D01*
X158115000Y-122301000D01*
X158346140Y-122255024D01*
X158346140Y-125453140D01*
X158346536Y-125455131D01*
X158346536Y-126126000D01*
X158369000Y-126245385D01*
X158369000Y-127762000D01*
X158425431Y-128045697D01*
X158446338Y-128150807D01*
X158666580Y-128480420D01*
X159893000Y-129706841D01*
X159893000Y-133908800D01*
X159951004Y-134200405D01*
X160040894Y-134334934D01*
X160116185Y-134447615D01*
X160509185Y-134840615D01*
X160756395Y-135005796D01*
X161048000Y-135063800D01*
X161419315Y-135063800D01*
X161550000Y-135090264D01*
X162300000Y-135090264D01*
X162440643Y-135063800D01*
X166429638Y-135063800D01*
X166469793Y-135071787D01*
X166264790Y-135276790D01*
X166154669Y-135441597D01*
X166116000Y-135636000D01*
X166116000Y-136652000D01*
X166154669Y-136846403D01*
X166264790Y-137011210D01*
X167387330Y-138133750D01*
X167314141Y-138240866D01*
X167283536Y-138392000D01*
X167283536Y-139992000D01*
X167310103Y-140133190D01*
X167393546Y-140262865D01*
X167520866Y-140349859D01*
X167672000Y-140380464D01*
X169172000Y-140380464D01*
X169313190Y-140353897D01*
X169442865Y-140270454D01*
X169529859Y-140143134D01*
X169560464Y-139992000D01*
X169560464Y-138392000D01*
X169533897Y-138250810D01*
X169450454Y-138121135D01*
X169323134Y-138034141D01*
X169172000Y-138003536D01*
X168693956Y-138003536D01*
X168282420Y-137592000D01*
X170483536Y-137592000D01*
X170483536Y-138792000D01*
X170510103Y-138933190D01*
X170593546Y-139062865D01*
X170720866Y-139149859D01*
X170872000Y-139180464D01*
X172072000Y-139180464D01*
X172213190Y-139153897D01*
X172342865Y-139070454D01*
X172429859Y-138943134D01*
X172460464Y-138792000D01*
X172460464Y-138442000D01*
X172738858Y-138442000D01*
X172745103Y-138475190D01*
X172828546Y-138604865D01*
X172955866Y-138691859D01*
X173107000Y-138722464D01*
X173857000Y-138722464D01*
X173998190Y-138695897D01*
X174127865Y-138612454D01*
X174214859Y-138485134D01*
X174245464Y-138334000D01*
X174245464Y-137534000D01*
X174218897Y-137392810D01*
X174135454Y-137263135D01*
X174008134Y-137176141D01*
X174002000Y-137174899D01*
X174002000Y-136522264D01*
X174269000Y-136522264D01*
X174410190Y-136495697D01*
X174539865Y-136412254D01*
X174626859Y-136284934D01*
X174657464Y-136133800D01*
X174657464Y-136005884D01*
X175260000Y-136608420D01*
X175260000Y-137160000D01*
X175298669Y-137354403D01*
X175408790Y-137519210D01*
X178358220Y-140468641D01*
X178309017Y-140716000D01*
X178403757Y-141192288D01*
X178673552Y-141596065D01*
X179077329Y-141865860D01*
X179553617Y-141960600D01*
X179602383Y-141960600D01*
X180078671Y-141865860D01*
X180482448Y-141596065D01*
X180752243Y-141192288D01*
X180846983Y-140716000D01*
X180752243Y-140239712D01*
X180561336Y-139954000D01*
X180637580Y-139954000D01*
X180940362Y-140256782D01*
X180849017Y-140716000D01*
X180943757Y-141192288D01*
X181213552Y-141596065D01*
X181617329Y-141865860D01*
X182093617Y-141960600D01*
X182142383Y-141960600D01*
X182618671Y-141865860D01*
X183022448Y-141596065D01*
X183292243Y-141192288D01*
X183386983Y-140716000D01*
X183292243Y-140239712D01*
X183022448Y-139835935D01*
X182618671Y-139566140D01*
X182142383Y-139471400D01*
X182093617Y-139471400D01*
X181675074Y-139554654D01*
X181207210Y-139086790D01*
X181042403Y-138976669D01*
X180848000Y-138938000D01*
X180561336Y-138938000D01*
X180752243Y-138652288D01*
X180846983Y-138176000D01*
X180752243Y-137699712D01*
X180561336Y-137414000D01*
X180637580Y-137414000D01*
X180940362Y-137716782D01*
X180849017Y-138176000D01*
X180943757Y-138652288D01*
X181213552Y-139056065D01*
X181617329Y-139325860D01*
X182093617Y-139420600D01*
X182142383Y-139420600D01*
X182618671Y-139325860D01*
X183022448Y-139056065D01*
X183292243Y-138652288D01*
X183386983Y-138176000D01*
X183292243Y-137699712D01*
X183022448Y-137295935D01*
X182618671Y-137026140D01*
X182142383Y-136931400D01*
X182093617Y-136931400D01*
X181675074Y-137014654D01*
X181207210Y-136546790D01*
X181042403Y-136436669D01*
X180848000Y-136398000D01*
X180561336Y-136398000D01*
X180752243Y-136112288D01*
X180846983Y-135636000D01*
X180752243Y-135159712D01*
X180482448Y-134755935D01*
X180078671Y-134486140D01*
X179602383Y-134391400D01*
X179553617Y-134391400D01*
X179077329Y-134486140D01*
X178814306Y-134661886D01*
X177756420Y-133604000D01*
X178424946Y-133604000D01*
X178673552Y-133976065D01*
X179077329Y-134245860D01*
X179553617Y-134340600D01*
X179602383Y-134340600D01*
X180078671Y-134245860D01*
X180482448Y-133976065D01*
X180752243Y-133572288D01*
X180846983Y-133096000D01*
X180752243Y-132619712D01*
X180561336Y-132334000D01*
X180637580Y-132334000D01*
X180940362Y-132636782D01*
X180849017Y-133096000D01*
X180943757Y-133572288D01*
X181213552Y-133976065D01*
X181617329Y-134245860D01*
X182093617Y-134340600D01*
X182142383Y-134340600D01*
X182618671Y-134245860D01*
X183022448Y-133976065D01*
X183292243Y-133572288D01*
X183386983Y-133096000D01*
X183292243Y-132619712D01*
X183022448Y-132215935D01*
X182618671Y-131946140D01*
X182142383Y-131851400D01*
X182093617Y-131851400D01*
X181675074Y-131934654D01*
X181207210Y-131466790D01*
X181042403Y-131356669D01*
X180848000Y-131318000D01*
X180561336Y-131318000D01*
X180752243Y-131032288D01*
X180846983Y-130556000D01*
X180752243Y-130079712D01*
X180482448Y-129675935D01*
X180440837Y-129648132D01*
X180445210Y-129645210D01*
X181205863Y-128884557D01*
X181213552Y-128896065D01*
X181617329Y-129165860D01*
X182093617Y-129260600D01*
X182142383Y-129260600D01*
X182618671Y-129165860D01*
X183022448Y-128896065D01*
X183292243Y-128492288D01*
X183386983Y-128016000D01*
X183292243Y-127539712D01*
X183022448Y-127135935D01*
X182618671Y-126866140D01*
X182142383Y-126771400D01*
X182093617Y-126771400D01*
X181617329Y-126866140D01*
X181356000Y-127040754D01*
X181356000Y-126956420D01*
X181675074Y-126637346D01*
X182093617Y-126720600D01*
X182142383Y-126720600D01*
X182618671Y-126625860D01*
X183022448Y-126356065D01*
X183292243Y-125952288D01*
X183386983Y-125476000D01*
X183292243Y-124999712D01*
X183022448Y-124595935D01*
X182618671Y-124326140D01*
X182142383Y-124231400D01*
X182093617Y-124231400D01*
X181617329Y-124326140D01*
X181213552Y-124595935D01*
X180943757Y-124999712D01*
X180849017Y-125476000D01*
X180940362Y-125935218D01*
X180488790Y-126386790D01*
X180378669Y-126551597D01*
X180340000Y-126746000D01*
X180340000Y-127040754D01*
X180078671Y-126866140D01*
X179602383Y-126771400D01*
X179553617Y-126771400D01*
X179077329Y-126866140D01*
X178673552Y-127135935D01*
X178403757Y-127539712D01*
X178309017Y-128016000D01*
X178403757Y-128492288D01*
X178620840Y-128817175D01*
X178456790Y-128926790D01*
X178382780Y-129000800D01*
X176517620Y-129000800D01*
X178667210Y-126851210D01*
X178777331Y-126686403D01*
X178816000Y-126492000D01*
X178816000Y-125178420D01*
X179280420Y-124714000D01*
X180848000Y-124714000D01*
X181042403Y-124675331D01*
X181207210Y-124565210D01*
X181675074Y-124097346D01*
X182093617Y-124180600D01*
X182142383Y-124180600D01*
X182618671Y-124085860D01*
X183022448Y-123816065D01*
X183292243Y-123412288D01*
X183386983Y-122936000D01*
X183292243Y-122459712D01*
X183022448Y-122055935D01*
X182618671Y-121786140D01*
X182142383Y-121691400D01*
X182093617Y-121691400D01*
X181617329Y-121786140D01*
X181213552Y-122055935D01*
X180943757Y-122459712D01*
X180849017Y-122936000D01*
X180940362Y-123395218D01*
X180637580Y-123698000D01*
X180561336Y-123698000D01*
X180752243Y-123412288D01*
X180846983Y-122936000D01*
X180752243Y-122459712D01*
X180482448Y-122055935D01*
X180078671Y-121786140D01*
X179602383Y-121691400D01*
X179553617Y-121691400D01*
X179077329Y-121786140D01*
X178673552Y-122055935D01*
X178403757Y-122459712D01*
X178309017Y-122936000D01*
X178358220Y-123183360D01*
X177186790Y-124354790D01*
X177076669Y-124519597D01*
X177038000Y-124714000D01*
X177038000Y-126027580D01*
X175364780Y-127700800D01*
X174295982Y-127700800D01*
X174269000Y-127695336D01*
X172719000Y-127695336D01*
X172577810Y-127721903D01*
X172448135Y-127805346D01*
X172361141Y-127932666D01*
X172330536Y-128083800D01*
X172330536Y-128333800D01*
X172357103Y-128474990D01*
X172394744Y-128533486D01*
X172361141Y-128582666D01*
X172330536Y-128733800D01*
X172330536Y-128983800D01*
X172357103Y-129124990D01*
X172394744Y-129183486D01*
X172361141Y-129232666D01*
X172330536Y-129383800D01*
X172330536Y-129633800D01*
X172357103Y-129774990D01*
X172394744Y-129833486D01*
X172361141Y-129882666D01*
X172330536Y-130033800D01*
X172330536Y-130283800D01*
X172357103Y-130424990D01*
X172394744Y-130483486D01*
X172361141Y-130532666D01*
X172330536Y-130683800D01*
X172330536Y-130933800D01*
X172357103Y-131074990D01*
X172394744Y-131133486D01*
X172361141Y-131182666D01*
X172330536Y-131333800D01*
X172330536Y-131583800D01*
X172357103Y-131724990D01*
X172394744Y-131783486D01*
X172361141Y-131832666D01*
X172330536Y-131983800D01*
X172330536Y-132233800D01*
X172357103Y-132374990D01*
X172394744Y-132433486D01*
X172361141Y-132482666D01*
X172330536Y-132633800D01*
X172330536Y-132883800D01*
X172357103Y-133024990D01*
X172394744Y-133083486D01*
X172361141Y-133132666D01*
X172330536Y-133283800D01*
X172330536Y-133533800D01*
X172357103Y-133674990D01*
X172394744Y-133733486D01*
X172361141Y-133782666D01*
X172330536Y-133933800D01*
X172330536Y-134183800D01*
X172357103Y-134324990D01*
X172394744Y-134383486D01*
X172361141Y-134432666D01*
X172330536Y-134583800D01*
X172330536Y-134833800D01*
X172357103Y-134974990D01*
X172394744Y-135033486D01*
X172361141Y-135082666D01*
X172330536Y-135233800D01*
X172330536Y-135483800D01*
X172357103Y-135624990D01*
X172394744Y-135683486D01*
X172361141Y-135732666D01*
X172330536Y-135883800D01*
X172330536Y-136133800D01*
X172357103Y-136274990D01*
X172440546Y-136404665D01*
X172567866Y-136491659D01*
X172719000Y-136522264D01*
X172986000Y-136522264D01*
X172986000Y-137168304D01*
X172965810Y-137172103D01*
X172836135Y-137255546D01*
X172749141Y-137382866D01*
X172740406Y-137426000D01*
X172417932Y-137426000D01*
X172350454Y-137321135D01*
X172223134Y-137234141D01*
X172072000Y-137203536D01*
X170872000Y-137203536D01*
X170730810Y-137230103D01*
X170601135Y-137313546D01*
X170514141Y-137440866D01*
X170483536Y-137592000D01*
X168282420Y-137592000D01*
X167132000Y-136441580D01*
X167132000Y-135872264D01*
X168669000Y-135872264D01*
X168810190Y-135845697D01*
X168939865Y-135762254D01*
X168951686Y-135744954D01*
X168992010Y-135718010D01*
X169102131Y-135553203D01*
X169140800Y-135358800D01*
X169102131Y-135164397D01*
X169004289Y-135017967D01*
X169026859Y-134984934D01*
X169057464Y-134833800D01*
X169057464Y-134583800D01*
X169030897Y-134442610D01*
X168993256Y-134384114D01*
X169026859Y-134334934D01*
X169057464Y-134183800D01*
X169057464Y-133933800D01*
X169030897Y-133792610D01*
X168993256Y-133734114D01*
X169026859Y-133684934D01*
X169057464Y-133533800D01*
X169057464Y-133283800D01*
X169030897Y-133142610D01*
X168993256Y-133084114D01*
X169026859Y-133034934D01*
X169057464Y-132883800D01*
X169057464Y-132633800D01*
X169030897Y-132492610D01*
X168993256Y-132434114D01*
X169026859Y-132384934D01*
X169057464Y-132233800D01*
X169057464Y-131983800D01*
X169030897Y-131842610D01*
X168993256Y-131784114D01*
X169026859Y-131734934D01*
X169057464Y-131583800D01*
X169057464Y-131333800D01*
X169030897Y-131192610D01*
X168993256Y-131134114D01*
X169026859Y-131084934D01*
X169057464Y-130933800D01*
X169057464Y-130683800D01*
X169030897Y-130542610D01*
X168993256Y-130484114D01*
X169026859Y-130434934D01*
X169057464Y-130283800D01*
X169057464Y-130033800D01*
X169030897Y-129892610D01*
X168993256Y-129834114D01*
X169026859Y-129784934D01*
X169057464Y-129633800D01*
X169057464Y-129383800D01*
X169030897Y-129242610D01*
X168993256Y-129184114D01*
X169026859Y-129134934D01*
X169057464Y-128983800D01*
X169057464Y-128733800D01*
X169030897Y-128592610D01*
X168993256Y-128534114D01*
X169026859Y-128484934D01*
X169057464Y-128333800D01*
X169057464Y-128083800D01*
X169030897Y-127942610D01*
X168993256Y-127884114D01*
X169026859Y-127834934D01*
X169057464Y-127683800D01*
X169057464Y-127433800D01*
X169030897Y-127292610D01*
X168947454Y-127162935D01*
X168820134Y-127075941D01*
X168669000Y-127045336D01*
X167959956Y-127045336D01*
X167006464Y-126091844D01*
X167006464Y-125646800D01*
X166979897Y-125505610D01*
X166896454Y-125375935D01*
X166769134Y-125288941D01*
X166618000Y-125258336D01*
X165868000Y-125258336D01*
X165726810Y-125284903D01*
X165597135Y-125368346D01*
X165510141Y-125495666D01*
X165479536Y-125646800D01*
X165479536Y-126446800D01*
X165506103Y-126587990D01*
X165589546Y-126717665D01*
X165706798Y-126797780D01*
X165597135Y-126868346D01*
X165532595Y-126962804D01*
X165499134Y-126939941D01*
X165348000Y-126909336D01*
X164598000Y-126909336D01*
X164456810Y-126935903D01*
X164327135Y-127019346D01*
X164240141Y-127146666D01*
X164231406Y-127189800D01*
X164185732Y-127189800D01*
X164177454Y-127176935D01*
X164050134Y-127089941D01*
X163899000Y-127059336D01*
X162999000Y-127059336D01*
X162857810Y-127085903D01*
X162728135Y-127169346D01*
X162641141Y-127296666D01*
X162610536Y-127447800D01*
X162610536Y-127947800D01*
X162637103Y-128088990D01*
X162720546Y-128218665D01*
X162847866Y-128305659D01*
X162999000Y-128336264D01*
X163899000Y-128336264D01*
X164040190Y-128309697D01*
X164169865Y-128226254D01*
X164183841Y-128205800D01*
X164229858Y-128205800D01*
X164236103Y-128238990D01*
X164319546Y-128368665D01*
X164417801Y-128435800D01*
X162430685Y-128435800D01*
X162300000Y-128409336D01*
X161550000Y-128409336D01*
X161449978Y-128428157D01*
X161373420Y-128313579D01*
X160401000Y-127341160D01*
X160401000Y-126236932D01*
X160423464Y-126126000D01*
X160423464Y-124826000D01*
X160396897Y-124684810D01*
X160378140Y-124655661D01*
X160378140Y-113382464D01*
X161112140Y-113382464D01*
X161253330Y-113355897D01*
X161383005Y-113272454D01*
X161469999Y-113145134D01*
X161500604Y-112994000D01*
X161500604Y-112776000D01*
X166625017Y-112776000D01*
X166719757Y-113252288D01*
X166989552Y-113656065D01*
X167393329Y-113925860D01*
X167869617Y-114020600D01*
X167918383Y-114020600D01*
X168394671Y-113925860D01*
X168639519Y-113762258D01*
X168262022Y-114139754D01*
X167918383Y-114071400D01*
X167869617Y-114071400D01*
X167393329Y-114166140D01*
X166989552Y-114435935D01*
X166719757Y-114839712D01*
X166625017Y-115316000D01*
X166719757Y-115792288D01*
X166989552Y-116196065D01*
X167393329Y-116465860D01*
X167869617Y-116560600D01*
X167918383Y-116560600D01*
X168394671Y-116465860D01*
X168798448Y-116196065D01*
X169068243Y-115792288D01*
X169162983Y-115316000D01*
X169086538Y-114931686D01*
X169400723Y-114617500D01*
X169408234Y-114617500D01*
X169259757Y-114839712D01*
X169165017Y-115316000D01*
X169259757Y-115792288D01*
X169409379Y-116016214D01*
X169235582Y-116050785D01*
X169199296Y-116058003D01*
X169013888Y-116181888D01*
X169013886Y-116181891D01*
X168451599Y-116744178D01*
X168394671Y-116706140D01*
X167918383Y-116611400D01*
X167869617Y-116611400D01*
X167393329Y-116706140D01*
X166989552Y-116975935D01*
X166719757Y-117379712D01*
X166625017Y-117856000D01*
X166719757Y-118332288D01*
X166989552Y-118736065D01*
X167393329Y-119005860D01*
X167869617Y-119100600D01*
X167918383Y-119100600D01*
X168394671Y-119005860D01*
X168639519Y-118842258D01*
X168262022Y-119219754D01*
X167918383Y-119151400D01*
X167869617Y-119151400D01*
X167393329Y-119246140D01*
X166989552Y-119515935D01*
X166719757Y-119919712D01*
X166625017Y-120396000D01*
X166719757Y-120872288D01*
X166989552Y-121276065D01*
X167393329Y-121545860D01*
X167869617Y-121640600D01*
X167918383Y-121640600D01*
X168394671Y-121545860D01*
X168798448Y-121276065D01*
X169068243Y-120872288D01*
X169162983Y-120396000D01*
X169086538Y-120011686D01*
X169400723Y-119697500D01*
X169408234Y-119697500D01*
X169259757Y-119919712D01*
X169165017Y-120396000D01*
X169259757Y-120872288D01*
X169529552Y-121276065D01*
X169933329Y-121545860D01*
X170409617Y-121640600D01*
X170458383Y-121640600D01*
X170934671Y-121545860D01*
X171338448Y-121276065D01*
X171544624Y-120967500D01*
X178467376Y-120967500D01*
X178673552Y-121276065D01*
X179077329Y-121545860D01*
X179553617Y-121640600D01*
X179602383Y-121640600D01*
X180078671Y-121545860D01*
X180482448Y-121276065D01*
X180752243Y-120872288D01*
X180846983Y-120396000D01*
X180752243Y-119919712D01*
X180603766Y-119697500D01*
X180611276Y-119697500D01*
X180925462Y-120011686D01*
X180849017Y-120396000D01*
X180943757Y-120872288D01*
X181213552Y-121276065D01*
X181617329Y-121545860D01*
X182093617Y-121640600D01*
X182142383Y-121640600D01*
X182618671Y-121545860D01*
X183022448Y-121276065D01*
X183292243Y-120872288D01*
X183386983Y-120396000D01*
X183292243Y-119919712D01*
X183022448Y-119515935D01*
X182618671Y-119246140D01*
X182142383Y-119151400D01*
X182093617Y-119151400D01*
X181749978Y-119219754D01*
X181252112Y-118721888D01*
X181066704Y-118598003D01*
X181030418Y-118590785D01*
X180848000Y-118554499D01*
X180847995Y-118554500D01*
X180603766Y-118554500D01*
X180752243Y-118332288D01*
X180846983Y-117856000D01*
X180752243Y-117379712D01*
X180603766Y-117157500D01*
X180847995Y-117157500D01*
X180848000Y-117157501D01*
X181030418Y-117121215D01*
X181066704Y-117113997D01*
X181252112Y-116990112D01*
X181749978Y-116492246D01*
X182093617Y-116560600D01*
X182142383Y-116560600D01*
X182618671Y-116465860D01*
X183022448Y-116196065D01*
X183292243Y-115792288D01*
X183386983Y-115316000D01*
X183292243Y-114839712D01*
X183022448Y-114435935D01*
X182618671Y-114166140D01*
X182142383Y-114071400D01*
X182093617Y-114071400D01*
X181617329Y-114166140D01*
X181213552Y-114435935D01*
X180943757Y-114839712D01*
X180849017Y-115316000D01*
X180925462Y-115700314D01*
X180611276Y-116014500D01*
X180603766Y-116014500D01*
X180752243Y-115792288D01*
X180846983Y-115316000D01*
X180752243Y-114839712D01*
X180602621Y-114615786D01*
X180776418Y-114581215D01*
X180812704Y-114573997D01*
X180998112Y-114450112D01*
X181560401Y-113887822D01*
X181617329Y-113925860D01*
X182093617Y-114020600D01*
X182142383Y-114020600D01*
X182618671Y-113925860D01*
X183022448Y-113656065D01*
X183292243Y-113252288D01*
X183386983Y-112776000D01*
X183292243Y-112299712D01*
X183022448Y-111895935D01*
X182618671Y-111626140D01*
X182142383Y-111531400D01*
X182093617Y-111531400D01*
X181617329Y-111626140D01*
X181213552Y-111895935D01*
X180943757Y-112299712D01*
X180849017Y-112776000D01*
X180883321Y-112948456D01*
X180795139Y-113036638D01*
X180846983Y-112776000D01*
X180752243Y-112299712D01*
X180482448Y-111895935D01*
X180078671Y-111626140D01*
X179602383Y-111531400D01*
X179553617Y-111531400D01*
X179077329Y-111626140D01*
X178832483Y-111789740D01*
X179209978Y-111412246D01*
X179553617Y-111480600D01*
X179602383Y-111480600D01*
X180078671Y-111385860D01*
X180482448Y-111116065D01*
X180752243Y-110712288D01*
X180846983Y-110236000D01*
X180752243Y-109759712D01*
X180603766Y-109537500D01*
X180847995Y-109537500D01*
X180848000Y-109537501D01*
X181030418Y-109501215D01*
X181066704Y-109493997D01*
X181252112Y-109370112D01*
X181749978Y-108872246D01*
X182093617Y-108940600D01*
X182142383Y-108940600D01*
X182618671Y-108845860D01*
X183022448Y-108576065D01*
X183292243Y-108172288D01*
X183386983Y-107696000D01*
X183292243Y-107219712D01*
X183022448Y-106815935D01*
X182618671Y-106546140D01*
X182142383Y-106451400D01*
X182093617Y-106451400D01*
X181617329Y-106546140D01*
X181213552Y-106815935D01*
X180943757Y-107219712D01*
X180849017Y-107696000D01*
X180925462Y-108080314D01*
X180611276Y-108394500D01*
X180603766Y-108394500D01*
X180752243Y-108172288D01*
X180846983Y-107696000D01*
X180752243Y-107219712D01*
X180482448Y-106815935D01*
X180078671Y-106546140D01*
X179602383Y-106451400D01*
X179553617Y-106451400D01*
X179077329Y-106546140D01*
X178673552Y-106815935D01*
X178467376Y-107124500D01*
X169908723Y-107124500D01*
X169481500Y-106697276D01*
X169481500Y-106172000D01*
X169437997Y-105953296D01*
X169314112Y-105767888D01*
X169314109Y-105767886D01*
X169172112Y-105625888D01*
X169103435Y-105580000D01*
X168986704Y-105502003D01*
X168950418Y-105494785D01*
X168768000Y-105458499D01*
X168767995Y-105458500D01*
X168613772Y-105458500D01*
X168530000Y-105441536D01*
X168030000Y-105441536D01*
X167957500Y-105455178D01*
X167957500Y-103110352D01*
X168370288Y-103028243D01*
X168774065Y-102758448D01*
X169043860Y-102354671D01*
X169138600Y-101878383D01*
X169138600Y-101829617D01*
X169043860Y-101353329D01*
X168774065Y-100949552D01*
X168370288Y-100679757D01*
X167894000Y-100585017D01*
X167417712Y-100679757D01*
X167013935Y-100949552D01*
X166744140Y-101353329D01*
X166649400Y-101829617D01*
X166649400Y-101878383D01*
X166744140Y-102354671D01*
X166814500Y-102459972D01*
X166814500Y-106171995D01*
X166814499Y-106172000D01*
X166847681Y-106338810D01*
X166858003Y-106390704D01*
X166966445Y-106553000D01*
X166981888Y-106576112D01*
X167489886Y-107084109D01*
X167489888Y-107084112D01*
X167675296Y-107207997D01*
X167894000Y-107251500D01*
X167946228Y-107251500D01*
X168030000Y-107268464D01*
X168459351Y-107268464D01*
X168505888Y-107338112D01*
X169267886Y-108100109D01*
X169267888Y-108100112D01*
X169375908Y-108172288D01*
X169453297Y-108223998D01*
X169672000Y-108267501D01*
X169672005Y-108267500D01*
X178467376Y-108267500D01*
X178552234Y-108394500D01*
X178308005Y-108394500D01*
X178308000Y-108394499D01*
X178125582Y-108430785D01*
X178089296Y-108438003D01*
X177903888Y-108561888D01*
X177903886Y-108561891D01*
X176801276Y-109664500D01*
X171544624Y-109664500D01*
X171338448Y-109355935D01*
X170934671Y-109086140D01*
X170458383Y-108991400D01*
X170409617Y-108991400D01*
X169933329Y-109086140D01*
X169529552Y-109355935D01*
X169259757Y-109759712D01*
X169165017Y-110236000D01*
X169259757Y-110712288D01*
X169408234Y-110934500D01*
X169164005Y-110934500D01*
X169164000Y-110934499D01*
X168981582Y-110970785D01*
X168945296Y-110978003D01*
X168759888Y-111101888D01*
X168759886Y-111101891D01*
X168262022Y-111599754D01*
X167918383Y-111531400D01*
X167869617Y-111531400D01*
X167393329Y-111626140D01*
X166989552Y-111895935D01*
X166719757Y-112299712D01*
X166625017Y-112776000D01*
X161500604Y-112776000D01*
X161500604Y-108494000D01*
X161474037Y-108352810D01*
X161390594Y-108223135D01*
X161263274Y-108136141D01*
X161112140Y-108105536D01*
X160759140Y-108105536D01*
X160759140Y-106438000D01*
X161800315Y-106438000D01*
X161931000Y-106464464D01*
X162681000Y-106464464D01*
X162821643Y-106438000D01*
X163578315Y-106438000D01*
X163709000Y-106464464D01*
X164459000Y-106464464D01*
X164600190Y-106437897D01*
X164729865Y-106354454D01*
X164816859Y-106227134D01*
X164847464Y-106076000D01*
X164847464Y-105990166D01*
X165892815Y-104944816D01*
X166057996Y-104697605D01*
X166073156Y-104621391D01*
X166116000Y-104406000D01*
X166116000Y-102837336D01*
X166234065Y-102758448D01*
X166503860Y-102354671D01*
X166598600Y-101878383D01*
X166598600Y-101829617D01*
X166503860Y-101353329D01*
X166234065Y-100949552D01*
X165830288Y-100679757D01*
X165354000Y-100585017D01*
X164877712Y-100679757D01*
X164473935Y-100949552D01*
X164204140Y-101353329D01*
X164109400Y-101829617D01*
X164109400Y-101878383D01*
X164204140Y-102354671D01*
X164473935Y-102758448D01*
X164592000Y-102837336D01*
X164592000Y-104090369D01*
X163794834Y-104887536D01*
X163709000Y-104887536D01*
X163568357Y-104914000D01*
X162811685Y-104914000D01*
X162681000Y-104887536D01*
X161931000Y-104887536D01*
X161790357Y-104914000D01*
X160439296Y-104914000D01*
X160349968Y-104780312D01*
X157290115Y-101720459D01*
X157262731Y-101654183D01*
X157246660Y-101573391D01*
X157201294Y-101505496D01*
X157127437Y-101326749D01*
X156989593Y-101188664D01*
X156943828Y-101120172D01*
X156875936Y-101074808D01*
X156739295Y-100937928D01*
X156559101Y-100863105D01*
X156490609Y-100817340D01*
X156410521Y-100801410D01*
X156231903Y-100727241D01*
X156036792Y-100727071D01*
X155956000Y-100711000D01*
X155875914Y-100726930D01*
X155682507Y-100726761D01*
X155502183Y-100801269D01*
X155421391Y-100817340D01*
X155353496Y-100862706D01*
X155174749Y-100936563D01*
X155036664Y-101074407D01*
X154968172Y-101120172D01*
X154922808Y-101188064D01*
X154785928Y-101324705D01*
X154711105Y-101504899D01*
X154665340Y-101573391D01*
X154649410Y-101653479D01*
X154575241Y-101832097D01*
X154575071Y-102027208D01*
X154559000Y-102108000D01*
X154559000Y-102362000D01*
X154665340Y-102896609D01*
X154968172Y-103349828D01*
X157965140Y-106346796D01*
X157965140Y-108105536D01*
X157612140Y-108105536D01*
X157470950Y-108132103D01*
X157341275Y-108215546D01*
X157254281Y-108342866D01*
X157223676Y-108494000D01*
X157223676Y-112994000D01*
X157250243Y-113135190D01*
X157333686Y-113264865D01*
X157461006Y-113351859D01*
X157612140Y-113382464D01*
X158346140Y-113382464D01*
X158346140Y-119617019D01*
X157694160Y-120269000D01*
X150239932Y-120269000D01*
X150129000Y-120246536D01*
X148829000Y-120246536D01*
X148687810Y-120273103D01*
X148558135Y-120356546D01*
X148471141Y-120483866D01*
X148440536Y-120635000D01*
X148440536Y-121935000D01*
X148463000Y-122054385D01*
X148463000Y-124222433D01*
X148448810Y-124225103D01*
X148319135Y-124308546D01*
X148232141Y-124435866D01*
X148201536Y-124587000D01*
X148201536Y-126619000D01*
X148228103Y-126760190D01*
X148311546Y-126889865D01*
X148438866Y-126976859D01*
X148590000Y-127007464D01*
X148811863Y-127007464D01*
X148590803Y-127155172D01*
X148287971Y-127608391D01*
X148181631Y-128143000D01*
X145415000Y-128143000D01*
X145415000Y-91059000D01*
X157988000Y-91059000D01*
X157453391Y-91165340D01*
G36*
X161550000Y-129986264D02*
X162300000Y-129986264D01*
X162440643Y-129959800D01*
X163494916Y-129959800D01*
X163424135Y-130005346D01*
X163337141Y-130132666D01*
X163306536Y-130283800D01*
X163306536Y-131183800D01*
X163333103Y-131324990D01*
X163416546Y-131454665D01*
X163543866Y-131541659D01*
X163695000Y-131572264D01*
X164020433Y-131572264D01*
X164020375Y-131639161D01*
X164130350Y-131905321D01*
X164152327Y-131927336D01*
X163695000Y-131927336D01*
X163553810Y-131953903D01*
X163424135Y-132037346D01*
X163337141Y-132164666D01*
X163306536Y-132315800D01*
X163306536Y-133215800D01*
X163333103Y-133356990D01*
X163416546Y-133486665D01*
X163494312Y-133539800D01*
X162430685Y-133539800D01*
X162300000Y-133513336D01*
X161550000Y-133513336D01*
X161417000Y-133538362D01*
X161417000Y-129959800D01*
X161419315Y-129959800D01*
X161550000Y-129986264D01*
X161550000Y-129986264D01*
G37*
X161550000Y-129986264D02*
X162300000Y-129986264D01*
X162440643Y-129959800D01*
X163494916Y-129959800D01*
X163424135Y-130005346D01*
X163337141Y-130132666D01*
X163306536Y-130283800D01*
X163306536Y-131183800D01*
X163333103Y-131324990D01*
X163416546Y-131454665D01*
X163543866Y-131541659D01*
X163695000Y-131572264D01*
X164020433Y-131572264D01*
X164020375Y-131639161D01*
X164130350Y-131905321D01*
X164152327Y-131927336D01*
X163695000Y-131927336D01*
X163553810Y-131953903D01*
X163424135Y-132037346D01*
X163337141Y-132164666D01*
X163306536Y-132315800D01*
X163306536Y-133215800D01*
X163333103Y-133356990D01*
X163416546Y-133486665D01*
X163494312Y-133539800D01*
X162430685Y-133539800D01*
X162300000Y-133513336D01*
X161550000Y-133513336D01*
X161417000Y-133538362D01*
X161417000Y-129959800D01*
X161419315Y-129959800D01*
X161550000Y-129986264D01*
G36*
X178443535Y-93853946D02*
X178356541Y-93981266D01*
X178325936Y-94132400D01*
X178325936Y-94488000D01*
X178308000Y-94488000D01*
X178113596Y-94526669D01*
X177948790Y-94636790D01*
X176531464Y-96054116D01*
X176531464Y-95600000D01*
X176504897Y-95458810D01*
X176421454Y-95329135D01*
X176294134Y-95242141D01*
X176143000Y-95211536D01*
X175437562Y-95211536D01*
X174520464Y-94294438D01*
X174520464Y-93853000D01*
X178445005Y-93853000D01*
X178443535Y-93853946D01*
X178443535Y-93853946D01*
G37*
X178443535Y-93853946D02*
X178356541Y-93981266D01*
X178325936Y-94132400D01*
X178325936Y-94488000D01*
X178308000Y-94488000D01*
X178113596Y-94526669D01*
X177948790Y-94636790D01*
X176531464Y-96054116D01*
X176531464Y-95600000D01*
X176504897Y-95458810D01*
X176421454Y-95329135D01*
X176294134Y-95242141D01*
X176143000Y-95211536D01*
X175437562Y-95211536D01*
X174520464Y-94294438D01*
X174520464Y-93853000D01*
X178445005Y-93853000D01*
X178443535Y-93853946D01*
M02*
